<?xml version="1.0" encoding="UTF-8"?>
<svg width="596px" height="235px" viewBox="0 0 596 235" version="1.1" xmlns="http://www.w3.org/2000/svg" xmlns:xlink="http://www.w3.org/1999/xlink">
    <!-- Generator: Sketch 55.2 (78181) - https://sketchapp.com/ -->
    <title>Artboard</title>
    <desc>Created with Sketch.</desc>
    <g id="Artboard" stroke="none" stroke-width="1" fill="none" fill-rule="evenodd">
        <g id="PBBC_SquareMark_White" transform="translate(361.000000, 0.000000)" fill="#FFFFFF" fill-rule="nonzero">
            <path d="M223,223 L12,223 L12,12 L223,12 L223,223 Z M14.9693493,220.030651 L220.030651,220.030651 L220.030651,14.9693493 L14.9693493,14.9693493 L14.9693493,220.030651 Z" id="Shape"></path>
            <polygon id="Rectangle" transform="translate(42.071266, 42.073836) rotate(-45.000000) translate(-42.071266, -42.073836) " points="40.5894609 1.60487736 43.553072 1.60487736 43.553072 82.542794 40.5894609 82.542794"></polygon>
            <polygon id="Rectangle" transform="translate(42.072818, 192.927716) rotate(-45.000000) translate(-42.072818, -192.927716) " points="1.60385983 191.44591 82.5417765 191.44591 82.5417765 194.409522 1.60385983 194.409522"></polygon>
            <polygon id="Rectangle" transform="translate(192.929006, 192.928472) rotate(-45.000000) translate(-192.929006, -192.928472) " points="191.447201 152.462778 194.410812 152.462778 194.410812 233.394167 191.447201 233.394167"></polygon>
            <polygon id="Rectangle" transform="translate(192.927455, 42.069976) rotate(-45.000000) translate(-192.927455, -42.069976) " points="152.46176 40.5881705 233.393149 40.5881705 233.393149 43.5517816 152.46176 43.5517816"></polygon>
            <path d="M217.649167,235 L17.3508333,235 C7.77270655,234.989208 0.0107922658,227.227293 0,217.649167 L0,17.3508333 C0.0107922658,7.77270655 7.77270655,0.0107922658 17.3508333,0 L217.649167,0 C227.227293,0.0107922658 234.989208,7.77270655 235,17.3508333 L235,217.649167 C234.989208,227.227293 227.227293,234.989208 217.649167,235 Z M17.3508333,2.96361111 C9.42982394,2.98869479 3.01480591,9.40371283 2.98972222,17.3247222 L2.98972222,217.649167 C3.01480591,225.570176 9.42982394,231.985194 17.3508333,232.010278 L217.649167,232.010278 C225.570176,231.985194 231.985194,225.570176 232.010278,217.649167 L232.010278,17.3508333 C231.985194,9.42982394 225.570176,3.01480591 217.649167,2.98972222 L17.3508333,2.96361111 Z" id="Shape"></path>
            <polygon id="Rectangle" transform="translate(37.609707, 196.739314) rotate(-45.000000) translate(-37.609707, -196.739314) " points="36.1279012 162.576189 39.0915123 162.576189 39.0915123 230.902439 36.1279012 230.902439"></polygon>
            <polygon id="Rectangle" transform="translate(196.742912, 197.384660) rotate(-45.000000) translate(-196.742912, -197.384660) " points="162.579787 195.902854 230.906037 195.902854 230.906037 198.866465 162.579787 198.866465"></polygon>
            <polygon id="Rectangle" transform="translate(197.383642, 38.256071) rotate(-45.000000) translate(-197.383642, -38.256071) " points="195.901837 4.09294566 198.865448 4.09294566 198.865448 72.4191957 195.901837 72.4191957"></polygon>
            <polygon id="Rectangle" transform="translate(38.255053, 37.615340) rotate(-45.000000) translate(-38.255053, -37.615340) " points="4.09192813 36.1335346 72.4181781 36.1335346 72.4181781 39.0971457 4.09192813 39.0971457"></polygon>
            <rect id="Rectangle" x="116" y="2" width="3" height="12"></rect>
            <rect id="Rectangle" x="2" y="116" width="12" height="3"></rect>
            <rect id="Rectangle" x="116" y="221" width="3" height="12"></rect>
            <rect id="Rectangle" x="221" y="116" width="12" height="3"></rect>
            <path d="M54.4902462,101.811771 C53.9283945,101.57659 53.352113,101.377821 52.7649456,101.216688 C52.1228993,101.05032 51.4703392,100.92797 50.8117752,100.850482 C50.1021233,100.76547 49.307834,100.706616 48.4289073,100.66738 C47.5499806,100.628144 46.4757368,100.621604 45.2777923,100.621604 C44.769968,100.621604 44.2556331,100.621604 43.7282771,100.621604 C43.200921,100.621604 42.6540333,100.621604 42.0811033,100.621604 L37.3023463,100.726234 L26,100.726234 C27.2272315,102.053613 28.1006384,103.670942 28.5391216,105.428047 C29.1010686,107.798279 29.3570822,110.231281 29.300858,112.667138 L29.300858,123.679449 C29.300858,124.333387 29.300858,124.954628 29.300858,125.543172 C29.300858,126.131716 29.2617946,126.674484 29.2227312,127.158398 C29.1576256,127.746942 29.0990304,128.361644 29.0469459,128.995963 C28.9948613,129.630283 28.9362662,130.303839 28.8711606,130.997013 C28.7995443,131.513624 28.7409492,131.958301 28.6953752,132.304888 C28.6498012,132.651475 28.5912061,133.011141 28.5391216,133.318492 C28.487037,133.625843 28.4284419,133.933193 28.3633362,134.227465 C28.2982306,134.521737 28.2070826,134.881403 28.1094241,135.293384 L45.7530638,135.293384 C45.4800281,135.109368 45.2170546,134.910719 44.965285,134.698301 C44.7508097,134.513352 44.5485541,134.314571 44.3598022,134.103217 C44.1658039,133.886771 43.9955496,133.649991 43.8519779,133.396964 C43.6704512,133.087559 43.5095057,132.766428 43.3701958,132.435676 C43.1268771,131.945481 42.9306713,131.433088 42.7842447,130.905462 C42.6345016,130.369233 42.4847585,129.806846 42.3545472,129.218302 C42.1820703,128.395605 42.0559985,127.563779 41.9769342,126.726799 C41.8901267,125.854882 41.8315315,124.764986 41.8011489,123.457111 C42.6800756,123.561741 43.4938966,123.627134 44.2361014,123.666371 C44.9783061,123.705607 45.7595743,123.718686 46.5733953,123.718686 C48.6086488,123.74449 50.6363097,123.464563 52.5891603,122.888185 C54.2385886,122.39568 55.7835244,121.60206 57.146558,120.547088 C58.4018361,119.567109 59.4062263,118.300461 60.0763137,116.852339 C60.7699433,115.319377 61.116805,113.651093 61.0919623,111.967424 C61.1208776,109.759946 60.5027683,107.592676 59.3145772,105.735397 C58.1680947,103.940724 56.4763965,102.564866 54.4902462,101.811771 L54.4902462,101.811771 Z M46.3129726,115.178259 C45.3508753,115.988455 44.1153568,116.395873 42.8623715,116.31611 C42.5889276,116.31611 42.3545472,116.31611 42.146209,116.31611 C41.9378708,116.31611 41.7100009,116.276874 41.4365571,116.237638 L41.4365571,108.115731 L43.4678543,108.115731 C43.9668315,108.096505 44.4651939,108.167382 44.9392427,108.324991 C45.491738,108.500558 45.9971568,108.800231 46.4171417,109.201268 C47.1615699,109.939495 47.5651604,110.956492 47.5304489,112.00666 C47.5971351,113.190451 47.1536134,114.345851 46.3129726,115.178259 L46.3129726,115.178259 Z M206.889625,120.573245 C205.337253,118.969835 203.32104,117.898916 201.127773,117.512816 C203.046012,116.970413 204.761105,115.868989 206.056273,114.347758 C207.232853,112.915942 207.862997,111.109882 207.833658,109.253583 C207.868215,107.427124 207.285258,105.642851 206.179973,104.192104 C205.050715,102.738595 203.469072,101.707129 201.687681,101.262463 C201.179857,101.125136 200.672033,101.000888 200.164208,100.896258 C199.602916,100.78414 199.035502,100.70553 198.46495,100.66084 C197.813893,100.615065 197.117263,100.575829 196.303442,100.56275 C195.489621,100.549671 194.545588,100.56275 193.458323,100.56275 C193.087221,100.56275 192.716118,100.56275 192.345016,100.56275 C191.973914,100.56275 191.615832,100.56275 191.277283,100.56275 L187.722513,100.608525 L184.36957,100.713155 L172.383614,100.713155 C174.553804,102.518024 175.638898,105.807331 175.638898,110.581076 L175.638898,121.04408 C175.638898,124.126307 175.536899,126.816171 175.332902,129.113672 C175.162632,131.203107 174.840586,133.277253 174.369337,135.319541 L183.90732,135.319541 C184.447697,135.319541 185.020627,135.319541 185.63262,135.319541 L187.46209,135.371856 C188.074083,135.371856 188.627482,135.371856 189.135306,135.371856 L191.420515,135.424171 L193.608066,135.424171 C194.962265,135.424171 196.088593,135.424171 196.980541,135.424171 C197.872488,135.424171 198.660267,135.365317 199.317835,135.293384 C199.905705,135.236495 200.490262,135.149187 201.069177,135.031809 C201.577002,134.927179 202.117379,134.789852 202.696819,134.619828 C203.605389,134.345471 204.463108,133.92355 205.235941,133.370807 C206.004123,132.82832 206.681074,132.166034 207.241196,131.408994 C207.799327,130.650134 208.238455,129.809892 208.54331,128.917491 C208.851048,127.996675 209.00504,127.031075 208.999049,126.059783 C209.030629,124.02542 208.274311,122.058263 206.889625,120.573245 L206.889625,120.573245 Z M187.670428,107.906471 C188.38008,107.906471 188.920457,107.854156 189.29807,107.854156 L190.600184,107.854156 C191.228924,107.841079 191.857315,107.893677 192.475227,108.011101 C192.933764,108.10826 193.366509,108.302185 193.744788,108.580027 C194.489016,109.163193 194.906268,110.072051 194.864606,111.019214 C194.864606,113.2753 193.354154,114.393533 190.346272,114.393533 L187.702981,114.393533 L187.670428,107.906471 Z M194.832053,126.805272 C194.328539,127.433264 193.616679,127.858091 192.826798,128.001978 C192.541954,128.066688 192.252382,128.108238 191.960893,128.126226 C191.687449,128.126226 191.264262,128.126226 190.658779,128.126226 L187.611833,128.126226 L187.611833,121.096395 L190.658779,121.096395 C191.279043,121.083221 191.899393,121.118201 192.514291,121.201025 C192.9545,121.274656 193.376604,121.432258 193.757809,121.665321 C194.303643,121.9575 194.755308,122.399823 195.059923,122.9405 C195.405625,123.463663 195.601563,124.072177 195.626342,124.699592 C195.618862,125.46932 195.347552,126.212951 194.858095,126.805272 L194.832053,126.805272 Z M113.08536,61.9608041 C113.080409,64.0615549 112.103634,66.0406654 110.442069,67.3165543 C95.8312379,78.5938829 86.7757388,95.6552269 85.5977408,114.125419 L149.401309,114.125419 C148.226336,95.6592392 139.175619,78.6003462 124.570002,67.3230937 C122.908204,66.0444998 121.931632,64.0633845 121.926711,61.9608041 L121.926711,61.9608041 C121.928408,59.8755626 122.889721,57.9082195 124.530938,56.6312114 L149.551052,37.0130788 C149.551052,37.0130788 125.800499,40.3416219 117.499525,49.4248173 C109.875649,40.3612401 85.47404,37 85.47404,37 L110.494153,56.6181326 C112.136466,57.8986867 113.093787,59.8725364 113.08536,61.9608041 L113.08536,61.9608041 Z M109.686843,87.091632 C113.203425,87.091632 116.054179,89.9549999 116.054179,93.4871433 L103.352057,93.4871433 C103.348443,89.9662501 106.181489,87.1060453 109.686843,87.091632 L109.686843,87.091632 Z M94.4846663,106.389335 C94.4846663,102.857192 97.3354196,99.9938239 100.852002,99.9938239 C104.368584,99.9938239 107.219338,102.857192 107.219338,106.389335 L94.4846663,106.389335 Z M111.132189,106.389335 C111.132189,102.857192 113.982942,99.9938239 117.499525,99.9938239 C121.016107,99.9938239 123.86686,102.857192 123.86686,106.389335 L111.132189,106.389335 Z M140.514383,106.389335 L127.786222,106.389335 C127.896122,102.938563 130.712976,100.198304 134.150303,100.198304 C137.58763,100.198304 140.404484,102.938563 140.514383,106.389335 L140.514383,106.389335 Z M126.366919,87.1112502 C129.883501,87.1112502 132.734254,89.9746181 132.734254,93.5067614 L119.999553,93.5067614 C119.994392,91.8071698 120.662943,90.175402 121.857613,88.9717646 C123.052283,87.7681272 124.674807,87.091632 126.366919,87.091632 L126.366919,87.1112502 Z M117.499525,74.1109642 C119.187648,74.1092321 120.807222,74.7815877 122.001517,75.9799405 C123.195811,77.1782933 123.86686,78.8043451 123.86686,80.4999395 L111.132189,80.4999395 C111.132189,78.8043451 111.803238,77.1782933 112.997533,75.9799405 C114.191827,74.7815877 115.811401,74.1092321 117.499525,74.1109642 L117.499525,74.1109642 Z M121.91369,174.052275 C121.91861,171.949694 122.895183,169.968579 124.556981,168.689985 C139.171136,157.415485 148.227501,140.352508 149.401309,121.881121 L85.5977408,121.881121 C86.7724715,140.350712 95.8258451,157.412523 110.435558,168.689985 C112.094908,169.96992 113.068972,171.950826 113.072338,174.052275 L113.072338,174.052275 C113.070642,176.137516 112.109328,178.104859 110.468111,179.381867 L85.4479977,199 C85.4479977,199 109.172508,195.671457 117.473482,186.614419 C125.097358,195.671457 149.498967,199 149.498967,199 L124.478854,179.381867 C122.854644,178.095012 121.908928,176.130117 121.91369,174.052275 Z M140.546936,129.636822 C139.980337,132.273208 139.225326,134.865154 138.287769,137.392524 L96.7177912,137.392524 C95.7781102,134.865297 95.0209243,132.273353 94.4521135,129.636822 L140.546936,129.636822 Z M117.499525,164.812134 C116.80566,163.973867 116.021818,163.215067 115.162231,162.54951 C109.068785,157.828586 103.999757,151.907095 100.266051,145.148226 L134.732999,145.148226 C130.999292,151.907095 125.930264,157.828586 119.836819,162.54951 C118.978762,163.216847 118.195105,163.975469 117.499525,164.812134 L117.499525,164.812134 Z M122.94236,153.786744 C122.94236,154.292367 122.534276,154.702256 122.03088,154.702256 C121.527484,154.702256 121.119401,154.292367 121.119401,153.786744 C121.119401,153.28112 121.527484,152.871231 122.03088,152.871231 C122.534276,152.871231 122.94236,153.28112 122.94236,153.786744 L122.94236,153.786744 Z M116.568523,151.51104 C116.571146,152.430016 116.021685,153.259853 115.176904,153.612753 C114.332122,153.965652 113.358837,153.771928 112.711883,153.122111 C112.064929,152.472295 111.872059,151.494703 112.223404,150.646183 C112.574748,149.797663 113.400929,149.245771 114.315857,149.248406 C115.558481,149.252007 116.564938,150.262918 116.568523,151.51104 L116.568523,151.51104 Z" id="Shape"></path>
        </g>
        <g id="PBBC_Name&amp;MarkBadge_White" fill="#FFFFFF" fill-rule="nonzero">
            <polygon id="Path" points="227.425033 133.266642 217.405476 125 216.838331 128.995863 223.80704 134.570891 223.800522 134.628432 215.567145 138.004137 215 142 226.910039 136.910869 234.485007 138.01053 235 134.35991"></polygon>
            <path d="M6,106.002915 C6.07149107,107.159075 7.19287972,108.047453 8.50981704,107.991224 C9.37064684,108.062156 10.202976,107.6989 10.6584183,107.053504 C11.1138606,106.408108 11.1138606,105.591892 10.6584183,104.946496 C10.202976,104.3011 9.37064684,103.937844 8.50981704,104.008776 C7.19042251,103.952612 6.06797421,104.844437 6,106.002915 L6,106.002915 Z" id="Path"></path>
            <path d="M162.394684,122.211063 C162.394684,124.106551 162.320934,125.789957 162.173436,127.26128 C162.047084,128.823103 161.810034,130.37358 161.464141,131.900586 L169.331458,131.900586 L171.556952,131.960235 L172.350842,131.960235 L174.03623,132 L176.762786,132 L178.135825,132 C178.786554,132 179.372211,131.960235 179.860257,131.907214 C180.348304,131.854193 180.771278,131.787917 181.161716,131.715014 C181.552154,131.642111 181.936084,131.529442 182.359058,131.403518 C183.028149,131.197492 183.660767,130.884285 184.233158,130.475656 C184.799336,130.068467 185.298006,129.571766 185.710314,129.004333 C186.119306,128.439512 186.439805,127.813496 186.660378,127.148611 C186.889548,126.463813 187.003938,125.74462 186.998758,125.021157 C187.02999,123.498614 186.471265,122.024789 185.443515,120.918685 C184.298453,119.723899 182.814778,118.924313 181.20076,118.632169 C182.61472,118.231331 183.879038,117.409795 184.831829,116.27275 C185.695636,115.207591 186.157217,113.863068 186.133288,112.481774 C186.162285,111.120113 185.732873,109.789352 184.916424,108.710681 C184.081351,107.627374 182.916054,106.857912 181.604212,106.523579 C181.226789,106.424165 180.855873,106.331379 180.47845,106.251848 C180.065267,106.171955 179.648215,106.114435 179.22905,106.079531 L178.480711,106.033138 L177.634763,106 L176.665177,106 L175.539415,106 L174.719496,106 L174.316044,106 L171.309675,106.039765 L168.843411,106.119296 L160,106.119296 L160.273306,106.364517 C161.691896,107.751891 162.399022,110.120146 162.394684,113.469284 L162.394684,122.211063 L162.394684,122.211063 Z M171.270631,111.454499 L171.836766,111.454499 L172.285769,111.454499 L173.398516,111.454499 C173.863132,111.442528 174.327699,111.480291 174.784569,111.567168 C175.133682,111.633048 175.464534,111.775525 175.754156,111.984706 C176.30069,112.422081 176.608051,113.09993 176.580582,113.80729 C176.580582,115.481859 175.470004,116.319144 173.248848,116.319144 L171.29666,116.319144 L171.270631,111.454499 Z M171.270631,121.283202 L173.873548,121.283202 C174.217477,121.284162 174.560959,121.308518 174.9017,121.356105 C175.225215,121.41456 175.535915,121.531262 175.819229,121.700739 C176.225291,121.918013 176.561754,122.249197 176.788815,122.655111 C177.013918,123.046966 177.130835,123.493508 177.127195,123.947489 C177.133112,124.524452 176.939621,125.085158 176.580582,125.531481 C176.212098,126.004767 175.686994,126.325182 175.103426,126.432832 C174.888909,126.47919 174.671467,126.510195 174.452697,126.525618 L174.322551,126.525618 L173.977665,126.525618 L171.277138,126.525618 L171.270631,121.283202 Z" id="Shape"></path>
            <path d="M202.859346,188.389686 L198.10267,184 L194.042873,184.096125 L186,192.426915 L199.598721,205 L202.085747,202.43668 L197.469725,198.168752 L203,192.433323 L202.859346,188.389686 Z M195.251222,196.079646 L190.705528,191.882209 L195.123355,187.306683 L196.440391,187.268233 L199.637082,190.209643 L199.675442,191.491303 L195.251222,196.079646 Z" id="Shape"></path>
            <polygon id="Path" points="211.910267 149.168188 223.394305 153.431551 223.368996 153.477184 209.094622 156.762712 208 159.715776 224.919183 166 226.09606 162.825293 214.637331 158.574967 214.656313 158.522816 228.911705 155.230769 230 152.277705 213.087144 146"></polygon>
            <path d="M23,89.5900838 L16.9476074,87.4937151 L19.6021656,79.8711592 L17.8435208,76.1560754 L11.6185819,74 L7.8889277,75.7513966 L4,86.8369413 L21.825358,93 L23,89.5900838 Z M14.0475026,86.4919693 L8.07474677,84.4287709 L10.2382117,78.3121508 L11.4393992,77.7416201 L15.6070555,79.1812151 L16.1844219,80.3753492 L14.0475026,86.4919693 Z" id="Shape"></path>
            <polygon id="Path" points="30.9836066 183.142988 33.3816508 181.526123 28.5918896 174.134739 32.3566293 171.600367 37.5576647 179.620532 40 177.971586 32.8944492 167 18 177.028414 25.1182053 188 27.5605407 186.351054 22.3595053 178.330889 26.187518 175.751604"></polygon>
            <path d="M199,171.84602 L210.934005,188 L212.903758,184.835545 L210.266728,181.253142 L213.769936,175.607542 L218.036664,176.576117 L220,173.411662 L200.751604,169 L199,171.84602 Z M203.600367,172.874302 L210.850596,174.652235 L208.213566,178.891411 L203.574702,172.92074 L203.600367,172.874302 Z" id="Shape"></path>
            <polygon id="Path" points="63.5 200 52 215.120346 55.5066667 217 67 201.873261"></polygon>
            <polygon id="Path" points="76.9220898 223.432269 76.8707608 223.413287 74.1824015 209.208513 71.2181485 208 64 224.375036 67.1888176 225.678458 72.071494 214.580385 72.116407 214.605695 74.8175985 228.78516 77.7882676 230 85 213.618637 81.8111824 212.321542"></polygon>
            <polygon id="Path" points="56.2478612 196.113909 45.1799071 204.409924 45.1007089 204.330726 51.7335615 191.850403 49.6876069 189.916646 37.5306771 197.189685 37.4514789 197.110486 45.1139086 185.593742 42.3617697 183 32 199.783427 34.5475434 202.192374 46.7308726 195.011733 46.8100709 195.090931 40.2696162 207.591054 42.8171596 210 59 198.707651"></polygon>
            <polygon id="Path" points="95.7092892 215 92.2185032 217.451108 90 229.765319 92.4039112 233.33116 101.271531 235 104.76871 232.542373 106.066566 225.338983 98.8356525 223.983051 98.2858217 227.02086 102.134637 227.744459 101.616773 230.599739 100.133509 231.642764 94.8014291 230.638853 93.7337345 229.061278 95.4599473 219.471969 97.0071455 218.383312 102.294472 219.380704 103.272659 220.83442 103.004137 222.327249 106.494923 222.985658 107 220.182529 104.634449 216.675359"></polygon>
            <path d="M20.3336389,164.290007 L25.4280477,162.252123 L27,158.627041 L22.8166819,148 L6,154.714566 L7.2832264,157.980405 L13.6993584,155.400392 L15.771769,160.677988 L14.7387718,162.774657 L9.91384051,164.734161 L11.1970669,168 L16.791934,165.805356 L18.004583,163.297191 L20.3336389,164.290007 Z M16.4262145,154.361855 L21.3730522,152.402351 L23.6700275,158.241672 L23.1631531,159.423906 L19.8973419,160.730242 L18.7167736,160.194644 L16.4262145,154.361855 Z" id="Shape"></path>
            <path d="M11.5319426,142.925676 L12.7640156,143.817568 L17.8357236,142.952703 L20,139.817568 L18.1290743,128 L0,131.135135 L1.95567145,143.567568 L5.21512386,146 L9.95436767,145.189189 L11.5319426,142.925676 Z M15.7431551,132.114865 L16.7535854,138.493243 L15.9973924,139.587838 L13.2007823,140.067568 L12.1186441,139.243243 L11.0821382,132.885135 L15.7431551,132.114865 Z M8.47457627,141.709459 L5.93220339,142.148649 L4.62842243,141.175676 L3.5202086,134.182432 L8.28552803,133.364865 L9.39374185,140.364865 L8.47457627,141.709459 Z" id="Shape"></path>
            <polygon id="Path" points="137.965777 227.920469 138.183152 229.445893 137.10267 230.873533 131.757804 231.629726 130.204212 230.456323 128.829635 220.671447 129.999624 219.113429 135.338097 218.363755 136.776608 219.439374 136.987589 220.971317 140.625423 220.456323 140.216247 217.594524 136.776608 215 127.640466 216.284224 125 219.791395 126.764573 232.359844 130.274539 235 139.410681 233.715776 142 230.267275 141.597217 227.405476"></polygon>
            <polygon id="Path" points="176.959599 196.833505 179.011837 209.713073 178.966804 209.738806 167.766341 202.932321 165 204.765826 175.274061 220 178.149768 218.095728 171.896552 208.82527 171.941585 208.793103 180.266341 213.598816 182.112712 212.37648 180.826042 202.900154 180.871076 202.867988 187.124292 212.138446 190 210.227741 179.725939 195"></polygon>
            <polygon id="Path" points="97.1056788 20.4353804 95.1876645 7.86617782 95.2388116 7.85976169 104.950357 19.0879927 108 18.5618698 105.167732 0 101.894321 0.564619615 103.818729 13.1594867 103.767582 13.1659028 94.0496427 1.91200733 91 2.43813016 93.8322678 21"></polygon>
            <path d="M123.561387,164.049933 C122.415259,163.044881 121.785359,161.580054 121.846439,160.061837 C121.907519,158.543621 122.653083,157.133495 123.876289,156.222672 C135.032845,147.76542 141.959591,134.919376 142.868791,121 L94.1049672,121 L94.1705717,121.893612 C95.3148396,135.478978 102.188539,147.948249 113.090909,156.216149 C114.256606,157.096359 114.987371,158.430763 115.098407,159.881916 L115.098407,160.247188 L115.098407,160.605938 C114.995025,162.046488 114.279203,163.375004 113.130272,164.258659 L94,179 L95.4629803,178.765182 L96.7750703,178.536887 L98.8153702,178.125956 L100.219306,177.819388 L101.741331,177.460639 L102.797563,177.186685 L103.886598,176.893162 L105.001874,176.573549 L106.130272,176.234368 L107.26523,175.862573 L108.400187,175.47121 L109.528585,175.053756 L110.643861,174.603689 C113.779756,173.299145 116.653233,171.674989 118.516401,169.679037 C120.628866,172.144624 124.420806,174.049258 128.402999,175.47121 L129.537957,175.862573 L130.686036,176.234368 L131.820993,176.573549 L132.94283,176.893162 L134.051546,177.186685 L135.12746,177.460639 L136.669166,177.819388 L137.640112,178.028115 L138.552015,178.217274 L140.185567,178.536887 L141.497657,178.765182 L143,179 L123.836926,164.297796 L123.561387,164.049933 Z M102.180881,131.553756 C101.654104,130.01658 101.216027,128.450754 100.868791,126.863923 L136.111528,126.863923 L135.835989,128.051057 C135.443178,129.625617 134.959083,131.176265 134.386129,132.695232 L102.594189,132.695232 L102.180881,131.553756 Z M118.483599,153.326586 C117.953176,152.694004 117.35481,152.120952 116.699157,151.617634 C112.045053,148.074002 108.169282,143.621192 105.310216,138.533063 L131.663543,138.533063 L131.119025,139.465812 C128.319603,144.170885 124.638255,148.298269 120.274602,151.624157 C119.615533,152.123357 119.014786,152.694394 118.483599,153.326586 L118.483599,153.326586 Z" id="Shape"></path>
            <path d="M62.7931553,36.0627338 L59.4685972,30.7004317 L66.1368936,26.4017266 L67,22.4069065 L63.5731478,16.9053237 L59.7371192,16 L50,22.2359712 L59.7946596,38 L62.7931553,36.0627338 Z M54.5968409,22.8690647 L59.9289206,19.4376978 L61.2075968,19.7225899 L63.5028206,23.4198561 L63.2151185,24.6860432 L57.8766454,28.1364029 L54.5968409,22.8690647 Z" id="Shape"></path>
            <path d="M115.993548,142 C114.889826,142.003571 113.997633,142.900572 114,144.004298 C114.002376,145.108023 114.898416,146.001182 116.002144,146 C117.105871,145.998816 118,145.103739 118,144.00001 C118,143.468458 117.788404,142.95877 117.411934,142.583511 C117.035465,142.208252 116.525098,141.998296 115.993548,142 L115.993548,142 Z" id="Path"></path>
            <path d="M65.8538738,106 L64.3997113,106 L63.2599624,106 L62.0416101,106 L61.3865819,106 L57.7118741,106.073484 L49,106.073484 L49.3275141,106.440904 C50.0948673,107.356352 50.650107,108.436369 50.9519838,109.600719 C51.3843143,111.373963 51.5804033,113.19853 51.5349589,115.02518 L51.5349589,123.756423 L51.5349589,124.671634 C51.5349589,124.818602 51.5349589,124.95889 51.5349589,125.099178 L51.4956572,125.874101 C51.4432549,126.321686 51.397403,126.775951 51.3581013,127.256937 L51.2925985,127.991778 L51.2205454,128.75334 L51.1091906,129.481501 L50.9519838,130.530319 C50.9126821,130.766358 50.8668302,130.989037 50.8144279,131.198356 L50.6179195,132 L64.2097532,132 L63.9870436,131.846351 C63.8429374,131.746146 63.7184821,131.64594 63.6071273,131.552415 C63.442314,131.41178 63.2848886,131.262378 63.135507,131.10483 C62.9886713,130.943412 62.8591178,130.766497 62.7490405,130.577081 C62.6107964,130.344277 62.486125,130.103366 62.3756744,129.855601 L62.2053671,129.488181 C62.0917582,129.237017 61.995454,128.978081 61.9171547,128.713258 C61.7992497,128.312436 61.6878949,127.884892 61.5830904,127.443988 C61.4501226,126.822484 61.3538785,126.193397 61.294878,125.560123 C61.2555763,125.165982 61.2228249,124.705036 61.1966238,124.224049 L61.1573221,123.115108 C61.8123502,123.195272 62.4673784,123.248715 63.0307025,123.268756 C63.5940267,123.288798 64.2032029,123.308839 64.8320299,123.308839 C66.3919522,123.332853 67.9471634,123.128123 69.4499782,122.700925 C70.716629,122.339287 71.9084317,121.746264 72.9674793,120.950668 C73.9231984,120.228813 74.6939418,119.282345 75.2142258,118.191675 C76.4406804,115.504855 76.2202567,112.362687 74.6312507,109.881295 C73.737933,108.509758 72.4358405,107.467538 70.9172412,106.90853 C70.4906445,106.730219 70.0530155,106.580702 69.607185,106.460946 C69.1177244,106.337674 68.6210892,106.246191 68.1202711,106.18705 C67.5765978,106.126927 66.9608713,106.080164 66.2861924,106.053443 L65.8538738,106 Z M64.6355215,116.902364 C63.8851888,117.516724 62.9362611,117.821835 61.9761073,117.757451 L61.5896407,117.757451 L61.4258836,117.757451 L60.87566,117.704008 L60.87566,111.631552 L62.4411772,111.631552 L62.7752416,111.631552 C63.0470479,111.642188 63.3160474,111.691659 63.5743759,111.77852 C63.9964254,111.911772 64.3837053,112.14008 64.7075746,112.446557 C65.2779942,112.986021 65.5910227,113.751235 65.5656614,114.544193 C65.6166941,115.436413 65.2758175,116.305529 64.6355215,116.915725 L64.6355215,116.902364 Z" id="Shape"></path>
            <path d="M121.5,144 C121.223858,144 121,144.223858 121,144.5 C121,144.776142 121.223858,145 121.5,145 C121.776142,145 122,144.776142 122,144.5 C122,144.223858 121.776142,144 121.5,144 Z" id="Path"></path>
            <path d="M77.0240326,8 L74,9.20623281 L74.4757637,29 L77.8452138,27.6590284 L77.7474542,23.2703941 L83.7498982,20.8771769 L86.6305499,24.1494042 L90,22.8084326 L77.0240326,8 Z M77.4281059,20.1906508 L77.0696538,12.7415215 L77.1152749,12.7415215 L81.9446029,18.4069661 L77.4281059,20.1906508 Z" id="Shape"></path>
            <path d="M127.153219,19 L130.308883,16.1407123 L131,3.74825419 L128.189894,0.543994413 L118.846781,0 L115.710676,2.85928771 L115,15.2583799 L117.816626,18.4626397 L127.153219,19 Z M119.146699,4.43819832 L120.541972,3.17108939 L126.149144,3.48952514 L127.394458,4.91585196 L126.853301,14.5949721 L125.490628,15.8289106 L119.883456,15.5038408 L118.638142,14.084148 L119.146699,4.43819832 Z" id="Shape"></path>
            <path d="M118.509843,67.2997167 C116.114638,64.5130878 111.567028,62.4428329 106.973483,60.9706516 L105.792286,60.6026062 L104.617651,60.2608499 L103.462703,59.9453824 L102.379938,59.656204 L101.264363,59.4130312 L100.21441,59.1764306 L98.7379135,58.8609632 L97.8388911,58.6769405 L96.6248828,58.4534844 L95.3124414,58.2300283 L94,58.026289 L113.135396,72.7612465 L113.411008,72.9912748 C114.549983,73.9923798 115.175726,75.4557235 115.113276,76.9721442 C115.050825,78.4885649 114.306883,79.8953285 113.08946,80.7990935 C101.958487,89.2165167 95.0282143,102.062155 94.0984331,116 L142.875318,116 L142.809696,115.106176 C141.646104,101.499467 134.766376,89.0282202 123.884291,80.7990935 C122.615851,79.8488982 121.867258,78.3567281 121.863131,76.7703116 L121.863131,76.4088385 C121.966573,74.9664484 122.683549,73.638015 123.831793,72.7612465 L143,58 L142.409401,58.0985836 L140.795098,58.3680453 L139.259542,58.6572238 L138.373644,58.8412465 L136.929958,59.1567139 L135.899692,59.3933144 L134.82349,59.6627762 L133.707915,59.9519547 L132.566091,60.2674221 L131.40458,60.6091785 L130.813982,60.7932011 L129.639346,61.1743909 C125.347663,62.6268555 121.010044,64.6708215 118.509843,67.2997167 Z M107.701888,100.160907 C107.892355,97.5515955 110.104797,95.5577309 112.715709,95.6424242 C115.326621,95.7271174 117.405601,97.8601878 117.427079,100.476374 L107.695326,100.476374 L107.701888,100.160907 Z M100.916566,110.163853 L100.916566,109.848385 C101.107033,107.239074 103.319475,105.24521 105.930387,105.329903 C108.541299,105.414596 110.620279,107.547667 110.641757,110.163853 L100.916566,110.163853 Z M113.647248,110.163853 L113.647248,109.848385 C113.837714,107.239074 116.050156,105.24521 118.661069,105.329903 C121.271981,105.414596 123.350961,107.547667 123.372439,110.163853 L113.647248,110.163853 Z M136.116245,110.163853 L126.37793,110.163853 L126.37793,109.848385 C126.568396,107.239074 128.780838,105.24521 131.39175,105.329903 C134.002663,105.414596 136.081642,107.547667 136.10312,110.163853 L136.116245,110.163853 Z M125.295165,95.6654958 C127.964757,95.650916 130.142658,97.8027503 130.164323,100.476374 L120.426008,100.476374 L120.426008,100.160907 C120.599493,97.6011065 122.733468,95.6194106 125.295165,95.6392068 L125.295165,95.6654958 Z M123.379001,90.6837394 L113.647248,90.6837394 L113.647248,90.368272 C113.837714,87.7589609 116.050156,85.7650964 118.661069,85.8497896 C121.271981,85.9344828 123.350961,88.0675533 123.372439,90.6837394 L123.379001,90.6837394 Z" id="Shape"></path>
            <path d="M163.658409,26.462946 L165.568449,22.1527905 L164.505867,19.7639524 L165.959583,19.1875572 L168,14.5507777 L166.487614,11.2268984 L155.294654,7 L148,23.5169259 L159.779661,28 L163.658409,26.462946 Z M157.498044,10.9835316 L163.541069,13.2698994 L164.0691,14.4354986 L162.94133,16.9972553 L161.637549,17.5032022 L155.627119,15.1912168 L157.498044,10.9835316 Z M152.576271,22.1143641 L154.48631,17.7529735 L161.116037,20.2570906 L161.767927,21.6916743 L160.750978,23.9972553 L159.205997,24.5992681 L152.576271,22.1143641 Z" id="Shape"></path>
            <polygon id="Path" points="177.862511 40 179.530706 37.5703192 171.587534 32.2996836 174.192484 28.4969802 181.513291 33.3563417 183.149404 30.970952 175.828598 26.1115905 178.388634 22.3658326 186.331806 27.6427955 188 25.2131148 177.137489 18 167 32.7932125"></polygon>
            <path d="M183.529335,45.6649283 L187.440678,43.8787484 L191.964798,48.4810952 L190.119948,52.3924381 L192.649283,55 L201,37.3207301 L198.731421,35 L181,43.083442 L183.529335,45.6649283 Z M196.71708,39.1851369 L196.756193,39.2242503 L193.496741,45.8604954 L190.10691,42.398957 L196.71708,39.1851369 Z" id="Shape"></path>
            <polygon id="Path" points="197 61.2711864 201.797914 69.0873533 205.833116 70 208.160365 68.422425 206.250326 65.3129074 205.011734 66.1538462 203.329857 65.7757497 200.526728 61.1994785 200.917862 59.2829205 208.870926 53.8787484 210.696219 54.2894394 213.499348 58.8657106 213.134289 60.6323338 211.895698 61.4732725 213.805737 64.5827901 216.132986 63.0052151 217 58.7483703 212.202086 50.9322034 208.088657 50 197.880052 56.9426336"></polygon>
            <polygon id="Path" points="209.227495 80.0797434 216.244464 77.3208066 218.914582 84.8020165 211.90394 87.5609533 213.131435 91 230 84.3657195 228.772505 80.9266728 221.711245 83.7048579 219.041127 76.2172319 226.102387 73.4390467 224.868565 70 208 76.6406966"></polygon>
            <path d="M156.732774,209 L147.767751,212.372591 L146,216.349036 L150.313047,228.182013 L154.240644,230 L163.199021,226.633833 L165,222.650964 L160.653725,210.837259 L156.732774,209 Z M160.334732,224.417559 L154.958377,226.441113 L153.217209,225.61242 L149.834558,216.381156 L150.632039,214.620985 L156.008395,212.59743 L157.749563,213.406852 L161.132214,222.631692 L160.334732,224.417559 Z" id="Shape"></path>
            <polygon id="Path" points="42.1955739 51.5050167 34.3919197 43.458194 34.4305198 43.4180602 43.3407102 46.5752508 44.8654143 44.9698997 41.7902728 35.7123746 41.8224395 35.6722408 49.6196603 43.7190635 52 41.2240803 39.1911992 28 36.9009264 30.4013378 41.3785383 42.916388 41.3399382 42.9565217 29.2902728 38.3745819 27 40.7759197 39.8088008 54"></polygon>
            <path d="M222.012589,106.25154 C221.909188,107.27981 222.449852,108.265589 223.37279,108.731561 C224.295727,109.197533 225.410451,109.047524 226.177207,108.354169 C226.943964,107.660813 227.2045,106.567216 226.832664,105.602899 C226.460827,104.638582 225.533363,104.002575 224.499351,104.002834 C223.192077,103.939501 222.079939,104.945174 222.012589,106.25154 Z" id="Path"></path>
            <path d="M26.7351054,71 L30.9633364,69.9830508 L36,61.7822686 L34.979835,57.5580183 L24.2648946,51 L20.0302475,52.0104302 L15,60.2112125 L16.0137489,64.4419817 L26.7351054,71 Z M21.6727773,55.2698827 L23.5462878,54.8200782 L31.8872594,59.9308996 L32.3363886,61.8018253 L29.3208066,66.7235984 L27.4472961,67.1734029 L19.1063245,62.0625815 L18.6571952,60.1916558 L21.6727773,55.2698827 Z" id="Shape"></path>
        </g>
    </g>
</svg>