<svg id="Layer_1" data-name="Layer 1" xmlns="http://www.w3.org/2000/svg" viewBox="0 0 360 317.17"><defs><style>.cls-1{fill:#fff;}</style></defs><path class="cls-1" d="M56,126.81a25.22,25.22,0,0,0-3.39-1.17,26.85,26.85,0,0,0-3.8-.71c-1.4-.17-3-.29-4.69-.36s-3.8-.1-6.2-.1c-1,0-2,0-3.05,0s-2.11,0-3.24,0l-9.39.2H0A21,21,0,0,1,5,134a56.06,56.06,0,0,1,1.49,14.18v21.56c0,1.29,0,2.51,0,3.66s-.08,2.2-.15,3.15c-.13,1.16-.25,2.36-.35,3.61s-.21,2.56-.35,3.92c-.13,1-.25,1.88-.35,2.59s-.2,1.37-.3,2-.21,1.21-.34,1.78-.31,1.27-.5,2.09H38.86a17.78,17.78,0,0,1-1.55-1.17,14.79,14.79,0,0,1-1.2-1.17,9,9,0,0,1-1-1.38,19.07,19.07,0,0,1-1-1.88,18.23,18.23,0,0,1-1.14-3c-.3-1.05-.59-2.15-.85-3.3a40.75,40.75,0,0,1-.75-4.93q-.26-2.59-.35-6.46c1.73.2,3.33.34,4.79.41s3,.1,4.6.1a39.78,39.78,0,0,0,11.84-1.63,27.51,27.51,0,0,0,9-4.58A19.72,19.72,0,0,0,67,156.3a22.35,22.35,0,0,0,2-9.56,22,22,0,0,0-3.5-12.16A19.41,19.41,0,0,0,56,126.81ZM40,153a9.59,9.59,0,0,1-6.79,2.24c-.54,0-1,0-1.4-.05l-1.4-.15V139.21h4a8.54,8.54,0,0,1,2.9.41,7.48,7.48,0,0,1,2.9,1.73,7.33,7.33,0,0,1,2.2,5.49A8.06,8.06,0,0,1,40,153Zm315.89,10.58a20.75,20.75,0,0,0-11.33-6,19.87,19.87,0,0,0,9.69-6.2,15.27,15.27,0,0,0,3.49-10,15.84,15.84,0,0,0-3.24-9.92,16.22,16.22,0,0,0-8.84-5.74c-1-.27-2-.51-3-.71a27.14,27.14,0,0,0-3.35-.46c-1.23-.1-2.65-.17-4.24-.2s-3.47,0-5.6,0c-.73,0-1.46,0-2.2,0s-1.43,0-2.09,0l-7,.1-6.59.2H288q6.39,5.3,6.4,19.32v20.44q0,9.06-.6,15.82a84.83,84.83,0,0,1-1.9,12.15h18.78c1.07,0,2.2,0,3.4.05l3.59.1c1.2,0,2.3,0,3.3,0l4.49.1h4.3c2.66,0,4.88,0,6.64-.05s3.3-.12,4.6-.25,2.45-.31,3.45-.51,2.06-.48,3.19-.82a17,17,0,0,0,5-2.44,17.19,17.19,0,0,0,3.94-3.86A17.89,17.89,0,0,0,359.1,180a17.23,17.23,0,0,0,.9-5.59A15.26,15.26,0,0,0,355.85,163.62ZM318,138.8c1.4-.06,2.47-.1,3.2-.1h2.5a17.42,17.42,0,0,1,3.69.31,6.39,6.39,0,0,1,2.5,1.12,5.75,5.75,0,0,1,2.2,4.78q0,6.6-8.89,6.61H318Zm14.14,37a6.51,6.51,0,0,1-3.95,2.34,9.84,9.84,0,0,1-1.7.25c-.53,0-1.36.05-2.49.05h-6V164.63h6a23.51,23.51,0,0,1,3.64.21,7,7,0,0,1,2.45.91,6.44,6.44,0,0,1,2.6,2.49,6.79,6.79,0,0,1,.9,3.41A6.57,6.57,0,0,1,332.18,175.82Zm-160.86-127a13.28,13.28,0,0,1-5.2,10.5A125.77,125.77,0,0,0,117.26,151H242.73a125.77,125.77,0,0,0-48.85-91.68,13.25,13.25,0,0,1-5.2-10.49h0a13.23,13.23,0,0,1,5.1-10.44L243,0s-46.67,6.51-63,24.26C165,6.51,117,0,117,0l49.22,38.37A13.23,13.23,0,0,1,171.32,48.81ZM164.69,98a12.52,12.52,0,0,1,12.52,12.52H152.16A12.52,12.52,0,0,1,164.69,98Zm-30,37.76a12.53,12.53,0,0,1,25.05,0Zm32.76,0a12.52,12.52,0,0,1,25,0Zm57.8,0H200.23a12.53,12.53,0,0,1,25.05,0ZM197.44,98A12.51,12.51,0,0,1,210,110.56h-25A12.52,12.52,0,0,1,197.44,98ZM180,72.61a12.52,12.52,0,0,1,12.52,12.52h-25A12.53,12.53,0,0,1,180,72.61Zm8.68,195.74a13.25,13.25,0,0,1,5.2-10.49,125.73,125.73,0,0,0,48.86-91.68H117.27a125.74,125.74,0,0,0,48.85,91.67,13.28,13.28,0,0,1,5.2,10.5h0a13.22,13.22,0,0,1-5.1,10.44L117,317.17s46.67-6.52,63-24.26c15,17.74,63,24.26,63,24.26l-49.22-38.38A13.23,13.23,0,0,1,188.68,268.35Zm36.66-87a108.88,108.88,0,0,1-4.45,15.19H139.11a111.66,111.66,0,0,1-4.45-15.19ZM180,250.26a28.43,28.43,0,0,0-4.6-4.43,111.18,111.18,0,0,1-29.3-34.08h67.8a111,111,0,0,1-29.3,34.08A29.27,29.27,0,0,0,180,250.26Zm10.7-21.6a1.79,1.79,0,1,1-1.79-1.79A1.79,1.79,0,0,1,190.7,228.66Zm-12.53-4.44a4.44,4.44,0,1,1-4.43-4.44A4.43,4.43,0,0,1,178.17,224.22Z"/></svg>