<svg id="Layer_1" data-name="Layer 1" xmlns="http://www.w3.org/2000/svg" viewBox="0 0 360 356.11"><defs><style>.cls-1{fill:#fff;}</style></defs><path class="cls-1" d="M39.11,139.46a11.6,11.6,0,0,0-5.66-4.64,16.27,16.27,0,0,0-2-.7,16.47,16.47,0,0,0-2.27-.42c-.83-.1-1.76-.17-2.8-.21s-2.26-.07-3.69-.07l-1.82,0c-.62,0-1.26,0-1.94,0l-5.6.12H0a12.49,12.49,0,0,1,3,5.49,33.07,33.07,0,0,1,.89,8.47v12.86q0,1.15,0,2.19c0,.69,0,1.31-.08,1.88s-.15,1.4-.21,2.15-.13,1.53-.21,2.34c-.08.61-.15,1.12-.21,1.55s-.12.82-.18,1.18-.13.72-.21,1.06-.18.76-.3,1.25H23.19c-.36-.25-.66-.48-.92-.7a8,8,0,0,1-.72-.7,5,5,0,0,1-.59-.82,11.46,11.46,0,0,1-.57-1.12,9.87,9.87,0,0,1-.68-1.79c-.18-.63-.35-1.29-.51-2a26.06,26.06,0,0,1-.45-3c-.1-1-.17-2.31-.21-3.85,1,.12,2,.2,2.86.24s1.79.06,2.75.06a23.68,23.68,0,0,0,7.06-1,16.56,16.56,0,0,0,5.37-2.73A11.79,11.79,0,0,0,40,152.42a13.38,13.38,0,0,0,1.19-5.71A13.17,13.17,0,0,0,39.11,139.46Zm-15.26,11a5.74,5.74,0,0,1-4.06,1.33c-.31,0-.59,0-.83,0l-.84-.09v-9.46h2.39a5.14,5.14,0,0,1,1.73.24,4.48,4.48,0,0,1,1.73,1,4.38,4.38,0,0,1,1.31,3.28A4.84,4.84,0,0,1,23.85,150.48Zm69.28-5.8a19.43,19.43,0,0,0-12.67-10.92,35.79,35.79,0,0,0-9.57-1.13,48,48,0,0,0-5.63.31,25.07,25.07,0,0,0-4.62,1,19.15,19.15,0,0,0-3.88,1.7,18.41,18.41,0,0,0-3.4,2.55,19.53,19.53,0,0,0-4.68,6.73A21.56,21.56,0,0,0,47,153.33a23.92,23.92,0,0,0,1.67,9,18.55,18.55,0,0,0,4.83,7,19.36,19.36,0,0,0,7.51,4.31A36.19,36.19,0,0,0,71.67,175,35.35,35.35,0,0,0,81,173.93,19,19,0,0,0,93.25,163.4a22,22,0,0,0,1.85-9.1A23.35,23.35,0,0,0,93.13,144.68ZM76.88,161.52a7,7,0,0,1-5.87,2.8q-7.82,0-7.81-10.56c0-3.28.7-5.84,2.12-7.68a7,7,0,0,1,5.87-2.76,8.54,8.54,0,0,1,3.31.66,5.93,5.93,0,0,1,2.41,1.76,9,9,0,0,1,1.55,3.37,18.93,18.93,0,0,1,.54,4.71Q79,158.73,76.88,161.52ZM159.49,174a17.78,17.78,0,0,1-1-1.58,13.94,13.94,0,0,1-.75-1.76,32.88,32.88,0,0,1-1.67-8.44l-.66-7.7c-.2-2.55-.35-4.5-.47-5.83s-.18-2.1-.18-2.31c0-.69-.07-1.38-.09-2.09s0-1.41,0-2.09v-.67c0-1.5,0-2.87.09-4.1a38.64,38.64,0,0,1,.39-3.85H133.08a19.31,19.31,0,0,1,.56,2.21,11.09,11.09,0,0,1,.15,1.85,25.61,25.61,0,0,1-.36,4,24.7,24.7,0,0,1-1,4.19l-1.49,4.43c-.2.6-.36,1.1-.48,1.48s-.28,1-.47,1.85c-.08.33-.13.56-.15.7s-.05.34-.09.58c-.2-.93-.44-1.94-.72-3s-.62-2.3-1-3.64l-1.73-5.88c-.32-1-.59-1.93-.8-2.77s-.45-1.83-.69-3c-.16-.73-.27-1.26-.33-1.61s-.13-.8-.21-1.36H102.19q2.86,3.09,2.86,10.25c0,.41,0,.79,0,1.16s0,.7-.08,1l-.54,5.28-.72,7.34c-.16,1.42-.34,2.85-.54,4.31s-.43,2.89-.71,4.31c-.2,1.25-.41,2.33-.63,3.22s-.48,1.92-.8,3.09l-.12.43H116.2a7.56,7.56,0,0,1-.65-1.43c-.12-.38-.26-.88-.42-1.49a29.3,29.3,0,0,1-.66-6.37V164c0-.08,0-.42,0-1s.07-1.48.15-2.61l.42-5.95.18-3.46a3.73,3.73,0,0,0,.06-.72v-2.61l.12.54.24,1c.11.45.26,1,.44,1.67s.47,1.63.87,2.88l6.5,20.34h9.66l7.27-21.37c.28-.76.49-1.39.63-1.88s.3-1.07.5-1.76l.3-1.09.12-.49c0,.57-.06,1-.06,1.34V150q0,.85,0,2.22c0,.91.07,2.13.15,3.67l.24,4.86q.06,1.33.09,2.61c0,.84,0,1.68,0,2.48,0,1.54,0,2.87-.12,4s-.18,2.31-.3,3.61L142,174Zm42.45-34.57a11.6,11.6,0,0,0-5.66-4.64,16.85,16.85,0,0,0-2-.7,16.47,16.47,0,0,0-2.27-.42c-.83-.1-1.76-.17-2.8-.21s-2.26-.07-3.69-.07l-1.82,0c-.62,0-1.27,0-1.94,0l-5.61.12H162.83a12.49,12.49,0,0,1,3,5.49,33.07,33.07,0,0,1,.89,8.47v12.86q0,1.15,0,2.19c0,.69,0,1.31-.08,1.88s-.15,1.4-.21,2.15-.13,1.53-.21,2.34c-.08.61-.15,1.12-.21,1.55s-.12.82-.18,1.18-.13.72-.21,1.06-.18.76-.3,1.25H186c-.36-.25-.66-.48-.92-.7a8,8,0,0,1-.72-.7,5,5,0,0,1-.59-.82,11.46,11.46,0,0,1-.57-1.12,10.7,10.7,0,0,1-.69-1.79c-.18-.63-.35-1.29-.5-2a26.06,26.06,0,0,1-.45-3c-.1-1-.17-2.31-.21-3.85,1,.12,2,.2,2.86.24s1.79.06,2.75.06a23.68,23.68,0,0,0,7.06-1,16.56,16.56,0,0,0,5.37-2.73,11.79,11.79,0,0,0,3.43-4.31,13.38,13.38,0,0,0,1.19-5.71A13.17,13.17,0,0,0,201.94,139.46Zm-15.26,11a5.74,5.74,0,0,1-4.06,1.33c-.32,0-.59,0-.83,0l-.84-.09v-9.46h2.39a5.14,5.14,0,0,1,1.73.24,4.48,4.48,0,0,1,1.73,1,4.38,4.38,0,0,1,1.31,3.28A4.84,4.84,0,0,1,186.68,150.48ZM253.87,174,239.2,141.19l-1.13-2.49a6.54,6.54,0,0,1-.3-.78c-.12-.37-.27-.83-.47-1.4l-.54-1.52a7.52,7.52,0,0,1-.42-1.39H218.22v.12a17,17,0,0,1-.72,4.37l-.3,1.12c-.08.3-.17.63-.29,1s-.28.75-.48,1.22-.44,1.06-.72,1.79l-.77,1.94L203.13,174h16.34a6.41,6.41,0,0,1-1.19-3.89,12.1,12.1,0,0,1,.24-2.18,10,10,0,0,1,.59-2.13h15.68l.12.37c.52,1.53,1,2.87,1.31,4a23.69,23.69,0,0,1,.84,3.83ZM231.39,157h-9.24l2.75-7.92c.39-1.18.69-2.06.89-2.65a12,12,0,0,0,.42-1.5c.08-.32.13-.59.18-.79s.09-.49.17-.85c.08.32.14.58.18.76s.1.44.18.76q.3.85.63,1.83c.22.65.5,1.44.86,2.38Zm72.81-23.36H286.84c1.32,1.17,2.35,3.23,3.11,6.19a32.23,32.23,0,0,1,.62,3.58,39.47,39.47,0,0,1,.21,4.43V152l-6.26-7.95c-1-1.26-1.82-2.28-2.36-3.07l-1.58-2.34c-.55-.8-1-1.56-1.46-2.27s-.84-1.47-1.28-2.28l-.18-.48H257.21a14.11,14.11,0,0,1,3.28,7,25.33,25.33,0,0,1,.45,3.21c.1,1.22.15,2.41.15,3.58v13.05c0,1,0,2.37-.12,3.95s-.22,3.15-.42,4.73c-.08.61-.14,1.11-.18,1.52a8.75,8.75,0,0,1-.18,1.12l-.24,1c-.08.35-.17.74-.29,1.19h17.41a12.17,12.17,0,0,1-1.67-2.22,12.6,12.6,0,0,1-1.14-2.7c-.2-.69-.38-1.38-.53-2.06a17.76,17.76,0,0,1-.36-2.22q-.12-1.19-.18-2.61t-.06-3.18v-6.5L289.83,174h12.93V148.17c0-.81,0-1.53,0-2.18s0-1.26.09-1.82.08-1.18.12-1.82.15-1.48.21-2.25.15-1.58.27-2.43c0-.52.09-1,.15-1.3s.12-.66.18-.94l.18-.85C304.05,134.29,304.11,134,304.2,133.61ZM358,144.68a19.33,19.33,0,0,0-5.6-7.31,19.12,19.12,0,0,0-7.07-3.61,35.79,35.79,0,0,0-9.57-1.13,48.09,48.09,0,0,0-5.63.31,25.07,25.07,0,0,0-4.62,1,19.65,19.65,0,0,0-3.88,1.7,18.75,18.75,0,0,0-3.4,2.55,19.8,19.8,0,0,0-4.68,6.73,21.56,21.56,0,0,0-1.64,8.44,23.92,23.92,0,0,0,1.67,9,18.78,18.78,0,0,0,4.83,7,19.33,19.33,0,0,0,7.52,4.31A36.12,36.12,0,0,0,336.57,175a35.29,35.29,0,0,0,9.36-1.07,18.93,18.93,0,0,0,12.22-10.53,22,22,0,0,0,1.85-9.1A23.35,23.35,0,0,0,358,144.68Zm-16.24,16.84a7,7,0,0,1-5.88,2.8q-7.8,0-7.81-10.56,0-4.92,2.12-7.68a7,7,0,0,1,5.87-2.76,8.5,8.5,0,0,1,3.31.66,6,6,0,0,1,2.42,1.76,9.17,9.17,0,0,1,1.55,3.37,19.44,19.44,0,0,1,.53,4.71Q343.9,158.73,341.79,161.52ZM103.44,213.75a12.47,12.47,0,0,0-6.76-3.59,11.71,11.71,0,0,0,5.78-3.7,9.11,9.11,0,0,0,2.09-5.94,9.44,9.44,0,0,0-1.94-5.92,9.64,9.64,0,0,0-5.28-3.43c-.59-.16-1.19-.31-1.79-.43a17.15,17.15,0,0,0-2-.27c-.74-.06-1.58-.1-2.54-.12s-2.06,0-3.34,0l-1.31,0-1.25,0-4.17.06-3.94.12H62.93q3.81,3.16,3.82,11.53v12.2q0,5.4-.36,9.44A51,51,0,0,1,65.26,231h11.2l2,0,2.15.06,2,0,2.68.06h2.56c1.59,0,2.91,0,4,0s2-.07,2.74-.15,1.46-.18,2.06-.3,1.23-.28,1.91-.49a10.45,10.45,0,0,0,6.85-6.67,10.26,10.26,0,0,0,.54-3.34A9.12,9.12,0,0,0,103.44,213.75ZM84,206.52h-3.1v-7.58c.83,0,1.47-.06,1.9-.06h1.5a10.85,10.85,0,0,1,2.2.18,3.74,3.74,0,0,1,1.49.67,3.4,3.4,0,0,1,1.31,2.85Q89.28,206.53,84,206.52ZM89.31,221A3.83,3.83,0,0,1,87,222.42a5.69,5.69,0,0,1-1,.16q-.48,0-1.5,0H80.88v-8.26h3.57a14.76,14.76,0,0,1,2.18.12,4.42,4.42,0,0,1,1.46.55,3.78,3.78,0,0,1,1.55,1.49,4,4,0,0,1,.54,2A3.89,3.89,0,0,1,89.31,221Zm62.52-2.19a13.81,13.81,0,0,1-2.86,1.4,19.76,19.76,0,0,1-3.64.85c-.92.12-1.81.21-2.69.27s-2,.09-3.39.09h-9.6V215h11.56q.78,0,1.38,0c.39,0,.76,0,1.1.09l1.16.12c.8.09,1.39.15,1.79.21s.93.18,1.61.34V204.7a10.19,10.19,0,0,1-1.37.52,16.76,16.76,0,0,1-1.67.33,21.07,21.07,0,0,1-2.57.31q-1.19.06-3.21.06h-9.78v-5.77h10.43c.68,0,1.66,0,2.95.15s2.56.24,3.79.4c.79.12,1.42.23,1.88.33s1.08.25,1.88.46l-.36-10.93h-38.7a9.64,9.64,0,0,1,3,4.7,25.73,25.73,0,0,1,.9,7.92l-.06,6.5v7.1c0,1.3,0,2.62-.12,4s-.18,2.67-.3,3.94-.27,2.46-.45,3.55-.36,2-.56,2.73h36.61ZM207,231l-14.67-32.83-1.13-2.49a6.86,6.86,0,0,1-.3-.79c-.12-.36-.28-.83-.48-1.4l-.53-1.51a7.44,7.44,0,0,1-.42-1.4H171.32v.12a16.9,16.9,0,0,1-.71,4.37l-.3,1.13c-.08.3-.18.62-.3,1s-.28.75-.47,1.21-.44,1.06-.72,1.79l-.78,1.94L156.24,231h16.34a6.39,6.39,0,0,1-1.2-3.88,12.11,12.11,0,0,1,.24-2.19,10.51,10.51,0,0,1,.6-2.12H187.9l.12.36c.51,1.54.95,2.88,1.31,4a23.56,23.56,0,0,1,.84,3.82Zm-22.48-17h-9.24L178,206l.9-2.65a13.53,13.53,0,0,0,.41-1.49c.08-.33.14-.59.18-.8s.1-.48.18-.85c.08.33.14.58.18.76s.1.44.18.77c.2.56.41,1.17.62,1.82s.51,1.45.87,2.38Zm58.55-22.7a24,24,0,0,0-4.92-1.09,46.15,46.15,0,0,0-6-.37,33.6,33.6,0,0,0-9.6,1.22,21,21,0,0,0-7.33,3.88q-7.22,5.77-7.22,15.66a21.42,21.42,0,0,0,1.7,8.59,19.69,19.69,0,0,0,4.77,6.73,21.77,21.77,0,0,0,7.34,4.4,26.48,26.48,0,0,0,9.33,1.58,30.11,30.11,0,0,0,6.2-.61,19.61,19.61,0,0,0,5-1.69l.23-12.81a14.17,14.17,0,0,1-1,1,10.57,10.57,0,0,1-1,.76,14.1,14.1,0,0,1-3.43,1.64,12.41,12.41,0,0,1-3.79.61,8.68,8.68,0,0,1-3.66-.76,8.19,8.19,0,0,1-2.81-2.13,10,10,0,0,1-1.81-3.24,12.61,12.61,0,0,1-.66-4.19,10,10,0,0,1,2.33-7.07,8.37,8.37,0,0,1,6.49-2.52,13.1,13.1,0,0,1,5.43,1.12,11.93,11.93,0,0,1,4.23,3.13ZM298.5,231a9.41,9.41,0,0,1-1.34-1.27,7.07,7.07,0,0,1-.93-1.7c-.28-.65-.51-1.29-.71-1.91A14.33,14.33,0,0,1,295,224c-.12-.74-.21-1.55-.27-2.42s-.09-1.88-.09-3V204.82c0-.89,0-1.66,0-2.3s0-1.25.06-1.79.07-1.17.15-1.85.15-1.32.21-2,.15-1.41.27-2.18q.18-1.45.3-2.19c.08-.48.21-1.13.41-1.94h-20a10.58,10.58,0,0,1,2,2.43,12.48,12.48,0,0,1,1.22,3.16,22.82,22.82,0,0,1,.51,3c.09,1,.14,2.06.14,3.16v2.91H267.38v-1.46a61.2,61.2,0,0,1,.32-6.37,67.82,67.82,0,0,1,1.11-6.86h-20c.32.24.59.47.81.67a4.43,4.43,0,0,1,.59.64,4.14,4.14,0,0,1,.51.82c.16.32.34.72.54,1.21a17,17,0,0,1,1.13,4.07l.12,1.33c0,.45.07,1,.09,1.79s0,1.74.06,3,0,2.88,0,4.94v6.07q0,1.63,0,2.76c0,.75,0,1.39-.06,1.91s-.05,1.06-.09,1.58q-.12,1.28-.21,2.58t-.27,2.7c-.08.61-.15,1.12-.21,1.52s-.12.76-.18,1.06-.11.59-.17.85-.15.58-.27.94h20a5.31,5.31,0,0,1-.95-.85,12.22,12.22,0,0,1-.78-1.09,7.94,7.94,0,0,1-.62-1.15c-.18-.41-.35-.83-.51-1.28-.2-.61-.37-1.21-.51-1.82a17.56,17.56,0,0,1-.33-2c-.08-.71-.14-1.52-.17-2.43s-.06-2-.06-3.18v-1.52H280c0,1.09-.07,2-.08,2.85s-.05,1.55-.09,2.22-.09,1.33-.15,2-.13,1.38-.21,2.15-.15,1.35-.21,1.85-.12,1-.18,1.4-.14.86-.24,1.31-.21.95-.33,1.51ZM40.6,113.46l7.09-13.39-1.55-4.83-5.42-2.87-3.22.93-.6-1.8-5.81-3.08-4.5,1.33-6.73,12.73Zm-10-10.24-5.31-2.81,3.64-6.87,1.58-.47,3.2,1.7.51,1.61Zm8.68,4.59-5.45-2.88,4-7.54,1.93-.57,2.91,1.54.61,1.92Zm15-35.25-.48-3.17L48.1,65.08l-5,.59L34.36,77.11,53,91.35l2.71-3.55-7.14-5.45,4.33-5.68,3-.2,5.36,4.09L64,77l-6.19-4.72ZM40.1,75.89l4.8-6.29,1.62-.2,3.63,2.77.24,1.62-4.8,6.29Zm28.95-4.41L81.06,60,78.4,57.24l-8.78,8.37-4.17-4.37,8.1-7.72-2.62-2.74L62.84,58.5l-4.1-4.3,8.78-8.37L64.86,43l-12,11.45ZM88.84,53.82l3.48-2.29L87.11,35.2l.11-.08,12.9,11.26,3.47-2.3-9-22.2-3.75,2.47,6.8,15.36-.11.07L84.72,28.42l-2.79,1.84L87.25,46.6l-.11.07L75.69,34.38l-3.75,2.48ZM113.22,39l15.25-6.53L127,28.92,115.8,33.69l-2.38-5.54,10.28-4.41-1.49-3.48-10.28,4.4-2.34-5.45,11.15-4.78-1.51-3.54L104,17.42Zm21.55-8.68L149,26.76l2.85-4.86-3.73-15L143.36,4,129.1,7.54Zm3.39-4.85-3.79-15.23,7.79-1.94,2,1.26,3,11.9L146,23.52Zm37.9-2,10.62.17,3.57-3.56.1-6,2.09,0,.07-3.82-2.17,0,0-2.21-4.2-.07,0,2.21-7-.11-1.07-1.16L178.13,5l1-1,5.05.08,1,1.09,0,1.07,4.33.07,0-2.48L186.18.14,177.39,0l-3.57,3.56-.11,6.64,1.07,1.16-2.07,2.08-.1,6.36Zm2-3.86L177,18.47l0-3.56,1.11-1.09L186,14l-.08,4.63-1.1,1.12Zm36.51,7.51,10.86,2.8,4.54-2.75.89-3.47-4.32-1.11L226,24.42l-1.88,1.14-6.35-1.63-1.2-2.08L219.65,10l2-1.24,6.35,1.64,1.1,1.91-.48,1.85L233,15.24l.89-3.48-2.64-4.59L220.38,4.38l-4.61,2.79-3.93,15.26Zm18.63,5.11L237.31,34l3.79-4,7.39,3.23-.37,5.51,4.15,1.82L254,15.7l-3.72-1.63ZM243.54,27l6.28-7,.06,0-.78,9.4Zm13.71,16.38,3.6,2.35,8.68-13.31.05,0-.11,18.9,3.36,2.19,12.81-19.66L282,31.51l-8.69,13.34-.06,0,.13-18.92-3.36-2.19Zm21.48,14.76L281.89,61l10.78-11.68.05,0L289.45,68l2.94,2.72L308.31,53.5l-3.15-2.91L294.35,62.28l-.05,0,3.3-18.64-2.94-2.72Zm18.78,18.34,10.24,13.05,3-2.38-7.49-9.54L308,73.86l6.9,8.8,3-2.34-6.9-8.8,4.67-3.66,7.49,9.55,3-2.38L316,62Zm14,18.61,7.12,12.85,5.43,1.49,13.49-7.47,1.61-5.4L332,83.69Zm5.56,2,13.73-7.6,3.89,7L334,98.8l-10.74,6-2.3-.64ZM6.51,210.68l.88,4.38,23-4.64-.89-4.37ZM9.88,226l1.38,4.07L26.31,225l0,.07-11.75,14.8,1.29,3.79,22.21-7.56L36.7,232l-15.08,5.13,0-.06,11.78-14.82-1.28-3.78ZM27.6,267.5,30,271.24l6.68-4.36,5.42,8.29,5,1L54,271.65l1.11-4.92-7.87-12.05Zm12.32-2.71,6.57-4.29,4.32,6.62-.35,1.6-4.61,3-1.61-.32Zm6.29,28.58,8,8.7,5.39.17L71.2,291.58l.28-5.39-8-8.69-5.39-.17L46.5,288Zm4.47-.89.12-2.39,9-8.3,2.39.08L67,287.08l-.12,2.39-9,8.3-2.39-.07ZM65,312.55l3.43,2.6,8.62-11.38.06,0-2.47,11.93,2.2,1.67,10.85-5.58,0,0-8.63,11.38,3.43,2.6,14.18-18.7-3.3-2.49-14.61,7.93-.06,0,3.73-16.2-3.3-2.5Zm27.48,19.3,4,2,3.64-7.1,8.82,4.52,4.82-1.64,3.75-7.3-1.47-4.83L103.24,311Zm9.36-8.46,3.58-7,7,3.6.49,1.57-2.51,4.89-1.56.52Zm11.8,18.93,4.29,1.47,3.44-4.31,7.64,2.61.09,5.52,4.28,1.46-.35-24.92-3.85-1.32Zm9.91-6.07,5.68-7.48.06,0v9.42Zm19.16,15.07,4.24.7,2.59-15.68h.06l7.51,17.34,3.95.65,3.82-23.15-4.24-.7-2.59,15.71H158l-7.5-17.38-4-.65Zm33.36,4,11.8-.19,3.71-3.92-.26-15.75-3.83-3.8-11.81.19-3.7,3.92.25,15.75Zm2.29-3.93-1.7-1.68-.2-12.27,1.65-1.74,7.08-.11,1.7,1.68.2,12.27-1.65,1.74Zm39.21.28,14.66-3.84,2.51-4.4-1.56-5.94-2.86-1.74.91-1.66-1.66-6.36-4-2.41L211.66,329Zm.76-14.3-1.52-5.81,7.52-2,1.4.84.92,3.51-.83,1.46Zm2.49,9.5-1.56-6,8.24-2.16,1.73,1,.84,3.17-1,1.76Zm24.61-3.53,15.18-6.69-1.55-3.53L248,338l-2.44-5.53L255.79,328l-1.53-3.47L244,329l-2.39-5.43,11.1-4.9-1.56-3.52L236,321.85Zm22.72-10.6,3.8-2.45-1.24-5.38,6.79-4.36,4.38,3.36,3.81-2.45L266,306.24l-3.42,2.2Zm1.39-11.54-2.35-9.09.06,0,7.39,5.85Zm25.69-7.51,8.37-7.46.24-5.3-2.38-2.67-3.33,3,1.27,1.43-.1,2.2-4.9,4.36-2.38-.16-8.17-9.16.11-2.39,4.9-4.36,2.2.15,1.27,1.43,3.33-3-2.39-2.68-5.29-.36-8.37,7.46-.25,5.39,10.49,11.76Zm18.26-17.47,2.8-3.48-7.6-6.12,6.09-7.56,7.6,6.12,2.8-3.47L306.94,267l-2.8,3.47,7.65,6.16-6.08,7.56L298.05,278l-2.79,3.48ZM335,274.9l1.35-2.17-2.84-4-3-1.87-2,.39-1.3,2.09.49,2,1.82,1.13,2-.44.38-.61Zm10-28.59,1.56-4.18-8.68-3.22,3.56-9.59L337.8,228l-3.56,9.59-6.1-2.27,4.11-11.06-3.61-1.35L323,238.14Zm8.21-24.5,3.33-15.58-3.77-.81-2.4,11.23-19.18-4.1-.93,4.36ZM85.52,270.76H96.71l2.73-2.38.81-4.69-1.38-1.75,1.12-1,.81-4.57-2.14-2.62H88.44ZM89.16,268l.78-4.47h6.15l.83,1.05-.4,2.38-1.21,1Zm1.23-7.11.74-4.35h5.6l.69.85L97,260l-1,.88Zm30.24-4.3-2.26-2.82H108.16l-2.92,17h3.23l1.11-6.51h5.28l1,1.48-.85,5h3.23l1-5.63L118,263.3l1.8-1.57Zm-9.72-.05h5.7l.69.85-.57,3.3-1,.85h-5.7Zm14.16,14.23h12l.47-2.79h-8.76l.76-4.37h8.07l.48-2.75H130l.74-4.3h8.76l.48-2.79H128Zm20.69,0h3l5.41-11.95h.1l1.26,11.95h3l6.37-17H161.6l-4.08,12h-.1l-1.16-12h-2.42l-5.37,12h-.1l0-12h-3.18Zm22.28,0h3.23l2.95-17H171Zm10.26,0h3.11l2-11.51h.05l5.39,11.51h2.9l2.94-17h-3.11l-2,11.54h-.05l-5.44-11.54h-2.9Zm23,0h8.25l2.92-2.5,1.19-7H207l-.48,2.82h3.55l-.46,2.67-1.35,1.16h-5l-1-1.24,1.57-8.88,1.42-1.24h4.87l.9,1.14-.24,1.38h3.24l.42-2.4-2.4-2.94h-8.21l-3,2.6-2,11.39Zm30.12,0h8.1l2.92-2.55.5-2.79h-3.23l-.26,1.38-1.31,1.14h-4.75l-1-1.24,1.54-8.88,1.42-1.24h4.76l.9,1.14-.24,1.38h3.23l.43-2.4-2.4-2.94H234l-3,2.6-2,11.39Zm19.36,0h8.6l2.9-2.5,2-11.51-2.42-3h-8.55l-3,2.6-2,11.39Zm2-2.82-1-1.24,1.57-8.88,1.43-1.24h5.11l1,1.24-1.54,8.88-1.42,1.24Zm15.73,2.82h1.73l1.19-1.07.24-1.5-.81-1.07h-1.73l-1.19,1-.29,1.55Zm-107.58-177h11.34l2.65-2.71V86.48l-1.75-1.8,1-1V78.73l-2.46-2.51H160.94Zm3.26-10.21V79.08H170l.86.88v2.71l-.89.9Zm0,7.35V86.31h6.38l1.06,1.08v2.45l-1.06,1.08ZM185,93.78h3.34V86.61l6.11-10.39h-3.65l-4.1,7.2h0l-4.1-7.2h-3.66L185,86.61Zm-38.34-8.93a15.53,15.53,0,0,1,2.86-9,34.23,34.23,0,0,0-12.8,9,34.32,34.32,0,0,0,12.8,9A15.53,15.53,0,0,1,146.62,84.85Zm60.52,0a15.53,15.53,0,0,1-2.86,9,34.43,34.43,0,0,0,12.81-9,34.46,34.46,0,0,0-12.81-9A15.53,15.53,0,0,1,207.14,84.85Z"/></svg>