<svg id="Layer_1" data-name="Layer 1" xmlns="http://www.w3.org/2000/svg" viewBox="0 0 360 144.07"><defs><style>.cls-1{fill:#fff;}</style></defs><path class="cls-1" d="M.82,79.77A27.53,27.53,0,0,0,11.07,87a12.4,12.4,0,0,1,0-14.36A27.53,27.53,0,0,0,.82,79.77Z"/><path class="cls-1" d="M31.38,72.59a12.4,12.4,0,0,1,0,14.36,27.42,27.42,0,0,0,10.24-7.18A27.42,27.42,0,0,0,31.38,72.59Z"/><polygon class="cls-1" points="14.97 82.91 16.21 82.91 16.21 80.33 19.07 80.33 19.07 79.25 16.21 79.25 16.21 77.43 19.51 77.43 19.51 76.36 14.97 76.36 14.97 82.91"/><polygon class="cls-1" points="23.14 76.36 21.89 76.36 21.89 82.91 26.34 82.91 26.34 81.83 23.14 81.83 23.14 76.36"/><path class="cls-1" d="M319.2,79.77A27.42,27.42,0,0,0,329.44,87a12.4,12.4,0,0,1,0-14.36A27.42,27.42,0,0,0,319.2,79.77Z"/><path class="cls-1" d="M349.75,72.59a12.4,12.4,0,0,1,0,14.36A27.37,27.37,0,0,0,360,79.77,27.37,27.37,0,0,0,349.75,72.59Z"/><polygon class="cls-1" points="336.4 81.35 335.94 81.83 334.14 81.83 333.67 81.35 333.67 76.36 332.43 76.36 332.43 81.79 333.53 82.91 336.55 82.91 337.65 81.79 337.65 76.36 336.4 76.36 336.4 81.35"/><polygon class="cls-1" points="341.9 79.03 341.6 78.72 341.6 77.75 341.9 77.44 343.71 77.44 344.01 77.75 344.01 78.31 345.24 78.31 345.24 77.37 344.25 76.36 341.36 76.36 340.37 77.37 340.37 79.1 341.36 80.11 343.79 80.11 344.09 80.42 344.09 81.51 343.78 81.83 341.88 81.83 341.58 81.52 341.58 80.96 340.35 80.96 340.35 81.9 341.34 82.91 344.31 82.91 345.31 81.88 345.31 80.04 344.32 79.03 341.9 79.03"/><path class="cls-1" d="M41.1,14.05a13.32,13.32,0,0,1-1.18,5.69A11.76,11.76,0,0,1,36.49,24a16.25,16.25,0,0,1-5.35,2.72,23.61,23.61,0,0,1-7,1q-1.43,0-2.73-.06c-.88,0-1.83-.12-2.86-.24,0,1.53.11,2.82.21,3.85a26.08,26.08,0,0,0,.44,2.93c.16.69.33,1.34.51,2A11.61,11.61,0,0,0,20.34,38c.2.44.39.81.57,1.12a5.63,5.63,0,0,0,.59.81,6.81,6.81,0,0,0,.72.7c.26.22.56.45.92.7H2.44l.3-1.24c.07-.35.14-.7.2-1.06s.12-.76.18-1.18.13-.94.21-1.55c.08-.81.15-1.58.21-2.33s.13-1.46.21-2.15.06-1.19.09-1.88,0-1.41,0-2.18V14.9A32.91,32.91,0,0,0,3,6.45,12.39,12.39,0,0,0,0,1H13.26l5.6-.12c.67,0,1.31,0,1.93,0l1.81,0q2.14,0,3.69.06c1,0,2,.11,2.8.21a16.6,16.6,0,0,1,2.26.42,16.14,16.14,0,0,1,2,.7A11.56,11.56,0,0,1,39,6.81,13.08,13.08,0,0,1,41.1,14.05Zm-15.88.06a4.34,4.34,0,0,0-3-4.3,5.14,5.14,0,0,0-1.73-.24H18.08V19l.84.09c.23,0,.51,0,.83,0a5.69,5.69,0,0,0,4-1.33A4.81,4.81,0,0,0,25.22,14.11Z"/><path class="cls-1" d="M94.88,21.62A22,22,0,0,1,93,30.7,19,19,0,0,1,80.84,41.21a35.59,35.59,0,0,1-9.34,1.06,36.07,36.07,0,0,1-10.59-1.34,19.26,19.26,0,0,1-7.49-4.3,18.46,18.46,0,0,1-4.82-7,23.82,23.82,0,0,1-1.67-9,21.46,21.46,0,0,1,1.64-8.42,19.6,19.6,0,0,1,4.67-6.72A17.86,17.86,0,0,1,56.63,3a19.89,19.89,0,0,1,3.87-1.7,24.78,24.78,0,0,1,4.61-1A47.92,47.92,0,0,1,70.73,0a35.76,35.76,0,0,1,9.55,1.12A19.39,19.39,0,0,1,92.91,12,23.25,23.25,0,0,1,94.88,21.62Zm-16.06-.49a18.77,18.77,0,0,0-.54-4.69,8.88,8.88,0,0,0-1.54-3.36,5.84,5.84,0,0,0-2.41-1.76,8.49,8.49,0,0,0-3.3-.66,7,7,0,0,0-5.87,2.75c-1.4,1.84-2.11,4.39-2.11,7.66q0,10.55,7.8,10.54a7,7,0,0,0,5.86-2.79C78.11,27,78.82,24.4,78.82,21.13Z"/><path class="cls-1" d="M141.64,41.3l.05-.61q.18-1.94.3-3.6c.08-1.11.12-2.43.12-4,0-.8,0-1.63,0-2.48S142,28.92,142,28l-.24-4.85c-.08-1.53-.12-2.75-.15-3.66s0-1.65,0-2.21V16.11c0-.33,0-.77.06-1.34l-.12.49-.3,1.09-.51,1.76c-.14.48-.35,1.11-.62,1.87L132.83,41.3h-9.64L116.71,21c-.4-1.25-.68-2.21-.86-2.87l-.45-1.67-.24-1L115,14.9v2.6a5,5,0,0,1-.05.73l-.18,3.45-.42,5.93q-.12,1.7-.15,2.61t0,1V32a29.28,29.28,0,0,0,.66,6.36c.15.61.29,1.1.41,1.48a7.7,7.7,0,0,0,.66,1.43H100.65l.12-.43c.32-1.17.58-2.2.8-3.09s.43-2,.63-3.21c.27-1.41.51-2.84.71-4.29s.37-2.89.54-4.3l.71-7.33.53-5.27c0-.32.07-.66.09-1s0-.74,0-1.15Q104.81,4.06,102,1h22c.08.56.15,1,.21,1.36s.16.88.32,1.61c.24,1.17.47,2.17.69,3s.48,1.75.8,2.76l1.73,5.87c.39,1.33.73,2.55,1,3.64s.51,2.09.71,3q.06-.36.09-.57c0-.14.07-.37.15-.7.2-.85.35-1.46.47-1.85l.48-1.48,1.49-4.42a26.37,26.37,0,0,0,1-4.18,25.38,25.38,0,0,0,.36-4,10.92,10.92,0,0,0-.15-1.85A17.28,17.28,0,0,0,132.77,1h22a38.45,38.45,0,0,0-.39,3.84c0,1.24-.08,2.6-.08,4.09v.67c0,.68,0,1.38,0,2.09s0,1.4.08,2.09c0,.2.06,1,.18,2.3s.28,3.27.48,5.81l.65,7.69A32.81,32.81,0,0,0,157.4,38a12.55,12.55,0,0,0,.74,1.75c.22.41.55.93,1,1.58Z"/><path class="cls-1" d="M203.56,14.05a13.32,13.32,0,0,1-1.19,5.69A11.63,11.63,0,0,1,199,24a16.35,16.35,0,0,1-5.35,2.72,23.66,23.66,0,0,1-7,1c-1,0-1.87,0-2.74-.06s-1.82-.12-2.85-.24c0,1.53.1,2.82.21,3.85a24,24,0,0,0,.44,2.93c.16.69.33,1.34.51,2A9.87,9.87,0,0,0,182.8,38c.2.44.39.81.56,1.12a5,5,0,0,0,.6.81,7.82,7.82,0,0,0,.71.7c.26.22.57.45.93.7H164.9c.11-.49.21-.9.29-1.24s.15-.7.21-1.06.12-.76.18-1.18.13-.94.21-1.55c.08-.81.15-1.58.2-2.33s.13-1.46.21-2.15.07-1.19.09-1.88,0-1.41,0-2.18V14.9a33,33,0,0,0-.89-8.45,12.49,12.49,0,0,0-3-5.48h13.26l5.59-.12c.68,0,1.32,0,1.94,0l1.81,0q2.15,0,3.69.06t2.79.21a16,16,0,0,1,2.26.42,16.27,16.27,0,0,1,2,.7,11.56,11.56,0,0,1,5.65,4.63A13.08,13.08,0,0,1,203.56,14.05Zm-15.88.06a4.34,4.34,0,0,0-3-4.3,5.08,5.08,0,0,0-1.72-.24h-2.38V19l.83.09q.36,0,.84,0a5.69,5.69,0,0,0,4-1.33A4.81,4.81,0,0,0,187.68,14.11Z"/><path class="cls-1" d="M236.51,41.3a22.36,22.36,0,0,0-.83-3.82c-.35-1.13-.79-2.46-1.3-4l-.12-.37H218.61a10.51,10.51,0,0,0-.6,2.12,13,13,0,0,0-.23,2.18A6.38,6.38,0,0,0,219,41.3h-16.3l11.78-28.83.77-1.93c.28-.73.51-1.33.71-1.79s.36-.87.48-1.21.22-.67.3-1,.18-.68.29-1.12a17,17,0,0,0,.72-4.36V1H235.8a7.27,7.27,0,0,0,.42,1.39l.53,1.51c.2.57.36,1,.48,1.4a7.7,7.7,0,0,0,.3.79l1.13,2.48L253.29,41.3Zm-8.62-25c-.36-.93-.64-1.72-.86-2.37s-.43-1.26-.63-1.82c-.08-.33-.14-.58-.18-.76s-.09-.44-.17-.76c-.08.36-.14.65-.18.85s-.1.47-.18.79a12.37,12.37,0,0,1-.42,1.49c-.2.59-.49,1.47-.89,2.64l-2.73,7.91h9.21Z"/><path class="cls-1" d="M303.29,1.94l-.18.85q-.09.42-.18.93c-.06.35-.11.78-.15,1.31-.11.84-.21,1.65-.27,2.42s-.12,1.51-.2,2.24-.08,1.25-.12,1.81-.07,1.18-.09,1.82,0,1.37,0,2.18V41.3H289.16L272.51,19.86v6.48c0,1.17,0,2.23.06,3.18s.09,1.82.17,2.6a17.29,17.29,0,0,0,.36,2.21c.16.69.34,1.38.53,2.06a13.14,13.14,0,0,0,1.13,2.7,13.51,13.51,0,0,0,1.67,2.21H259.06c.12-.45.22-.84.3-1.18l.24-1c.07-.35.13-.72.18-1.12s.09-.91.17-1.52c.2-1.57.34-3.15.42-4.72s.12-2.89.12-3.94v-13q0-1.75-.15-3.57A25.33,25.33,0,0,0,259.89,8a14,14,0,0,0-3.27-7H277l.17.48c.44.81.87,1.57,1.28,2.27s.91,1.47,1.46,2.28l1.58,2.33c.53.78,1.31,1.8,2.35,3.05l6.24,7.94V15.14a39.28,39.28,0,0,0-.21-4.42,28.33,28.33,0,0,0-.62-3.57c-.75-2.95-1.79-5-3.09-6.18H303.5Z"/><path class="cls-1" d="M359.18,21.62a22,22,0,0,1-1.85,9.08,19,19,0,0,1-12.19,10.51,35.59,35.59,0,0,1-9.34,1.06,36,36,0,0,1-10.59-1.34,19.23,19.23,0,0,1-7.5-4.3,18.57,18.57,0,0,1-4.82-7,23.82,23.82,0,0,1-1.66-9,21.29,21.29,0,0,1,1.64-8.42,19.33,19.33,0,0,1,4.67-6.72A17.55,17.55,0,0,1,320.93,3a19.8,19.8,0,0,1,3.86-1.7,25.13,25.13,0,0,1,4.61-1A48,48,0,0,1,335,0a35.71,35.71,0,0,1,9.55,1.12A19.38,19.38,0,0,1,357.21,12,23.25,23.25,0,0,1,359.18,21.62Zm-16.07-.49a18.79,18.79,0,0,0-.53-4.69A9,9,0,0,0,341,13.08a5.78,5.78,0,0,0-2.41-1.76,8.45,8.45,0,0,0-3.3-.66,7,7,0,0,0-5.86,2.75q-2.11,2.76-2.11,7.66,0,10.55,7.79,10.54A6.94,6.94,0,0,0,341,28.82C342.41,27,343.11,24.4,343.11,21.13Z"/><path class="cls-1" d="M105.68,87.34a10.2,10.2,0,0,1-.54,3.33,10.63,10.63,0,0,1-1.52,2.91,9.88,9.88,0,0,1-2.35,2.3,10,10,0,0,1-3,1.45c-.68.21-1.31.37-1.9.49s-1.28.22-2.06.3-1.68.13-2.73.15-2.37,0-4,0H85.09l-2.67-.06-2,0-2.15-.06-2,0H65.11a50.84,50.84,0,0,0,1.13-7.24q.35-4,.35-9.41V69.3q0-8.36-3.8-11.51h14l3.93-.12,4.17-.06,1.25,0c.43,0,.87,0,1.3,0q1.91,0,3.33,0c1,0,1.8.06,2.53.12a16.85,16.85,0,0,1,2,.27c.6.13,1.2.27,1.79.43a9.58,9.58,0,0,1,5.27,3.42,9.45,9.45,0,0,1,1.93,5.9,9.15,9.15,0,0,1-2.08,5.94,11.85,11.85,0,0,1-5.77,3.69,12.52,12.52,0,0,1,6.75,3.57A9.15,9.15,0,0,1,105.68,87.34ZM89.08,69.78a3.41,3.41,0,0,0-1.31-2.84,3.74,3.74,0,0,0-1.49-.67,10.71,10.71,0,0,0-2.2-.18H82.59c-.43,0-1.06,0-1.9.06v7.57h3.09Q89.08,73.72,89.08,69.78ZM90,85.71a4.07,4.07,0,0,0-.53-2,3.82,3.82,0,0,0-1.55-1.48,4,4,0,0,0-1.46-.55,14.61,14.61,0,0,0-2.17-.12H80.69v8.23h3.57c.68,0,1.17,0,1.49,0a6.5,6.5,0,0,0,1-.15,3.83,3.83,0,0,0,2.35-1.39A3.92,3.92,0,0,0,90,85.71Z"/><path class="cls-1" d="M150.23,98.12H113.71a25,25,0,0,0,.56-2.72c.18-1.09.33-2.27.45-3.55s.22-2.58.3-3.93.11-2.68.11-4V76.87l.06-6.48a25.55,25.55,0,0,0-.89-7.9,9.58,9.58,0,0,0-3-4.7h38.61l.35,10.9-1.87-.45c-.46-.1-1.08-.21-1.88-.34-1.22-.16-2.49-.29-3.77-.39s-2.27-.15-3-.15H129.35v5.75h9.76q2,0,3.21-.06a21,21,0,0,0,2.56-.3,15.86,15.86,0,0,0,1.66-.33,11.14,11.14,0,0,0,1.37-.52V83c-.67-.16-1.21-.27-1.6-.33s-1-.13-1.79-.21l-1.16-.12c-.34,0-.7-.07-1.1-.09s-.85,0-1.37,0H129.35v6.41h9.58q2.08,0,3.39-.09c.87-.06,1.77-.15,2.68-.27a18.86,18.86,0,0,0,3.63-.85A13,13,0,0,0,151.48,86Z"/><path class="cls-1" d="M189.73,98.12a24.57,24.57,0,0,0-.83-3.81c-.36-1.13-.8-2.47-1.31-4l-.12-.36H171.82a11.06,11.06,0,0,0-.59,2.12,11.92,11.92,0,0,0-.24,2.18,6.42,6.42,0,0,0,1.19,3.87h-16.3L167.66,69.3l.78-1.94c.27-.73.51-1.32.71-1.79a12.68,12.68,0,0,0,.47-1.21c.12-.34.22-.66.3-1l.3-1.12a17.2,17.2,0,0,0,.71-4.36v-.12H189a7.48,7.48,0,0,0,.41,1.39L190,60.7c.2.56.35,1,.47,1.39a6.19,6.19,0,0,0,.3.79l1.13,2.48,14.64,32.76Zm-8.62-25c-.36-.93-.65-1.73-.87-2.37s-.42-1.26-.62-1.83c-.08-.32-.14-.58-.18-.76s-.1-.44-.18-.76c-.08.37-.14.65-.18.85s-.1.47-.18.79a11.19,11.19,0,0,1-.41,1.49l-.9,2.65-2.73,7.91h9.22Z"/><path class="cls-1" d="M242.2,72.26A11.87,11.87,0,0,0,238,69.15,13,13,0,0,0,232.56,68a8.34,8.34,0,0,0-6.48,2.51c-1.55,1.67-2.32,4-2.32,7a12.52,12.52,0,0,0,.65,4.18A10.19,10.19,0,0,0,226.22,85a8.1,8.1,0,0,0,2.8,2.12,8.53,8.53,0,0,0,3.66.76,12.05,12.05,0,0,0,3.78-.61,14,14,0,0,0,3.42-1.63,10.57,10.57,0,0,0,1-.76c.25-.22.6-.56,1-1l-.24,12.78a19.27,19.27,0,0,1-5,1.69,29.85,29.85,0,0,1-6.18.61,26.6,26.6,0,0,1-9.31-1.58A21.82,21.82,0,0,1,213.91,93a19.53,19.53,0,0,1-4.76-6.72,21.27,21.27,0,0,1-1.69-8.56q0-9.89,7.19-15.63A21,21,0,0,1,222,58.22,33.52,33.52,0,0,1,231.55,57a48,48,0,0,1,6,.36,23.79,23.79,0,0,1,4.9,1.09Z"/><path class="cls-1" d="M277.89,98.12c.12-.56.23-1.07.33-1.51s.17-.88.23-1.31.12-.88.18-1.39.13-1.12.21-1.84.15-1.49.21-2.15.11-1.34.15-2,.07-1.4.09-2.21,0-1.76.08-2.85H266.7v1.52c0,1.21,0,2.27.06,3.17s.1,1.72.18,2.43a17.37,17.37,0,0,0,.33,2c.14.61.31,1.22.51,1.82a13.44,13.44,0,0,0,.5,1.27,7.49,7.49,0,0,0,.63,1.15,10.68,10.68,0,0,0,.77,1.09,5.31,5.31,0,0,0,.95.85h-20a9.66,9.66,0,0,0,.27-.94c.06-.26.12-.54.18-.85s.12-.65.18-1.06.13-.9.21-1.51c.11-.93.2-1.83.26-2.69s.13-1.73.21-2.58c0-.52.07-1,.09-1.57s0-1.16.06-1.91,0-1.66,0-2.75V76.2c0-2.06,0-3.7,0-4.93s0-2.22-.06-3,0-1.34-.09-1.79l-.12-1.33a16.75,16.75,0,0,0-1.13-4.06c-.2-.48-.38-.88-.53-1.21a4.35,4.35,0,0,0-.51-.81,6,6,0,0,0-.59-.64c-.22-.2-.49-.43-.81-.67h19.93q-.76,3.7-1.1,6.85a60.67,60.67,0,0,0-.33,6.35v1.46h12.61V69.54c0-1.09-.05-2.14-.14-3.15a22.82,22.82,0,0,0-.51-3,12,12,0,0,0-1.22-3.14,10.79,10.79,0,0,0-2-2.43h19.93c-.2.81-.34,1.46-.42,1.94s-.18,1.21-.3,2.18c-.12.77-.21,1.49-.27,2.18s-.13,1.35-.2,2-.13,1.3-.15,1.84,0,1.15-.06,1.79,0,1.41,0,2.3V85.77c0,1.13,0,2.13.09,3s.15,1.68.27,2.43a14.53,14.53,0,0,0,.47,2.06c.2.62.44,1.26.72,1.9a6.59,6.59,0,0,0,.92,1.7,9.41,9.41,0,0,0,1.34,1.27Z"/><path class="cls-1" d="M41.7,125.91H52.85l2.34,2.8-.89,4.88-1.21,1.06,1.5,1.87-.88,5-3,2.55H38.51Zm7.5,15.2L50.52,140l.44-2.54-.91-1.11H43.34l-.86,4.77Zm.72-7.6,1.09-.93.49-2.8-.75-.91H44.63l-.8,4.64Z"/><path class="cls-1" d="M74.32,134.42l-2,1.68,1.43,2-1.07,6H69.19l.93-5.37L69,137.12H63.22L62,144.07H58.48l3.19-18.16H72.82l2.46,3Zm-10.58-.21H70L71,133.3l.62-3.52-.75-.91H64.68Z"/><path class="cls-1" d="M81.76,125.91h13.1l-.52,3H84.77l-.8,4.59h8.82l-.52,2.93H83.45l-.83,4.66h9.57l-.52,3H78.57Z"/><path class="cls-1" d="M99,125.91h3.48l-.05,12.81h.1l5.86-12.81h2.65l1.27,12.81h.1l4.46-12.81h3.63l-7,18.16h-3.29l-1.38-12.76h-.1l-5.91,12.76H99.6Z"/><path class="cls-1" d="M125.59,125.91h3.52l-3.21,18.16h-3.53Z"/><path class="cls-1" d="M135.21,125.91h3.16l5.94,12.32h.05l2.15-12.32h3.4l-3.22,18.16h-3.16l-5.89-12.3h0l-2.18,12.3H132Z"/><path class="cls-1" d="M153,140.85l2.18-12.16,3.24-2.78h9l2.62,3.14-.47,2.57H166l.26-1.48-1-1.22h-5.32l-1.55,1.32-1.71,9.49,1.08,1.33h5.42l1.48-1.25.5-2.85h-3.87l.52-3h7.29l-1.3,7.44-3.19,2.68h-9Z"/><path class="cls-1" d="M182.74,140.85l2.15-12.16,3.24-2.78H197l2.62,3.14-.47,2.57H195.6l.26-1.48-1-1.22h-5.19l-1.55,1.32-1.69,9.49,1.09,1.33h5.19l1.42-1.22.29-1.48H198l-.55,3-3.19,2.73h-8.84Z"/><path class="cls-1" d="M202.31,140.85l2.15-12.16,3.25-2.78H217l2.64,3.19-2.17,12.29-3.17,2.68H205Zm10.4.21,1.56-1.33,1.68-9.49-1.09-1.32h-5.57l-1.56,1.32L206,139.73l1.09,1.33Z"/><path class="cls-1" d="M226,125.91H229l3.35,11.72h0l7.44-11.72h3.47l-3.19,18.16h-3.39l1.94-11h-.05l-5.65,8.5h-2.18l-2.64-8.5h-.06l-1.94,11h-3.4Z"/><path class="cls-1" d="M249.32,125.91h11.15l2.47,3-1.14,6.43-3,2.54h-8.06l-1.09,6.18h-3.53Zm8.17,9,1.06-.91.76-4.25-.76-.91h-6.22l-1.06,6.07Z"/><path class="cls-1" d="M271.78,125.91H275l3.45,18.16h-3.57l-.73-4h-6.38l-2.23,4H262Zm2,11.23-1.17-6.9h-.05l-3.58,6.9Z"/><path class="cls-1" d="M286.07,125.91h3.16l5.94,12.32h.05l2.15-12.32h3.4l-3.22,18.16h-3.16l-5.88-12.3h-.06l-2.18,12.3h-3.39Z"/><path class="cls-1" d="M309.61,136.65l-4.56-10.74h3.65l3,7.45h.05l5.66-7.45h4.07l-8.35,10.74-1.3,7.42h-3.53Z"/></svg>