<?xml version="1.0" encoding="UTF-8"?>
<svg width="415px" height="423px" viewBox="0 0 415 423" version="1.1" xmlns="http://www.w3.org/2000/svg" xmlns:xlink="http://www.w3.org/1999/xlink">
    <!-- Generator: Sketch 41.2 (35397) - http://www.bohemiancoding.com/sketch -->
    <title>final_logo</title>
    <desc>Created with Sketch.</desc>
    <defs>
        <polygon id="path-1" points="411.245894 0.0904021967 0 0.0904021967 0 218.415383 411.245894 218.415383 411.245894 0.0904021967"></polygon>
        <polygon id="path-3" points="0.250104446 218.654606 411.494872 218.654606 411.494872 0.32384989 0.250104446 0.32384989"></polygon>
    </defs>
    <g id="Case-Studies" stroke="none" stroke-width="1" fill="none" fill-rule="evenodd">
        <g id="Impact-of-the-Auto-show" transform="translate(-499.000000, -3367.000000)">
            <g id="final_logo" transform="translate(499.000000, 3367.000000)">
                <g id="Group-3" transform="translate(0.000000, 0.481894)">
                    <mask id="mask-2" fill="white">
                        <use xlink:href="#path-1"></use>
                    </mask>
                    <g id="Clip-2"></g>
                    <path d="M156.708628,206.664467 C156.708628,169.973046 196.615344,142.428227 235.273336,165.205472 C243.138202,169.84178 248.143593,177.712479 251.721871,186.118741 C254.534125,192.718787 262.60886,195.370356 268.862976,191.432382 C274.02577,188.176989 275.379429,181.256656 272.798032,175.717238 C263.721169,156.242642 246.658765,142.03443 226.568992,136.274486 C221.616068,134.851564 218.168959,130.383276 218.168959,125.221904 C218.168959,117.545479 225.52489,112.000811 232.901809,114.090563 C265.788385,123.384183 291.83321,149.647847 300.065348,184.302023 C301.198644,189.080098 304.923831,193.007571 309.798054,193.600893 C318.591592,194.65627 324.814228,186.953592 323.009349,179.245663 C311.770828,131.223377 273.086603,96.0283866 225.71902,88.4254705 C221.421939,87.7376376 218.168959,84.1934606 218.168959,79.8406862 L218.168959,76.1074864 C218.168959,70.6048233 223.116636,66.4463223 228.55226,67.2969248 C287.609583,76.5222863 335.050621,122.129281 345.407689,182.627071 C346.40457,188.444772 351.10565,193.259602 357.008234,193.275354 C364.500581,193.291106 369.888985,186.659557 368.718961,179.597456 C356.630469,106.492897 298.192261,51.8810674 226.222707,43.3172855 C221.668535,42.7764704 218.168959,39.0537718 218.168959,34.4647189 L218.168959,33.7926379 C218.168959,28.4159901 222.90152,24.3047447 228.232209,24.9453219 C309.986936,34.7692556 376.667775,99.0369991 387.748893,182.238524 C388.525411,188.082478 393.090076,193.039075 398.97692,193.259602 C406.453527,193.532635 412.057047,187.10061 411.149361,180.007005 C398.436506,81.3423671 316.508636,6.05354568 218.168959,0.461621924 L218.168959,0.0888270069 L206.426751,0.0888270069 C92.4203035,0.0888270069 -0.00104934831,92.5734703 -0.00104934831,206.664467 L-0.00104934831,218.415383 L156.708628,218.415383 L156.708628,206.664467 Z" id="Fill-1" fill="#010202" mask="url(#mask-2)"></path>
                </g>
                <g id="Group-6" transform="translate(3.377079, 204.320585)">
                    <mask id="mask-4" fill="white">
                        <use xlink:href="#path-3"></use>
                    </mask>
                    <g id="Clip-5"></g>
                    <path d="M254.788343,0.32384989 L254.788343,10.3105532 C254.788343,34.195681 238.72282,55.8860445 215.35908,60.7638822 C192.126508,65.6154668 169.366143,53.5337611 159.864294,32.809514 C157.482273,27.6166383 151.773819,24.3980005 146.23326,25.7789169 C138.887821,27.6008864 135.293803,35.4505822 138.242472,42.0296249 C147.188166,61.9872796 164.455193,76.5682864 184.838784,82.448995 C189.828435,83.8824177 193.328012,88.3349542 193.328012,93.5278299 C193.328012,101.199004 185.977327,106.738422 178.600408,104.65392 C145.708585,95.3655513 119.66376,69.1071375 111.431623,34.4424608 C110.298326,29.6591344 106.57314,25.7369119 101.69367,25.148841 C92.9053782,24.0829626 86.6827427,31.7908913 88.4876218,39.49882 C99.7261422,87.5158555 138.410368,122.710846 185.777951,130.313762 C190.075032,131.006846 193.328012,134.540521 193.328012,138.903797 L193.328012,142.636997 C193.328012,148.13966 188.375088,152.29291 182.94471,151.447558 C123.887387,142.216946 76.4411031,96.6099512 66.089282,36.112162 C65.0924011,30.2997116 60.3860739,25.4848815 54.4887364,25.4691296 C46.9963894,25.4481271 41.6079858,32.0849267 42.7727624,39.1522783 C54.8665018,112.246335 113.304709,166.863416 185.274264,175.427198 C189.828435,175.968013 193.328012,179.690711 193.328012,184.279764 L193.328012,184.951845 C193.328012,190.328493 188.595451,194.439739 183.264762,193.799161 C101.510034,183.980478 34.8291957,119.702234 23.7480775,36.5007088 C22.9715597,30.6567546 18.4068946,25.7001574 12.5200505,25.4796309 C5.04344378,25.206598 -0.565322966,31.6386229 0.347610067,38.726977 C13.0604649,137.396866 94.9883346,212.685687 193.328012,218.282861 L193.328012,218.655656 L205.07022,218.655656 C319.076667,218.655656 411.49802,126.165762 411.49802,12.0747657 L411.49802,0.32384989 L254.788343,0.32384989 Z" id="Fill-4" fill="#ED1E24" mask="url(#mask-4)"></path>
                </g>
            </g>
        </g>
    </g>
</svg>