<?xml version="1.0" encoding="UTF-8"?>
<svg width="707px" height="295px" viewBox="0 0 707 295" version="1.1" xmlns="http://www.w3.org/2000/svg" xmlns:xlink="http://www.w3.org/1999/xlink">
    <title>Group 2 Copy</title>
    <g id="Page-1" stroke="none" stroke-width="1" fill="none" fill-rule="evenodd">
        <g id="Picked-Option" transform="translate(-354.000000, -3252.000000)" fill="#A12B2A" fill-rule="nonzero">
            <g id="Group-2-Copy" transform="translate(354.000000, 3252.000000)">
                <g id="red_circle-hollow" transform="translate(0.000000, 3.000000)">
                    <path d="M146.5,292 C65.5902841,292 0,226.633573 0,146 C0,65.3664265 65.5902841,0 146.5,0 C227.409716,0 293,65.3664265 293,146 C292.907204,226.595236 227.371247,291.907521 146.5,292 Z M146.5,7.31678059 C90.214246,7.3099939 39.466963,41.0947714 17.9226179,92.9166008 C-3.62172717,144.73843 8.27989759,204.391307 48.077528,244.057909 C87.8751584,283.724512 147.730885,295.592735 199.732794,274.128192 C251.734702,252.663648 285.641322,202.093653 285.641322,146 C285.557814,69.4484224 223.31373,7.40926825 146.5,7.31678059 Z M26.9425287,136.635862 L25.4101724,141.334713 C25.3172369,141.619502 25.0538699,141.814671 24.7534483,141.821379 L19.7354023,141.821379 C19.4357414,141.81068 19.1650669,141.998682 19.0714164,142.282563 C18.977766,142.566445 19.0836932,142.877838 19.3312644,143.046437 L23.3389655,146 C23.5742173,146.181226 23.6743853,146.487359 23.5915517,146.771954 L22.0591954,151.470805 C21.9612785,151.750528 22.0589418,152.061145 22.2995226,152.235165 C22.5401035,152.409184 22.8667063,152.40545 23.1032184,152.225977 L27.1109195,149.356322 C27.3538044,149.187776 27.6763106,149.187776 27.9191954,149.356322 L31.9942529,152.175632 C32.2341049,152.344403 32.554828,152.343529 32.79375,152.173453 C33.0326721,152.003377 33.1375202,151.701309 33.0551149,151.42046 L31.5227586,146.721609 C31.4399251,146.437014 31.5400931,146.130881 31.7753448,145.949655 L35.783046,143.046437 C36.0306171,142.877838 36.1365444,142.566445 36.0428939,142.282563 C35.9492434,141.998682 35.678569,141.81068 35.378908,141.821379 L30.3103448,141.821379 C30.0081546,141.819875 29.742064,141.622688 29.6536207,141.334713 L28.1212644,136.635862 C27.9959047,136.431096 27.7725872,136.306173 27.5318966,136.306173 C27.2912059,136.306173 27.0678884,136.431096 26.9425287,136.635862 Z M264.878736,136.635862 L263.346379,141.334713 C263.253444,141.619502 262.990077,141.814671 262.689655,141.821379 L257.637931,141.821379 C257.33827,141.81068 257.067596,141.998682 256.973945,142.282563 C256.880295,142.566445 256.986222,142.877838 257.233793,143.046437 L261.275172,146 C261.510424,146.181226 261.610592,146.487359 261.527759,146.771954 L259.995402,151.470805 C259.912997,151.751654 260.017845,152.053722 260.256767,152.223798 C260.495689,152.393874 260.816412,152.394748 261.056264,152.225977 L265.063966,149.356322 C265.30685,149.187776 265.629357,149.187776 265.872241,149.356322 L269.879943,152.25954 C270.116455,152.439013 270.443057,152.442747 270.683638,152.268728 C270.924219,152.094709 271.021882,151.784091 270.923966,151.504368 L269.391609,146.805517 C269.308776,146.520922 269.408944,146.214789 269.644195,146.033563 L273.651897,143.130345 C273.899468,142.961746 274.005395,142.650353 273.911744,142.366471 C273.818094,142.08259 273.54742,141.894588 273.247759,141.905287 L268.297069,141.905287 C267.996647,141.898579 267.73328,141.70341 267.640345,141.418621 L266.107989,136.71977 C266.027404,136.440879 265.779888,136.242368 265.489282,136.223562 C265.198676,136.204756 264.927478,136.369698 264.811379,136.635862 L264.878736,136.635862 Z M56.1751724,147.292184 L61.2268966,147.292184 L61.2268966,144.489655 L56.1751724,144.489655 L56.1751724,137.508506 L61.6815517,137.508506 L61.6815517,134.672414 L53.2620115,134.672414 L53.2620115,157.243678 L61.6815517,157.243678 L61.6815517,154.390805 L56.1246552,154.390805 L56.1751724,147.292184 Z M69.6464368,143.70092 C68.355079,142.638778 67.5329065,141.114515 67.3563218,139.455172 C67.3563218,137.928046 67.7941379,137.273563 69.2254598,137.273563 C70.6567816,137.273563 70.9093678,137.961609 71.0945977,139.169885 C71.0945977,139.169885 71.0945977,140.562759 71.0945977,141.066207 L74.091954,141.066207 C74.091954,140.68023 74.091954,139.606207 73.9740805,138.7 C73.955538,137.509547 73.4401859,136.38061 72.5518744,135.584495 C71.6635629,134.78838 70.4826071,134.397067 69.2928161,134.504598 C67.9601274,134.373115 66.6383172,134.842801 65.689729,135.784903 C64.7411408,136.727005 64.2652987,138.042679 64.3926437,139.371264 C64.4133839,141.77266 65.4534583,144.053014 67.2552874,145.647586 C67.8446552,146.302069 68.5855747,147.090805 68.9391954,147.510345 C70.3898666,148.689749 71.2258601,150.460944 71.2124713,152.326667 C71.2124713,154.004828 70.6062644,154.810345 69.3096552,154.810345 C68.8357205,154.887443 68.351302,154.759222 67.9782132,154.457923 C67.6051244,154.156624 67.3788617,153.710914 67.3563218,153.232874 C67.3563218,153.232874 67.3563218,151.554713 67.3563218,151.051264 L64.4936782,151.051264 C64.4936782,151.672184 64.4936782,153.803448 64.5778736,153.937701 C64.7799425,156.169655 66.4301724,157.478621 69.3938506,157.478621 C72.3575287,157.478621 74.3108621,155.59908 74.3108621,152.175632 C74.3721197,149.685608 73.3461252,147.291627 71.4987356,145.614023 L69.6464368,143.70092 Z M75.7758621,137.508506 L79.1436782,137.508506 L79.1436782,157.243678 L82.1410345,157.243678 L82.1410345,137.508506 L85.3572989,137.508506 L85.3572989,134.672414 L75.7758621,134.672414 L75.7758621,137.508506 Z M87.7989655,154.290115 L87.7989655,157.243678 L97.6666667,157.243678 L97.6666667,154.23977 L87.7989655,154.290115 Z M96.7910345,136.786897 C96.0444799,135.202645 94.3567058,134.280251 92.6149425,134.504598 L87.8494828,134.504598 L87.8494828,150.732414 L92.715977,150.732414 C94.3438299,150.965215 95.9482981,150.179044 96.7573563,148.752184 C97.4814368,147.409655 97.5656322,146.570575 97.5824713,142.610115 L97.5824713,142.610115 L97.5824713,142.391954 C97.7589717,140.475396 97.5058984,138.5437 96.8415517,136.736552 L96.7910345,136.786897 Z M92.6149425,148.231954 L90.7626437,148.231954 L90.7626437,137.172865 L92.6149425,137.172865 C93.4947739,137.170064 94.2284682,137.842759 94.2988506,138.716782 C94.4672414,139.53908 94.5851149,142.610115 94.5851149,142.610115 C94.601954,145.798621 94.601954,148.231954 92.6149425,148.231954 Z M196.764655,157.15977 L196.764655,154.642529 C198.347529,150.648506 202.692011,146.251724 202.860402,141.082989 L202.860402,139.186667 C202.860402,137.609195 202.220517,137.307126 201.277529,137.307126 C200.33454,137.307126 199.694655,137.76023 199.593621,138.985287 L199.593621,141.636782 L196.730977,141.636782 C196.730977,141.183678 196.730977,138.934943 196.730977,138.515402 C196.766697,137.353708 197.286286,136.259325 198.164945,135.495112 C199.043604,134.7309 200.201937,134.365912 201.361724,134.487816 C202.477289,134.335734 203.603828,134.67716 204.445556,135.42245 C205.287283,136.16774 205.760108,137.242437 205.739885,138.364368 C205.739885,138.733563 205.739885,140.848046 205.739885,141.301149 C205.520977,146.537011 201.227011,151.269425 199.762011,154.491494 L205.807241,154.491494 L205.807241,157.126207 L196.764655,157.15977 Z M218.234483,138.548966 C218.453391,141.09977 218.487069,143.449195 218.487069,145.89931 C218.487069,147.577471 218.487069,151.185517 218.234483,152.981149 C217.864023,155.934713 216.550575,157.344368 213.856322,157.344368 C211.162069,157.344368 209.848621,155.934713 209.478161,152.981149 C209.30977,151.605057 209.191897,147.829195 209.191897,145.89931 C209.191897,143.549885 209.191897,140.344598 209.410805,138.548966 C209.610865,136.269154 211.526293,134.519917 213.822644,134.519917 C216.118994,134.519917 218.034422,136.269154 218.234483,138.548966 Z M215.489713,139.169885 C215.489713,137.978391 214.900345,137.256782 213.805805,137.256782 C212.711264,137.256782 212.222931,138.062299 212.121897,139.186667 C212.121897,141.250805 212.004023,144.221149 212.004023,145.89931 C212.004023,147.577471 212.004023,150.933793 212.172414,152.897241 C212.172414,154.021609 212.79546,154.76 213.856322,154.76 C214.917184,154.76 215.371839,154.021609 215.54023,152.897241 C215.708621,151.772874 215.658103,147.862759 215.658103,145.815402 C215.54023,143.331724 215.54023,141.183678 215.54023,139.169885 L215.489713,139.169885 Z M223.791379,157.15977 L223.791379,138.7 L220.777184,138.834253 L220.777184,136.568736 C223.252529,136.317011 224.145,135.477931 224.532299,134.655632 L226.620345,134.655632 L226.620345,157.15977 L223.791379,157.15977 Z M137.912069,184.748736 C139.595977,181.677701 142.963793,171.776552 135.958736,146.570575 L135.958736,146.285287 L148.806954,131.064368 C160.981609,131.752414 180.599138,167.37977 163.962126,190.588736 C165.246757,192.290439 166.373973,194.104681 167.329943,196.009195 L188.782931,170.836782 L184.051149,166.842759 L178.123793,173.790345 C185.937126,140.378161 167.19523,125.375402 160.40908,121.163218 C159.863596,120.811311 159.492327,120.246457 159.38654,119.607513 C159.280754,118.968569 159.45026,118.314791 159.853391,117.806897 L159.853391,117.806897 L155.340517,113.997471 L133.449713,139.706897 L128.717931,128.983448 C131.732126,126.197701 148.167069,110.221609 151.736954,89.8655172 C153.858678,77.7491954 151.736954,65.6664368 146.146379,59.1216092 C143.039457,55.2999304 138.333474,53.1253436 133.399195,53.2312644 C129.374655,53.2312644 124.541839,55.6813793 120.466782,59.776092 C115.667644,64.625977 107.652241,76.1213793 107.887989,98.7933333 C108.03954,112.218621 113.259655,126.482989 118.311379,140.243908 C125.518506,159.878391 132.338333,178.438851 125.215402,194.213563 L124.777586,195.203678 L125.821609,195.421839 C126.006839,195.421839 145.237069,199.684368 146.567356,207.168966 C143.19954,212.690115 139.629655,215.55977 131.058563,211.783908 C130.216609,211.431494 129.374655,211.011954 128.397989,210.592414 L128.111724,210.458161 C120.618333,206.984368 110.346494,202.251954 101.926954,206.397011 C96.5216092,209.082069 92.7496552,215.14023 90.7289655,224.403678 L94.4672414,225.561609 C94.601954,225.225977 97.952931,217.456092 105.631552,217.456092 C108.999368,217.456092 111.676782,219.654483 114.707816,222.188506 C118.867069,225.67908 123.582011,229.622759 131.748966,229.622759 C140.606322,229.622759 145.641207,221.231954 150.490862,213.042529 L150.810805,212.471954 C152.784967,208.428269 155.936195,205.071414 159.853391,202.83931 L160.577471,202.453333 L160.257529,201.714943 C160.223851,201.228276 154.633276,189.111954 137.928908,184.748736 L137.912069,184.748736 Z M126.629885,124.888736 C124.272414,121.247126 115.903391,107.133793 115.903391,90.4696552 C115.903391,79.8468966 119.826897,64.0218391 130.654425,64.0218391 C136.447069,64.0218391 142.677569,71.925977 142.677569,89.2949425 C142.694368,100.84069 137.440575,112.436782 126.646724,124.888736 L126.629885,124.888736 Z M196.714138,157.142989 L196.714138,154.642529 C198.297011,150.648506 202.641494,146.251724 202.809885,141.082989 L202.809885,139.186667 C202.809885,137.609195 202.153161,137.307126 201.227011,137.307126 C200.300862,137.307126 199.644138,137.76023 199.543103,138.985287 L199.543103,141.636782 L196.68046,141.636782 C196.68046,141.183678 196.68046,138.934943 196.68046,138.515402 C196.71618,137.353708 197.235769,136.259325 198.114428,135.495112 C198.993086,134.7309 200.15142,134.365912 201.311207,134.487816 C202.426772,134.335734 203.553311,134.67716 204.395038,135.42245 C205.236766,136.16774 205.709591,137.242437 205.689368,138.364368 C205.689368,138.733563 205.689368,140.848046 205.689368,141.301149 C205.47046,146.537011 201.176494,151.252644 199.711494,154.491494 L205.739885,154.491494 L205.739885,157.109425 L196.714138,157.142989 Z M218.183966,138.548966 C218.402874,141.09977 218.436552,143.449195 218.436552,145.882529 C218.436552,147.56069 218.436552,151.185517 218.183966,152.981149 C217.813506,155.934713 216.500057,157.344368 213.805805,157.344368 C211.111552,157.344368 209.798103,155.934713 209.427644,152.981149 C209.259253,151.605057 209.141379,147.829195 209.141379,145.882529 C209.141379,143.549885 209.141379,140.344598 209.360287,138.548966 C209.560348,136.269154 211.475776,134.519917 213.772126,134.519917 C216.068477,134.519917 217.983905,136.269154 218.183966,138.548966 Z M215.439195,139.169885 C215.439195,137.978391 214.849828,137.256782 213.755287,137.256782 C212.660747,137.256782 212.172414,138.062299 212.071379,139.186667 C212.071379,141.250805 211.953506,144.221149 211.953506,145.89931 C211.953506,147.577471 211.953506,150.933793 212.121897,152.914023 C212.121897,154.038391 212.744943,154.776782 213.805805,154.776782 C214.866667,154.776782 215.321322,154.038391 215.489713,152.914023 C215.658103,151.789655 215.607586,147.87954 215.607586,145.815402 C215.54023,143.331724 215.54023,141.183678 215.54023,139.169885 L215.439195,139.169885 Z M223.740862,157.142989 L223.740862,138.683218 L220.726667,138.834253 L220.726667,136.568736 C223.202011,136.317011 224.094483,135.477931 224.481782,134.655632 L226.569828,134.655632 L226.569828,157.142989 L223.740862,157.142989 Z M238.896034,152.108506 L238.896034,157.142989 L236.134425,157.142989 L236.134425,152.108506 L230.459655,152.108506 L230.459655,149.104598 L235.393506,134.655632 L238.896034,134.655632 L238.896034,149.356322 L240.579943,149.356322 L240.579943,152.024598 L238.896034,152.108506 Z M236.134425,140.210345 L233.019195,149.356322 L236.168103,149.356322 L236.134425,140.210345 Z M145.035,23.0914943 C144.715057,22.5712644 144.142529,22.4705747 143.351092,22.5209195 L137.036437,22.8565517 L137.204828,25.7597701 L143.603678,25.4241379 C144.47931,25.4241379 145.001322,25.1724138 145.186552,24.7528736 C145.302944,24.4893295 145.349336,24.2003725 145.321264,23.9137931 C145.30511,23.6183633 145.205912,23.333416 145.035,23.0914943 L145.035,23.0914943 Z M41.1378736,111.127816 L35.5472989,109.449655 L33.2403448,117.303448 L38.8309195,118.981609 L37.3154023,124.183908 L21.8908046,119.770345 L23.4231609,114.534483 L29.0305747,116.212644 L31.3206897,108.342069 L25.7132759,106.663908 L27.2456322,101.428046 L42.6533908,105.891954 L41.1378736,111.127816 Z M46.1895977,81.1558621 C50.7024713,83.522069 52.116954,87.8685057 48.6144253,94.5811494 C45.415,100.656092 41.1041954,102.804138 36.1871839,100.236552 C31.8258621,97.9542529 30.5797701,93.1211494 33.8633908,86.8112644 C37.1470115,80.5013793 41.5251724,78.756092 46.1222414,81.1558621 L46.1895977,81.1558621 Z M43.6637356,86.0896552 C41.6093678,85.0156322 39.5213218,84.9988506 37.5343103,88.7747126 C35.7325287,92.2149425 36.6081609,94.0944828 38.8309195,95.2691954 C41.0536782,96.443908 43.108046,96.1754023 44.9771839,92.6344828 C46.8463218,89.0935632 45.7686207,87.2643678 43.5963793,86.0896552 L43.6637356,86.0896552 Z M63.3486207,72.4965517 L54.407069,83.5388506 L41.9293103,73.4698851 L50.5172414,62.78 C51.3913234,61.4568039 52.75195,60.5287089 54.3060345,60.1956322 C55.288156,60.1143017 56.2611046,60.435491 57.0002874,61.0850575 C57.7440928,61.6116867 58.2753925,62.3850938 58.4989655,63.2666667 C58.6371983,64.0166242 58.4997046,64.79111 58.1116667,65.4482759 C58.901203,64.6657259 59.9621073,64.2151789 61.0753448,64.1896552 C61.9462381,64.2233644 62.7788419,64.5552692 63.4328161,65.1294253 C64.2710162,65.7475898 64.8665412,66.6378286 65.1167241,67.6466667 C65.2436223,69.4526572 64.5732883,71.2238991 63.2812644,72.4965517 L63.3486207,72.4965517 Z M53.2451724,65.783908 C52.8578736,65.783908 52.4537356,66.1866667 51.9654023,66.7908046 L48.0587356,71.623908 L50.0794253,73.302069 L54.0871264,68.3682759 C54.4684246,67.9919742 54.7014713,67.4917405 54.7438506,66.9586207 C54.6864122,66.6217459 54.4990684,66.3206098 54.2218391,66.1195402 C53.9598234,65.8741999 53.6020623,65.7574023 53.2451724,65.8006897 L53.2451724,65.783908 Z M59.5598276,69.1402299 C59.2939426,68.9000955 58.9410522,68.7788245 58.5831609,68.8045977 C58.0145147,69.0147349 57.5298715,69.4034822 57.2023563,69.9121839 L52.7905172,75.5172414 L54.8617241,77.1954023 L59.2398851,71.7917241 C59.846092,71.0365517 60.1155172,70.5163218 60.0818391,70.1135632 C60.0431597,69.7564362 59.8532119,69.432795 59.5598276,69.2241379 L59.5598276,69.1402299 Z M79.1436782,57.6951724 L68.2151149,66.7908046 L57.9264368,54.5234483 L68.5518966,45.6795402 C69.665556,44.5453267 71.1862538,43.8992736 72.7785057,43.883908 C73.7578393,43.9980533 74.6499239,44.5000283 75.2538506,45.2767816 C75.8689459,45.9446952 76.2320469,46.8048585 76.2810345,47.7101149 C76.2642706,48.4647262 75.9707438,49.1870839 75.4559195,49.7406897 C76.3821932,49.1274359 77.5098001,48.8930692 78.6048276,49.0862069 C79.455597,49.2853765 80.2111194,49.7715292 80.7433908,50.4622989 C81.4398261,51.2372305 81.8497566,52.2259949 81.9052874,53.2648276 C81.6667895,55.0686437 80.6606077,56.682823 79.1436782,57.6951724 L79.1436782,57.6951724 Z M70.6062644,49.1701149 C70.0509265,49.2372188 69.5376283,49.4989402 69.1581034,49.9085057 L64.3758046,53.8857471 L66.0597126,55.8827586 L70.9598851,51.8216092 C71.4021315,51.521749 71.724114,51.0760774 71.8691954,50.5629885 C71.8731068,50.2247796 71.7533992,49.8967073 71.5324138,49.64 C71.3151078,49.3468378 70.971981,49.1727512 70.6062644,49.1701149 L70.6062644,49.1701149 Z M76.1294828,53.7011494 C75.9224949,53.4143698 75.605426,53.2259931 75.2538506,53.1809195 C74.6498336,53.274052 74.0934851,53.5630736 73.670977,54.0032184 L68.2824713,58.5006897 L69.9663793,60.5312644 L75.3043678,56.0841379 C76.0452874,55.48 76.398908,55.0101149 76.4494253,54.5737931 C76.4676346,54.2514554 76.3519248,53.9358569 76.1294828,53.7011494 Z M93.2379885,48.8344828 C87.9336782,51.7712644 84.8184483,51.5363218 82.8482759,50.0595402 C82.428349,49.7049154 82.0549465,49.2989576 81.7368966,48.8512644 L86.8896552,46.0151724 C87.0874941,46.2614691 87.3415199,46.4570918 87.6305747,46.5857471 C88.3546552,46.8542529 89.7186207,46.5018391 91.7561494,45.3774713 C94.383046,43.9342529 94.804023,43.2126437 94.4167241,42.5078161 C94.0294253,41.8029885 93.2716667,41.954023 90.7458046,43.028046 L87.5632184,44.488046 C82.7977586,46.5689655 80.3392529,46.1662069 79.0089655,43.6825287 C77.6786782,41.1988506 79.530977,37.657931 84.9531609,34.6708046 C89.7522989,32.0193103 92.7833333,32.203908 94.7029885,33.4793103 C95.2309147,33.825353 95.6975274,34.2563473 96.0837931,34.7547126 L90.9310345,37.5908046 C90.7640688,37.3723879 90.5353557,37.208744 90.2743103,37.1209195 C89.6007471,36.8188506 88.4051724,37.0202299 86.6202299,38.0103448 C84.1112069,39.4032184 83.6060345,40.0744828 83.9596552,40.7121839 C84.3132759,41.3498851 85.2899425,41.1149425 88.2704598,39.8731034 C89.4155172,39.3696552 91.2341379,38.5809195 91.874023,38.3291954 C95.7133333,36.6510345 97.9866092,37.1544828 99.3337356,39.5878161 C101.034483,42.5413793 98.9464368,45.7466667 93.2379885,48.8848276 L93.2379885,48.8344828 Z M124.306092,36.9866667 L110.498046,40.4772414 L106.557701,24.9878161 L120.028966,21.6314943 C121.518153,21.0745561 123.169998,21.1411307 124.609195,21.816092 C125.470837,22.3193229 126.08156,23.1592453 126.293103,24.131954 C126.549293,25.036539 126.465468,26.0032026 126.057356,26.8505747 C125.704829,27.5382616 125.102711,28.0663168 124.373448,28.3273563 C125.472762,28.1771535 126.58797,28.453502 127.488678,29.0993103 C128.173823,29.6425062 128.644862,30.4090468 128.818966,31.2641379 C129.115939,32.2600392 129.056414,33.3278382 128.650575,34.2848276 C127.663491,35.7786847 126.082303,36.7803506 124.306092,37.0370115 L124.306092,36.9866667 Z M120.31523,25.6758621 C119.771685,25.4768674 119.174866,25.4768674 118.631322,25.6758621 L112.586092,27.2029885 L113.225977,29.7370115 L119.40592,28.1595402 C119.937154,28.0887431 120.426204,27.8331649 120.786724,27.437931 C120.908401,27.1190311 120.908401,26.766716 120.786724,26.4478161 C120.73567,26.1394056 120.566672,25.8627139 120.31523,25.6758621 L120.31523,25.6758621 Z M123.295747,32.1871264 C123.237705,31.837255 123.028368,31.5304576 122.723218,31.348046 C122.177123,31.1638978 121.585406,31.1638978 121.03931,31.348046 L114.303678,33.0262069 L114.960402,35.6105747 L121.696034,33.9324138 C122.344507,33.8532367 122.94248,33.543352 123.379943,33.0597701 C123.464177,32.7687957 123.434072,32.4567739 123.295747,32.1871264 Z M149.867816,26.1793103 C149.30431,27.0342729 148.428292,27.6363608 147.426149,27.8574713 L152.612586,34.1170115 L146.5,34.4694253 L142.206034,29.0489655 L137.255345,29.3174713 L137.558448,34.956092 L132.153103,35.2413793 L131.344828,19.282069 L144.108851,18.594023 C145.962929,18.3024726 147.854983,18.7951609 149.328966,19.9533333 C150.161228,20.7980219 150.616539,21.9414879 150.591897,23.1250575 C150.669577,24.1929767 150.416862,25.2589585 149.867816,26.1793103 L149.867816,26.1793103 Z M154.262816,34.9225287 L155.761494,19.0303448 L172.432184,20.6078161 L172.061724,24.5682759 L160.77954,23.4942529 L160.577471,25.5248276 L171.556552,26.5652874 L171.186092,30.4418391 L160.207011,29.4013793 L159.971264,31.4822989 L171.405,32.5731034 L171.03454,36.5167816 L154.262816,34.9225287 Z M193.649425,44.4209195 L187.991494,42.3903448 C187.991494,42.3903448 188.210402,32.3213793 188.277759,32.0696552 C188.07569,32.3045977 181.862069,40.2758621 181.862069,40.2758621 L176.220977,38.262069 L175.98523,21.1951724 L181.575805,23.2089655 C181.575805,23.2089655 181.441092,33.8317241 181.356897,34.0666667 C181.356897,33.8317241 187.873621,25.4409195 187.873621,25.4409195 L193.278966,27.3875862 C193.278966,27.3875862 192.908506,37.9264368 192.82431,38.1613793 C192.82431,37.9264368 199.559943,29.6195402 199.559943,29.6195402 L204.611667,31.4151724 L193.649425,44.4209195 Z M199.458908,47.1395402 L207.322759,33.2275862 L212.172414,35.9629885 L204.291724,49.8749425 L199.458908,47.1395402 Z M217.645115,59.5914943 L216.668448,47.7101149 L211.296782,54.8087356 L207.087011,51.6537931 L216.752644,38.8997701 L221.349713,42.3567816 L222.242184,53.9193103 L227.411782,46.9885057 L231.587874,50.1266667 L221.93908,62.8974713 L217.645115,59.5914943 Z M233.928506,75.6514943 L234.972529,74.5103448 C232.752058,74.0139319 230.771467,72.7691731 229.365115,70.9862069 C227.22062,68.9599679 226.128115,66.064814 226.401437,63.1324138 C226.813254,61.3455679 227.800975,59.7423154 229.213563,58.5678161 C230.508532,57.3214319 232.187551,56.546871 233.979023,56.3694253 C236.538563,56.2351724 239.485402,57.5105747 242.398563,60.7326437 C245.766379,64.4245977 246.591494,67.6298851 245.530632,70.2813793 C245.261529,70.9012505 244.885365,71.4692514 244.419253,71.9595402 L240.798851,67.9990805 C241.007887,67.6317483 241.107209,67.2125229 241.085115,66.7908046 C240.91188,65.5462555 240.317874,64.3978168 239.401207,63.5351724 C238.536594,62.3021437 237.180183,61.5008614 235.67977,61.3367816 C234.609996,61.450095 233.617309,61.9447445 232.884483,62.7296552 C232.060566,63.3468607 231.467749,64.2212344 231.200575,65.2133333 C231.184757,66.7641296 231.834194,68.2478536 232.985517,69.2912644 C233.915882,70.4933628 235.270558,71.2973942 236.77431,71.54 C237.178602,71.5144894 237.571044,71.3937077 237.919368,71.1875862 L234.063218,66.9754023 L236.622759,64.6595402 L243.762529,72.5636782 L236.77431,78.8735632 L233.928506,75.6514943 Z M254.691092,102.367816 C251.643218,102.468506 248.932126,100.538621 246.389425,95.5544828 C244.335057,91.5604598 244.015115,88.4558621 244.991782,86.2071264 C245.802246,84.4921738 247.207758,83.1272216 248.948966,82.3641379 C250.479346,81.4953443 252.264246,81.1810883 254.00069,81.4747126 C256.56023,81.9949425 259.052414,84.0422989 261.073103,88.1873563 C263.935747,93.7756322 263.127471,97.1151724 261.443563,99.0618391 C260.901995,99.6208593 260.284104,100.101057 259.608103,100.488276 L257.014885,95.4537931 C257.379021,95.2304526 257.680307,94.9186459 257.890517,94.5475862 C258.378851,93.6413793 258.362011,92.1813793 257.267471,90.0668966 C256.172931,87.9524138 255.078391,86.9958621 253.748103,86.8783908 C252.919134,86.8587024 252.101599,87.0740279 251.390632,87.4993103 C250.603685,87.8519792 249.945075,88.4380165 249.504655,89.1774713 C248.940128,90.732751 249.14615,92.4624115 250.060345,93.8427586 C251.037011,95.7390805 252.114713,96.9137931 253.293448,97.0648276 C253.710493,97.1185336 254.133996,97.0423287 254.505862,96.8466667 L257.09908,101.881149 C256.327117,102.168646 255.514451,102.332889 254.691092,102.367816 Z M265.316552,123.781149 C260.39954,125.174023 256.391839,123.009195 254.320632,115.742759 C252.434655,109.147586 254.084885,104.650115 259.372356,103.122989 C264.104138,101.78046 268.347586,104.431954 270.28408,111.211724 C272.220575,117.991494 270.30092,122.354713 265.316552,123.781149 Z M263.733678,118.461379 C265.956437,117.84046 267.488793,116.414023 266.310057,112.31931 C265.249195,108.577011 263.312701,107.821839 260.887874,108.509885 C258.463046,109.197931 257.166437,110.775402 258.260977,114.618391 C259.355517,118.461379 261.376207,119.149425 263.733678,118.461379 Z M36.5576437,176.777471 C35.1539475,178.134009 33.3567508,179.01486 31.4217241,179.294713 C29.4769254,179.841704 27.412223,179.794939 25.4943678,179.16046 C23.642069,178.438851 22.3117816,176.55931 21.6382184,173.521839 C20.9646552,170.484368 21.3351149,168.31954 22.7159195,166.809195 C24.1462775,165.378514 25.9996913,164.443205 28.0033908,164.14092 C29.846403,163.592776 31.8169262,163.645692 33.6276437,164.291954 C35.8428004,165.368585 37.3583468,167.491955 37.6521839,169.930575 C38.3425862,173.051954 37.9047701,175.233563 36.5576437,176.777471 Z M26.2521264,175.737011 C27.6317217,176.294118 29.1644496,176.34761 30.5797701,175.888046 C31.999685,175.69633 33.3180842,175.048218 34.3348851,174.042069 C34.9921178,173.05199 35.1712102,171.821086 34.8232184,170.685747 C34.6819981,169.477797 33.9680973,168.4106 32.9035632,167.816092 C31.5447392,167.387561 30.0862952,167.387561 28.7274713,167.816092 C27.2172522,168.021218 25.8310279,168.759602 24.8208046,169.897011 C24.2373344,170.85479 24.0962056,172.016658 24.4335057,173.085517 C24.6464932,174.181626 25.3046718,175.14123 26.2521264,175.737011 L26.2521264,175.737011 Z M27.1614368,191.78023 C25.4775287,187.282759 26.1847701,185.067586 27.835,183.825747 C28.2851811,183.507416 28.7712095,183.242702 29.2831609,183.037011 L30.562931,186.393333 C30.2492631,186.531844 29.9594468,186.718732 29.7041379,186.947126 C28.9968966,187.702299 28.9968966,188.809885 29.7041379,190.790115 C30.562931,193.038851 31.4890805,193.592644 32.4657471,193.223448 C33.695,192.753563 33.8802299,191.981609 33.4255747,189.397241 C33.3245402,188.944138 33.1224713,187.71908 33.0045977,187.064598 C32.432069,183.96 33.0887931,181.66092 35.5641379,180.721149 C38.0394828,179.781379 40.6158621,181.14069 42.2997701,185.503908 C43.731092,189.229425 43.0912069,191.478161 41.4914943,192.938161 C41.1085785,193.300332 40.6710655,193.60045 40.1948851,193.827586 L38.9151149,190.471264 C39.1652858,190.355793 39.3888557,190.190116 39.5718391,189.984598 C40.2454023,189.27977 40.3801149,188.306437 39.6560345,186.426897 C38.713046,183.96 37.9721264,183.691494 37.1301724,184.010345 C36.2882184,184.329195 35.9345977,185.470345 36.3724138,188.088276 C36.5071264,188.893793 36.6755172,189.951034 36.7597126,190.303448 C37.3154023,193.475172 36.6755172,195.488966 34.1328161,196.445517 C31.5901149,197.402069 28.7948276,196.042759 27.1614368,191.78023 Z M34.941092,208.310115 C32.6004598,204.114713 33.0214368,201.89954 34.4695977,200.372414 C34.8682455,199.986489 35.3153985,199.653679 35.7998851,199.382299 L37.4837931,202.503678 C37.1880303,202.687218 36.9260352,202.919939 36.7091954,203.191724 C36.1198276,204.030805 36.2713793,205.138391 37.3154023,206.984368 C38.3594253,208.830345 39.4708046,209.501609 40.396954,208.998161 C41.3231034,208.494713 41.6262069,207.554943 40.7842529,205.071264 C40.6327011,204.634943 40.2622414,203.493793 40.0433333,202.822529 C39.0498276,199.835402 39.352931,197.469195 41.7272414,196.109885 C44.1015517,194.750575 46.7789655,195.824598 49.0017241,199.902529 C50.9550575,203.376322 50.6856322,205.692184 49.2711494,207.370345 C48.9416327,207.781071 48.54958,208.13781 48.1092529,208.427586 L46.4253448,205.306207 C46.6580025,205.150171 46.858142,204.950714 47.0147126,204.718851 C47.5872414,203.930115 47.5704023,202.94 46.5768966,201.194713 C45.2971264,198.895632 44.5393678,198.711034 43.731092,199.147356 C42.9228161,199.583678 42.7712644,200.825517 43.5795402,203.292414 L44.2699425,205.44046 C45.2802874,208.494713 44.9435057,210.575632 42.5860345,211.884598 C40.2285632,213.193563 37.1638506,212.304138 34.941092,208.310115 Z M41.0536782,217.758161 L54.0871264,208.612184 L56.1414943,211.448276 L43.0912069,220.577471 L41.0536782,217.758161 Z M59.7450575,229.807356 C58.1792686,229.743833 56.7282533,228.971364 55.8047126,227.709655 C55.4847701,227.374023 52.4368966,223.866667 52.4368966,223.866667 L48.3281609,227.441149 L46.0548851,224.873563 L58.0611494,214.435402 L63.7359195,220.913103 C64.8611778,221.931645 65.4463196,223.414321 65.3187931,224.923908 C64.9739811,226.226459 64.1963778,227.374094 63.1128736,228.17954 C62.2065229,229.085022 61.0197077,229.658663 59.7450575,229.807356 Z M61.732069,224.336552 C61.950977,223.732414 61.732069,223.061149 61.0248276,222.238851 L58.1285057,218.882529 L54.6596552,221.903218 L57.5222989,225.158851 C58.3305747,226.081839 58.9536207,226.3 59.5261494,226.19931 C60.0002828,226.059729 60.4297497,225.799458 60.7722414,225.444138 C61.1740238,225.154099 61.5026208,224.774917 61.732069,224.336552 L61.732069,224.336552 Z M58.3642529,238.248506 L68.8044828,226.232874 L77.9986207,234.187356 L76.0284483,236.452874 L69.4106897,230.730345 L67.187931,233.264368 L73.5531034,238.768736 L71.582931,241.051034 L65.2009195,235.546667 L62.9276437,238.298851 L69.6632759,244.071724 L67.7099425,246.32046 L58.3642529,238.248506 Z M71.4650575,249.089425 L80.2045402,235.798391 L90.3079885,242.511034 L88.6240805,245.011494 L81.3159195,240.228736 L79.4131034,243.098391 L86.4686782,247.713333 L84.7847701,250.247356 L77.7291954,245.632414 L75.8263793,248.518851 L83.2355747,253.368736 L81.5516667,255.852414 L71.4650575,249.089425 Z M86.3508046,260.836552 L84.6668966,259.577931 L86.6033908,258.201839 L86.3844828,258.201839 L85.7782759,257.882989 L87.5632184,254.45954 L90.7626437,256.137701 L88.944023,259.611494 L86.3508046,260.836552 Z M109.740287,267.80092 L106.995517,255.583908 L103.627701,265.803908 L100.461954,264.78023 L105.513678,249.676782 L109.369828,250.935402 L111.996724,262.565057 L115.196149,252.831724 L118.361897,253.872184 L113.310172,268.975632 L109.740287,267.80092 Z M118.159828,270.116782 L120.971954,254.476322 L133.028736,256.758621 L132.489885,259.712184 L123.868276,258.151494 L123.262069,261.507816 L131.563736,263.001379 L131.024885,265.971724 L122.723218,264.478161 L122.100172,267.834483 L130.822816,269.395172 L130.300805,272.331954 L118.159828,270.116782 Z M152.376839,273.204598 L148.503851,273.204598 L145.75908,261.642069 L142.728046,273.154253 L138.80454,273.154253 L134.342184,257.245287 L138.08046,257.245287 L141.077816,268.858161 L143.906782,257.295632 L147.830287,257.295632 L150.507701,268.891724 L153.690287,257.329195 L157.058103,257.329195 L152.376839,273.204598 Z M178.612126,269.076322 L177.163966,262.867126 L170.428333,264.411034 L171.876494,270.62023 L168.508678,271.408966 L165.022989,256.003448 L168.390805,255.214713 L169.838966,261.457471 L176.574598,259.913563 L175.109598,253.670805 L178.477414,252.882069 L182.097816,268.354713 L178.612126,269.076322 Z M188.715575,266.072414 L185.347759,267.364598 L185.347759,250.331264 L189.439655,248.653103 L200.671322,261.34 L197.303506,262.648966 L194.676609,259.661839 L188.597701,262.128736 L188.715575,266.072414 Z M189.271264,253.502989 L188.462989,252.412184 L188.580862,253.788276 L188.580862,258.973793 L192.554885,257.446667 L189.271264,253.502989 Z M215.691782,252.99954 L210.370632,243.937471 L212.509195,254.845517 L209.545517,256.523678 L201.125977,249.257241 L206.447126,258.31931 L203.635,259.997471 L195.58592,246.286897 L199.660977,243.903908 L208.821437,251.891954 L206.463966,239.977011 L210.421149,237.677931 L218.47023,251.388506 L215.691782,252.99954 Z M228.641034,234.237701 C228.559919,235.804514 227.750505,237.244077 226.451954,238.131034 C226.115172,238.449885 222.511609,241.369885 222.511609,241.369885 L225.997299,245.548506 L223.319885,247.78046 L213.115402,235.563448 L219.733161,230.05908 C220.786245,228.971374 222.282785,228.426785 223.791379,228.582299 C225.096238,228.949086 226.236655,229.748206 227.024483,230.847816 C227.937565,231.782929 228.496974,233.004684 228.607356,234.304828 L228.641034,234.237701 Z M223.202011,232.14 C222.595805,231.905057 221.922241,232.14 221.080287,232.794483 L217.712471,235.613793 L220.65931,239.137931 L224.027126,236.368966 C224.970115,235.58023 225.222701,234.95931 225.121667,234.371954 C224.985875,233.90521 224.737246,233.478799 224.397586,233.130115 C224.069778,232.726859 223.647685,232.409929 223.168333,232.207126 L223.202011,232.14 Z M241.809195,230.931724 C238.576092,234.506207 236.336494,234.825057 234.416839,233.969195 C233.926081,233.709449 233.463386,233.400164 233.036034,233.046207 L235.444023,230.377931 C235.707591,230.599482 236.010235,230.770206 236.336494,230.881379 C237.33,231.166667 238.340345,230.663218 239.70431,229.085747 C241.068276,227.508276 241.388218,226.216092 240.596782,225.528046 C239.805345,224.84 238.912874,224.84 236.757471,226.434253 L234.854655,227.86069 C232.345632,229.790575 230.005,230.26046 228.119023,228.498391 C226.233046,226.736322 226.199368,223.866667 229.331437,220.392874 C232.008851,217.422529 234.298966,216.952644 236.336494,217.707816 C236.83355,217.886044 237.29948,218.140865 237.717299,218.462989 L235.326149,221.114483 C235.103899,220.951145 234.852435,220.831538 234.58523,220.762069 C233.642241,220.493563 232.716092,220.762069 231.368966,222.322759 C229.600862,224.286207 229.685057,225.058161 230.358621,225.67908 C231.032184,226.3 232.21092,226.065057 234.349483,224.487586 C235.006207,223.984138 235.865,223.363218 236.151264,223.128276 C238.727644,221.181609 240.798851,220.829195 242.886897,222.641609 C244.974943,224.454023 244.84023,227.592184 241.775517,230.998851 L241.809195,230.931724 Z M254.825805,213.344598 L249.487816,209.837241 L245.715862,215.492644 L251.053851,219.016782 L249.134195,221.903218 L235.747126,213.126437 L237.649943,210.24 L243.021609,213.797701 L246.793563,208.125517 L241.489253,204.735632 L243.408908,201.849195 L256.694943,210.625977 L254.825805,213.344598 Z M259.086092,205.910345 L244.924425,198.610345 L246.608333,195.472184 L260.77,202.772184 L259.086092,205.910345 Z M259.944885,183.171264 C260.515789,183.844543 260.750952,184.738811 260.58477,185.604598 L268.381264,184.631264 L266.949943,188.272874 L260.04592,188.910575 L258.530402,192.803908 L264.306207,195.052644 L263.060115,198.241149 L248.208046,192.468276 L251.42431,184.228506 C251.810218,182.717966 253.013825,181.550886 254.53954,181.207816 C255.561932,181.030332 256.614367,181.170959 257.553736,181.610575 C258.466803,181.942391 259.278712,182.503007 259.911207,183.238391 L259.944885,183.171264 Z M255.314138,184.614483 C254.691092,184.614483 254.219598,185.134713 253.882816,186.024138 L252.198908,190.337011 L255.920345,191.78023 L257.604253,187.282759 C257.905054,186.763534 257.905054,186.123822 257.604253,185.604598 C256.956358,185.04206 256.138488,184.711304 255.28046,184.664828 L255.314138,184.614483 Z M269.492644,180.553333 L253.967011,176.911724 L256.762299,165.164598 L259.692299,165.835862 L257.637931,174.36092 L261.005747,175.149655 L262.942241,166.96023 L265.88908,167.648276 L263.952586,175.837701 L267.320402,176.626437 L269.341092,168.034253 L272.254253,168.705517 L269.492644,180.553333 Z" id="Shape"></path>
                </g>
                <g id="red_circle-solid" transform="translate(411.000000, 0.000000)">
                    <path d="M74.8884927,55.439228 L70.1637709,59.3871219 L68.4823752,57.4469176 L73.0893993,53.5833804 C73.4614762,53.1836964 73.9610754,52.9270764 74.5017717,52.8579127 C74.8461824,52.8718881 75.1665663,53.038809 75.3760974,53.313439 C75.5984311,53.5638544 75.7185086,53.8891702 75.7123766,54.2244914 C75.5826142,54.7112684 75.2921693,55.1395011 74.8884927,55.439228 Z M73.980539,63.8748987 L79.1256098,59.5389639 C79.8486099,58.948467 80.1848891,58.5098121 80.2521449,58.0711572 C80.2434292,57.7556191 80.1174913,57.4547437 79.8990518,57.2275902 C79.6984015,56.9463779 79.384986,56.767553 79.04154,56.7383213 C78.4611226,56.8079784 77.9245267,57.0831745 77.5282839,57.514403 L72.3159573,61.8840804 L73.980539,63.8748987 Z M96.4271712,138.344968 L94.7457756,138.344968 L94.7457756,149.108916 L96.4271712,149.108916 C98.3775902,149.108916 98.3944042,146.730057 98.3775902,143.642601 C98.3775902,143.642601 98.2767065,140.656374 98.1085669,139.846549 C98.0138789,138.987908 97.2880992,138.339759 96.4271712,138.344968 Z M59.1842571,70.1341664 C59.1287103,69.8036207 58.9479763,69.5074143 58.6798384,69.3074706 C58.4246552,69.0758882 58.0768512,68.9761764 57.7382568,69.0375292 C57.2247168,69.2032148 56.7847545,69.5432613 56.4940241,69.9991956 L52.7949536,74.7062999 L54.7453726,76.292206 L58.6125826,71.4838737 C58.9542134,71.1146583 59.1564397,70.6372076 59.1842571,70.1341664 L59.1842571,70.1341664 Z M63.522258,74.7906566 C63.9907956,74.3483939 64.2784976,73.746969 64.3293279,73.1035225 C64.2749729,72.7905757 64.0918948,72.5150213 63.8249092,72.3443121 C63.5776155,72.1078716 63.2401505,71.9908949 62.9001416,72.0237566 C62.34197,72.2098351 61.8661646,72.5858106 61.555025,73.0866511 L57.301094,78.3842523 L59.3019548,80.0713865 L63.522258,74.7906566 Z M43.8163007,97.6681956 C46.0021151,98.8154468 47.9357201,98.5623767 49.7516274,95.120623 C51.5675347,91.6788694 50.5755113,89.8567645 48.4905807,88.743256 C46.40565,87.6297474 44.488859,87.6972328 42.5720679,91.3583139 C40.8234164,94.7157109 41.6809282,96.5378157 43.8163007,97.6681956 Z M121.732176,32.4773323 C122.244552,32.4062733 122.715213,32.1551947 123.060479,31.7687359 C123.217752,31.4730155 123.248111,31.1257483 123.144548,30.8070695 C123.082493,30.4650695 122.864822,30.1717713 122.55606,30.0141164 C122.051811,29.8253009 121.496611,29.8253009 120.992362,30.0141164 L115.157919,31.4987945 L115.780035,33.9620103 L121.732176,32.4773323 Z M109.811081,252.108455 C107.702192,251.116777 105.293769,250.97782 103.085498,251.720414 C102.141363,252.133889 101.410654,252.922081 101.067823,253.896817 C100.548089,254.988621 100.650735,256.276079 101.336847,257.271086 C102.573719,259.095859 104.414169,260.422637 106.532359,261.016523 C109.457988,262.096289 111.475662,262.23126 113.257942,261.387693 C114.186403,260.972794 114.895449,260.181595 115.208361,259.21129 C115.636352,258.230389 115.599268,257.107884 115.107477,256.157577 C113.901888,254.19701 112.014888,252.754389 109.811081,252.108455 L109.811081,252.108455 Z M235.091872,141.331227 L232.06536,150.306781 L235.091872,150.306781 L235.091872,141.331227 Z M255.773039,116.496613 C256.832318,120.258922 258.782737,120.883161 261.052621,120.225179 C263.322506,119.567197 264.667622,118.234361 263.541087,114.252724 C262.515436,110.625386 260.632272,109.883047 258.311946,110.541029 C255.99162,111.199011 254.71376,112.751175 255.773039,116.496613 L255.773039,116.496613 Z M213.485938,138.429357 C213.340838,138.410267 213.193875,138.410267 213.048775,138.429357 C212.308961,138.631813 211.955868,139.306666 211.905426,140.23459 C211.905426,142.225408 211.787728,145.127279 211.787728,146.746928 C211.787728,148.366577 211.787728,151.67336 211.955868,153.495464 C211.955868,154.592102 212.56117,155.300698 213.519566,155.300698 C214.477961,155.300698 214.98238,154.592102 215.100078,153.495464 C215.217775,152.398827 215.200961,148.552161 215.200961,146.611957 C215.200961,144.199355 215.200961,142.12418 215.100078,140.150233 C215.032822,139.205438 214.528403,138.496842 213.485938,138.496842 L213.485938,138.429357 Z M116.603919,37.2013079 L117.24285,39.7151378 L123.749851,38.0280036 C124.396842,37.9589107 124.995612,37.6524959 125.431247,37.1675652 C125.655448,36.5551984 125.449941,35.8678383 124.926828,35.4804311 C124.383338,35.2846839 123.788922,35.2846839 123.245432,35.4804311 L116.603919,37.2013079 Z M144.935436,29.7610463 C145.792948,29.7610463 146.297367,29.5417189 146.465506,29.1368067 C146.574934,28.8758121 146.621036,28.5924754 146.600018,28.3101109 C146.604403,28.0249279 146.52865,27.7442716 146.381437,27.5002865 C146.078785,27.0110176 145.507111,26.8929183 144.700041,26.9435323 L138.613389,27.2809591 L138.764714,30.0984731 L144.935436,29.7610463 Z M282.809881,146.983127 C282.809881,201.516882 250.068574,250.679941 199.855367,271.544374 C149.642161,292.408808 91.8474327,280.864996 53.4246186,242.296568 C15.0018046,203.728141 3.51895934,145.731833 24.3312795,95.3550907 C45.1435996,44.9783483 94.1517296,12.143764 148.499995,12.1642276 C222.650885,12.2757963 282.726545,72.5791289 282.809881,146.983127 Z M256.832318,105.310913 C251.670434,106.795591 250.106736,111.165269 251.905829,117.576379 C253.90669,124.645471 257.790714,126.737517 262.53225,125.38781 C267.273785,124.038102 269.257832,119.85401 267.357855,113.172958 C265.457878,106.491907 261.456156,104.01182 256.88276,105.310913 L256.832318,105.310913 Z M242.893548,88.8613554 C241.951967,91.0546298 242.271432,94.0745999 244.238665,97.9550084 C246.710316,102.797083 249.282852,104.703545 252.258922,104.568574 C253.087013,104.515603 253.900083,104.321626 254.663318,103.994949 L252.174852,99.0853883 C251.810901,99.2675304 251.401506,99.3379519 250.997875,99.2878444 C249.854526,99.1360023 248.812061,98.0056224 247.870479,96.1666462 C246.987515,94.8230424 246.794008,93.1381658 247.349247,91.6282554 C247.778172,90.9332951 248.413175,90.3905208 249.165154,90.076092 C249.845815,89.6541092 250.635355,89.4428467 251.435038,89.4687237 C252.729713,89.5868231 253.889876,90.7003316 254.79783,92.5730505 C255.695401,93.8379397 255.921346,95.4627417 255.403132,96.9258566 C255.204727,97.287435 254.914728,97.5900635 254.562434,97.8031663 L257.0509,102.695855 C257.711908,102.328726 258.312971,101.862166 258.833179,101.312405 C260.514575,99.4228151 261.237575,96.2510029 258.480086,90.7509456 C256.462411,86.769309 254.108457,84.7616194 251.636806,84.2554792 C249.932095,83.969577 248.181233,84.2792569 246.676688,85.1327889 C245.032706,85.8943769 243.710402,87.2152176 242.94399,88.8613554 L242.893548,88.8613554 Z M232.183058,59.8595194 C230.456058,60.0342469 228.838535,60.7892888 227.592848,62.0021798 C226.22462,63.1344858 225.267134,64.6882976 224.868987,66.4224713 C224.600533,69.2837356 225.661234,72.1094752 227.744173,74.0820603 C229.106863,75.7998829 231.019654,76.9920062 233.158267,77.4563286 L232.132616,78.5698371 L234.974175,81.7247779 L241.699757,75.5667383 L234.789221,67.890278 L232.317569,70.1341664 L236.01664,74.2339023 C235.674352,74.423088 235.296288,74.538044 234.906919,74.5713292 C233.451929,74.3450176 232.139471,73.5657286 231.241476,72.3949261 C230.141123,71.3758587 229.528954,69.9323525 229.56008,68.4301609 C229.804473,67.4714006 230.353381,66.6185772 231.123778,66.0006877 C231.836577,65.2408928 232.796814,64.7621277 233.830825,64.6509804 C235.27671,64.813514 236.582234,65.5945818 237.412198,66.7936408 C238.318096,67.6195631 238.912023,68.7339969 239.093594,69.9485816 C239.122981,70.3603328 239.029315,70.7715226 238.824571,71.1295755 L242.187362,74.9424987 C242.638397,74.4832711 243.00296,73.9459923 243.263455,73.3565926 C244.289107,70.7752773 243.482037,67.6540792 240.253757,64.0604835 C237.54671,60.973028 234.705151,59.7245487 232.2335,59.8595194 L232.183058,59.8595194 Z M235.04143,152.904967 L235.04143,157.831399 L237.714849,157.831399 L237.714849,152.904967 L239.396245,152.904967 L239.396245,150.306781 L237.714849,150.306781 L237.714849,135.983012 L234.352058,135.983012 L229.576894,150.003097 L229.576894,152.904967 L235.04143,152.904967 Z M223.069893,157.831399 L225.793754,157.831399 L225.793754,135.898655 L223.776079,135.898655 C223.389358,136.691608 222.548661,137.585789 220.144265,137.754503 L220.144265,140.032134 L220.144265,140.032134 L223.053079,139.897163 L223.053079,157.831399 L223.069893,157.831399 Z M215.554055,42.8700786 L206.222309,55.2705146 L210.291286,58.3410987 L215.554055,51.4407201 L216.495636,62.9807176 L220.715939,66.1862725 L230.047685,53.7858365 L226.012336,50.7321237 L220.968149,57.4806603 L220.110637,46.2274755 L215.554055,42.8700786 Z M217.689427,139.745321 C217.693097,138.64922 217.238561,137.601796 216.436367,136.857796 C215.634174,136.113796 214.557833,135.741396 213.469124,135.83117 L213.469124,135.83117 C212.563927,135.795504 211.668565,136.030385 210.896589,136.506024 C209.880794,137.278513 209.263725,138.46733 209.215193,139.745321 C209.030239,141.432455 208.996611,144.621139 208.996611,146.89877 C208.996611,148.78836 209.114309,152.449441 209.265635,153.782277 C209.618728,156.667277 210.846147,158.033855 213.502752,158.033855 C216.159357,158.033855 217.369962,156.667277 217.723055,153.782277 C217.891195,152.095143 217.975264,148.585904 217.975264,146.89877 C217.992078,144.503039 217.95845,142.24228 217.739869,139.745321 L217.689427,139.745321 Z M206.457704,37.35315 L198.840982,50.8502231 L203.565703,53.5158951 L211.182426,40.0188219 L206.457704,37.35315 Z M202.859517,140.386432 L202.859517,142.208537 C202.691378,147.269939 198.487888,151.521517 196.957818,155.401926 L196.957818,155.401926 L196.957818,157.831399 L205.768332,157.831399 L205.768332,155.300698 L199.933889,155.300698 C201.363075,152.162628 205.499308,147.556752 205.71789,142.478478 C205.71789,142.039824 205.71789,139.98152 205.71789,139.627222 C205.73202,138.535609 205.272909,137.491664 204.459734,136.766375 C203.646559,136.041085 202.559513,135.705979 201.480773,135.848041 L201.480773,135.848041 C200.980863,135.850321 200.48341,135.918387 200.001145,136.050497 C199.718544,136.128454 199.442952,136.230038 199.177261,136.354182 C198.810811,136.536991 198.471317,136.769771 198.168423,137.045907 C197.447293,137.76748 197.031671,138.740576 197.00826,139.762193 C197.00826,140.183976 197.00826,142.360379 197.00826,142.799034 L199.765749,142.799034 L199.765749,140.217719 C199.765749,139.137953 200.32061,138.682427 201.026796,138.530585 L201.329447,138.530585 C202.271029,138.547456 202.909959,138.85114 202.909959,140.386432 L202.859517,140.386432 Z M176.22621,25.6613103 L176.444791,42.245839 L181.926141,44.1523006 C181.926141,44.1523006 187.979166,36.4758402 188.096863,36.2396414 C188.012793,36.4758402 187.811026,46.2780896 187.811026,46.2780896 L193.275562,48.2351652 L203.784285,35.5310451 L198.975493,33.8439109 C198.975493,33.8439109 192.535748,41.9252835 192.468492,42.1446109 C192.468492,41.9252835 192.888841,31.6675079 192.888841,31.6675079 L187.676514,29.7779176 C187.676514,29.7779176 181.472164,37.9436469 181.388095,38.2135884 C181.388095,37.9942609 181.606676,27.6521286 181.606676,27.6521286 L176.22621,25.6613103 Z M155.309648,39.1583835 L171.535116,40.6936756 L171.888209,36.8470097 L160.841439,35.8009865 L161.093649,33.7426829 L171.686441,34.7549634 L172.039535,30.9926542 L161.446742,29.9803737 L161.631695,27.9895555 L172.543953,29.0355786 L172.91386,25.1720414 L156.80609,23.619878 L155.309648,39.1583835 Z M133.115225,23.9741762 L133.955923,39.4958103 L139.218691,39.2089975 L138.91604,33.7258115 L143.708018,33.4727414 L147.844251,38.7365999 L153.712322,38.4160445 L148.668135,32.3423615 C149.648492,32.1239192 150.498203,31.5149109 151.022089,30.6552274 C151.539316,29.756851 151.762776,28.718348 151.661019,27.6858713 C151.688918,26.5350209 151.252362,25.4216546 150.450414,24.5984158 C149.017134,23.4907955 147.193959,23.02125 145.406227,23.2993225 L133.115225,23.9741762 Z M109.273034,29.4067481 L113.089802,44.4559847 L126.42327,41.0817164 C128.169067,40.8445473 129.723688,39.8518664 130.677201,38.3654304 C131.073528,37.4307895 131.132982,36.386804 130.845341,35.4129457 C130.674516,34.5878205 130.222697,33.8481255 129.56748,33.3208993 C128.694398,32.6854264 127.607755,32.4188959 126.540968,32.5785603 C127.224475,32.3078071 127.78228,31.7902267 128.104666,31.127625 C128.458121,30.3175037 128.505928,29.4060561 128.239177,28.5631811 C128.044062,27.6328287 127.479372,26.8225058 126.675479,26.3192926 C125.281735,25.6614612 123.684068,25.5885922 122.236595,26.1168366 L109.273034,29.4067481 Z M82.6229128,47.5265688 C83.9175874,49.8716853 86.2883553,50.3440829 90.8953795,48.3026505 L94.0227754,46.9360719 C96.4439852,45.9069201 97.1501714,45.704464 97.5537063,46.446803 C97.9572413,47.189142 97.5537063,47.8133816 94.981171,49.213703 C93.013938,50.3103402 91.7024494,50.6646383 91.0130772,50.3946969 C90.7276693,50.2758034 90.4783623,50.0838217 90.290077,49.8379426 L85.24589,52.6048426 C85.5527249,53.0380939 85.914462,53.4294228 86.3219833,53.7689652 C88.2051464,55.2030292 91.2148447,55.4560993 96.4103573,52.5879713 C101.925335,49.5342585 103.85894,46.4299316 102.278428,43.5449323 C100.96694,41.1829445 98.7811252,40.7611609 95.0652407,42.3301957 C94.4599383,42.5663945 92.6944729,43.3256048 91.5847517,43.8317451 C88.7095651,45.0296103 87.8184254,45.3332945 87.4317044,44.6415695 C87.0449834,43.9498445 87.5662161,43.3593475 90.0042398,42.0096402 C91.6856354,41.0479737 92.8794264,40.8455176 93.5351707,41.1323304 C93.7813391,41.230381 93.996359,41.3936541 94.1572871,41.604728 L99.2014741,38.8546993 C98.8335658,38.3649775 98.384207,37.9426225 97.8731715,37.6062201 C96.0068223,36.3746121 93.0980078,36.1890274 88.4573558,38.7534713 C83.1273315,41.655342 81.2946102,45.113967 82.6229128,47.5265688 Z M101.219149,143.710086 L101.219149,143.490759 C101.393077,141.627545 101.151858,139.748839 100.512963,137.990702 C99.7735598,136.472166 98.1463081,135.601336 96.4776131,135.83117 L91.870589,135.83117 L91.870589,151.589003 L96.5953108,151.589003 C98.1638334,151.828547 99.7146823,151.06058 100.479335,149.66567 C101.168707,148.366577 101.269591,147.539881 101.269591,143.710086 L101.219149,143.710086 Z M91.8201471,155.013885 L91.8201471,157.932627 L101.219149,157.932627 L101.219149,155.013885 L91.8201471,155.013885 Z M83.4131687,138.733041 L83.4131687,157.932627 L86.3219833,157.932627 L86.3219833,138.733041 L89.4493792,138.733041 L89.4493792,135.983012 L80.2689588,135.983012 L80.2689588,138.733041 L83.4131687,138.733041 Z M62.328467,58.0711572 L72.2655154,69.9823243 L82.8078663,61.1417414 C84.2817158,60.1703284 85.2537087,58.5962518 85.4644715,56.8395493 C85.4402075,55.8374007 85.0652055,54.8757914 84.4051922,54.1232633 C83.8929169,53.4460547 83.1617207,52.9688568 82.3370755,52.773556 C81.283633,52.5900139 80.200176,52.8195244 79.3105633,53.414667 C79.7999689,52.8721861 80.0802169,52.1721663 80.1008193,51.4407201 C80.0600116,50.5569413 79.7016396,49.7178861 79.0919819,49.0787323 C78.5270165,48.3132193 77.665909,47.8229802 76.721214,47.7290039 C75.1900837,47.7248845 73.7201575,48.3318569 72.6354225,49.4161591 L62.328467,58.0711572 Z M75.7796324,153.141166 C75.7796324,154.8283 75.2079579,155.570639 73.9469111,155.570639 C73.4870708,155.632337 73.0222593,155.500646 72.6624866,155.206734 C72.302714,154.912822 72.0799559,154.482812 72.046934,154.018476 C72.046934,154.018476 72.046934,152.331342 72.046934,151.909558 L69.2726312,151.909558 C69.2726312,152.516927 69.2726312,154.57523 69.2726312,154.710201 C69.4743986,156.886604 71.0549106,158.084469 73.9300972,158.084469 C76.8052838,158.084469 78.671633,156.262364 78.671633,153.023067 C78.7597561,150.6011 77.7821004,148.26276 75.9982138,146.628828 L74.3168182,144.75611 C73.0603744,143.730519 72.2520822,142.25368 72.063748,140.639502 C72.063748,139.154824 72.5009108,138.513713 73.8796553,138.513713 C75.2583997,138.513713 75.561051,139.188567 75.6787487,140.369561 C75.6787487,140.369561 75.6787487,141.702397 75.6787487,142.208537 L78.4698655,142.208537 C78.4698655,141.820496 78.4698655,140.774473 78.3521678,139.897163 C78.3334208,138.743712 77.8370781,137.650131 76.9822103,136.878764 C76.1273424,136.107398 74.9910873,135.727849 73.8460274,135.83117 C72.5865584,135.751958 71.3555136,136.229142 70.4762115,137.137395 C69.5969094,138.045648 69.1572232,139.294204 69.2726312,140.555146 C69.2991701,142.888531 70.2993959,145.103882 72.0301201,146.662571 L73.7115157,148.467805 C75.0747781,149.630748 75.8461869,151.346024 75.8132603,153.141166 L75.7796324,153.141166 Z M46.809185,76.5284048 L58.8647919,86.2800401 L67.4903517,75.549867 C68.7287371,74.3162136 69.3780714,72.6074302 69.2726312,70.8596341 C69.0164453,69.8665475 68.4214979,68.9949597 67.5912355,68.3964182 C66.9755564,67.8493523 66.1930673,67.5281507 65.3717932,67.4853658 C64.2968428,67.4971931 63.269848,67.9336401 62.5134206,68.7001023 C62.8909901,68.0729199 63.0284342,67.329388 62.9001416,66.608056 C62.6933204,65.7503694 62.1860736,64.9958844 61.4709552,64.482267 C60.7562918,63.8494921 59.8142809,63.5384823 58.8647919,63.6218286 C57.3650892,63.9318919 56.0512953,64.8309938 55.2161633,66.1187871 L46.809185,76.5284048 Z M61.3028157,145.532191 L61.3028157,138.783655 L66.616026,138.783655 L66.616026,135.983012 L58.4780709,135.983012 L58.4780709,157.915756 L66.6664679,157.915756 L66.6664679,155.216341 L61.3028157,155.216341 L61.3028157,148.248477 L66.1956771,148.248477 L66.1956771,145.532191 L61.3028157,145.532191 Z M41.2605793,102.442785 C46.018929,104.956615 50.1719763,102.864569 53.2657444,96.9595993 C56.6285357,90.4472615 55.2834192,86.2462974 50.9286044,83.951795 C46.5737896,81.6572926 42.2357888,83.310684 39.0075091,89.4181096 C35.7792294,95.5255352 37.0402761,100.23264 41.2605793,102.442785 Z M27.5403906,121.473658 L42.3703004,125.843336 L43.8499286,120.781933 L38.4358345,119.196027 L40.6889047,111.519567 L46.0861848,113.105473 L47.565813,108.044071 L32.7022753,103.708136 L31.2226471,108.769538 L36.6367412,110.338573 L34.4172989,117.981291 L29.0200188,116.412256 L27.5403906,121.473658 Z M28.3306466,152.516927 L32.2819264,149.699413 C32.5192029,149.532878 32.8349058,149.532878 33.0721824,149.699413 L36.9393924,152.533798 C37.1726461,152.711372 37.4949577,152.71227 37.7291896,152.535996 C37.9634214,152.359723 38.0528105,152.048996 37.9482298,151.774588 L36.4854156,147.219325 C36.3878831,146.946931 36.4843405,146.642745 36.720811,146.476986 L40.588021,143.659472 C40.8173158,143.487096 40.9126052,143.187885 40.8254215,142.91403 C40.7382377,142.640176 40.4877234,142.451807 40.2013,142.444736 L35.3252526,142.444736 C35.0414997,142.443947 34.790444,142.260119 34.7031362,141.98921 L33.223508,137.417076 C33.1256626,137.152573 32.8741614,136.977062 32.5929846,136.977062 C32.3118078,136.977062 32.0603066,137.152573 31.9624612,137.417076 L30.482833,141.98921 C30.3955252,142.260119 30.1444695,142.443947 29.8607166,142.444736 L25.068739,142.444736 C24.7823155,142.451807 24.5318013,142.640176 24.4446175,142.91403 C24.3574337,143.187885 24.4527232,143.487096 24.682018,143.659472 L28.549228,146.476986 C28.7856985,146.642745 28.8821558,146.946931 28.7846234,147.219325 L27.2377394,151.842073 C27.1546295,152.13077 27.2717699,152.439827 27.5250684,152.600145 C27.7783668,152.760463 28.1067907,152.733414 28.3306466,152.533798 L28.3306466,152.516927 Z M33.206694,193.767356 L49.7684414,195.707561 L48.5578365,191.860895 L35.2916246,190.477445 L45.5985801,182.531043 L44.1525798,177.95891 L31.1722052,177.435898 L41.2605793,168.629058 L39.9322767,164.428094 L27.6244604,175.934349 L29.1881584,180.894523 L41.1260676,181.468149 L31.6934379,188.824053 L33.206694,193.767356 Z M42.8915331,205.830366 L45.262301,204.37943 L52.4586744,216.189369 L55.1657215,214.502235 L47.969348,202.692296 L50.289674,201.275103 L57.6541871,213.405598 L60.4453039,211.718464 L51.0126742,196.179958 L38.0322996,204.143231 L47.5489991,219.816708 L50.3401159,218.129573 L42.8915331,205.830366 Z M68.5328171,220.575918 C63.875351,215.514516 60.5798155,214.215422 58.1922337,216.442439 C55.4683727,218.973141 58.8143501,223.190976 61.7904204,226.835186 C64.1107464,229.602086 66.212491,232.014688 65.1532118,232.993225 C64.4133977,233.68495 63.2364207,233.330652 60.008141,229.838284 C56.7798613,226.345917 55.8719077,224.540683 56.9311869,223.275333 L53.9214887,220.019164 C51.6179766,222.98852 52.3914186,226.26156 57.4524196,231.744746 C62.5134206,237.227932 65.7417002,238.223341 68.1460961,235.996324 C70.8195152,233.516237 68.8522822,230.530009 65.069142,225.873519 C62.6311183,222.87042 60.1930945,220.22162 61.1346761,219.361181 C62.0762577,218.500743 62.715188,218.990012 66.0947933,222.634222 C68.9027241,225.687934 69.4575847,227.695624 68.8354683,228.539191 L71.8787944,231.812231 C73.6274459,229.753928 73.6778878,226.177203 68.5328171,220.626532 L68.5328171,220.575918 Z M92.6944729,241.260183 L75.8805161,228.910361 L73.9469111,231.559161 L80.6724938,236.519336 L73.610632,246.186614 L76.9734233,248.616087 L84.0352851,238.96568 L90.7608678,243.908983 L92.6944729,241.260183 Z M118.890617,255.010326 C117.511873,252.412139 114.989779,250.556292 110.971244,249.071614 C106.952708,247.586936 103.993452,247.38448 101.000567,248.582345 C99.2628705,249.249403 97.9126154,250.659946 97.3183109,252.429011 C96.5720902,254.294599 96.7336774,256.402402 97.7554738,258.131524 C99.5677114,260.927317 102.307635,262.989273 105.489894,263.952137 C109.491616,265.419944 112.921663,265.740499 115.426942,264.593248 C117.202132,263.857225 118.566462,262.37724 119.159641,260.544126 C119.948695,258.760919 119.848893,256.708006 118.890617,255.010326 Z M126.456898,258.519565 C126.608224,257.507284 127.448921,257.220472 132.375411,257.912197 C136.478016,258.485822 138.19304,259.599331 138.226668,260.746582 L142.648738,261.35395 C142.648738,258.620793 140.44611,255.837022 132.963899,254.774127 C126.238316,253.812461 122.875525,254.909098 122.354292,258.148395 C121.83306,261.843219 127.095828,263.024213 131.686038,263.918394 C135.233783,264.593248 138.411621,265.133131 138.176226,266.550323 C138.041714,267.562604 136.915179,268.035001 132.207271,267.377019 C127.802014,266.75278 125.666642,265.892341 125.683456,264.23895 L121.311827,263.631581 C121.311827,267.377019 124.052502,269.435323 131.400201,270.481346 C138.478877,271.476755 141.908924,270.245147 142.362901,266.988978 C142.86732,263.378511 139.487714,262.298745 133.60283,261.084009 C129.802875,260.274184 126.288758,259.818658 126.440084,258.519565 L126.456898,258.519565 Z M167.213929,265.656142 C166.96172,262.011933 163.430789,261.657634 157.411392,261.674506 C153.560996,261.674506 149.979623,261.927576 149.895554,260.662225 C149.895554,259.649945 150.584926,259.177547 155.545043,258.84012 C159.681276,258.570179 161.614881,259.329389 161.850277,260.409155 L166.305975,260.0886 C165.751115,257.422928 163.027254,255.145297 155.494601,255.651437 C148.634507,256.123834 145.574367,257.878454 145.792948,261.134623 C146.045157,264.863189 151.425624,264.913803 156.116718,264.863189 C159.714904,264.863189 162.8423,264.677605 163.01044,266.094797 C163.01044,267.107078 162.068858,267.781931 157.327322,268.119358 C152.871624,268.423042 150.60174,268.119358 150.299089,266.432224 L145.893832,266.719037 C146.73453,270.380118 149.761042,271.780439 157.192811,271.341784 C164.321928,270.835644 167.43251,268.929183 167.213929,265.656142 Z M168.895325,195.623204 L189.593305,171.210373 L185.036723,167.313093 L179.319978,174.06163 C186.85263,141.584297 168.743999,127.007458 162.20337,122.890851 C161.643424,122.548993 161.261137,121.977849 161.157583,121.328423 C161.054028,120.678998 161.239632,120.016681 161.665323,119.516583 L157.310508,115.804888 L136.108109,140.875701 L131.484271,130.466083 C134.409899,127.749797 150.265461,112.211292 153.712322,92.4212084 C155.763624,80.6112694 153.712322,68.9025584 148.315042,62.5420627 C145.314946,58.8279773 140.770635,56.7162573 136.007225,56.822678 C132.123201,56.822678 127.448921,59.1846658 123.531269,63.1831737 C118.890617,67.8734066 111.139383,79.059106 111.374779,101.109949 C111.526104,114.168368 116.570291,128.019739 121.463153,141.398713 C128.424131,160.497071 134.914318,178.515664 128.188735,193.885456 L127.768387,194.830251 L128.777224,195.049578 C128.962177,195.049578 147.524786,199.199928 148.81946,206.522091 C145.456669,211.870306 142.093878,214.670949 133.821411,211.009867 L131.26569,209.845745 L130.979852,209.710774 C123.749851,206.336506 113.829616,201.73063 105.758917,205.76288 C100.529777,208.377938 96.897962,214.198551 94.9475431,223.258461 L98.5457298,224.388841 C98.6802414,224.068286 101.908521,216.526796 109.323476,216.526796 C112.686267,216.526796 115.157919,218.652585 118.100361,221.115801 C122.118897,224.490069 126.658665,228.336735 134.544411,228.336735 C143.102715,228.336735 147.995576,220.154134 152.636229,212.224604 L152.955694,211.66785 C154.855525,207.734109 157.897796,204.46971 161.682137,202.304255 L162.388323,201.933086 L162.068858,201.207618 C161.850277,200.701478 156.452997,188.90841 140.328412,184.673703 C142.009808,181.670605 145.170832,172.05394 138.428435,147.556752 C138.428435,147.556752 138.428435,147.388039 138.529319,147.286811 L150.921205,132.473773 C162.690975,133.148627 181.62349,167.768619 165.599789,190.342474 C166.829827,192.03615 167.915369,193.830868 168.844883,195.707561 L168.895325,195.623204 Z M176.528861,268.169972 L173.351023,253.255706 L169.332488,254.116145 L172.510325,269.030411 L176.528861,268.169972 Z M197.832144,251.180531 C197.422742,249.759195 196.483366,248.550756 195.209167,247.806263 C193.326529,247.138967 191.256182,247.254379 189.458794,248.126819 L177.285489,252.580853 L182.481002,266.904622 L186.230514,265.521172 L184.902211,261.860091 L193.30919,258.772635 C195.898539,257.82784 197.462237,256.562489 198.017098,254.80787 C198.325128,253.615708 198.242594,252.355724 197.781702,251.214274 L197.832144,251.180531 Z M221.371684,248.14369 L219.690288,245.343047 L207.449727,252.817052 L206.003727,250.438192 L217.773497,243.217258 L216.092101,240.500972 L204.322331,247.721906 L202.909959,245.410533 L214.98238,238.004014 L213.300984,235.203371 L197.832144,244.685065 L205.751518,257.692869 L221.371684,248.14369 Z M239.345803,232.200272 L237.126361,229.770799 L226.550382,239.573048 L224.667219,237.514745 L234.839663,228.15115 L232.70429,225.806034 L222.615916,235.169628 L220.783195,233.17881 L231.207848,223.579017 L228.988406,221.166415 L215.554055,233.398138 L225.827382,244.634451 L239.345803,232.200272 Z M246.289967,227.914952 L245.146618,224.894981 L241.598873,221.925625 L238.858199,225.198666 L242.456385,228.201764 L242.893548,227.661881 L243.044874,227.256969 L244.457246,230.125097 L246.289967,227.914952 Z M263.574715,194.492824 L250.005852,187.575574 L248.324456,190.949842 L257.790714,195.791917 L243.02806,201.410074 L241.111269,205.155512 L254.663318,212.072762 L256.445597,208.563523 L247.029782,203.755191 L261.775622,198.069549 L263.574715,194.492824 Z M271.040112,168.612186 L256.3279,164.782392 L255.319062,168.679672 L260.968552,170.147478 L257.925225,181.856189 L252.309364,180.388383 L251.300527,184.268791 L266.012739,188.098586 L267.021576,184.218177 L261.288017,182.733499 L264.314529,170.92356 L270.048088,172.408238 L271.040112,168.612186 Z M272.368414,143.659472 C272.597709,143.487096 272.692998,143.187885 272.605815,142.91403 C272.518631,142.640176 272.268117,142.451807 271.981693,142.444736 L267.189716,142.444736 C266.905963,142.443947 266.654907,142.260119 266.567599,141.98921 L265.087971,137.417076 C264.990126,137.152573 264.738624,136.977062 264.457448,136.977062 C264.176271,136.977062 263.92477,137.152573 263.826924,137.417076 L262.347296,141.98921 C262.249431,142.259585 261.995019,142.440968 261.708366,142.444736 L256.933202,142.444736 C256.646779,142.451807 256.396264,142.640176 256.309081,142.91403 C256.221897,143.187885 256.317186,143.487096 256.546481,143.659472 L260.413691,146.476986 C260.645393,146.646231 260.740719,146.946851 260.649086,147.219325 L259.169458,151.774588 C259.081364,152.050343 259.178415,152.351755 259.410652,152.523661 C259.642889,152.695568 259.958538,152.699647 260.19511,152.533798 L264.06232,149.699413 C264.292691,149.53061 264.605391,149.53061 264.835762,149.699413 L268.702972,152.533798 C268.939543,152.699647 269.255193,152.695568 269.487429,152.523661 C269.719666,152.351755 269.816717,152.050343 269.728623,151.774588 L268.248995,147.219325 C268.166432,146.943226 268.267758,146.644988 268.501204,146.476986 L272.368414,143.659472 Z M193.157864,251.382987 C192.038617,250.90325 190.761865,250.96544 189.694189,251.551701 L182.027025,254.352344 L183.708421,258.95822 L191.341957,256.157577 C193.107422,255.516466 193.931306,254.858484 194.133074,254.031788 C194.214436,253.551468 194.149996,253.057698 193.94812,252.614595 C193.807872,252.136506 193.53355,251.708977 193.157864,251.382987 L193.157864,251.382987 Z M295,147.050612 C294.972144,228.229875 229.369528,294.018625 148.466379,294 C67.5632298,293.98136 1.99071786,228.162399 2,146.983132 C2.00928214,65.8038656 67.596844,0 148.5,0 C229.403148,0 294.990715,65.8038583 295,146.983127 L295,147.050612 Z M289.955813,147.050612 C289.955813,68.6600903 226.623886,5.11201646 148.499995,5.11201646 C70.3761042,5.11201646 7.04417737,68.6600903 7.04417737,147.050612 C7.04417737,225.441134 70.3761042,288.989208 148.499995,288.989208 C226.615546,288.90546 289.909482,225.365311 289.955813,146.983127 L289.955813,147.050612 Z M133.165667,67.299781 C122.707386,67.299781 118.924245,82.6695731 118.924245,93.0117054 C118.924245,109.225064 126.994945,122.924594 129.281643,126.484447 C139.706296,114.421438 144.767297,103.100768 144.767297,91.8813255 C144.834553,74.9931127 138.815156,67.299781 133.165667,67.299781 Z" id="Shape"></path>
                </g>
            </g>
        </g>
    </g>
</svg>