<?xml version="1.0" encoding="UTF-8"?>
<svg width="675px" height="275px" viewBox="0 0 675 275" version="1.1" xmlns="http://www.w3.org/2000/svg" xmlns:xlink="http://www.w3.org/1999/xlink">
    <title>h-glyphs</title>
    <g id="Page-1" stroke="none" stroke-width="1" fill="none" fill-rule="evenodd">
        <g id="Picked-Option" transform="translate(-383.000000, -4189.000000)" fill="#A12B2A" fill-rule="nonzero">
            <g id="h-glyphs" transform="translate(383.000000, 4189.000000)">
                <g id="red_square-h">
                    <path d="M211.898913,63 L112.497131,63 C106.212917,96.5267991 79.0374802,122.853772 74,127.481039 L81.9521426,145.388726 L118.730802,102.440345 L126.312294,108.804924 L126.312294,108.804924 C125.59062,109.653529 125.276286,110.771102 125.450888,111.867542 C125.625491,112.963982 126.27181,113.931158 127.222073,114.518011 C138.611159,121.567493 170.082774,146.624891 156.975217,202.419365 L166.915395,190.809437 L174.85069,197.49141 L138.830179,239.42079 C137.17925,236.234726 135.239377,233.204209 133.03455,230.366717 C160.917592,191.594569 127.980222,132.0916 107.54389,130.93896 L85.9956049,156.380572 C85.9550033,156.539483 85.9043601,156.695704 85.8439751,156.84831 C97.6374069,198.944739 92.0439507,215.465917 89.213527,220.611036 C117.248199,227.894387 126.615554,248.140765 127.003052,249.009421 L127.559028,250.245586 L126.34599,250.880374 C117.332438,255.524345 112.867782,263.843401 111.183006,266.967223 C110.963985,267.384847 110.77866,267.702241 110.643877,267.93611 C109.430839,269.957406 108.200952,271.995408 106.954218,274 L212,274 L211.898913,63 Z" id="Path"></path>
                    <path d="M29.7762799,256.728876 C43.7631199,249.732978 60.8377468,257.704266 73.3057294,263.455701 L73.7897609,263.674323 C75.3419997,264.397457 76.8107848,265.086956 78.1961162,265.692371 C92.4666988,272.032404 98.3251485,267.189089 104,257.922887 C101.813513,245.343724 69.800674,238.246923 69.5002407,238.146021 L67.8311667,237.776045 L68.5655593,236.094339 C80.4159846,209.557013 69.0829722,178.36136 57.099021,145.282197 C48.7536511,122.141918 40.0077034,98.1944193 39.7740331,75.5922861 C39.3567646,37.4848204 52.6926657,18.1451975 60.6875301,10.0057389 C64.0029094,6.56116075 67.8816399,3.71684736 72.1540684,1.59720715 C72.2680715,1.47702896 72.2834529,1.29301177 72.1910046,1.15531481 C72.0985564,1.01761785 71.923313,0.963528678 71.7701814,1.025427 C40.4249719,9.87120234 30.1935484,42.5972077 26.8887819,61.5668552 L0,61.5668552 L0,274 L15.1218103,274 C18.6769379,265.608285 23.5840154,259.823216 29.7762799,256.728876 Z" id="Path"></path>
                    <path d="M98,59.4904372 C98,39.4084699 92.9324324,26.8237705 86.6317568,21 C92.2905405,41.2995219 90.1283784,55.0891393 88.472973,61.1639344 L53,61.1639344 L53,61.414959 C53,89.2954235 67.0709459,112.875 71.0574324,119 C89.1317568,98.2988388 98,78.8025956 98,59.4904372 Z" id="Path"></path>
                </g>
                <g id="red_circle-h" transform="translate(449.000000, 10.000000)">
                    <path d="M121.650019,40 C121.683821,44.825399 121.274723,49.6438343 120.427786,54.3956705 C114.944712,85.6115454 89.6512761,110.05893 85,114.335538 L92.2485215,130.751654 L126.029687,91.3529765 L132.989626,97.212267 C132.330853,97.9892477 132.042497,99.0105617 132.198623,100.013883 C132.35475,101.017204 132.940145,101.904762 133.804448,102.448587 C144.261332,108.914011 173.119614,131.896572 161.100988,183.081179 L170.21681,172.423331 L177.482307,178.552014 L144.482013,217.024654 C142.954194,214.11175 141.176533,211.334622 139.168694,208.723993 C164.631884,173.147324 134.534393,118.561636 115.776509,117.500902 L96.0000982,140.837041 C96.0000982,141.022249 95.8982455,141.156945 95.8642946,141.274805 C106.609761,179.898978 101.534098,195.052315 98.8859265,199.766687 C124.603749,206.501503 133.193332,225.022249 133.549816,225.830427 L134.05908,226.975346 L132.9387,227.547805 C124.688626,231.824414 120.563589,239.434756 119.018822,242.313891 L118.526534,243.189417 C113.94316,250.833434 109.274908,258.59531 103.24862,263.511726 C106.643712,263.814793 110.157632,264 113.671552,264 C174.269885,263.612252 223.783247,215.904042 225.927948,155.836235 C228.07265,95.7684283 182.085868,44.705798 121.666994,40.0673482 L121.650019,40 Z" id="Path"></path>
                    <path d="M90.2287744,15 C96.6332055,21.9331398 99.7501516,31.3735851 98.762466,40.846404 L98.762466,40.846404 C87.8098432,42.4302439 77.1560936,45.6996307 67.1647431,50.5430069 C67.0658972,52.2235273 67,53.8032165 67,55.3492953 C67,80.84279 79.5039998,102.403867 83.0295018,108 C99.1578494,89.0269245 107,71.213408 107,53.5511384 C107.065517,28.1416697 98.5483,15.991507 90.2287744,15 Z" id="Path"></path>
                    <path d="M43.8572795,232.932519 C56.718208,226.577545 72.3735267,233.82356 83.8204264,239.136184 L84.2749356,239.337929 C85.6889644,239.993601 87.0524922,240.615648 88.3150179,241.170448 C101.411618,246.936998 106.832061,242.54904 112,234.109366 C109.979959,222.576265 80.6051942,216.120418 80.3358554,216.069982 L78.6524878,215.716928 L79.3258349,214.220651 C90.1835559,190.078475 79.7971778,161.682838 68.7879537,131.639615 C61.1622985,110.574053 53.2168034,88.8023831 52.9642982,68.2243724 C52.5771237,33.5410096 64.7478714,15.9387406 72.1546889,8.54141647 C75.4702693,5.12788495 79.3990755,2.36755793 83.736258,0.404359946 C83.8224639,0.351025699 83.8606892,0.24552971 83.8286216,0.149450214 C83.796554,0.0533707174 83.7025949,-0.00812032454 83.6015886,0 C43.5374397,10.2058144 40.0528687,61.7349017 39.7498626,67.2492706 C16.9130998,86.9832893 3.01479091,115.084888 1.20228159,145.19031 C-0.610227729,175.295732 9.81640008,204.858072 30.1209999,227.18278 C26.7542647,232.360907 21.5863262,243.675451 26.7542647,260 C29.9863305,246.096393 35.6929467,237.051483 43.8572795,232.932519 Z" id="Path"></path>
                </g>
            </g>
        </g>
    </g>
</svg>