<?xml version="1.0" encoding="UTF-8"?>
<svg width="598px" height="2026px" viewBox="0 0 598 2026" version="1.1" xmlns="http://www.w3.org/2000/svg" xmlns:xlink="http://www.w3.org/1999/xlink">
    <title>Group 4</title>
    <defs>
        <polygon id="path-1" points="0.292035398 0 357.292035 0 357.292035 154 0.292035398 154"></polygon>
    </defs>
    <g id="Page-1" stroke="none" stroke-width="1" fill="none" fill-rule="evenodd">
        <g id="Case-Study" transform="translate(-421.000000, -2448.000000)">
            <g id="Group-4" transform="translate(421.179941, 2448.000000)">
                <g id="Group-3" transform="translate(119.528024, 0.000000)">
                    <mask id="mask-2" fill="white">
                        <use xlink:href="#path-1"></use>
                    </mask>
                    <g id="Clip-2"></g>
                    <path d="M322.883031,144.715109 C322.369383,145.485044 321.261897,145.849349 319.217058,145.849349 L310.305155,145.849349 L310.305155,140.480468 L319.237647,140.480468 C321.199046,140.480468 322.349878,140.908934 322.859191,141.615795 C323.09651,141.933339 323.223296,142.53254 323.223296,143.175239 C323.223296,143.817939 323.136605,144.330142 322.883031,144.715109 L322.883031,144.715109 Z M326.20874,138.877525 C325.098003,137.679123 322.926377,137.036423 320.154411,137.036423 L305.958652,137.036423 L305.958652,153.742268 L310.327912,153.742268 L310.327912,149.465215 L320.175001,149.465215 C323.203791,149.465215 325.271387,148.758354 326.505659,147.155411 C327.229535,146.234316 327.656491,144.90868 327.656491,143.262238 C327.656491,141.250403 327.059402,139.794269 326.20874,138.877525 L326.20874,138.877525 Z M275.779117,148.631119 C274.607696,147.711112 274.244675,146.683445 274.244675,145.333884 C274.244675,144.159407 274.651042,143.195901 275.501704,142.318306 C276.739227,141.056831 279.167678,140.203161 282.493386,140.203161 C286.011984,140.203161 287.993972,140.908934 289.551171,142.234571 C290.508031,143.048004 290.8082,144.222481 290.8082,145.333884 C290.8082,146.425713 290.508031,147.45338 289.634612,148.310313 C288.056824,149.869757 285.925293,150.492882 282.516143,150.492882 C279.404996,150.492882 277.419757,149.913256 275.779117,148.631119 L275.779117,148.631119 Z M272.113144,139.924766 C270.451915,141.464636 269.768134,143.175239 269.768134,145.27081 C269.768134,147.711112 270.729328,149.571788 272.369968,150.961585 C274.651042,152.885335 278.016846,154 282.516143,154 C287.183405,154 290.785444,152.97342 292.960321,150.897424 C294.430828,149.465215 295.284741,147.624114 295.284741,145.31431 C295.284741,143.048004 294.687652,141.314564 292.916975,139.731195 C290.508031,137.592125 287.226751,136.627532 282.536732,136.627532 C277.870554,136.627532 274.714977,137.508389 272.113144,139.924766 L272.113144,139.924766 Z M259.094223,137.036423 L254.705458,137.036423 L254.705458,143.432972 L241.489314,143.432972 L241.489314,137.036423 L237.120055,137.036423 L237.120055,153.742268 L241.489314,153.742268 L241.489314,147.239146 L254.705458,147.239146 L254.705458,153.742268 L259.094223,153.742268 L259.094223,137.036423 Z M215.706131,143.476471 C211.483163,143.195901 207.560365,143.195901 207.560365,141.806104 C207.560365,140.694701 208.434868,140.24666 213.871518,140.24666 C218.41091,140.24666 220.459001,141.227565 220.649723,142.425967 L225.53263,142.405305 C225.126263,139.452801 222.314203,136.758029 214.041651,136.758029 C206.516815,136.758029 203.041563,138.449058 203.041563,142.020337 C203.041563,146.107081 208.924675,146.599709 214.041651,146.854179 C217.983954,147.068412 221.479795,147.155411 221.479795,148.714855 C221.479795,149.82952 220.328963,150.512457 215.129631,150.512457 C210.248891,150.512457 207.818273,149.913256 207.584206,148.115654 L202.744644,148.115654 C203.404584,152.179561 206.603506,154 214.74602,154 C222.567776,154 226.105879,152.139324 226.105879,148.544121 C226.105879,144.544375 222.270857,143.901675 215.706131,143.476471 L215.706131,143.476471 Z M187.317863,143.112166 C187.020944,143.516708 186.467201,143.730941 185.102891,143.730941 L174.786583,143.730941 L174.786583,140.523967 L184.846067,140.523967 C186.253722,140.523967 186.826971,140.758862 187.277768,141.227565 C187.554097,141.508135 187.637538,141.806104 187.637538,142.147572 C187.637538,142.425967 187.574687,142.746773 187.317863,143.112166 L187.317863,143.112166 Z M190.83646,138.877525 C189.792909,137.785696 187.788165,137.036423 184.865572,137.036423 L170.41624,137.036423 L170.41624,153.742268 L174.786583,153.742268 L174.786583,147.195647 L183.332213,147.195647 L188.982342,153.742268 L193.948691,153.742268 L187.874856,146.70302 C189.428804,146.492049 190.579636,145.528543 191.157219,144.694447 C191.667617,143.964749 191.9006,142.961006 191.9006,141.826766 C191.9006,140.523967 191.51699,139.60396 190.83646,138.877525 L190.83646,138.877525 Z M159.27311,150.148151 L143.581919,150.148151 L143.581919,147.091249 L158.719367,147.091249 L158.719367,143.603706 L143.581919,143.603706 L143.581919,140.631627 L159.079138,140.631627 L159.079138,137.036423 L139.2365,137.036423 L139.2365,153.742268 L159.27311,153.742268 L159.27311,150.148151 Z M120.610796,150.385222 L109.633465,150.385222 L109.633465,146.984676 L120.716994,146.984676 C122.211341,146.984676 122.999152,147.174985 123.48896,147.603452 C123.809719,147.881846 123.915916,148.179815 123.915916,148.58762 C123.915916,148.972587 123.87257,149.314055 123.639586,149.571788 C123.148695,150.127489 122.251436,150.385222 120.610796,150.385222 L120.610796,150.385222 Z M121.954517,143.13174 C121.54815,143.516708 120.697488,143.603706 119.800229,143.603706 L109.633465,143.603706 L109.633465,140.417394 L119.630097,140.417394 C120.546861,140.417394 121.314083,140.50113 121.804974,140.929596 C122.167995,141.250403 122.338128,141.591871 122.338128,142.000763 C122.338128,142.38573 122.231931,142.87727 121.954517,143.13174 L121.954517,143.13174 Z M128.435803,148.953012 C128.435803,147.968844 128.135633,146.770443 127.368411,146.084244 C126.62178,145.420882 125.407013,144.885843 124.149984,144.778183 C125.066748,144.67161 125.747277,144.159407 126.174234,143.623281 C126.644536,143.048004 126.90136,142.147572 126.90136,141.227565 C126.90136,140.203161 126.60119,139.238567 125.833969,138.468633 C124.960551,137.6117 123.426108,137.036423 121.100604,137.036423 L105.350897,137.036423 L105.350897,153.742268 L121.678188,153.742268 C124.490248,153.742268 126.538339,153.163729 127.495198,152.032751 C128.198484,151.198655 128.435803,150.020916 128.435803,148.953012 L128.435803,148.953012 Z M88.5793113,143.112166 C88.2823924,143.516708 87.7286494,143.730941 86.365423,143.730941 L76.0480317,143.730941 L76.0480317,140.523967 L86.108599,140.523967 C87.5151712,140.523967 88.0895034,140.758862 88.5392164,141.227565 C88.8166297,141.508135 88.9000705,141.806104 88.9000705,142.147572 C88.9000705,142.425967 88.8361354,142.746773 88.5793113,143.112166 L88.5793113,143.112166 Z M92.0989928,138.877525 C91.0543582,137.785696 89.0496136,137.036423 86.1281046,137.036423 L71.678772,137.036423 L71.678772,153.742268 L76.0480317,153.742268 L76.0480317,147.195647 L84.5936622,147.195647 L90.2437912,153.742268 L95.2112234,153.742268 L89.1363052,146.70302 C90.6913369,146.492049 91.8421687,145.528543 92.4186683,144.694447 C92.9290654,143.964749 93.1631329,142.961006 93.1631329,141.826766 C93.1631329,140.523967 92.7795223,139.60396 92.0989928,138.877525 L92.0989928,138.877525 Z M44.4207464,146.854179 L47.7692118,141.699531 L48.7466603,140.072663 L49.6872648,141.699531 C49.6872648,141.699531 52.9468712,146.854179 52.926282,146.854179 L44.4207464,146.854179 Z M55.1206647,150.318885 L57.2760361,153.742268 L62.1795332,153.742268 L51.3918396,137.036423 L46.4059854,137.036423 L35.2552705,153.742268 L39.9680459,153.742268 L42.1830179,150.318885 L55.1206647,150.318885 Z M19.3809437,150.385222 L8.40361206,150.385222 L8.40361206,146.984676 L19.4882246,146.984676 C20.9825721,146.984676 21.7692989,147.174985 22.2601905,147.603452 C22.579866,147.881846 22.6871469,148.179815 22.6871469,148.58762 C22.6871469,148.972587 22.6427174,149.314055 22.4097336,149.571788 C21.9199257,150.127489 21.022667,150.385222 19.3809437,150.385222 L19.3809437,150.385222 Z M20.7257481,143.13174 C20.3182973,143.516708 19.4676353,143.603706 18.5703766,143.603706 L8.40361206,143.603706 L8.40361206,140.417394 L18.4002442,140.417394 C19.3180922,140.417394 20.0853134,140.50113 20.5751213,140.929596 C20.9392263,141.250403 21.1093587,141.591871 21.1093587,142.000763 C21.1093587,142.38573 21.0020777,142.87727 20.7257481,143.13174 L20.7257481,143.13174 Z M27.2059497,148.953012 C27.2059497,147.968844 26.9057799,146.770443 26.1385587,146.084244 C25.3919267,145.420882 24.1771598,144.885843 22.9201307,144.778183 C23.8368951,144.67161 24.5174246,144.159407 24.944381,143.623281 C25.4146833,143.048004 25.6715073,142.147572 25.6715073,141.227565 C25.6715073,140.203161 25.3713375,139.238567 24.6041163,138.468633 C23.7306978,137.6117 22.1962554,137.036423 19.8718352,137.036423 L4.121044,137.036423 L4.121044,153.742268 L20.4483347,153.742268 C23.2603955,153.742268 25.308486,153.163729 26.2653452,152.032751 C26.969715,151.198655 27.2059497,150.020916 27.2059497,148.953012 L27.2059497,148.953012 Z M115.516578,32.0686524 L119.891256,32.0686524 L98.5716089,104.667627 C97.1747895,109.424258 94.3464741,113.451191 90.6544929,116.361283 C90.6544929,116.361283 115.516578,32.0686524 115.516578,32.0686524 L115.516578,32.0686524 Z M78.4829837,121.232099 C77.7807813,121.29626 77.0742442,121.336497 76.359038,121.336497 L74.0855492,121.336497 C74.0855492,121.336497 100.415974,32.0686524 100.415974,32.0686524 L104.781983,32.0686524 C104.781983,32.0686524 78.4829837,121.232099 78.4829837,121.232099 L78.4829837,121.232099 Z M89.6813791,32.0686524 L63.3509542,121.336497 L58.9838618,121.336497 L85.3142866,32.0686524 C85.3142866,32.0686524 89.6813791,32.0686524 89.6813791,32.0686524 L89.6813791,32.0686524 Z M74.5796917,32.0686524 C74.5796917,32.0686524 48.2492669,121.336497 48.2492669,121.336497 C48.2492669,121.336497 43.8832581,121.336497 43.8832581,121.336497 L70.2136829,32.0686524 C70.2136829,32.0686524 74.5796917,32.0686524 74.5796917,32.0686524 L74.5796917,32.0686524 Z M55.1119955,32.0686524 C55.1119955,32.0686524 28.7826543,121.336497 28.7826543,121.336497 L33.1486631,121.336497 L59.4790879,32.0686524 C59.4790879,32.0686524 55.1119955,32.0686524 55.1119955,32.0686524 L55.1119955,32.0686524 Z M126.428891,9.80905573 L121.480964,26.6562721 C121.07243,28.049332 119.799146,29.0041381 118.352479,29.0041381 L116.420338,29.0041381 C116.420338,29.0041381 116.420338,29.0041381 116.420338,29.0041381 L121.359596,12.2602322 L118.174761,12.2602322 L113.236587,29.0041381 C113.236587,29.0041381 113.236587,29.0041381 113.236587,29.0041381 L113.236587,29.0041381 C111.056292,29.0041381 109.490424,26.8998672 110.109185,24.8032088 L113.808752,12.2602322 L110.623917,12.2602322 L105.685743,29.0041381 C103.506532,29.0041381 101.940664,26.8998672 102.558342,24.8032088 L106.257908,12.2602322 L103.074157,12.2602322 L98.1348997,29.0041381 C98.1348997,29.0041381 98.1348997,29.0041381 98.1348997,29.0041381 L98.1348997,29.0041381 C95.955688,29.0041381 94.3898199,26.8998672 95.0085816,24.8032088 L98.7081483,12.2602322 L95.5233134,12.2602322 L90.5851396,29.0041381 C90.5851396,29.0041381 90.5851396,29.0041381 90.5851396,29.0041381 C88.4048443,29.0041381 86.8389762,26.8998672 87.4577379,24.8032088 L91.1573046,12.2602322 L87.9735533,12.2602322 L83.0342959,29.0041381 C80.8550843,29.0041381 79.2881325,26.8998672 79.9068942,24.8032088 L83.6064609,12.2602322 L80.4227096,12.2602322 L75.4834522,29.0041381 C75.4834522,29.0041381 75.4834522,29.0041381 75.4834522,29.0041381 L75.4834522,29.0041381 C73.3042406,29.0041381 71.7383725,26.8998672 72.3571342,24.8032088 L76.0567008,12.2602322 L72.8718659,12.2602322 L67.9336922,29.0041381 C67.9336922,29.0041381 67.9336922,29.0041381 67.9336922,29.0041381 L67.9336922,29.0041381 C65.7533969,29.0041381 64.1875288,26.8998672 64.8062905,24.8032088 L68.5058571,12.2602322 L65.3221059,12.2602322 L60.3828485,29.0041381 C58.2036369,29.0041381 56.6366851,26.8998672 57.2554468,24.8032088 L62.3388291,7.56776262 C63.6630442,3.07973901 67.7711453,0 72.4351567,0 L119.118616,0 C124.2085,0 127.866889,4.90996526 126.428891,9.80905573 L126.428891,9.80905573 Z M112.332826,32.0686524 L107.966818,32.0686524 C107.965734,32.0686524 81.8314491,120.67531 81.8314491,120.67531 C83.5425258,120.257718 85.1820818,119.641118 86.7327789,118.861396 C86.7327789,118.860308 86.7327789,118.860308 86.7327789,118.860308 C86.7327789,118.860308 112.332826,32.0686524 112.332826,32.0686524 L112.332826,32.0686524 Z M7.84661814,66.7081038 L1.34907813,88.7349801 C-3.45147261,105.008008 8.70161465,121.336497 25.6129905,121.336497 C25.6129905,121.336497 25.6129905,121.336497 25.6129905,121.336497 L41.726803,66.7091913 C41.726803,66.7081038 7.84661814,66.7081038 7.84661814,66.7081038 L7.84661814,66.7081038 Z M51.4341018,121.336497 C51.4341018,121.336497 55.8001105,121.336497 55.8001105,121.336497 C55.8001105,121.336497 55.8001105,121.336497 55.8001105,121.336497 L82.1305354,32.0686524 L77.7645266,32.0686524 C77.7645266,32.0686524 51.4341018,121.336497 51.4341018,121.336497 L51.4341018,121.336497 Z M36.333498,121.336497 L40.6995068,121.336497 C40.6995068,121.336497 67.028848,32.0686524 67.028848,32.0686524 L62.6639228,32.0686524 C62.6639228,32.0686524 36.333498,121.336497 36.333498,121.336497 L36.333498,121.336497 Z M97.2311391,32.0686524 L92.8651303,32.0686524 L66.5347055,121.336497 C66.5347055,121.336497 70.9007143,121.336497 70.9007143,121.336497 C70.9007143,121.336497 97.2311391,32.0686524 97.2311391,32.0686524 L97.2311391,32.0686524 Z M287.556179,63.9665706 L293.493475,92.6596899 L249.499624,92.6596899 L241.259581,121.423495 L301.729182,121.423495 C318.759759,121.423495 331.43408,105.633308 327.808201,88.9350761 L321.897997,61.7198401 L348.157985,61.7198401 L357.292035,31.735884 L313.690464,31.735884 C296.767168,31.735884 284.116688,47.3379375 287.556179,63.9665706 L287.556179,63.9665706 Z M289.854592,32.1545632 L289.854592,32.1545632 L267.329931,32.1545632 L258.617419,61.7198401 L270.496344,61.7198401 L271.280904,61.0401661 C280.10178,53.3973675 286.549473,43.370816 289.854592,32.1545632 L289.854592,32.1545632 Z M252.763565,61.7198401 L261.476077,32.1545632 L241.655112,32.1545632 L247.517636,12.2602322 L219.537902,12.2602322 L216.737761,21.7658814 C214.921571,27.9275344 209.282279,32.1545632 202.880099,32.1545632 L196.351134,32.1545632 L187.637538,61.7198401 L204.962867,61.7198401 L193.984451,98.9735898 C190.682583,110.181143 199.051579,121.423495 210.69752,121.423495 L215.319269,121.423495 L235.121812,121.423495 L243.516816,92.9369969 L223.742448,92.9369969 L232.9426,61.7198401 L252.763565,61.7198401 Z M104.016929,105.036282 L122.799761,41.3013445 C124.398138,35.8770019 129.36232,32.1545632 134.998361,32.1545632 L190.586138,32.1545632 L181.873626,61.7198401 L148.083384,61.7198401 L146.612877,66.7081038 L175.816046,66.7081038 L169.981698,86.5067367 L140.69292,86.5067367 L138.965588,92.6596899 L178.539248,92.6596899 L170.062971,121.423495 L116.215529,121.423495 C107.715412,121.423495 101.605817,113.217383 104.016929,105.036282 L104.016929,105.036282 Z" id="Fill-1" fill="#FFFFFE" mask="url(#mask-2)"></path>
                </g>
                <path d="M234.480969,956 L238.820059,956 L217.673845,1028.34694 C216.288389,1033.08706 213.483081,1037.10001 209.820059,1040 C209.820059,1040 234.480969,956 234.480969,956 L234.480969,956 Z M197.260824,1044.89483 C196.552797,1044.9588 195.839298,1045 195.117044,1045 L192.820059,1045 C192.820059,1045 219.409935,956 219.411029,956 L223.820059,956 C223.820059,956 197.260824,1044.89483 197.260824,1044.89483 L197.260824,1044.89483 Z M208.820059,956 L182.229245,1045 C182.229245,1045 177.820059,1045 177.820059,1044.99892 L204.410873,956 L208.820059,956 Z M193.820059,956 C193.820059,956 167.229245,1045 167.229245,1045 C167.229245,1045 162.820059,1045 162.820059,1044.99892 L189.410873,956 C189.410873,956 193.820059,956 193.820059,956 L193.820059,956 Z M174.409779,956 C174.409779,956 147.818965,1045 147.820059,1045 L152.22815,1045 L178.820059,956 C178.820059,956 174.409779,956 174.409779,956 L174.409779,956 Z M245.502527,933.806569 L240.529003,950.652469 C240.117175,952.044243 238.837024,953 237.383644,953 L235.441082,953 C235.441082,953 235.441082,952.998913 235.441082,952.998913 L240.40589,936.258483 C240.40589,936.258483 237.204967,936.258483 237.204967,936.258483 L232.239069,952.998913 C232.239069,952.998913 232.239069,953 232.239069,953 L232.239069,953 C230.048104,953 228.47379,950.896029 229.095889,948.798583 L232.81541,936.258483 C232.81541,936.258483 229.613397,936.258483 229.613397,936.258483 L224.648589,953 C222.456534,953 220.88222,950.896029 221.504319,948.798583 L225.22384,936.258483 C225.22384,936.258483 222.021827,936.258483 222.021827,936.258483 L217.057019,952.998913 C217.057019,952.998913 217.057019,953 217.057019,953 L217.057019,953 C214.864964,953 213.29065,950.894942 213.912749,948.798583 L217.63227,936.258483 C217.63227,936.258483 214.431347,936.258483 214.431347,936.258483 L209.465449,952.998913 C209.465449,952.998913 209.465449,953 209.465449,953 C207.274483,953 205.70017,950.896029 206.322269,948.798583 L210.041789,936.258483 L206.839777,936.258483 L201.873879,953 C199.682913,953 198.1086,950.896029 198.730699,948.798583 L202.450219,936.258483 L199.249296,936.258483 L194.283398,952.998913 C194.283398,952.998913 194.283398,953 194.283398,953 L194.283398,953 C192.092433,953 190.51703,950.896029 191.139129,948.798583 L194.858649,936.258483 C194.858649,936.258483 191.657726,936.258483 191.657726,936.258483 L186.691828,952.998913 C186.691828,952.998913 186.691828,953 186.691828,953 L186.691828,953 C184.500863,953 182.926549,950.894942 183.548648,948.798583 L187.268169,936.258483 C187.268169,936.258483 184.066156,936.258483 184.066156,936.258483 L179.100258,953 C176.909293,953 175.334979,950.894942 175.957078,948.798583 L181.067878,931.565596 C182.399236,927.078212 186.529494,924 191.218661,924 L238.153914,924 C243.270161,924 246.949371,928.909265 245.502527,933.806569 L245.502527,933.806569 Z M231.820059,956 L227.382677,956 C227.382677,956 200.820059,1044 200.820059,1044 C202.559108,1043.58527 204.226568,1042.97397 205.801514,1042.19851 C205.801514,1042.19851 205.801514,1042.19851 205.801514,1042.19851 C205.801514,1042.19851 231.820059,956 231.820059,956 L231.820059,956 Z M127.294546,990 L120.866097,1011.77243 C116.115801,1027.85934 128.140592,1044 144.876005,1044 C144.876005,1044 144.876005,1044 144.876005,1044 L160.820059,990 L127.294546,990 Z M170.820059,1044.99892 C170.820059,1045 175.229089,1045 175.229089,1045 C175.230183,1045 175.230183,1045 175.230183,1045 L201.820059,956 L197.409935,956 C197.409935,956 170.820059,1044.99892 170.820059,1044.99892 L170.820059,1044.99892 Z M155.820059,1045 L160.229245,1045 C160.229245,1045 186.820059,956 186.820059,956 L182.410873,956 C182.410873,956 155.820059,1045 155.820059,1045 L155.820059,1045 Z M216.820059,956 L212.410873,956 L185.820059,1044.99892 L190.229245,1045 C190.229245,1045 216.820059,956 216.820059,956 L216.820059,956 Z M407.103708,987.983583 L413.038259,1016.4578 L369.057797,1016.4578 L360.820059,1045 L421.271663,1045 C438.297477,1045 450.969336,1029.33195 447.343388,1012.76066 L441.435921,985.755156 L467.688564,985.755156 L476.820059,956 L433.230683,956 C416.312121,956 403.664095,971.482437 407.103708,987.983583 L407.103708,987.983583 Z M408.820059,956 L408.820059,956 L386.467495,956 L377.820059,985 L389.609867,985 L390.387394,984.333321 C399.142372,976.835583 405.540034,967.000736 408.820059,956 L408.820059,956 Z M372.08741,985.386129 L380.820059,955.864775 L360.954666,955.864775 L366.830009,936 L338.790179,936 L335.982829,945.490441 C334.163754,951.64294 328.51213,955.864775 322.094865,955.864775 L315.551622,955.864775 L306.820059,985.386129 L324.183272,985.386129 L313.180851,1022.58345 C309.870676,1033.77435 318.257973,1045 329.930466,1045 L334.562321,1045 L354.408166,1045 L362.820441,1016.55582 L343.003918,1016.55582 L352.223103,985.386129 L372.08741,985.386129 Z M223.349639,1028.66304 L242.110802,965.118253 C243.707336,959.710186 248.66579,956 254.296412,956 L309.820059,956 L301.117598,985.476568 L267.365256,985.476568 L265.897528,990.449864 L295.065925,990.449864 L289.239389,1010.18801 L259.984401,1010.18801 L258.25798,1016.32358 L297.785985,1016.32358 L289.319486,1045 L235.535249,1045 C227.043855,1045 220.942391,1036.81851 223.349639,1028.66304 L223.349639,1028.66304 Z" id="Fill-4" fill="#FFFFFE"></path>
                <path d="M350.480969,1426 L354.820059,1426 L333.673845,1498.34694 C332.288389,1503.08706 329.483081,1507.10001 325.820059,1510 C325.820059,1510 350.480969,1426 350.480969,1426 M313.260824,1514.89483 C312.552797,1514.9588 311.839298,1515 311.117044,1515 L308.820059,1515 C308.820059,1515 335.409935,1426 335.411029,1426 L339.820059,1426 C339.820059,1426 313.260824,1514.89483 313.260824,1514.89483 M324.820059,1426 L298.229245,1515 C298.229245,1515 293.820059,1515 293.820059,1514.99892 L320.410873,1426 C320.410873,1426 324.820059,1426 324.820059,1426 M309.820059,1426 C309.820059,1426 283.229245,1515 283.229245,1515 C283.229245,1515 278.820059,1515 278.820059,1514.99892 L305.410873,1426 C305.410873,1426 309.820059,1426 309.820059,1426 M290.409779,1426 C290.409779,1426 263.818965,1515 263.820059,1515 L268.22815,1515 L294.820059,1426 C294.820059,1426 290.409779,1426 290.409779,1426 M361.502527,1403.80657 L356.529003,1420.65247 C356.117175,1422.04424 354.837024,1423 353.383644,1423 L351.441082,1423 C351.441082,1423 351.441082,1423 351.441082,1422.99891 L356.40589,1406.25848 C356.40589,1406.25848 353.204967,1406.25848 353.204967,1406.25848 L348.239069,1423 C348.239069,1423 348.239069,1423 348.239069,1423 L348.239069,1423 C346.048104,1423 344.47379,1420.89603 345.095889,1418.79858 L348.81541,1406.25848 C348.81541,1406.25848 345.613397,1406.25848 345.613397,1406.25848 L340.648589,1423 C338.456534,1423 336.88222,1420.89603 337.504319,1418.79858 L341.22384,1406.25848 C341.22384,1406.25848 338.021827,1406.25848 338.021827,1406.25848 L333.057019,1423 C333.057019,1423 333.057019,1423 333.057019,1423 L333.057019,1423 C330.864964,1423 329.29065,1420.89603 329.912749,1418.79858 L333.63227,1406.25848 C333.63227,1406.25848 330.431347,1406.25848 330.431347,1406.25848 L325.465449,1423 C325.465449,1423 325.465449,1423 325.465449,1423 L325.465449,1423 C323.274483,1423 321.70017,1420.89603 322.322269,1418.79858 L326.041789,1406.25848 C326.041789,1406.25848 322.839777,1406.25848 322.839777,1406.25848 L317.874968,1423 C315.682913,1423 314.1086,1420.89603 314.730699,1418.79858 L318.450219,1406.25848 L315.249296,1406.25848 L310.283398,1423 C310.283398,1423 310.283398,1423 310.283398,1423 C308.092433,1423 306.51703,1420.89603 307.139129,1418.79858 L310.858649,1406.25848 C310.858649,1406.25848 307.657726,1406.25848 307.657726,1406.25848 L302.691828,1423 C302.691828,1423 302.691828,1423 302.691828,1423 C300.500863,1423 298.926549,1420.89603 299.548648,1418.79858 L303.268169,1406.25848 C303.268169,1406.25848 300.066156,1406.25848 300.066156,1406.25848 L295.100258,1423 C292.909293,1423 291.334979,1420.89494 291.957078,1418.79858 L297.067878,1401.5656 C298.399236,1397.07821 302.529494,1394 307.218661,1394 L354.153914,1394 C359.270161,1394 362.949371,1398.90926 361.502527,1403.80657 M347.820059,1426 L343.382677,1426 C343.382677,1426 316.820059,1514 316.820059,1514 C318.559108,1513.58527 320.226568,1512.97397 321.801514,1512.19851 C321.801514,1512.19851 321.801514,1512.19851 321.801514,1512.19851 C321.801514,1512.19851 347.820059,1426 347.820059,1426 M242.476851,1460 L235.891611,1481.77243 C231.025453,1497.85934 243.343532,1514 260.487126,1514 C260.487126,1514 260.487126,1514 260.487126,1514 L276.820059,1460 C276.820059,1460 242.476851,1460 242.476851,1460 M286.820059,1514.99892 C286.820059,1515 291.229089,1515 291.229089,1515 C291.230183,1515 291.230183,1515 291.230183,1515 L317.820059,1426 L313.409935,1426 C313.409935,1426 286.820059,1514.99892 286.820059,1514.99892 M271.820059,1515 L276.229245,1515 C276.229245,1515 302.820059,1426 302.820059,1426 L298.410873,1426 C298.410873,1426 271.820059,1515 271.820059,1515 M332.820059,1426 L328.410873,1426 L301.820059,1514.99892 C301.820059,1514.99892 306.229245,1515 306.229245,1515 C306.229245,1515 332.820059,1426 332.820059,1426" id="Fill-6" fill="#FFFFFE"></path>
                <path d="M393.592205,550.833852 L410.211992,550.833852 L410.211992,547.076227 L393.592205,547.076227 L393.592205,543.872936 L410.608417,543.872936 L410.608417,540 L388.820059,540 L388.820059,558 L410.820059,558 L410.820059,554.126006 L393.592205,554.126006 L393.592205,550.833852 Z M331.820059,545.02572 C331.820059,544.59951 331.728402,544.228414 331.426789,543.876914 C330.936533,543.292713 330.31199,543 328.778342,543 L317.820059,543 L317.820059,547 L329.05864,547 C330.544328,547 331.147556,546.733007 331.470485,546.228414 C331.750784,545.772811 331.820059,545.372321 331.820059,545.02572 L331.820059,545.02572 Z M332.109266,550.414928 L338.820059,558 L333.331867,558 L327.089143,550.945989 L317.647766,550.945989 L317.647766,558 L312.820059,558 L312.820059,540 L328.785218,540 C332.013058,540 334.228008,540.808228 335.381426,541.983544 C336.132715,542.766383 336.556463,543.757626 336.556463,545.161446 C336.556463,546.383309 336.299188,547.46553 335.73491,548.251543 C335.097125,549.149691 333.82588,550.18854 332.109266,550.414928 L332.109266,550.414928 Z M441.820059,545.02572 C441.820059,544.59951 441.729461,544.228414 441.427825,543.876914 C440.937531,543.292713 440.311875,543 438.779176,543 L427.820059,543 L427.820059,547 L439.05843,547 C440.545297,547 441.147505,546.733007 441.471525,546.228414 C441.750778,545.772811 441.820059,545.372321 441.820059,545.02572 L441.820059,545.02572 Z M442.108987,550.414928 L448.820059,558 L443.33272,558 L437.089736,550.945989 L427.647966,550.945989 L427.647966,558 L422.820059,558 L422.820059,540 L438.784801,540 C442.013856,540 444.227818,540.808228 445.381283,541.983544 C446.133684,542.766383 446.55745,543.757626 446.55745,545.161446 C446.55745,546.383309 446.299083,547.46553 445.735863,548.251543 C445.098052,549.149691 443.826753,550.18854 442.108987,550.414928 L442.108987,550.414928 Z M370.820059,551.885681 C370.820059,551.405312 370.700591,551.055427 370.342185,550.727483 C369.791973,550.224018 368.910756,550 367.237102,550 L354.820059,550 L354.820059,554 L367.117634,554 C368.955694,554 369.960763,553.696305 370.50988,553.042725 C370.771833,552.740185 370.820059,552.338337 370.820059,551.885681 L370.820059,551.885681 Z M355.820059,547 L367.022431,547 C368.011034,547 368.948967,546.890327 369.396372,546.40727 C369.70147,546.088108 369.820059,545.470733 369.820059,544.987677 C369.820059,544.475046 369.632472,544.046211 369.231425,543.643253 C368.691305,543.104744 367.846087,543 366.834844,543 L355.820059,543 L355.820059,547 Z M375.617804,549.748457 C376.481753,550.487922 376.820059,551.778548 376.820059,552.838554 C376.820059,553.989539 376.553381,555.259007 375.761061,556.157155 C374.683329,557.375845 372.375794,558 369.209819,558 L350.820059,558 L350.820059,540 L368.559654,540 C371.177947,540 372.905844,540.619924 373.889907,541.543462 C374.753856,542.372847 375.092162,543.411696 375.092162,544.515075 C375.092162,545.507376 374.803445,546.477461 374.273395,547.097385 C373.792933,547.674993 373.025959,548.226153 371.993408,548.341463 C373.409446,548.456773 374.776997,549.034381 375.617804,549.748457 L375.617804,549.748457 Z M592.820059,546.010973 C592.820059,545.293343 592.682222,544.623994 592.425633,544.268471 C591.873225,543.47842 590.62633,543 588.500459,543 L578.820059,543 L578.820059,549 L588.479253,549 C590.694188,549 591.89443,548.592904 592.45108,547.732626 C592.725694,547.30139 592.820059,546.7297 592.820059,546.010973 L592.820059,546.010973 Z M597.820059,546.708081 C597.820059,548.482163 597.347115,549.910314 596.546249,550.902615 C595.181531,552.63015 592.893652,553.390773 589.544085,553.390773 L578.65231,553.390773 L578.65231,558 L573.820059,558 L573.820059,540 L589.52244,540 C592.588457,540 594.989972,540.692918 596.218327,541.983544 C597.158804,542.971613 597.820059,544.540464 597.820059,546.708081 L597.820059,546.708081 Z M556.820059,548.485305 C556.820059,547.297137 556.4947,546.041794 555.453764,545.17166 C553.761048,543.754676 551.607938,543 547.78444,543 C544.170405,543 541.531383,543.912118 540.186354,545.261927 C539.262377,546.199237 538.820059,547.229962 538.820059,548.485305 C538.820059,549.927481 539.21453,551.026431 540.487257,552.009924 C542.270351,553.380725 544.427714,554 547.809958,554 C551.514371,554 553.83016,553.333492 555.544142,551.666698 C556.4947,550.750382 556.820059,549.652481 556.820059,548.485305 L556.820059,548.485305 Z M559.220826,542.393432 C561.164077,544.125586 561.820059,546.022043 561.820059,548.500537 C561.820059,551.026282 560.882789,553.03979 559.268065,554.606568 C556.882482,556.876731 552.929415,558 547.809323,558 C542.871746,558 539.178495,556.781156 536.674814,554.676369 C534.874353,553.156842 533.820059,551.121856 533.820059,548.452213 C533.820059,546.160572 534.570519,544.289889 536.393525,542.606059 C539.24828,539.963262 542.710703,539 547.830795,539 C552.976654,539 556.578648,540.054541 559.220826,542.393432 L559.220826,542.393432 Z M516.026257,546.892154 L501.592489,546.892154 L501.592489,540 L496.820059,540 L496.820059,558 L501.592489,558 L501.592489,550.992536 L516.026257,550.992536 L516.026257,558 L520.820059,558 L520.820059,540 L516.026257,540 L516.026257,546.892154 Z M473.245992,546.403075 C468.546239,546.093622 464.180783,546.093622 464.180783,544.562585 C464.180783,543.337756 465.153183,542.84328 471.204278,542.84328 C476.25575,542.84328 478.534847,543.924203 478.747186,545.24533 L484.181955,545.222608 C483.728967,541.969021 480.599428,539 471.39266,539 C463.018911,539 459.15,540.863212 459.15,544.798462 C459.15,549.302847 465.698729,549.844932 471.39266,550.125171 C475.780984,550.361048 479.671674,550.457346 479.671674,552.175569 C479.671674,553.404727 478.390022,554.15672 472.603533,554.15672 C467.17203,554.15672 464.466078,553.496697 464.205828,551.515547 L458.820059,551.515547 C459.555076,555.993964 463.114736,558 472.176678,558 C480.881457,558 484.820059,555.949601 484.820059,551.987301 C484.820059,547.580296 480.551516,546.871583 473.245992,546.403075 L473.245992,546.403075 Z M258.820059,551.885681 C258.820059,551.405312 258.700591,551.055427 258.341089,550.727483 C257.791973,550.224018 256.910756,550 255.236006,550 L242.820059,550 L242.820059,554 L255.116538,554 C256.955694,554 257.960763,553.696305 258.50988,553.042725 C258.770737,552.740185 258.820059,552.338337 258.820059,551.885681 L258.820059,551.885681 Z M242.820059,547 L254.023293,547 C255.011973,547 255.9489,546.890327 256.397417,546.40727 C256.702539,546.088108 256.820059,545.470733 256.820059,544.987677 C256.820059,544.475046 256.632458,544.046211 256.232458,543.643253 C255.692296,543.104744 254.847013,543 253.835692,543 L242.820059,543 L242.820059,547 Z M262.617804,549.748457 C263.481753,550.487922 263.820059,551.778548 263.820059,552.838554 C263.820059,553.989539 263.553381,555.259007 262.761061,556.157155 C261.682227,557.375845 259.375794,558 256.208717,558 L237.820059,558 L237.820059,540 L255.559654,540 C258.177947,540 259.905844,540.619924 260.889907,541.543462 C261.753856,542.372847 262.092162,543.411696 262.092162,544.515075 C262.092162,545.507376 261.802343,546.477461 261.273395,547.097385 C260.791831,547.674993 260.025959,548.226153 258.992306,548.341463 C260.409446,548.456773 261.775895,549.034381 262.617804,549.748457 L262.617804,549.748457 Z M291.819966,550 C291.84067,550 288.392465,544.679311 288.392465,544.679311 L287.397652,543 L286.363501,544.679311 L282.820059,550 L291.819966,550 Z M290.800654,540 L302.820059,558 L297.357089,558 L294.956479,554.310079 L280.539733,554.310079 L278.071531,558 L272.820059,558 L285.245017,540 L290.800654,540 Z M50.2594971,522 L34.820059,575 L37.3806209,575 L52.820059,522 L50.2594971,522 Z M68.2758485,522 L53.820059,572 C55.966969,570.272974 57.6114106,567.88472 58.4240707,565.062534 L70.820059,522 L68.2758485,522 Z M25.820059,575 L28.3804685,575 C28.3804685,575 43.820059,522 43.820059,522 C43.820059,522 41.2596495,522 41.2596495,522 L25.820059,575 Z M32.2594971,522 C32.2594971,522 16.820059,575 16.820059,575 L19.3806209,575 L34.820059,522 C34.820059,522 32.2594971,522 32.2594971,522 L32.2594971,522 Z M43.820059,575 L45.1538288,575 C45.5727075,575 45.987301,574.976052 46.3986806,574.937952 L61.820059,522 L59.2596495,522 L43.820059,575 Z M35.7419133,520 L38.6499705,510.186232 L40.5251995,510.186232 L38.3465772,517.536886 C37.9829356,518.766294 38.90495,520 40.1884544,520 L40.1884544,520 L43.0965117,510.186232 L44.9717407,510.186232 L42.7931184,517.536886 C42.4284009,518.766294 43.3514912,520 44.6349956,520 L47.5430529,510.186232 L49.4182818,510.186232 L47.2396596,517.537961 C46.8749421,518.766294 47.7969565,520 49.0804609,520 L51.9895941,510.186232 L53.8637471,510.186232 L51.6851249,517.536886 C51.3214832,518.766294 52.2434977,520 53.5270021,520 L56.4350594,510.186232 L58.3102883,510.186232 L56.131666,517.536886 C55.7669485,518.766294 56.6900389,520 57.9735432,520 L57.9735432,520 L57.9735432,520 L60.8816005,510.186232 L62.7568295,510.186232 L60.5782072,517.537961 C60.2134897,518.766294 61.1355042,520 62.4190086,520 L65.3281417,510.186232 L67.2022948,510.186232 L65.0247484,517.536886 C64.6600309,518.766294 65.5820453,520 66.8655497,520 L66.8655497,520 L66.8655497,520 L69.773607,510.186232 L71.648836,510.186232 L68.7407787,520 C68.7407787,520 68.7407787,520 68.7407787,520 L69.8790416,520 C70.7300491,520 71.4799255,519.440104 71.7209188,518.624439 L74.6343554,508.749415 C75.4810595,505.877932 73.3261062,503 70.3298281,503 L42.8393805,503 C40.0927026,503 37.6741629,504.804349 36.8941624,507.43511 L33.9000361,517.536886 C33.5363944,518.766294 34.4584089,520 35.7419133,520 L35.7419133,520 Z M66.820059,522 L64.2441635,522 C64.2441635,522 48.820059,574 48.820059,574 C49.8292839,573.755747 50.7975359,573.39421 51.7118764,572.935833 C51.7118764,572.935833 51.7118764,572.935833 51.7118764,572.935833 C51.7118764,572.935833 66.820059,522 66.820059,522 L66.820059,522 Z M4.3780013,543 L0.458029489,555.903105 C-2.43895755,565.435979 4.8939031,575 15.0972943,575 C15.0972943,575 15.0972943,575 15.0972943,575 L24.820059,543 C24.820059,543 4.3780013,543 4.3780013,543 L4.3780013,543 Z M30.820059,575 C30.820059,575 33.3804685,575 33.3804685,575 C33.3804685,575 33.3804685,575 33.3804685,575 L48.820059,522 L46.2596495,522 C46.2596495,522 30.820059,575 30.820059,575 L30.820059,575 Z M21.820059,575 L24.3795495,575 C24.3795495,575 39.820059,522 39.820059,522 L37.2594971,522 C37.2594971,522 21.820059,575 21.820059,575 L21.820059,575 Z M57.820059,522 L55.2596495,522 L39.820059,575 L42.3804685,575 C42.3804685,575 57.820059,522 57.820059,522 L57.820059,522 Z M171.35096,541.046282 L174.880869,558.002555 L148.719994,558.002555 L143.820059,575 L179.778632,575 C189.906614,575 197.443388,565.669174 195.286765,555.800949 L191.773152,539.719034 L207.388845,539.719034 L212.820059,522 L186.891687,522 C176.827806,522 169.305156,531.219228 171.35096,541.046282 L171.35096,541.046282 Z M172.820059,522 L172.820059,522 L159.119568,522 L153.820059,539 L161.045349,539 L161.522071,538.608892 C166.888254,534.21394 170.809824,528.449585 172.820059,522 L172.820059,522 Z M150.628026,539.997195 L155.820059,522.662944 L144.008702,522.662944 L147.502355,511 L130.829932,511 L129.160947,516.572415 C128.078775,520.184165 124.717943,522.662944 120.903122,522.662944 L117.012092,522.662944 L111.820059,539.997195 L122.144246,539.997195 L115.602219,561.837535 C113.633841,568.408556 118.621197,575 125.56169,575 L128.315024,575 L140.115494,575 L145.118092,558.29888 L133.335041,558.29888 L138.816669,539.997195 L150.628026,539.997195 Z M62.1369287,565.270616 L73.3498654,527.430734 C74.304274,524.209739 77.2678488,522 80.6328205,522 L113.820059,522 L108.61826,539.553821 L88.4447906,539.553821 L87.5678255,542.514654 L105.002415,542.514654 L101.518551,554.268726 L84.0326964,554.268726 L83.0019352,557.92296 L106.627636,557.92296 L101.567635,575 L69.4198838,575 C64.344612,575 60.6971353,570.127688 62.1369287,565.270616 L62.1369287,565.270616 Z" id="Fill-8" fill="#FFFFFE"></path>
                <path d="M353.427327,1965.59772 C352.028503,1963.57311 350.52899,1961.56043 349.760287,1959.22243 C348.59857,1955.69048 349.261171,1951.72369 350.992378,1948.43357 C351.494742,1947.47928 352.066397,1946.22135 351.058421,1945.49154 C350.648085,1945.1955 350.111075,1945.13802 349.624952,1945.27574 C348.021501,1945.73011 346.383405,1946.615 344.65328,1946.1693 C344.123849,1946.03267 343.633395,1945.74204 343.284772,1945.31912 C342.406717,1944.25314 342.86794,1943.16221 343.312921,1942.1754 C344.174735,1940.26574 345.037632,1938.35499 345.899446,1936.44534 C346.347676,1935.45093 347.561362,1933.21486 345.79984,1932.73772 C344.883892,1932.48938 343.726506,1932.63361 342.781325,1932.60325 C341.712719,1932.56855 340.644113,1932.53493 339.576589,1932.50023 C337.458865,1932.43299 335.342224,1932.36468 333.2245,1932.29744 C328.990135,1932.16189 324.75577,1932.02634 320.521404,1931.89079 C316.267551,1931.75523 312.01478,1931.6186 307.760926,1931.48305 C303.526561,1931.34749 299.292196,1931.21194 295.05783,1931.07639 C294.524069,1931.05904 293.990307,1931.04277 293.455463,1931.02542 C292.123765,1930.98313 290.76067,1930.94409 289.487437,1931.34424 C287.867746,1931.85283 286.553371,1933.01966 285.246576,1934.10625 C280.031301,1938.44175 274.131773,1941.95092 267.833817,1944.46352 C265.775641,1945.2855 263.212935,1946.7332 263.949158,1949.02457 C264.048765,1949.33255 264.209002,1949.61992 264.396305,1949.88452 C265.603495,1951.58488 267.303304,1952.93281 269.24022,1953.706 C270.159416,1954.07362 270.933533,1954.77849 271.242097,1955.72085 C272.180782,1958.58479 267.333619,1959.47076 267.950747,1961.85431 C268.321024,1963.28465 270.628217,1964.21183 269.951541,1965.52398 C269.684119,1966.04124 269.051834,1966.22993 268.601438,1966.59755 C266.522691,1968.30008 269.425358,1971.84179 268.324272,1974.29474 C267.856554,1975.33686 266.715408,1975.99402 266.379777,1977.08603 C266.141587,1977.86139 266.361371,1978.69856 266.62338,1979.46632 C266.942771,1980.40868 267.324957,1981.32827 267.766691,1982.21966 C268.245236,1983.18804 269.62782,1983.08068 269.999179,1982.06567 C270.60115,1980.42278 271.844068,1979.00436 273.459428,1978.32335 C274.67203,1977.8115 276.276564,1977.71499 276.794085,1979.79273 C276.878534,1980.1289 276.909932,1980.47592 276.921842,1980.82184 L277.375485,1993.75677 C277.429619,1995.30748 279.683761,1995.45713 279.927364,1993.92485 C280.753449,1988.75435 281.131305,1983.49493 281.426877,1978.26154 C281.692134,1973.56384 281.881603,1968.74578 280.469787,1964.25738 C279.874313,1962.36182 278.990845,1960.49337 278.410528,1958.59564 C277.774994,1956.51464 280.780516,1955.32612 281.69863,1957.29976 C282.218317,1958.41454 282.565857,1959.68114 282.792138,1960.84146 C283.38653,1963.87241 284.752873,1967.63425 287.934872,1967.58003 C288.917947,1967.56268 289.853383,1967.13217 290.575531,1966.46633 C292.123765,1965.03816 292.658609,1963.03958 293.168552,1961.0963 C293.843062,1958.53166 294.51649,1955.96701 295.189918,1953.40236 C295.383717,1952.66279 295.602419,1951.88201 296.163248,1951.36366 C296.722994,1950.84531 297.745045,1950.75205 298.18353,1951.37667 C297.627032,1956.03641 297.069452,1960.69615 296.512954,1965.35698 C296.451241,1965.87966 296.389528,1966.4197 296.542186,1966.92287 C296.943861,1968.25454 298.629595,1968.73493 300.003517,1968.53432 C301.377439,1968.33261 302.671243,1967.6798 304.057075,1967.61365 C306.595962,1967.49219 308.930222,1969.34546 311.464778,1969.17087 C313.933291,1968.99953 315.860463,1966.97818 318.210963,1966.20282 C319.618448,1965.73869 321.140698,1965.73544 322.565506,1965.32553 C325.106558,1964.59571 327.072707,1962.67304 329.259722,1961.15703 C330.745161,1960.12683 332.460127,1959.48486 334.249799,1959.23653 C340.476297,1958.37333 343.295599,1961.95516 345.987143,1965.41445 C351.599762,1972.62907 346.282715,1973.1702 351.54238,1980.64617 C352.168169,1981.53539 353.547505,1980.92161 353.319059,1979.8578 C353.260594,1979.58236 353.17831,1979.31234 353.0852,1979.06726 C350.380663,1971.95782 357.74939,1971.8548 353.427327,1965.59772 L353.427327,1965.59772 Z M381.743032,1997.80458 C381.491617,2002.0865 381.24129,2006.36842 380.987698,2010.64926 C380.805939,2013.76052 380.600235,2016.95975 379.257177,2019.77237 C377.689913,2023.05305 374.16901,2025.7245 370.43152,2024.57773 C368.461555,2023.97176 367.018366,2022.27007 366.944356,2020.21436 C366.854021,2017.66996 368.838134,2016.46781 370.302003,2014.9301 C372.971794,2012.1229 373.935008,2007.81275 372.71276,2004.13896 C371.799611,2001.38932 369.691423,1999.08601 367.088022,1997.82304 C366.722327,1997.52875 366.209701,1997.33979 365.845095,1997.11174 C364.399729,1996.20497 363.087145,1995.07014 362.034683,1993.72573 C361.450224,1992.97859 360.947394,1992.1663 360.552312,1991.30405 C360.151789,1990.43094 359.861192,1989.51005 359.457404,1988.63803 C358.705335,1987.01778 357.58104,1985.60278 356.466541,1984.20516 C356.333759,1984.039 356.190093,1983.86525 355.988743,1983.79901 C355.600192,1983.67087 355.186609,1984.03249 355.112599,1984.43429 C355.039678,1984.83501 355.207288,1985.23899 355.394489,1985.60169 C356.116084,1986.99606 357.177252,1988.1841 357.989182,1989.52851 C359.324622,1991.73952 359.946086,1994.30346 361.081264,1996.62306 C361.469815,1997.41798 361.948701,1998.19987 362.51357,1998.90031 C363.575827,2000.21757 364.092806,2001.88994 363.928461,2003.57209 C363.623715,2006.69312 362.992456,2009.72511 361.381656,2012.38679 C358.511604,2017.13242 351.033358,2019.59102 347.459125,2015.04304 C346.961736,2014.4121 346.639576,2013.6389 346.65699,2012.83638 C346.713586,2010.12149 349.995046,2009.25381 352.572325,2009.02359 C355.249735,2004.88175 354.168975,1999.25976 351.630878,1995.03322 C349.091692,1990.80777 345.313932,1987.48474 342.239264,1983.62743 C338.222061,1978.58316 334.826321,1972.17385 328.612771,1970.41895 C323.325431,1968.92467 317.762731,1971.41151 313.105561,1974.32187 C308.450568,1977.23115 303.871762,1980.72358 298.434226,1981.5185 C296.531741,1981.79759 294.329952,1981.85623 293.134913,1983.35811 C292.525421,1984.12262 292.317541,1985.1217 292.129252,1986.07952 C290.133167,1996.18542 288.13817,2006.29241 286.144261,2016.39831 C285.595719,2019.1751 284.888273,2022.21252 282.603767,2023.89032 C281.123573,2024.97736 279.230884,2025.29011 277.415469,2025.57138 C273.883683,2026.1187 270.015587,2026.61824 267.16839,2023.86317 C265.787239,2022.52636 265.380185,2020.41309 266.331428,2018.74506 C267.613537,2016.49605 270.262649,2016.27017 272.575452,2015.81732 C274.127479,2015.51326 275.467273,2013.12958 275.982076,2011.81884 C276.543679,2010.38755 277.304455,2008.00496 277.613554,2006.49874 L278.538676,2001.98442 C278.680165,2001.29593 278.809682,2000.53467 278.450517,1999.93088 C278.323177,1999.71586 278.095706,1999.52147 277.849732,1999.56491 C277.736541,1999.58555 277.645117,1999.6507 277.568931,1999.73649 C277.229357,2000.11875 277.038891,2000.61069 276.936583,2001.11131 C276.566535,2002.91726 276.197574,2004.7232 275.827526,2006.53023 C275.591348,2007.68569 275.343198,2008.86938 274.711938,2009.86737 C274.393044,2010.36908 273.984902,2010.8089 273.532137,2011.19441 C273.408062,2011.29975 273.275279,2011.39423 273.145762,2011.49305 C269.464868,2012.73755 265.486846,2013.10461 261.644872,2012.52253 C260.407386,2012.33466 259.019704,2011.93938 258.646391,2010.61777 C258.414566,2009.79787 258.701898,2008.93237 259.260236,2008.28731 C261.042999,2006.22291 264.325547,2006.71702 266.214971,2004.91759 C268.034739,2003.18332 267.6919,2000.24906 267.211926,1997.78394 C265.751322,1990.28977 264.239565,1982.6555 260.540168,1975.97253 C256.108293,1967.96686 248.573452,1961.3371 247.041016,1952.32041 C246.963741,1951.86323 246.899527,1951.39844 246.846196,1950.9293 C246.633962,1949.09512 247.732136,1947.37063 249.488778,1946.78855 C266.011445,1941.31208 278.267669,1932.27476 286.072428,1925.04555 C287.201076,1924 288.823848,1923.7196 290.252888,1924.28973 C297.164088,1927.0448 305.40311,1927.35972 313.030463,1927.4075 C315.494551,1927.42379 317.958639,1927.439 320.422727,1927.45529 C329.346338,1927.51284 338.269949,1927.56931 347.193561,1927.62578 C348.054468,1927.63121 350.417336,1927.74632 350.658956,1927.73112 C361.543825,1927.04914 360.520749,1930.55678 359.901462,1931.47984 C359.820922,1931.59929 359.738206,1931.72526 359.72188,1931.86861 C359.703378,1932.04019 359.782829,1932.20634 359.829629,1932.37249 C360.029891,1933.08705 359.622838,1933.83528 359.112388,1934.37391 C359.106946,1934.37934 359.101505,1934.38477 359.096063,1934.3902 C358.020745,1935.52177 357.887963,1937.23866 358.745605,1938.54289 C358.832675,1938.67538 358.921922,1938.80678 359.013346,1938.93492 C360.987664,1941.70085 364.114574,1943.47856 366.099775,1946.2358 C368.166605,1949.1049 368.790246,1952.72765 369.432389,1956.20053 C370.826601,1963.72838 372.562564,1971.19106 374.635924,1978.56036 C375.462003,1981.49244 376.35665,1984.44732 377.956565,1987.0395 C379.209288,1989.06698 380.902804,1990.89681 381.519915,1993.19687 C381.921526,1994.68897 381.834456,1996.26252 381.743032,1997.80458 L381.743032,1997.80458 Z M242.850664,1930.96473 C242.746495,1929.26136 242.565285,1927.55135 242.118228,1925.94089 C241.772085,1924.69323 241.254497,1923.50308 240.549188,1922.53968 C240.335426,1922.24988 240.729313,1921.89815 240.982139,1922.15365 C241.131882,1922.30519 241.270773,1922.47884 241.396643,1922.64808 C242.149696,1923.66899 242.901663,1924.71535 243.423591,1925.94864 C244.089836,1927.52149 244.350258,1929.31335 244.600914,1931.07203 C244.878697,1933.02205 245.15648,1934.97208 245.435348,1936.92211 C245.546027,1937.70412 245.89,1938.67305 246.266527,1939.69286 C246.647393,1939.69065 246.951218,1939.66963 247.099875,1939.61875 C260.734029,1934.85152 271.297378,1927.33899 278.475247,1920.94581 C280.048627,1919.5444 280.272156,1917.13645 278.983069,1915.45852 C278.017339,1914.202 276.910548,1912.75746 276.018604,1911.58943 C275.567207,1910.99878 274.806559,1910.74549 274.10342,1910.96338 C265.555083,1913.60251 258.292577,1914.16772 253.903389,1914.16772 L253.844794,1914.16772 C253.117784,1914.16661 252.472155,1914.61126 252.169415,1915.28486 C252.056566,1915.53594 251.93178,1915.78592 251.785293,1916.037 C250.605801,1918.05561 248.500726,1919.20041 246.318611,1919.20041 C245.427752,1919.20041 244.527128,1919.00905 243.667736,1918.61197 C240.344106,1917.06898 235.627221,1914.46193 232.025808,1910.79194 C231.848938,1910.61054 231.684005,1910.4203 231.532092,1910.22341 C230.635808,1909.06092 229.074364,1908.68927 227.740788,1909.27107 C220.107182,1912.60039 218.508844,1915.3822 218.196338,1916.16973 C218.112786,1916.37989 218.027064,1916.59115 217.928321,1916.79467 C212.275003,1928.51365 215.684355,1932.89043 217.637517,1933.79853 C218.227806,1934.07284 218.729117,1933.99099 218.872349,1933.62487 C219.496276,1932.03543 219.54619,1930.10531 219.54619,1930.10531 L219.545105,1930.09756 L219.542935,1930.0677 L219.55053,1930.07765 C220.132139,1928.03803 220.173372,1925.38011 221.795581,1924.71203 C222.382615,1924.4709 222.971819,1924.20102 223.448173,1923.77628 C223.756339,1923.50197 224.101397,1922.80846 224.082951,1922.80514 C224.178438,1922.40252 224.208821,1921.97558 224.233778,1921.56411 C224.25982,1921.12168 224.284777,1920.66818 224.149141,1920.24344 C224.01242,1919.8176 223.681467,1919.41941 223.221389,1919.31433 C222.760226,1919.20815 222.335956,1919.34973 222.297978,1919.79106 C222.250234,1920.35184 221.72071,1920.93143 221.301865,1920.88719 C218.45676,1920.57969 219.702443,1917.50146 220.325285,1916.88758 C221.103294,1916.12217 222.335956,1915.99276 223.461194,1915.90759 L225.815839,1915.95736 C227.810234,1916.21397 229.596292,1916.55133 230.726955,1918.11091 C231.344372,1918.9626 231.540773,1920.0709 231.251054,1921.06416 C231.08829,1921.62384 230.762763,1922.16029 230.252771,1922.48991 C229.743864,1922.82062 229.034215,1922.91022 228.496011,1922.62374 C227.956721,1922.33727 227.677853,1921.64154 227.970827,1921.13053 C228.101038,1920.90378 228.321311,1920.73123 228.449352,1920.50337 C228.577393,1920.27663 228.570882,1919.94038 228.327822,1919.82092 C227.878595,1919.43711 227.0995,1919.65611 226.744676,1920.11735 C226.389851,1920.5808 226.347533,1921.18583 226.341022,1921.75436 C226.335597,1922.31736 226.360554,1922.90358 226.548275,1923.43118 C226.536339,1923.42565 226.926971,1923.8338 227.121202,1924.05059 C227.761405,1924.7607 228.411374,1925.48519 228.823708,1926.35457 C229.219766,1927.18745 229.378189,1928.11546 229.495379,1929.0324 C229.657057,1930.29887 229.523591,1929.66177 229.552888,1931.05875 C229.577845,1932.29757 229.846948,1933.51758 230.355855,1934.64358 C231.758876,1937.74504 235.125909,1942.84188 240.81395,1938.0094 C241.744957,1937.21965 242.295098,1936.05826 242.397096,1934.82829 C242.555519,1932.91476 242.952662,1932.63161 242.850664,1930.96473 L242.850664,1930.96473 Z M226.698082,1929.84187 C226.626212,1929.09763 226.50373,1928.30645 226.050243,1927.76029 C225.560315,1927.17177 224.792019,1927.00346 224.077372,1927 C222.363636,1926.98972 222.403114,1930.09605 221.820059,1932.39059 C223.215949,1933.78632 224.920575,1934.69315 226.699094,1935 C226.859029,1933.28711 226.862066,1931.55476 226.698082,1929.84187 L226.698082,1929.84187 Z M250.627944,1907.03566 C250.635562,1907.06993 250.63665,1907.11526 250.642092,1907.14953 C250.952257,1908.94061 251.012114,1911.60733 249.504817,1914.17564 C249.483051,1914.21213 249.448226,1914.23203 249.42646,1914.26741 C248.435018,1915.83515 246.459752,1916.43881 244.777239,1915.66268 C241.941127,1914.35254 237.312584,1911.8793 233.887701,1908.39776 C233.220573,1907.71781 232.833138,1906.79685 232.820059,1905.83608 L232.820059,1905.77416 C232.813548,1903.69674 234.476472,1902.0129 236.519213,1902.00074 C239.188814,1901.98195 243.743353,1902.3092 248.417605,1904.26612 C249.566851,1904.74706 250.402666,1905.79296 250.627944,1907.03566 L250.627944,1907.03566 Z M219.081229,1909.91038 C219.667693,1910.06258 220.306288,1910.02559 220.899268,1909.76347 C223.017056,1908.82701 226.468507,1907.05979 229.025056,1904.57173 C229.525723,1904.08342 229.820059,1903.43023 229.820059,1902.7411 L229.820059,1902.69671 C229.825471,1901.21275 228.585208,1900.00994 227.060401,1900.00043 C225.813621,1899.99197 224.008615,1900.10612 221.979883,1900.53102 C220.539787,1900.83225 219.40487,1901.92091 219.042131,1903.30974 L217.878977,1907.75421 C217.640047,1908.66847 218.145058,1909.66623 219.081229,1909.91038 L219.081229,1909.91038 Z M235.807835,1877.96345 C237.803781,1877.53445 239.732591,1877.26908 241.341709,1877.10544 C242.277342,1877.00924 242.925252,1876.12138 242.8059,1875.1539 C242.479814,1872.49914 242.329559,1869.82117 242.377513,1867.1443 C242.403088,1865.80752 242.433992,1864.32921 241.215964,1863.46788 C240.205736,1862.75361 238.849175,1862.89956 237.843209,1863.61826 C236.073179,1864.88206 235.591509,1867.1056 235.184435,1869.18318 C234.741128,1871.43437 234.297821,1873.68555 233.854514,1875.93673 C233.616876,1877.14303 234.64522,1878.21334 235.807835,1877.96345 L235.807835,1877.96345 Z M228.523392,1891 L229.207974,1891 C229.4458,1891 229.666956,1890.88103 229.795871,1890.68386 C230.132606,1890.16833 230.803852,1889.16042 231.189485,1888.66032 C232.239697,1887.33956 233.475502,1886.1554 234.865783,1885.16622 C235.542586,1884.63968 236.306074,1884.25193 237.054002,1883.82233 C237.841939,1883.48636 238.61654,1883.08319 239.458932,1882.86399 C240.183523,1882.60953 240.931452,1882.43328 241.690494,1882.3066 C241.884977,1882.27466 241.850526,1881.98826 241.65382,1882.00037 C240.870328,1882.04884 240.087948,1882.14798 239.316681,1882.33194 C238.423168,1882.46963 237.582998,1882.79789 236.716156,1883.06667 C235.892657,1883.43018 235.03804,1883.76064 234.264551,1884.23982 C232.682009,1885.13427 231.221714,1886.26335 229.939233,1887.56869 C229.306883,1888.22961 228.694538,1888.91367 228.141093,1889.64951 C228.078858,1889.72992 228.017734,1889.81253 227.957722,1889.89405 C227.616542,1890.35229 227.948831,1891 228.523392,1891 L228.523392,1891 Z M241.715789,1883.06667 C240.89226,1883.43018 240.037611,1883.76064 239.264094,1884.23982 C237.681494,1885.13427 236.221146,1886.26335 234.938618,1887.56869 C234.306245,1888.22961 233.694988,1888.91367 233.141523,1889.64951 C233.079286,1889.72992 233.017049,1889.81253 232.957034,1889.89405 C232.616953,1890.35229 232.949255,1891 233.523836,1891 L234.207333,1891 C234.445167,1891 234.666331,1890.88103 234.79525,1890.68386 C235.133109,1890.16833 235.80438,1889.16042 236.188916,1888.66032 C237.239166,1887.33956 238.476128,1886.1554 239.865348,1885.16622 C240.542176,1884.63968 241.306803,1884.25193 242.053648,1883.82233 C242.842725,1883.48636 243.617354,1883.08319 244.458665,1882.86399 C245.184394,1882.60953 245.931239,1882.43328 246.69142,1882.3066 C246.884799,1882.27466 246.850347,1881.98826 246.653633,1882.00037 C245.870113,1882.04884 245.088816,1882.14798 244.316409,1882.33194 C243.422863,1882.46963 242.582663,1882.79789 241.715789,1883.06667 L241.715789,1883.06667 Z M253.054786,1889.51893 C253.437915,1890.00428 254.111918,1889.9039 254.655679,1889.92045 C255.475119,1889.94472 256.294559,1889.97009 257.113999,1889.99435 C257.693577,1890.012 258.328507,1890.0109 258.775672,1889.63696 C259.43448,1889.08764 259.346566,1888.0651 259.32703,1887.1992 C259.323774,1887.07124 259.325945,1886.93446 259.392151,1886.82416 C259.577746,1886.5153 260.033594,1886.66201 260.389589,1886.6973 C261.037543,1886.76238 261.686583,1886.22519 261.756046,1885.56667 C261.804887,1885.09014 261.729998,1884.39522 262.197784,1884.33565 C262.406171,1884.30918 262.591766,1884.4603 262.74263,1884.60921 C263.224526,1885.08683 263.631533,1885.64167 263.944114,1886.24615 C264.065673,1886.48221 264.403217,1886.50537 264.54974,1886.28476 C264.772237,1885.94833 264.822163,1885.43981 264.820059,1885.00852 C264.803712,1882.01922 264.787432,1879.02882 264.770066,1876.03953 C264.76681,1875.31371 264.679982,1874.4434 264.043966,1874.11137 C263.565326,1873.86098 262.955359,1874.06063 262.561376,1874.43347 C262.167394,1874.80741 261.93947,1875.32143 261.710461,1875.81781 C261.044056,1877.26613 260.294078,1878.67364 259.468126,1880.03371 C257.993134,1882.46155 256.273937,1884.73496 254.345268,1886.80761 C253.746155,1887.4518 252.244029,1888.49088 253.054786,1889.51893 L253.054786,1889.51893 Z M226.926682,1898.20155 C226.042464,1898.17746 224.967385,1898.24315 223.820059,1898.36904 C223.820059,1898.36904 223.932204,1886.04146 234.153542,1881.13057 C236.519363,1879.99425 239.428654,1879.2597 243.003265,1879.16446 C244.081579,1879.1349 245.207339,1879.15242 246.409659,1879.24656 C247.806076,1879.35713 249.079565,1879.52243 250.246301,1879.7348 C250.504018,1879.78078 250.63665,1880.06979 250.515879,1880.30515 C250.260319,1880.79996 250.012306,1881.309 249.773999,1881.82352 C248.863902,1881.94832 248.013112,1882.29096 247.134286,1882.57121 C246.335256,1882.93247 245.506032,1883.26088 244.756604,1883.73708 C243.220006,1884.62599 241.803102,1885.74807 240.558727,1887.04531 C239.945167,1887.70214 239.352094,1888.38196 238.815094,1889.11323 C238.754708,1889.19314 238.696479,1889.27305 238.63825,1889.35297 C238.306129,1889.81056 238.626389,1890.45535 239.186034,1890.45535 L239.849197,1890.45535 C240.079956,1890.45535 240.292384,1890.33931 240.418547,1890.14335 C240.745276,1889.63103 241.397656,1888.62717 241.771831,1888.13017 C242.791916,1886.81761 243.991001,1885.64079 245.338893,1884.65774 C245.995587,1884.13446 246.737467,1883.74912 247.462094,1883.32218 C248.127414,1883.03208 248.784107,1882.69929 249.479619,1882.47159 C248.642848,1884.3556 247.933317,1886.27135 247.409256,1887.80285 C247.190359,1888.43998 248.017426,1888.89976 248.432576,1888.3721 L249.525987,1886.98291 C252.080513,1883.73927 254.308309,1880.24275 256.180263,1876.54918 C257.560505,1873.82882 259.01515,1871.00336 259.385012,1870.45053 C260.719965,1868.45486 262.836695,1867.39627 265.392299,1868.36181 C266.796264,1868.89165 268.536663,1873.357 268.785753,1874.85566 C269.380983,1878.44523 268.867705,1884.99929 268.729681,1888.63484 C268.563621,1893.03997 272.662292,1895.60051 276.308072,1895.63006 C276.858012,1895.63444 277.019759,1896.39308 276.5205,1896.62735 C275.662162,1897.0313 274.555812,1897.48013 273.270461,1897.84358 C272.923244,1897.9421 272.777672,1898.37123 273.000883,1898.66023 C273.254287,1898.98865 273.681299,1899.43091 274.399456,1899.96294 C274.804902,1900.26399 274.596788,1900.91316 274.094293,1900.90768 C272.426142,1900.88907 269.726043,1900.75114 266.823222,1900.19502 C266.170842,1900.06913 265.643546,1900.7588 265.957336,1901.35323 C266.222601,1901.8579 266.550408,1902.32534 266.922427,1902.76541 C267.820662,1903.82729 267.290132,1905.46827 265.939004,1905.74194 C261.370188,1906.66917 257.504432,1906.9527 254.790316,1907 C254.036574,1907.01181 253.365863,1906.54765 253.079031,1905.83937 C252.449296,1904.28488 251.242663,1903.03471 249.674794,1902.37898 C244.751212,1900.32201 239.979673,1899.87646 236.854719,1899.93229 C235.69014,1899.94105 234.607512,1900.27494 233.678006,1900.84638 C232.867114,1901.34557 231.795269,1901.19231 231.235624,1900.41397 C231.084661,1900.20378 230.916444,1900.00235 230.730974,1899.81297 C229.714123,1898.78065 228.365153,1898.20921 226.926682,1898.20155 L226.926682,1898.20155 Z" id="Fill-10" fill="#FFFFFE"></path>
            </g>
        </g>
    </g>
</svg>