<?xml version="1.0" encoding="UTF-8"?>
<svg width="671px" height="200px" viewBox="0 0 671 200" version="1.1" xmlns="http://www.w3.org/2000/svg" xmlns:xlink="http://www.w3.org/1999/xlink">
    <title>necromancer-full script</title>
    <defs>
        <polygon id="path-1" points="0 0 670.253054 0 670.253054 200 0 200"></polygon>
    </defs>
    <g id="Page-1" stroke="none" stroke-width="1" fill="none" fill-rule="evenodd">
        <g id="necromancer-cs" transform="translate(-385.000000, -1729.000000)">
            <g id="necromancer-full-script" transform="translate(385.000000, 1729.000000)">
                <mask id="mask-2" fill="white">
                    <use xlink:href="#path-1"></use>
                </mask>
                <g id="Clip-2"></g>
                <path d="M250.357625,159.109876 L238.307504,161.455426 L234.227804,162.246275 L230.114755,189.635368 L246.397029,186.471973 C246.516132,186.44974 246.611415,186.362398 246.644765,186.251234 L247.988255,181.844396 C248.066069,181.593484 247.827862,181.360041 247.580126,181.445796 C246.273161,181.899978 243.797391,182.636833 241.720222,183.040198 C240.18299,183.329223 237.029124,183.931093 234.87414,184.343986 L236.062001,176.41803 C242.27604,175.160295 244.311919,174.914147 245.461667,174.988786 C245.61412,174.996726 245.750693,174.896679 245.787218,174.74899 L246.784513,171.115532 C246.846447,170.878913 246.644765,170.664526 246.409733,170.71058 L236.617819,172.681349 L237.721513,165.362028 C239.679578,164.995189 242.997014,164.356793 244.423083,164.096353 C246.29857,163.737453 248.437673,163.507186 249.36827,163.610409 C249.528663,163.627878 249.668411,163.523067 249.7097,163.372202 L250.732404,159.510065 C250.794338,159.27821 250.592656,159.065411 250.357625,159.109876 L250.357625,159.109876 Z M362.172205,148.552522 L359.278778,149.113104 L352.029331,150.461358 C351.897523,150.48359 351.791124,150.596342 351.770479,150.732914 L351.205133,154.518825 C351.173372,154.737976 351.367115,154.926954 351.584677,154.885664 L357.849533,153.718448 L357.214314,157.655223 C357.214314,157.655223 357.214314,157.663163 357.206373,157.672691 C356.423465,159.549766 354.312947,163.321384 349.882288,163.321384 C345.969334,163.321384 343.66825,160.337439 343.66825,155.257268 C343.66825,148.7415 348.902461,142.160622 354.320887,142.160622 C356.06933,142.160622 357.997222,143.038813 359.019926,144.377539 C359.175555,144.58081 359.489989,144.525228 359.575743,144.28702 L360.787425,140.809192 C360.831891,140.683736 360.80013,140.548751 360.704847,140.462997 C359.469344,139.349774 357.697081,138.241315 354.74966,138.241315 C346.342525,138.241315 339.201066,147.261438 339.201066,156.179925 C339.201066,163.145111 342.771001,167.240691 348.832587,167.240691 C355.389644,167.240691 359.78219,162.613114 361.014517,158.739861 L361.929233,152.927599 L361.937173,152.927599 L362.550161,148.919361 C362.58351,148.695446 362.389768,148.511233 362.172205,148.552522 L362.172205,148.552522 Z M302.912542,148.893953 L298.923361,149.668921 C298.786789,149.697506 298.683565,149.805493 298.662921,149.942066 L294.678504,176.649886 C294.645155,176.872212 294.843661,177.058014 295.061224,177.015137 L299.02976,176.236993 C299.166333,176.213172 299.269556,176.105184 299.2902,175.968612 L303.292086,149.257616 C303.325435,149.038465 303.130105,148.849487 302.912542,148.893953 L302.912542,148.893953 Z M332.863159,143.078515 L329.826808,143.659741 C329.690236,143.68515 329.587013,143.796313 329.566368,143.931297 L326.55225,164.494953 L315.931373,146.565872 C315.856735,146.454708 315.724927,146.395951 315.596295,146.421359 L312.324912,147.047051 C312.193104,147.07246 312.089881,147.178859 312.069236,147.315431 L308.080056,174.028015 C308.046707,174.250342 308.245213,174.436144 308.462776,174.394855 L311.48007,173.823157 C311.616642,173.797748 311.718277,173.686585 311.738922,173.550012 L314.795918,153.189627 L325.39615,170.909086 C325.466024,171.020249 325.597832,171.077419 325.726464,171.053598 L328.977202,170.434259 C329.113774,170.40885 329.216997,170.302451 329.237642,170.167467 L333.242703,143.446942 C333.276052,143.223027 333.08231,143.038813 332.863159,143.078515 L332.863159,143.078515 Z M209.031807,181.298107 L210.713552,170.356445 C212.465171,169.997545 216.136742,169.243222 216.891065,169.124118 C218.526756,168.865266 219.99729,169.519542 219.99729,171.040894 C219.99729,175.00943 212.230139,179.751347 209.031807,181.298107 L209.031807,181.298107 Z M216.58616,181.053547 C221.00729,177.910797 224.053169,174.307512 224.053169,170.769337 C224.053169,167.042185 221.291551,164.760157 217.080043,165.574827 C214.904415,166.005188 208.657027,167.212106 207.404056,167.455078 C207.269072,167.483663 207.169025,167.59165 207.149968,167.726634 L203.10203,194.443983 C203.065504,194.666309 203.262423,194.852111 203.481573,194.809234 L206.840299,194.158134 C206.975283,194.134313 207.078506,194.026325 207.099151,193.891341 L208.347358,185.706533 C210.098977,184.907744 211.80613,184.037493 213.416412,183.102131 L218.217087,191.718889 C218.283785,191.842757 218.420357,191.904691 218.560105,191.88087 L222.671566,191.104314 C222.911362,191.059849 223.022525,190.775588 222.862132,190.585022 C221.415419,188.852459 218.144036,183.600779 216.58616,181.053547 L216.58616,181.053547 Z M186.036847,194.258181 C184.347162,194.68219 181.858689,195.049029 181.034491,195.185602 L182.225528,187.45974 C185.315873,185.636659 188.488796,183.962854 190.111783,183.962854 C191.764943,183.962854 192.692364,185.303168 192.692364,187.038907 C192.692364,190.945509 189.419393,193.424455 186.036847,194.258181 L186.036847,194.258181 Z M184.058137,175.511254 C185.633483,175.169823 188.679362,174.49649 189.532145,174.307512 C190.54532,174.086773 192.441452,173.966082 192.441452,175.655766 C192.441452,178.39674 185.793876,181.861865 182.863924,183.284757 L184.058137,175.511254 Z M192.493857,180.840749 C194.337583,179.517903 196.240067,177.469319 196.240067,174.628298 C196.240067,171.299746 193.553087,170.149998 190.186421,170.805863 C188.015557,171.221932 181.982556,172.400264 180.748642,172.64006 C180.616834,172.663881 180.515199,172.771868 180.494554,172.906852 L176.438675,199.628965 C176.406914,199.849704 176.595892,200.035506 176.818219,199.994216 C177.482024,199.867172 178.825514,199.606732 180.404035,199.29865 C182.003201,198.992157 183.845339,198.634846 185.450857,198.320412 C191.801468,197.080145 196.940397,193.549911 196.940397,187.099253 C196.940397,182.85916 194.397929,181.367981 192.493857,180.840749 L192.493857,180.840749 Z M291.769197,151.058464 L287.45923,151.898543 C287.351243,151.919187 287.265488,151.989062 287.224199,152.087521 L278.099265,173.257811 L275.421813,155.454186 C275.393228,155.273148 275.218543,155.150869 275.039093,155.185806 L273.324,155.520884 C273.220776,155.541529 273.133434,155.606639 273.092144,155.701922 L263.973563,175.541427 C263.973563,175.541427 261.728061,161.339498 261.270702,157.347141 C261.24847,157.159751 261.072196,157.027943 260.886394,157.066056 L257.013141,157.82038 C256.840044,157.853729 256.724116,158.014122 256.757465,158.182455 C257.622952,163.264215 260.984853,180.670827 261.475561,183.222823 C261.50891,183.394333 261.677243,183.505496 261.855105,183.473735 L263.803642,183.091015 C263.903689,183.07037 263.989443,183.003672 264.030733,182.913154 L273.117553,163.88673 C273.117553,163.88673 275.005744,176.038486 275.680665,180.251582 C275.70925,180.42468 275.866467,180.534255 276.039565,180.515199 L278.607441,180.196001 C278.717016,180.181708 278.809123,180.118186 278.858353,180.014963 C279.801654,177.988611 289.604685,156.942189 292.128096,151.506294 C292.23926,151.264911 292.028049,151.004471 291.769197,151.058464 L291.769197,151.058464 Z M573.875111,95.7339887 C575.621966,95.7339887 577.551447,96.6153563 578.572563,97.9540822 C578.729779,98.1557645 579.042625,98.1033588 579.129968,97.8603872 L580.34165,94.3857345 C580.386115,94.2618666 580.352766,94.1268824 580.259071,94.0347755 C579.021981,92.9231407 577.251305,91.8178581 574.303885,91.8178581 C565.89675,91.8178581 558.75529,100.839568 558.75529,109.758056 C558.75529,116.718478 562.323638,120.814058 568.386812,120.814058 C574.2753,120.814058 578.569386,116.828053 580.151084,113.388337 C580.201902,113.285114 580.189197,113.164422 580.122499,113.070727 L578.351824,110.375807 C578.218427,110.174125 577.92305,110.178889 577.802358,110.386923 C576.908286,111.941624 573.722659,116.899515 569.436513,116.899515 C565.52197,116.899515 563.219298,113.91557 563.219298,108.833811 C563.219298,102.318043 568.456686,95.7339887 573.875111,95.7339887 L573.875111,95.7339887 Z M596.050638,111.678008 C592.123391,111.678008 590.038281,108.268465 590.038281,103.707586 C590.038281,98.0731859 594.619805,90.5204215 599.866721,90.5204215 C603.786028,90.5204215 605.615461,94.1046497 605.615461,98.5988304 C605.615461,104.226879 601.329315,111.678008 596.050638,111.678008 L596.050638,111.678008 Z M601.03235,86.2803288 C591.415121,86.2803288 585.550453,96.863092 585.550453,104.750935 C585.550453,111.146011 588.83454,115.905396 595.024758,115.905396 C604.114754,115.905396 610.106466,105.476674 610.106466,97.5920068 C610.106466,91.3128583 607.222567,86.2803288 601.03235,86.2803288 L601.03235,86.2803288 Z M616.841384,101.890857 C615.22475,101.890857 613.81615,104.222114 613.81615,105.961029 C613.81615,107.353748 614.462486,108.412978 615.666228,108.412978 C617.293979,108.412978 618.62,106.110305 618.62,104.382507 C618.62,102.994552 618.061007,101.890857 616.841384,101.890857 L616.841384,101.890857 Z M420.690248,94.3110961 C415.473505,94.3110961 413.407453,88.014479 413.407453,80.9635383 C413.407453,69.0912787 420.467922,49.6360817 430.407525,49.6360817 C435.027161,49.6360817 437.013811,55.5833279 437.013811,61.8338915 C437.013811,70.2045015 429.896173,94.3110961 420.690248,94.3110961 L420.690248,94.3110961 Z M297.02723,98.6925253 C294.081397,98.5511889 292.177326,96.5613626 291.397593,95.5593032 C291.234024,95.3544448 290.908474,95.4322592 290.857656,95.6879352 L288.855126,104.536548 C288.823365,104.67312 288.880535,104.808105 289.007579,104.865275 C289.626918,105.190825 291.670738,106.089661 295.135862,106.142066 C292.518756,114.142661 288.196085,120.977627 283.408115,120.977627 C278.393054,120.977627 275.887112,114.499972 275.887112,107.015494 C275.887112,95.233753 282.294892,76.7393261 290.428883,76.7393261 C295.445532,76.7393261 297.776789,82.4102516 297.776789,91.0270093 C297.776789,93.3884393 297.513173,96.0150735 297.02723,98.6925253 L297.02723,98.6925253 Z M162.609938,101.659002 C170.863032,101.659002 170.291334,123.088145 145.111218,130.464636 C145.539992,117.785647 154.112284,101.659002 162.609938,101.659002 L162.609938,101.659002 Z M585.640972,19.3757945 C592.477526,19.3757945 592.444177,40.2237111 568.975978,47.727246 C569.849405,35.1006627 578.189843,19.3757945 585.640972,19.3757945 L585.640972,19.3757945 Z M655.203901,33.8524557 C640.428687,33.8524557 638.075197,53.2203099 631.087778,53.2203099 C623.174527,53.2203099 635.550198,25.6025374 635.550198,17.060418 C635.550198,11.5991151 633.338045,6.67139683 625.894856,6.67139683 C620.776572,6.67139683 616.774686,7.0827017 614.764215,6.37284348 C614.961134,4.86578431 615.043712,3.90183814 615.043712,3.61757724 C615.043712,1.34984225 614.208398,0 612.4806,0 C610.906843,0 608.928133,1.42924474 608.928133,4.1082846 C608.928133,5.72333115 609.485538,7.37490285 611.092644,8.52147474 C608.516828,22.5328373 598.535935,63.2964853 579.812829,63.2964853 C572.371228,63.2964853 569.285648,58.0638615 568.934689,51.211427 C583.444699,47.8638182 595.99188,35.9915586 595.99188,25.4421444 C595.99188,20.1952282 593.741613,15.0912364 587.935704,15.0912364 C572.815882,15.0912364 555.426738,36.803052 555.013845,57.1396166 L555.013845,57.1570851 C552.430088,62.9232936 547.213345,71.2954917 538.529889,71.2954917 C518.415652,71.2954917 527.988415,27.5113732 544.439022,27.5113732 C548.159823,27.5113732 549.685938,31.5243748 550.187762,33.3617483 C550.267165,33.6460092 550.657825,33.671418 550.768988,33.3998615 L554.184883,25.3929149 C554.242053,25.2515784 554.194411,25.0911854 554.065779,25.013371 C553.319396,24.5591888 550.719759,23.191878 546.28116,23.191878 C531.590112,23.191878 515.106156,43.2124206 513.803955,62.9931678 C510.886708,68.6799738 504.890232,79.0388221 500.01492,79.0388221 C498.345879,79.0388221 496.599025,77.2014486 496.599025,73.3313714 C496.599025,66.5154621 503.572151,49.0882046 503.572151,43.1330182 C503.572151,38.2497653 501.433048,33.0123774 494.97445,33.0123774 C486.502205,33.0123774 477.823513,47.2508311 472.470197,57.7541918 C472.371738,57.9479339 472.079537,57.8399465 472.128767,57.631912 L476.265636,38.686479 C476.306925,38.4720923 476.117947,38.273586 475.903561,38.3164634 L470.607415,39.3550479 C470.496252,39.3709284 470.405733,39.4519189 470.369208,39.5757868 C467.315388,50.7651851 464.434666,60.6174455 461.892198,68.9959957 C461.884258,69.005524 461.884258,69.0134643 461.884258,69.0134643 C457.128049,78.4496556 450.555111,89.5437709 445.96406,89.5437709 C443.445413,89.5437709 442.683149,86.6805173 442.683149,82.8231445 C442.683149,76.0802855 446.30549,58.6117387 451.461888,43.3394646 C451.539702,43.1076094 451.342784,42.8932226 451.110929,42.9440402 L444.191796,44.4765082 C444.080633,44.501917 443.994878,44.5749673 443.961529,44.6861308 C443.335837,46.6775451 442.254375,50.0775595 440.964879,54.2049007 C440.912473,54.3875264 440.656797,54.3875264 440.610744,54.2049007 C439.799251,50.9049334 437.417176,45.5897311 430.555213,45.5897311 C419.688189,45.5897311 403.699705,66.1803836 402.092598,86.5598255 C398.927615,92.3784396 393.714048,100.547367 389.378672,100.547367 C387.709632,100.547367 385.967542,98.7084058 385.967542,94.8383286 C385.967542,86.7916808 392.93908,72.6485101 392.93908,64.8718306 C392.93908,59.4645214 390.807917,54.565388 384.339791,54.565388 C374.979826,54.565388 365.365773,71.9100669 360.276073,82.4181919 C360.182378,82.6119339 359.893353,82.5102987 359.929879,82.2990881 C360.844595,77.2379737 361.56557,72.5786359 361.56557,70.4141241 C361.56557,65.5308713 359.588448,60.6380901 353.12985,60.6380901 C344.411457,60.6380901 335.361162,75.5816379 330.003082,86.0580018 C329.904623,86.2469797 329.617186,86.1405804 329.661651,85.9293698 C331.400566,77.757266 332.971147,70.3680707 333.83187,66.3725376 C333.881099,66.1486226 333.684181,65.9675849 333.469794,66.000934 L328.66912,66.9442355 C328.573837,66.961704 328.496023,67.0188738 328.449969,67.1014524 C327.3828,69.0452253 314.973779,91.3573237 302.887133,97.2712208 C303.031646,95.7832182 303.10946,94.3285647 303.10946,92.9231407 C303.10946,80.1186959 298.642276,72.5659315 291.813662,72.5659315 C279.075916,72.5659315 267.459332,93.7393982 265.097902,110.737882 C261.870985,117.093257 256.047607,127.188489 251.556602,127.188489 C242.898555,127.188489 254.80734,99.9582009 254.80734,91.4097293 C254.80734,85.9611308 252.599951,81.0334125 245.156762,81.0334125 C240.082943,81.0334125 236.09535,81.433601 234.075351,80.7491516 C234.240508,79.2278 234.310382,78.2606777 234.310382,77.9716527 C234.310382,75.7023296 233.460776,74.3493113 231.734566,74.3493113 C230.160809,74.3493113 228.191627,75.7880843 228.191627,78.4591839 C228.191627,80.2092147 228.833199,81.9894184 230.757915,83.156635 C228.594992,97.5634219 220.422888,136.683438 201.97769,136.683438 C180.419916,136.683438 191.250415,92.9310809 207.701021,92.9310809 C212.126916,92.9310809 213.919824,97.469727 214.537575,99.6644117 C214.624918,99.9740814 215.040987,99.9661412 215.126742,99.6644117 L217.488172,91.0603584 C217.521521,90.9237861 217.464351,90.7681572 217.335719,90.7109874 C216.446411,90.2568052 213.005108,88.6449348 209.736901,88.6449348 C195.263416,88.6449348 179.035136,108.640069 177.321631,128.198489 C172.701994,135.998989 165.336619,145.470118 156.781796,145.470118 C149.219503,145.470118 145.832193,140.467761 145.206501,133.844006 C160.153225,130.720312 173.813629,118.633665 173.813629,107.903214 C173.813629,102.661062 171.498252,97.3331547 164.901494,97.3331547 C149.603811,97.3331547 131.973283,119.778649 131.973283,140.339129 C131.973283,152.314612 139.29578,161.091763 150.415304,161.091763 C162.935488,161.091763 171.955611,148.400069 177.437558,137.326599 C177.510608,137.177322 177.720231,137.215435 177.758344,137.375828 C179.632243,146.248262 185.912979,152.244738 195.136372,152.244738 C221.909302,152.244738 231.313733,102.146533 233.667222,84.1904553 C234.532709,84.3508484 235.522064,84.4381911 236.651168,84.4381911 C243.043068,84.4381911 247.988255,84.4794804 247.988255,87.4824824 C247.988255,94.2586905 233.085996,116.845522 233.085996,129.129086 C233.085996,137.050278 236.943369,142.910181 244.480253,142.910181 C253.320925,142.910181 260.292464,131.153849 264.604019,121.246007 C264.673893,121.082438 264.908924,121.122139 264.932745,121.303177 C266.017383,130.091444 270.332114,136.375357 277.868998,136.375357 C288.751903,136.375357 298.230971,120.088319 301.696096,104.619127 C311.492774,100.028075 320.352504,86.0786464 325.103948,77.3697818 C325.210348,77.1808039 325.499373,77.312612 325.437439,77.5222346 C318.381734,101.188939 311.175164,119.845347 307.992713,128.668552 C307.906958,128.890879 308.105464,129.113206 308.343672,129.059212 L322.598006,126.299181 C322.726638,126.273773 322.820333,126.172137 322.837802,126.043505 C328.840629,90.631585 344.455922,64.9671136 350.546093,64.9671136 C352.480337,64.9671136 353.909582,66.2851949 353.909582,69.1563887 C353.909582,76.4312445 349.486864,93.4138481 341.254414,122.211541 C341.187716,122.429104 341.386222,122.643491 341.608549,122.602202 L354.721076,120.050206 C354.857648,120.026385 354.951343,119.915222 354.968811,119.78659 C358.718197,88.9625447 375.305376,58.7800719 382.397606,58.7800719 C384.330262,58.7800719 385.291032,60.5110461 385.291032,63.3758878 C385.291032,71.5718123 371.233616,91.6002953 371.233616,104.441265 C371.233616,112.394218 374.605046,116.535852 380.658691,116.535852 C389.569238,116.535852 397.398323,103.591659 401.878212,94.2983917 C401.956026,94.1395868 402.186293,94.1840522 402.206938,94.3650898 C403.205821,102.950087 407.239467,109.785053 415.394103,109.785053 C421.044384,109.785053 426.302416,103.307398 430.559977,94.7065205 C430.645732,94.5350111 430.898232,94.5874168 430.909348,94.7811588 C431.260307,101.157178 433.740841,105.200353 438.484345,105.200353 C444.765082,105.200353 452.116164,94.6747595 457.415486,85.2957379 C457.531414,85.0940556 457.828379,85.2369801 457.758505,85.456131 C454.844434,94.1427629 452.821258,99.0927138 452.173334,100.625182 C452.079639,100.855449 452.276557,101.087304 452.516353,101.046015 L463.561238,98.8942076 C463.680342,98.8687988 463.775625,98.7751039 463.799446,98.6480599 L464.866615,93.285216 L464.87932,93.2566311 C471.044129,65.3498336 486.365632,37.2731147 493.033853,37.2731147 C494.966509,37.2731147 495.914575,38.9993248 495.914575,41.8768708 C495.914575,50.0727954 481.866687,70.1012783 481.866687,82.93272 C481.866687,90.887261 486.189359,94.9082028 492.24618,94.9082028 C501.914227,94.9082028 509.864004,79.707391 513.803955,70.4633537 C513.873829,70.2934323 514.112037,70.3363097 514.145386,70.5173473 C515.790605,80.0202368 522.174565,86.9806587 531.685395,86.9806587 C543.743456,86.9806587 551.326394,74.7701445 555.558546,64.5542207 C555.62842,64.3922396 555.850747,64.4144723 555.895213,64.5843936 C558.240762,73.0105854 565.040791,78.7053316 573.954514,78.7053316 C600.776674,78.7053316 611.51983,27.8639202 614.286212,9.80144281 C615.183461,9.98406852 616.209341,10.0777635 617.397202,10.0777635 C623.781162,10.0777635 628.734289,10.128581 628.734289,13.131583 C628.734289,19.8998509 613.83203,42.489858 613.83203,54.7670703 C613.83203,62.6993786 617.689403,68.8308386 625.227875,68.8308386 C643.665132,68.8308386 644.014503,38.33552 655.178492,38.33552 C662.105565,38.33552 665.724731,46.5282684 665.724731,54.8369445 C665.724731,91.3859086 628.083188,132.087623 577.489513,132.087623 C507.140499,132.087623 509.47652,124.938223 449.553052,124.938223 C401.69241,124.938223 381.586112,152.676687 377.901837,158.492125 C377.785909,158.669987 378.013001,158.866905 378.170218,158.731921 C382.872433,154.725271 405.953147,137.383768 453.489827,137.383768 C493.529325,137.383768 517.088042,142.098688 557.770699,142.098688 C632.718705,142.098688 670.253848,97.7651043 670.253848,58.3719432 C670.253848,53.126615 669.235908,33.8524557 655.203901,33.8524557 L655.203901,33.8524557 Z M412.48956,12.3280299 C407.77464,16.3473837 384.697102,33.671418 337.182655,33.671418 C297.138393,33.671418 273.582852,28.9564984 232.897018,28.9564984 C164.088412,28.9564984 126.831178,66.3169559 121.168193,102.924678 C119.961275,110.745823 116.075317,136.16097 114.187126,148.560462 C104.330102,115.509972 104.271344,66.737789 55.748485,66.737789 C26.5061377,66.737789 0,91.5208928 0,116.210302 C0,133.45811 10.3667885,145.452649 27.857568,145.452649 C44.6257849,145.452649 55.8390039,127.976162 57.4127611,112.424391 C57.4492863,112.068668 56.9426984,111.941624 56.8156544,112.275114 C54.6146176,117.830112 47.4556895,132.363943 32.555019,132.363943 C20.1761716,132.363943 13.2109855,122.15596 13.2109855,110.15348 C13.2109855,91.5081884 32.9028019,72.1292178 54.5050421,72.1292178 C121.649372,72.1292178 78.9927686,190.137192 135.868769,190.137192 C149.360839,190.137192 159.980128,178.433265 162.436841,174.307512 C162.609938,174.020075 162.266919,173.702465 161.998539,173.899383 C159.835615,175.466788 154.779265,178.306221 146.573812,178.306221 C131.492104,178.306221 123.30412,170.508897 118.031795,159.047943 C118.020678,159.014593 118.012738,158.978068 118.015914,158.941543 C119.2403,150.686861 124.947751,112.259234 125.487688,108.513025 C130.432875,74.2047988 166.116352,38.9596235 213.178205,38.9596235 C283.527219,38.9596235 281.191198,46.1217277 341.117842,46.1217277 C388.957839,46.1217277 409.068901,18.3991439 412.761116,12.5725895 C412.877044,12.394728 412.649953,12.1914576 412.48956,12.3280299 L412.48956,12.3280299 Z M87.7143376,99.2721634 C86.5233004,95.6545862 84.9241343,92.8739111 84.1904553,91.6955783 C84.0427667,91.4526067 83.6838675,91.5208928 83.6266977,91.7940373 C70.6046901,151.195037 62.0768631,170.40091 55.0894444,179.451205 C54.9147589,179.681472 55.1053249,179.999082 55.3848217,179.945089 L78.0224703,175.549367 C78.2193884,175.50649 78.3226117,175.301631 78.2447972,175.12377 C77.7747345,174.086773 76.5265274,170.640705 76.5265274,163.214985 C76.5265274,146.503938 87.1998095,101.589128 87.7222779,99.4341445 C87.7302181,99.384915 87.7302181,99.322981 87.7143376,99.2721634 L87.7143376,99.2721634 Z" id="Fill-1" fill="#8C81FF" mask="url(#mask-2)"></path>
            </g>
        </g>
    </g>
</svg>