<?xml version="1.0" encoding="UTF-8"?>
<svg width="145px" height="261px" viewBox="0 0 145 261" version="1.1" xmlns="http://www.w3.org/2000/svg" xmlns:xlink="http://www.w3.org/1999/xlink">
    <title>red_standalone-h copy</title>
    <g id="Page-1" stroke="none" stroke-width="1" fill="none" fill-rule="evenodd">
        <g id="Picked-Option" transform="translate(-635.000000, -2090.000000)" fill="#A12B2A" fill-rule="nonzero">
            <g id="red_standalone-h-copy" transform="translate(635.000000, 2090.000000)">
                <path d="M69.5404712,194.57638 C72.0941218,190.02797 76.9815722,175.388831 66.6485888,138.108722 C66.6852664,137.960273 66.7304378,137.814036 66.7838815,137.670727 L85.7925122,115.147678 C103.820271,116.242665 132.857476,168.869445 108.200373,203.218357 C110.120364,205.740609 111.817844,208.423491 113.273851,211.237034 L145,174.175922 L138.133893,168.17876 L129.373688,178.471642 C140.924306,129.028749 113.172382,106.84262 103.126895,100.592769 C102.28445,100.078801 101.709693,99.2236373 101.553614,98.2519341 C101.397536,97.2802308 101.675739,96.2891234 102.315139,95.5389805 L102.315139,95.5389805 L95.5505015,89.8955839 L63.2155353,128.034837 L56.1972242,112.165943 C60.6787964,107.937607 84.9807558,84.2353413 90.2740844,54.1989946 C93.4196408,36.2580472 90.1726149,18.4013295 82.0043154,8.7149025 C77.3951137,3.06237733 70.4229767,-0.152130805 63.1140658,0.00554115827 C57.161185,0.00554115827 50.0075811,3.62742257 43.9363191,9.69196818 C36.8841847,16.8515012 25.0122463,33.8659208 25.3335666,67.3893813 C25.5534173,87.2844601 33.298927,108.34191 40.7738512,128.708676 C51.4450665,157.767957 61.524376,185.226872 50.9208071,208.575372 L50.261255,210.024125 L51.8171215,210.361044 C52.087707,210.361044 80.56683,216.661433 82.5285748,227.813459 C77.4550968,235.966903 72.2632377,240.212085 59.5626312,234.652919 L55.7744343,232.884093 L55.3347329,232.681941 C44.2407278,227.628153 29.0541171,220.536004 16.5902729,226.684779 C8.57417775,230.660426 3.06099837,239.605631 0,253.318242 L5.53009097,255.002838 C5.73303009,254.514305 10.7050385,243.025361 22.0527175,243.025361 C27.1261955,243.025361 30.9989503,246.259785 35.5819921,250.016434 C41.737812,255.171298 48.7053884,261 60.8140891,261 C73.9205738,261 81.3616748,248.53399 88.5491019,236.489128 L89.0226265,235.629984 C90.5108467,232.850401 94.4681596,225.522408 102.416608,221.378302 L103.482039,220.822385 L102.991603,219.710552 C102.53499,219.003022 94.2652204,201.045228 69.5404712,194.57638 Z M52.8487287,106.034014 C49.3311173,100.609614 36.9518311,79.754316 36.9518311,55.0918305 C36.9518311,39.3577038 42.7694192,15.9586653 58.8016095,15.9586653 C67.3757873,15.9586653 76.5926056,27.6497616 76.5926056,53.3566966 C76.5926056,70.4385001 68.8132727,87.6045333 52.8487287,106.034014 Z" id="Shape"></path>
            </g>
        </g>
    </g>
</svg>