<?xml version="1.0" encoding="UTF-8"?>
<svg width="585px" height="260px" viewBox="0 0 585 260" version="1.1" xmlns="http://www.w3.org/2000/svg" xmlns:xlink="http://www.w3.org/1999/xlink">
    <title>red_surrounded copy</title>
    <g id="Page-1" stroke="none" stroke-width="1" fill="none" fill-rule="evenodd">
        <g id="Picked-Option" transform="translate(-414.000000, -3751.000000)" fill="#A12B2A" fill-rule="nonzero">
            <g id="red_surrounded-copy" transform="translate(414.000000, 3751.000000)">
                <path d="M32.1426726,145.365869 L32.1426726,133.518161 L7.99368451,133.518161 L7.99368451,145.365869 L0,145.365869 L0,114.95787 L7.99368451,114.95787 L7.99368451,126.587419 L32.1426726,126.587419 L32.1426726,114.95787 L40.169944,114.95787 L40.169944,145.365869 L32.1426726,145.365869 Z M84.8741209,119.858055 C87.8337736,122.381809 89.4377053,126.146492 89.2068322,130.027618 C89.3094236,133.839041 87.7607205,137.50923 84.9580881,140.096492 C81.0620066,143.956227 74.395005,145.751843 65.86393,145.751843 C57.6351371,145.751843 51.4887326,143.721287 47.3911296,140.213962 C44.2920157,137.681034 42.5378677,133.859352 42.6385819,129.859803 C42.5336479,126.137925 44.1054552,122.565389 46.9209129,120.126559 C51.6734606,115.729817 57.4504091,114.135578 65.9814841,114.135578 C74.5125592,114.135578 80.4742357,115.964757 84.8741209,119.858055 Z M78.9292378,135.481591 C80.3706883,134.054472 81.1447618,132.087172 81.0620066,130.061181 C81.1859859,127.934409 80.3475419,125.864439 78.7780967,124.422611 C75.9232094,122.006082 72.2958232,120.713909 65.86393,120.713909 C59.7846993,120.713909 55.3512272,122.274585 53.0841108,124.573645 C51.5947148,126.008862 50.7625591,127.993683 50.7834075,130.061181 C50.6275598,132.410636 51.6937325,134.674634 53.6047079,136.052161 C56.5939429,138.401565 60.2213291,139.408452 65.9143103,139.408452 C72.0943017,139.442015 75.9903832,138.317658 78.9292378,135.481591 Z M121.483852,145.365869 L91.5747093,145.365869 L91.5747093,114.95787 L120.375484,114.95787 C124.624229,114.95787 127.428735,115.99832 129.024114,117.558996 C130.324064,118.874445 131.033259,120.661309 130.988948,122.509525 C131.046373,124.068548 130.585791,125.602722 129.679058,126.872704 C128.773932,128.063938 127.433427,128.848358 125.950911,129.054293 C128.111657,129.222114 130.168953,130.047959 131.845414,131.420479 C133.170882,132.827467 133.873104,134.708804 133.793455,136.639512 C133.901405,138.645963 133.307714,140.627476 132.114109,142.244518 C130.31721,144.325419 126.572269,145.365869 121.433472,145.365869 L121.483852,145.365869 Z M121.718961,122.039645 C120.540695,121.276482 119.13439,120.944428 117.738912,121.099883 L99.4172528,121.099883 L99.4172528,126.906267 L118.007607,126.906267 C119.376288,127.065508 120.75904,126.764354 121.937276,126.050413 C122.407728,125.469237 122.641597,124.732175 122.59222,123.986294 C122.589445,123.23242 122.250908,122.518926 121.66858,122.039645 L121.718961,122.039645 Z M125.531075,135.934691 C125.535579,135.284793 125.245386,134.667802 124.741783,134.256545 C123.85173,133.484598 122.407492,133.132187 119.703746,133.132187 L99.4172528,133.132187 L99.4172528,139.290982 L119.569399,139.290982 C122.575427,139.290982 124.204392,138.821101 125.094445,137.797432 C125.486593,137.261306 125.644165,136.589077 125.531075,135.934691 L125.531075,135.934691 Z M166.255203,145.365869 L136.39644,145.365869 L136.39644,114.95787 L165.197215,114.95787 C169.44596,114.95787 172.250466,115.99832 173.845845,117.558996 C175.161083,118.897585 175.865811,120.718856 175.793885,122.593433 C175.846436,124.154383 175.379895,125.688737 174.467203,126.956611 C173.56408,128.122063 172.235583,128.882385 170.772642,129.071075 C172.92904,129.235846 174.981858,130.062247 176.650352,131.43726 C177.982474,132.840106 178.685786,134.724361 178.598392,136.656293 C178.706343,138.662745 178.112651,140.644257 176.919047,142.2613 C175.138941,144.325419 171.394,145.365869 166.255203,145.365869 Z M166.490311,122.039645 C165.310949,121.279052 163.90557,120.947216 162.510263,121.099883 L144.238984,121.099883 L144.238984,126.906267 L162.896512,126.906267 C164.270604,127.066734 165.659059,126.765625 166.842974,126.050413 C167.331521,125.47665 167.583643,124.738818 167.548299,123.986294 C167.513172,123.209578 167.123157,122.491969 166.490311,122.039645 L166.490311,122.039645 Z M170.336013,135.934691 C170.359565,135.295355 170.094457,134.679266 169.613894,134.256545 C168.723841,133.484598 167.279604,133.132187 164.575858,133.132187 L144.238984,133.132187 L144.238984,139.290982 L164.39113,139.290982 C167.380365,139.290982 169.026123,138.821101 169.916176,137.797432 C170.304246,137.259611 170.455882,136.586831 170.336013,135.934691 Z M202.243577,145.785406 C187.364576,145.785406 181.520454,142.429114 180.311325,135.078836 L189.144682,135.078836 C189.581312,138.435128 194.014784,139.442015 202.948902,139.442015 C212.453997,139.442015 214.553179,138.183406 214.553179,136.085724 C214.553179,133.232876 208.171666,133.04828 200.950481,132.729432 C191.61332,132.225989 180.798335,131.370134 180.798335,123.919168 C180.798335,117.424744 187.146261,114.336956 200.950481,114.336956 C216.06459,114.336956 221.220181,119.253923 221.959093,124.623989 L213.041768,124.623989 C212.689106,122.4424 208.944165,120.663565 200.648199,120.663565 C190.706473,120.663565 189.111095,121.469075 189.111095,123.499631 C189.111095,126.033631 196.2819,126.033631 203.990096,126.537075 C215.997416,127.325803 223.017113,128.483724 223.017113,135.766876 C223.033874,142.445896 216.635568,145.83575 202.26037,145.83575 L202.243577,145.785406 Z M370.463614,145.449777 L361.16004,145.449777 L361.16004,114.504771 L371.135352,114.504771 C373.771925,114.504771 375.535238,115.19281 376.475671,116.837393 C377.222016,118.406348 377.562679,120.137294 377.466485,121.87183 C377.585876,123.775882 377.287851,125.683026 376.593225,127.460055 C376.103724,128.564159 375.05839,129.320363 373.855892,129.440267 C375.223142,129.529948 376.444926,130.324811 377.080235,131.537949 C377.79394,133.258054 378.115199,135.115441 378.020669,136.975141 C378.175963,139.161446 377.697892,141.346188 376.643606,143.268187 C375.232955,145.097366 373.385675,145.500121 370.480408,145.500121 L370.463614,145.449777 Z M370.984211,120.277592 C370.755858,119.623543 370.148809,119.176914 369.456007,119.153234 L366.836228,119.153234 L366.836228,127.812466 L369.85905,127.812466 C370.278886,127.812466 370.715516,127.510399 371.068179,126.772015 C371.392572,125.68382 371.539992,124.550631 371.504808,123.415724 C371.516942,122.337675 371.346607,121.265334 371.001005,120.244029 L370.984211,120.277592 Z M371.807091,136.438134 C371.830125,135.358984 371.682773,134.282951 371.370461,133.249658 C371.052076,132.606837 370.408256,132.188652 369.691115,132.158863 L366.785848,132.158863 L366.785848,140.902002 L369.573561,140.902002 C370.349726,140.947455 371.075115,140.515192 371.404048,139.811207 C371.712083,138.702712 371.853574,137.554629 371.823884,136.404571 L371.807091,136.438134 Z M397.333142,128.752227 C396.968731,129.781468 396.20653,130.621707 395.217167,131.08485 L399.029281,145.533684 L393.084398,145.533684 L389.960815,132.578399 L387.928807,132.578399 L387.928807,145.500121 L382.235826,145.500121 L382.235826,114.504771 L391.656954,114.504771 C393.823995,114.334939 395.897786,115.416711 396.997273,117.290492 C397.81889,119.241489 398.191913,121.351861 398.088847,123.466068 C398.159958,125.247057 397.909663,127.026293 397.349935,128.718664 L397.333142,128.752227 Z M392.143964,121.167009 C392.041485,120.319604 391.318777,119.684075 390.464619,119.690196 L387.928807,119.690196 L387.928807,127.86281 C387.928807,127.86281 390.481412,127.86281 390.66614,127.86281 C391.283077,127.880507 391.834619,127.480924 392.009617,126.889486 C392.254533,125.982033 392.362084,125.043048 392.328692,124.103764 C392.339035,123.111024 392.282932,122.118704 392.160758,121.133446 L392.143964,121.167009 Z M402.824602,145.533684 L402.824602,114.504771 L416.662408,114.504771 L416.662408,119.824492 L408.584757,119.824492 L408.584757,127.359366 L416.125018,127.359366 L416.125018,132.393803 L408.584757,132.393803 L408.584757,140.230744 L416.746376,140.230744 L416.746376,145.500121 L402.824602,145.533684 Z M442.255634,145.533684 L435.538252,145.533684 C435.538252,145.533684 433.254342,129.440267 433.103201,126.218227 C433.103201,129.440267 430.66815,145.533684 430.66815,145.533684 L423.950768,145.533684 L419.550883,114.538333 L425.395005,114.538333 C425.395005,114.538333 427.678915,134.071949 427.678915,137.142956 C427.678915,134.071949 430.23152,114.538333 430.23152,114.538333 L435.924501,114.538333 C435.924501,114.538333 438.628247,134.071949 438.628247,137.142956 C438.628247,134.071949 440.82819,114.538333 440.82819,114.538333 L446.521171,114.538333 L442.255634,145.533684 Z M450.165351,145.533684 L450.165351,114.504771 L456.127027,114.504771 L456.127027,145.500121 L450.165351,145.533684 Z M471.173963,145.533684 L466.219894,130.061181 L466.219894,145.500121 L460.879575,145.500121 L460.879575,114.504771 L466.337448,114.504771 L471.241137,129.608082 L471.241137,114.504771 L476.598249,114.504771 L476.598249,145.500121 L471.173963,145.533684 Z M493.32453,145.533684 L493.039041,144.124042 C491.779718,145.377915 490.020154,145.994864 488.252907,145.802187 C485.059346,145.965411 482.237961,143.74148 481.653079,140.599936 C481.036068,137.139423 480.771619,133.62533 480.863786,130.111525 C480.738368,126.558034 481.003046,123.001509 481.653079,119.505645 C482.29123,117.021989 484.407205,114.253049 489.361275,114.253049 C494.315344,114.253049 496.498493,116.636016 496.96871,119.421737 C497.249411,121.31005 497.367398,123.218954 497.321372,125.127433 L491.712358,125.127433 C491.712358,124.909274 491.712358,122.761247 491.561217,121.167009 C491.558586,120.632088 491.331954,120.122701 490.936291,119.762394 C490.540627,119.402087 490.012075,119.223774 489.478829,119.270704 C488.358937,119.203471 487.393218,120.048807 487.312473,121.167009 C486.978062,124.136309 486.832226,127.123798 486.875843,130.111525 C486.799678,133.067236 486.956904,136.024347 487.34606,138.955353 C487.631549,140.364995 488.286493,141.019472 489.596383,141.019472 C490.256369,141.064115 490.903653,140.822725 491.373006,140.356919 C491.842359,139.891114 492.088365,139.245967 492.048227,138.586161 L492.048227,132.863684 L488.874264,132.863684 L488.874264,127.98028 L497.472513,127.98028 L497.472513,138.267313 C497.472513,141.841763 497.472513,145.449777 497.472513,145.500121 L493.32453,145.533684 Z M526.138941,116.031883 C533.86393,116.031883 538.834793,117.710029 542.260657,121.670453 C543.334922,122.85268 544.07153,124.301659 544.393426,125.865817 L544.494187,126.36926 L547.197933,126.36926 L547.063585,125.630876 C546.615806,123.584803 545.656751,121.685383 544.275872,120.109777 C541.74006,117.156241 536.550883,113.648916 526.138941,113.648916 C515.726999,113.648916 508.304292,117.324055 505.684513,124.003075 C504.978917,125.949653 504.631852,128.007812 504.660112,130.077962 C504.60404,132.497048 505.103861,134.896767 506.121143,137.092611 C509.043204,143.234624 516.197215,146.473446 526.995407,146.473446 C535.576862,146.473446 541.605713,144.157604 544.930817,139.60983 L544.930817,139.60983 C546.006151,138.182808 546.725749,136.520287 547.029999,134.759989 L547.130759,134.055168 L544.393426,134.055168 L544.393426,134.608956 C544.153196,135.898977 543.618778,137.11635 542.831635,138.166624 C539.875987,142.177393 534.619635,144.124042 526.743505,144.124042 C517.389551,144.124042 511.243146,141.388664 508.472226,136.018598 C507.583638,134.16732 507.151752,132.130273 507.212717,130.077962 C507.1772,128.263488 507.484872,126.458629 508.119564,124.758241 C510.890484,117.475088 519.455146,116.031883 526.138941,116.031883 Z M567.484427,137.495366 C580.264246,137.495366 584.832065,131.303009 584.832065,125.513406 C584.832065,118.062439 578.349792,113.615353 567.484427,113.615353 C556.619061,113.615353 550.187168,118.062439 550.187168,125.513406 C550.187168,132.964373 556.484714,137.495366 567.484427,137.495366 Z M552.504665,125.479843 C552.504665,119.522426 558.096885,115.964757 567.45084,115.964757 C576.804794,115.964757 582.447395,119.522426 582.447395,125.479843 C582.447395,131.43726 576.838381,135.179525 567.45084,135.179525 C561.909,135.179525 552.504665,133.920916 552.504665,125.479843 Z M550.153581,143.939446 L550.153581,146.204942 L585,146.204942 L585,143.855538 L550.153581,143.939446 Z M276.739343,193.830716 C279.275154,189.299723 284.111669,174.716637 273.850868,137.579273 L273.985216,137.142956 L292.861059,114.706148 C310.762882,115.729817 339.597244,168.222213 315.196354,202.439604 C317.102313,204.952626 318.787901,207.62518 320.234391,210.427577 L351.755705,173.508372 L344.820009,167.618081 L336.104206,177.871551 C347.590929,128.617976 320.016076,106.516797 310.057557,100.290877 C309.220997,99.7788768 308.650254,98.9269879 308.495267,97.9590053 C308.340279,96.9910227 308.616538,96.0037103 309.251471,95.2564397 L309.251471,95.2564397 L302.618057,89.6346517 L270.374623,127.543962 L263.405339,111.73583 C267.855605,107.607592 291.954213,84.0632081 297.244151,54.074745 C300.367734,36.2024936 297.244151,18.4141495 289.032152,8.76481193 C284.493827,3.13071816 277.611589,-0.1005707 270.374623,0.00238789149 C264.463327,0.00238789149 257.359696,3.61290473 251.381226,9.65422914 C244.327975,16.7695668 232.538969,33.7356195 232.908425,67.1474997 C233.12674,86.9664001 240.801349,107.943221 248.224056,128.232002 C258.820726,157.180015 268.829625,184.533789 258.300129,207.792888 L257.661978,209.236094 L259.206976,209.571723 C259.458878,209.571723 287.755849,215.847987 289.70389,226.957312 C284.665853,235.079537 279.493469,239.308464 266.881585,233.770583 L263.002297,231.991749 L262.565667,231.790371 C251.54916,226.755934 236.451844,219.690941 224.075068,225.816173 C216.131764,229.776597 210.640304,238.68755 207.617482,252.347656 L213.092149,254.025801 C213.310464,253.539139 218.230946,242.094186 229.499354,242.094186 C234.537391,242.094186 238.399885,245.316225 242.934118,249.05849 C249.046936,254.193616 255.965839,260 267.973159,260 C281.00488,260 288.377207,247.581722 295.514425,235.582981 C295.631979,235.381603 295.799914,235.096318 295.984642,234.727126 C297.479259,231.958186 301.408928,224.658252 309.285058,220.530014 L310.359839,219.976226 L309.872829,218.86865 C309.48658,218.163828 301.291374,200.274796 276.739343,193.830716 Z M260.147409,105.62738 C256.671164,100.223751 244.378355,79.4483075 244.378355,54.8802549 C244.378355,39.2063744 250.155304,15.896931 266.075499,15.896931 C274.572987,15.896931 283.72542,27.543262 283.72542,53.1517649 C283.809387,70.168162 276.017224,87.2684663 260.147409,105.62738 Z" id="central-h"></path>
            </g>
        </g>
    </g>
</svg>