<?xml version="1.0" encoding="UTF-8"?>
<svg width="682px" height="49px" viewBox="0 0 682 49" version="1.1" xmlns="http://www.w3.org/2000/svg" xmlns:xlink="http://www.w3.org/1999/xlink">
    <title>red_wordmark-linear copy</title>
    <g id="Page-1" stroke="none" stroke-width="1" fill="none" fill-rule="evenodd">
        <g id="Picked-Option" transform="translate(-366.000000, -2602.000000)" fill="#A12B2A" fill-rule="nonzero">
            <g id="red_wordmark-linear-copy" transform="translate(366.000000, 2602.000000)">
                <path d="M48.1317377,47.2346903 L48.1317377,29.6658407 L11.9573612,29.6658407 L11.9573612,47.2346903 L0,47.2346903 L0,2.0980531 L11.9573612,2.0980531 L11.9573612,19.3840708 L48.1317377,19.3840708 L48.1317377,2.0980531 L60.1562751,2.0980531 L60.1562751,47.2346903 L48.1317377,47.2346903 Z M127.063757,9.36849558 C131.486339,13.1184311 133.884661,18.7012246 133.546259,24.4584071 C133.738889,30.1656767 131.415633,35.673618 127.181315,39.5483186 C121.353781,45.2715044 111.361323,47.8669027 98.631436,47.8669027 C86.3213998,47.8669027 77.1014682,44.8555752 70.8540829,39.6481416 C66.2030654,35.8946857 63.572771,30.2161739 63.7334071,24.2753982 C63.5768739,18.7520686 65.9318568,13.4509421 70.1487329,9.83433628 C77.2526146,3.42902655 85.8847546,1 98.6650241,1 C111.445294,1 120.480491,3.59539823 127.080551,9.36849558 L127.063757,9.36849558 Z M118.095736,32.560708 C120.258008,30.448133 121.422368,27.5312098 121.303399,24.5249558 C121.482497,21.3961683 120.252413,18.349683 117.94459,16.2063717 C113.678902,12.6293805 108.254425,10.7161062 98.631436,10.7161062 C89.5290628,10.7161062 82.8786203,13.0286726 79.5030169,16.439292 C77.2964995,18.581555 76.0810825,21.5315104 76.1442076,24.5915044 C75.9129525,28.0044648 77.4270653,31.3043966 80.1747788,33.3759292 C84.6587892,36.8364602 90.0832663,38.3670796 98.6482301,38.3670796 C107.935338,38.4502655 113.779666,36.7033628 118.095736,32.560708 Z M181.812349,47.2346903 L137.123391,47.2346903 L137.123391,2.0980531 L180.233709,2.0980531 C186.598652,2.0980531 190.797164,3.6619469 193.181919,5.97451327 C195.148713,7.94869052 196.205983,10.6394087 196.104083,13.4113274 C196.184786,15.7264388 195.487806,18.0026468 194.122385,19.8831858 C192.759216,21.6010808 190.768468,22.7186339 188.58035,22.9943363 C191.810648,23.2641812 194.883562,24.4934616 197.397224,26.5214159 C199.382215,28.611353 200.430054,31.4074894 200.302595,34.2743363 C200.446109,37.258526 199.537747,40.1992977 197.733105,42.5929204 C195.113234,45.6707965 189.520817,47.2346903 181.812349,47.2346903 L181.812349,47.2346903 Z M182.165024,12.6127434 C180.403488,11.4867585 178.303096,10.9988939 176.219932,11.2318584 L148.845636,11.2318584 L148.845636,19.8332743 L176.673371,19.8332743 C179.125302,19.8332743 181.459674,19.600354 182.568081,18.5688496 C183.298169,17.7173225 183.67613,16.6237459 183.626106,15.5076106 C183.609541,14.3725715 183.071678,13.3068953 182.165024,12.6127434 L182.165024,12.6127434 Z M187.942176,33.3759292 C188.003919,32.3531913 187.566705,31.3631808 186.766593,30.7139823 C185.423069,29.5660177 183.273431,29.0502655 179.192478,29.0502655 L148.845636,29.0502655 L148.845636,38.2506195 L178.890185,38.2506195 C183.39099,38.2506195 185.84292,37.5518584 187.186444,36.0545133 C187.773133,35.2893973 188.043387,34.3315193 187.942176,33.3759292 L187.942176,33.3759292 Z M248.92136,47.3012389 L204.215607,47.3012389 L204.215607,2.0980531 L247.342719,2.0980531 C253.707663,2.0980531 257.906175,3.6619469 260.290929,5.97451327 C262.250923,7.95304995 263.307008,10.6407514 263.213093,13.4113274 C263.284975,15.7252879 262.588836,17.9987483 261.231396,19.8831858 C259.868227,21.6010808 257.877478,22.7186339 255.68936,22.9943363 C258.915527,23.260295 261.984189,24.4902173 264.489441,26.5214159 C266.478887,28.609671 267.532633,31.4054114 267.411605,34.2743363 C267.555119,37.258526 266.646758,40.1992977 264.842116,42.5929204 C262.222245,45.6707965 256.613033,47.2346903 248.92136,47.2346903 L248.92136,47.3012389 Z M249.257241,12.679292 C247.496254,11.5520252 245.395395,11.0640521 243.312148,11.2984071 L215.954646,11.2984071 L215.954646,19.899823 L243.782381,19.899823 C246.234312,19.899823 248.568685,19.6669027 249.677092,18.6353982 C250.402611,17.7822333 250.774687,16.6883239 250.718323,15.5741593 C250.730247,14.4139338 250.188657,13.3162048 249.257241,12.6127434 L249.257241,12.679292 Z M255.034393,33.3759292 C255.102982,32.3555909 254.671718,31.3649003 253.875603,30.7139823 C252.53208,29.5660177 250.365648,29.0502655 246.284694,29.0502655 L215.954646,29.0502655 L215.954646,38.2506195 L245.999195,38.2506195 C250.483206,38.2506195 252.935137,37.5518584 254.27866,36.0545133 C254.865349,35.2893973 255.135604,34.3315193 255.034393,33.3759292 Z M302.830249,48 C280.544549,48 271.794851,43.0088496 269.981094,32.0948673 L283.231597,32.0948673 C283.869771,36.9529204 290.520213,38.5667257 303.888274,38.5667257 C318.112832,38.5667257 321.270113,36.72 321.270113,33.7253097 C321.270113,29.499469 311.697506,29.2166372 300.898934,28.7341593 C286.909493,27.9854867 270.804002,26.7210619 270.804002,15.6739823 C270.804002,6.02442478 280.309433,1.46584071 300.898934,1.46584071 C323.537309,1.46584071 331.245776,8.73628319 332.354183,16.7221239 L318.918946,16.7221239 C318.398331,13.4945133 312.805913,10.8325664 300.445495,10.8325664 C285.565969,10.8325664 283.164421,12.0470796 283.164421,15.0417699 C283.164421,18.8017699 293.895817,18.8017699 305.450121,19.5504425 C323.419751,20.7150442 334,22.4453097 334,33.259469 C333.932824,42.8923894 324.242659,47.9334513 302.830249,47.9334513 L302.830249,48 Z" id="Shape"></path>
                <path d="M360.932455,47.6109973 L347,47.6109973 L347,1.32206284 L361.805331,1.32206284 C365.750063,1.32206284 368.402265,2.37636612 369.812296,4.80293716 C370.919136,7.17699164 371.420783,9.78680912 371.272686,12.4006148 C371.458535,15.2503504 371.017398,18.1061477 369.980157,20.7681011 C369.244775,22.4220967 367.673636,23.553708 365.867565,23.7301913 C367.899466,23.8285444 369.729556,24.9855548 370.685173,26.7759563 C371.753612,29.343574 372.235274,32.1161291 372.095205,34.892418 C372.095205,38.4402322 371.625194,42.1386612 370.047302,44.2974727 C368.049757,47.0252732 365.280052,47.6109973 360.932455,47.6109973 Z M361.687829,9.90710383 C361.371188,8.88580812 360.409512,8.20098834 359.337776,8.23360656 L355.409831,8.23360656 L355.409831,21.1530055 L359.874931,21.1530055 C360.529589,21.1530055 361.16746,20.7011612 361.704615,19.596653 C362.194317,17.9411832 362.409772,16.2171401 362.342486,14.4924863 C362.377307,12.9386156 362.15615,11.3895775 361.687829,9.90710383 Z M362.929999,34.0389344 C362.973208,32.4296993 362.752069,30.8242552 362.275342,29.2862022 C361.816932,28.3020248 360.844986,27.6560342 359.757428,27.6127049 L355.409831,27.6127049 L355.409831,40.6492486 L359.572781,40.6492486 C360.751281,40.7041056 361.845943,40.0426947 362.342486,38.9757514 C362.761336,37.3642012 362.958975,35.7034546 362.929999,34.0389344 L362.929999,34.0389344 Z M401.135141,22.5587432 C400.577991,24.0898703 399.438147,25.3404816 397.96257,26.0396175 L403.653054,47.6109973 L394.789998,47.6109973 L390.089893,28.3490437 L387.034825,28.3490437 L387.034825,47.6109973 L378.507491,47.6109973 L378.507491,1.32206284 L392.607807,1.32206284 C395.860663,1.04886488 398.977319,2.68077901 400.597986,5.50580601 C401.84757,8.4140178 402.421413,11.5662671 402.276595,14.726776 C402.362014,17.384093 401.975584,20.0355436 401.135141,22.5587432 L401.135141,22.5587432 Z M393.447111,11.2459016 C393.31011,9.98990252 392.246818,9.03801718 390.979556,9.03688525 L387.101969,9.03688525 L387.101969,21.2199454 C387.101969,21.2199454 390.912412,21.2199454 391.214561,21.2199454 C392.126089,21.232457 392.937967,20.6475086 393.212106,19.7807377 C393.576299,18.4171631 393.734707,17.0071068 393.682117,15.5969945 C393.694133,14.1431803 393.615647,12.6900235 393.447111,11.2459016 L393.447111,11.2459016 Z M409.427469,47.6109973 L409.427469,1.32206284 L430.124718,1.32206284 L430.124718,9.27117486 L418.005161,9.27117486 L418.005161,20.5170765 L429.3022,20.5170765 L429.3022,28.0645492 L418.005161,28.0645492 L418.005161,39.7790301 L430.242221,39.7790301 L430.242221,47.6109973 L409.427469,47.6109973 Z M468.447362,47.6109973 L458.274991,47.6109973 C458.274991,47.6109973 454.917773,23.5963115 454.63241,18.7766393 C454.63241,23.5963115 450.989828,47.6109973 450.989828,47.6109973 L441.052463,47.6109973 L434.405171,1.32206284 L443.150724,1.32206284 C443.150724,1.32206284 446.507942,30.4911202 446.507942,35.0765027 C446.507942,30.4911202 450.318385,1.32206284 450.318385,1.32206284 L458.912863,1.32206284 C458.912863,1.32206284 462.95831,30.4911202 462.95831,35.0765027 C462.95831,30.4911202 466.315528,1.32206284 466.315528,1.32206284 L474.842862,1.32206284 L468.447362,47.6109973 Z M480.197625,47.6109973 L480.197625,1.32206284 L489.127825,1.32206284 L489.127825,47.6109973 L480.197625,47.6109973 Z M511.654758,47.6109973 L504.235306,24.516735 L504.235306,47.6109973 L496.245127,47.6109973 L496.245127,1.32206284 L504.419953,1.32206284 L511.77226,23.9477459 L511.77226,1.32206284 L519.762439,1.32206284 L519.762439,47.6109973 L511.654758,47.6109973 Z M544.7905,47.6109973 L544.387633,45.5191257 C543.212607,47.0252732 540.79541,48.0126366 537.219973,48.0126366 C532.408571,48.2625963 528.166183,44.8948184 527.332966,40.1639344 C526.410285,35.0013945 526.016584,29.7586928 526.15794,24.516735 C526.15794,19.6970628 526.15794,12.6851093 527.332966,8.68545082 C528.272987,5.0204918 531.445558,0.920423497 538.848224,0.920423497 C546.250889,0.920423497 549.540963,4.45150273 550.245979,8.6352459 C550.671429,11.4538208 550.851153,14.303843 550.783134,17.153347 L542.390089,17.153347 C542.390089,16.8186475 542.390089,13.6222678 542.155083,11.2459016 C542.16341,10.4352791 541.826485,9.6591714 541.228005,9.11037449 C540.629526,8.56157759 539.825654,8.29159214 539.016085,8.36748634 C538.209917,8.31715205 537.416828,8.58892929 536.812069,9.12276256 C536.207309,9.65659583 535.840665,10.4085386 535.793155,11.2124317 C535.285726,15.6563594 535.067051,20.1283479 535.138498,24.6004098 C535.024707,29.0189084 535.260442,33.4394752 535.843514,37.8210383 C536.263166,39.9129098 537.253545,40.9002732 539.200732,40.9002732 C540.186092,40.9736638 541.155551,40.6212257 541.862232,39.9327087 C542.568913,39.2441916 542.944618,38.2860412 542.893671,37.3022541 L542.893671,28.767418 L538.143208,28.767418 L538.143208,21.454235 L551.018139,21.454235 L551.018139,36.8169399 C551.018139,42.1553962 551.135642,47.5440574 551.135642,47.6109973 L544.7905,47.6109973 Z M593.873027,3.63148907 C605.421857,3.63148907 612.858095,6.22540984 618.011425,11.9989754 C619.600048,13.7508297 620.689644,15.8944946 621.16721,18.2076503 L621.318284,18.960724 L625.380518,18.960724 L625.179085,17.8562158 C624.519418,14.7939629 623.079962,11.9526343 620.999349,9.60587432 C617.222478,5.25478142 609.450519,0 593.873027,0 C578.295535,0 567.166358,5.48907104 563.238413,15.4631148 C562.201922,18.3740062 561.690449,21.4448307 561.727664,24.5334699 C561.635152,28.1483217 562.388014,31.7350125 563.926642,35.0095628 C568.291026,44.1635929 579.034123,49 595.165556,49 C607.990129,49 616.987473,45.5693306 622.0233,38.7749317 L622.0233,38.7749317 C623.610252,36.6371783 624.663296,34.1531356 625.095155,31.5286885 L625.246229,30.4743852 L621.16721,30.4743852 L621.066493,31.3111339 C620.704355,33.2336083 619.906279,35.0481378 618.733226,36.6161202 C614.335271,42.5905055 606.445808,45.5023907 594.661973,45.5023907 C580.662374,45.5023907 571.463597,41.4357923 567.317432,33.4197404 C565.992569,30.6487926 565.353615,27.6014805 565.454176,24.5334699 C565.397924,21.8301621 565.847639,19.1400875 566.780278,16.6010929 C571.043944,5.87397541 583.868517,3.63148907 593.873027,3.63148907 Z M655.746555,35.6622268 C674.882698,35.6622268 681.69785,26.4245219 681.69785,17.772541 C681.69785,6.69398907 671.99549,0 655.746555,0 C639.49762,0 629.845618,6.69398907 629.845618,17.772541 C629.845618,29.1523224 639.296187,35.6622268 655.746555,35.6622268 L655.746555,35.6622268 Z M633.370697,17.7223361 C633.370697,8.8193306 641.763742,3.51434426 655.746555,3.51434426 C669.729368,3.51434426 678.172771,8.8193306 678.172771,17.7223361 C678.172771,26.6253415 669.779726,32.2148224 655.746555,32.2148224 C647.387082,32.2148224 633.370697,30.3405055 633.370697,17.7223361 Z M629.845618,45.1844262 L629.845618,48.5314208 L682,48.5314208 L682,45.1844262 L629.845618,45.1844262 Z" id="Shape"></path>
            </g>
        </g>
    </g>
</svg>