<?xml version="1.0" encoding="UTF-8"?>
<svg width="902px" height="233px" viewBox="0 0 902 233" version="1.1" xmlns="http://www.w3.org/2000/svg" xmlns:xlink="http://www.w3.org/1999/xlink">
    <title>Group</title>
    <defs>
        <polygon id="path-1" points="-3.6645739e-15 0 105 0 105 121 -3.6645739e-15 121"></polygon>
        <polygon id="path-3" points="0 0 115 0 115 101 0 101"></polygon>
        <polygon id="path-5" points="0 0 136 0 136 106 0 106"></polygon>
    </defs>
    <g id="Page-1" stroke="none" stroke-width="1" fill="none" fill-rule="evenodd">
        <g id="Case-Study" transform="translate(-269.000000, -10992.000000)">
            <g id="Group" transform="translate(269.540000, 10992.080000)">
                <g id="Group-3" transform="translate(278.460000, 76.920000)">
                    <mask id="mask-2" fill="white">
                        <use xlink:href="#path-1"></use>
                    </mask>
                    <g id="Clip-2"></g>
                    <path d="M52.4998738,65.9260321 C23.3276034,65.9260321 15.8250879,64.5815726 8.08971919,60.5401816 C4.72174909,58.7814874 3.22300639,56.7848287 3.48386604,55.7224012 C3.77273209,54.5405908 6.46614795,53.2690429 11.696944,53.2690429 C16.3332041,53.2690429 19.9748368,53.949285 22.678655,54.7521148 C20.1828843,55.0109113 18.0808037,55.330601 16.6716815,55.7280098 C15.7538716,55.9868062 15.2193494,56.9418693 15.4778085,57.8608771 C15.6922575,58.6228444 16.385216,59.1212078 17.1389883,59.1212078 C17.2934237,59.1212078 17.4510597,59.0995747 17.6078956,59.0555072 C22.6194415,57.6413408 39.5361096,57.1397725 52.4998738,57.1397725 C65.463638,57.1397725 82.3803061,57.6413408 87.3926522,59.0555072 C87.5486879,59.0995747 87.7063239,59.1212078 87.8615594,59.1212078 C88.6153317,59.1212078 89.3082902,58.6228444 89.521939,57.8608771 C89.7803981,56.9418693 89.2466761,55.9868062 88.3288662,55.7280098 C86.919744,55.330601 84.8176634,55.0109113 82.3218927,54.7521148 C85.025711,53.949285 88.6665435,53.2690429 93.3036037,53.2690429 C98.5335996,53.2690429 101.227816,54.5405908 101.516682,55.7224012 C101.776741,56.7848287 100.277998,58.7814874 96.9100284,60.5401816 C89.1746596,64.5815726 81.6721442,65.9260321 52.4998738,65.9260321 M30.1795701,3.47115747 C37.9797537,3.97192459 48.1828867,4.56883901 52.4998738,4.56883901 C56.8168609,4.56883901 67.0199939,3.97192459 74.8201774,3.47115747 C78.229757,3.25081993 81.3760765,5.47983456 82.3018881,8.76566813 C83.8830497,14.3798685 85.8314952,23.4593774 86.1315638,34.8336016 C86.2323869,38.6698784 83.4613533,41.8860052 79.68609,42.3130594 C73.2182111,43.0453813 64.0713196,43.4163495 52.4998738,43.4163495 C40.9292281,43.4163495 31.7823366,43.0453813 25.3144577,42.3130594 C21.5383943,41.8860052 18.7673607,38.6698784 18.8681837,34.8336016 C19.1682523,23.457775 21.1166979,14.3790673 22.6978594,8.76566813 C23.5828618,5.6272604 26.4907267,3.45593415 29.7186647,3.45593415 C29.8714997,3.45593415 30.025935,3.46074151 30.1795701,3.47115747 M104.869448,54.8987394 C104.404542,52.9990293 102.283257,49.8125479 93.3036037,49.8125479 C82.7027798,49.8125479 76.720612,53.0583201 74.9434056,54.2000691 C67.3896784,53.7930456 58.9229424,53.7017057 54.2258684,53.6864824 L54.2258684,46.8696396 C65.113958,46.8343856 73.8055454,46.4578088 80.0733786,45.7487225 C85.6434522,45.1181565 89.731587,40.3869087 89.582753,34.7414605 C89.2738823,23.0106901 87.2598218,13.6307209 85.625048,7.82743085 C84.2591357,2.98160753 79.6236758,-0.291406406 74.5993269,0.0202710532 C68.2546762,0.4280958 56.9480909,1.11154277 52.4998738,1.11154277 C48.0508565,1.11154277 36.7450714,0.4280958 30.4004206,0.0202710532 C25.3728711,-0.293008861 20.7406119,2.98160753 19.3754997,7.82743085 C17.7399258,13.6299197 15.7266654,23.0098889 15.4169946,34.7422617 C15.2681606,40.3869087 19.3562953,45.1181565 24.9271692,45.7487225 C31.1942021,46.4578088 39.8865897,46.8343856 50.7738791,46.8696396 L50.7738791,53.6864824 C46.0768051,53.7017057 37.6100692,53.7930456 30.0571421,54.2000691 C28.2791356,53.0583201 22.2969677,49.8125479 11.696944,49.8125479 C2.71649058,49.8125479 0.596005717,52.9990293 0.130299231,54.8987394 C-0.601068,57.8881189 1.77707577,61.1419033 6.49255399,63.6056776 C9.414022,65.1320158 12.3546944,66.2761685 15.9771227,67.1286745 L2.84852077,118.8455 C2.61326697,119.770917 3.17179468,120.711558 4.09600601,120.946318 C4.23843858,120.983174 4.38167133,121 4.52250353,121 C5.29307972,121 5.99564037,120.479202 6.19408574,119.697204 L19.3674979,67.8065129 C26.251472,68.9634852 35.6536218,69.353683 50.7738791,69.3809247 L50.7738791,74.395807 L35.0006725,74.395807 C29.6226428,74.395807 24.9375715,78.0397892 23.6076674,83.2581833 L18.4048778,103.67506 C18.1688238,104.601279 18.7265514,105.54192 19.6507627,105.778282 C20.5741738,106.01224 21.5135886,105.455387 21.7496426,104.530771 L26.9532324,84.1130929 C27.8926472,80.4274469 31.202204,77.8531032 35.0006725,77.8531032 L69.9990751,77.8531032 C73.7983438,77.8531032 77.1071003,80.4274469 78.0473153,84.1130929 L83.250105,104.530771 C83.4493505,105.311967 84.151111,105.832765 84.9216872,105.832765 C85.0625194,105.832765 85.2065523,105.814337 85.3497851,105.778282 C86.2739964,105.54192 86.8309237,104.601279 86.5956699,103.67506 L81.3920801,83.2581833 C80.062176,78.0397892 75.3771048,74.395807 69.9990751,74.395807 L54.2258684,74.395807 L54.2258684,69.3809247 C69.3469259,69.353683 78.7482756,68.9634852 85.6322497,67.8065129 L98.8056618,119.697204 C99.0041072,120.479202 99.7066678,121 100.477244,121 C100.618076,121 100.761309,120.983174 100.903742,120.946318 C101.827953,120.711558 102.387281,119.770917 102.152027,118.8455 L89.0226249,67.1286745 C92.6450532,66.2761685 95.5865257,65.1320158 98.5071936,63.6056776 C103.223472,61.1419033 105.601616,57.8881189 104.869448,54.8987394" id="Fill-1" fill="#FFFFFF" mask="url(#mask-2)"></path>
                </g>
                <g id="Group-9" transform="translate(527.460000, 84.920000)" fill="#FFFFFF">
                    <path d="M60.0000982,87.3877566 C62.0378805,87.3877566 63.9500192,88.1785472 65.3854974,89.6140639 C66.821761,91.0487953 67.6109599,92.9625558 67.6109599,94.9996074 C67.6109599,97.0374442 66.821761,98.9504194 65.3854974,100.385936 C63.9500192,101.821453 62.0378805,102.611458 60.0000982,102.611458 C57.9623158,102.611458 56.0493919,101.821453 54.6146989,100.385936 C53.1784353,98.9504194 52.3884511,97.0374442 52.3884511,94.9996074 C52.3884511,92.9625558 53.1784353,91.0487953 54.6146989,89.6140639 C56.0493919,88.1785472 57.9615306,87.3877566 60.0000982,87.3877566 M52.218047,102.781867 C54.3634117,104.927289 57.1817549,106 60.0000982,106 C62.8184414,106 65.6367847,104.927289 67.7813641,102.781867 C72.0728786,98.4910227 72.0728786,91.5089773 67.7813641,87.2173478 C65.6367847,85.072711 62.8184414,84 60.0000982,84 C57.1817549,84 54.3634117,85.072711 52.218047,87.2173478 C47.9273177,91.5089773 47.9273177,98.4910227 52.218047,102.781867" id="Fill-6"></path>
                    <path d="M75.1195519,35.1843812 L60.4867852,40.3953447 C64.5826188,30.7381393 68.9139369,20.4487214 70.9542703,15.3455213 C75.4125106,4.20038146 86.4228073,3.44444052 86.4228073,3.44444052 L75.1195519,35.1843812 Z M50.6187878,61.8849816 C50.6187878,61.8849816 46.468673,59.2850876 40.639035,59.2850876 C37.1307152,59.2850876 33.0141271,60.2270203 28.8280909,63.2412051 C25.9240483,66.1444335 22.1187786,67.5964467 18.3135089,67.5964467 C14.507441,67.5964467 10.7029696,66.1444335 7.79892696,63.2412051 C1.99243825,57.4339503 1.99243825,48.0194123 7.79892696,42.2129556 C10.7029696,39.3089291 14.507441,37.857714 18.3135089,37.857714 C22.1187786,37.857714 25.9240483,39.3089291 28.8280909,42.2129556 C32.0019429,45.3875883 33.4284201,49.6398559 33.1314702,53.7931407 L109.556165,26.5776702 C109.556165,26.5776702 108.80022,37.5871079 97.6542201,42.0461218 C86.5090186,46.5043374 50.6187878,61.8849816 50.6187878,61.8849816 L50.6187878,61.8849816 Z M60.2808361,79.8295988 C64.083711,79.8295988 67.8857877,81.2704366 70.7874355,84.1720684 C76.5947225,89.9793233 76.5947225,99.3938613 70.7874355,105.201116 C67.8841912,108.104344 64.0781232,109.555559 60.2728536,109.555559 C56.4675839,109.555559 52.6623142,108.104344 49.7582716,105.201116 C43.9517829,99.3938613 43.9517829,89.9793233 49.7582716,84.1720684 C55.4146888,76.3157107 53.7718852,68.7147923 52.3086883,64.9079472 C53.7263848,64.3012786 59.5384613,61.8131393 66.7251286,58.7542526 L59.2063882,79.8687129 C59.5648036,79.8423707 59.9224207,79.8295988 60.2808361,79.8295988 L60.2808361,79.8295988 Z M111.636411,23.8324951 C111.028941,23.3727042 110.296145,23.1332297 109.556165,23.1332297 C109.166618,23.1332297 108.776272,23.1986861 108.400295,23.3327917 L79.3063863,33.694052 L89.6677038,4.60030376 C90.057251,3.50590562 89.8696617,2.28937553 89.1679977,1.36420599 C88.5134306,0.501299802 87.496457,0 86.4228073,0 C86.3445786,0 86.2663498,0.00319299237 86.1865246,0.00878072902 C85.6485024,0.0455001413 72.9586824,1.06087172 67.7564708,14.0667279 C65.5293463,19.6345083 60.5075398,31.5371856 56.0780367,41.9654987 L36.2406637,49.0299943 C35.5278242,45.5552204 33.8171691,42.3310964 31.2635593,39.7775007 C27.8047312,36.3186917 23.2052003,34.4132735 18.3135089,34.4132735 C13.4218176,34.4132735 8.82228667,36.3186917 5.36345857,39.7775007 C1.90463047,43.2363097 0,47.8358152 0,52.7274795 C0,57.6183456 1.90463047,62.2178511 5.36345857,65.6766601 C8.82228667,69.1354691 13.4218176,71.0408873 18.3135089,71.0408873 C23.1038222,71.0408873 27.6131506,69.2136974 31.0464346,65.8897923 C34.0358903,63.7927946 37.2616286,62.7303264 40.639035,62.7303264 C44.4163658,62.7303264 47.3826721,64.0681902 48.4124179,64.5998234 C49.3535576,66.3839079 52.7205866,73.9505016 47.110468,81.9529387 C40.1824345,89.1100311 40.2542773,100.567286 47.3236014,107.636571 C50.7824295,111.09538 55.3811622,113 60.2728536,113 C65.1645449,113 69.7640758,111.09538 73.2229039,107.636571 C80.3632726,100.495444 80.3632726,88.8777409 73.2229039,81.7366135 C70.6565221,79.1710441 67.4563278,77.4619949 63.9719557,76.7539489 L71.0348938,56.921475 C81.4632645,52.4927946 93.3660076,47.4710158 98.9338188,45.2439036 C111.938949,40.0417208 112.955124,27.3511726 112.991844,26.8131534 C113.071669,25.6548955 112.561586,24.5341551 111.636411,23.8324951 L111.636411,23.8324951 Z" id="Fill-8"></path>
                    <path d="M12.6146488,58.3859361 C9.64477441,55.4159557 9.64477441,50.583259 12.6146488,47.6140639 C14.049329,46.1785472 15.9622359,45.3877566 18,45.3877566 C20.0377641,45.3877566 21.950671,46.1785472 23.3861365,47.6140639 C26.3560109,50.583259 26.3560109,55.4159557 23.3861365,58.3859361 C21.950671,59.8214528 20.0377641,60.6114581 18,60.6114581 C15.9630211,60.6114581 14.049329,59.8214528 12.6146488,58.3859361 M18,42 C15.1824672,42 12.3641491,43.072711 10.2180183,45.2173478 C5.92732724,49.5089773 5.92732724,56.4910227 10.2180183,60.7818669 C12.3641491,62.927289 15.1824672,64 18,64 C20.8183181,64 23.6366362,62.927289 25.7819817,60.7818669 C30.0726728,56.4910227 30.0726728,49.5089773 25.7819817,45.2173478 C23.6366362,43.072711 20.8183181,42 18,42" id="Fill-10"></path>
                    <path d="M61.0252917,47.0252917 C59.6582361,48.3923472 59.6582361,50.6082489 61.0252917,51.9753044 C62.3923472,53.3415652 64.6082489,53.3415652 65.9753044,51.9753044 C67.3415652,50.6082489 67.3415652,48.3923472 65.9753044,47.0252917 C64.6082489,45.6582361 62.3923472,45.6582361 61.0252917,47.0252917" id="Fill-12"></path>
                </g>
                <g id="Group-4" transform="translate(745.460000, 84.920000)">
                    <g id="Group-16">
                        <mask id="mask-4" fill="white">
                            <use xlink:href="#path-3"></use>
                        </mask>
                        <g id="Clip-15"></g>
                        <path d="M68.6442268,79.5507556 C68.3397168,78.8743159 67.6299927,78.4525453 66.8635227,78.5449332 C63.7297072,78.9297486 60.5791076,79.1249682 57.5004396,79.1249682 C27.696823,79.1249682 3.44951486,62.1553293 3.44951486,41.2957604 C3.44951486,20.4361915 27.696823,3.46574928 57.5004396,3.46574928 C87.3040562,3.46574928 111.552164,20.4361915 111.552164,41.2957604 C111.552164,53.5970013 102.910793,65.1824372 88.4373769,72.2874642 C87.8339515,72.5831053 87.4854834,73.1864381 87.4862826,73.8243159 C86.0684329,82.628476 90.7967299,90.7923481 94.5955122,95.7250557 C77.8051025,89.7712615 70.0708682,81.2587257 68.6442268,79.5507556 M115.00008,41.2957604 C115.00008,18.5249682 89.2062446,0 57.5004396,0 C25.7946345,0 0,18.5249682 0,41.2957604 C0,64.0665527 25.7946345,82.5907175 57.5004396,82.5907175 C60.3864911,82.5907175 63.3324854,82.4268295 66.2696882,82.1038737 C68.7529233,85.0008352 78.5707733,95.0526328 99.5899557,100.936534 C99.7434096,100.980719 99.8984619,101 100.052715,101 C100.664932,101 101.247577,100.669814 101.558481,100.11147 C101.946112,99.4133392 101.806245,98.5376631 101.222801,97.9937798 C101.100517,97.8805043 89.3517061,86.8011931 90.8063208,74.9739421 C105.975874,67.2350541 115.00008,54.7024419 115.00008,41.2957604" id="Fill-14" fill="#FFFFFF" mask="url(#mask-4)"></path>
                    </g>
                    <path d="M27.203107,42.8082431 C26.4923236,44.0886883 25.3129437,44.7746691 23.8353662,44.7746691 C22.0398689,44.7746691 20.9362219,43.5873045 20.9362219,41.6771961 C20.9362219,40.3787605 21.3290855,38.9872443 21.9838582,37.9312876 C22.6772862,36.818231 23.7430669,36.2245487 25.1259785,36.2245487 C27.0721524,36.2245487 28.0637781,37.3188327 28.0637781,39.451083 C28.0637781,40.5461492 27.7269252,41.845367 27.203107,42.8082431 M25.1078342,34 C22.9573396,34 21.1058317,34.777497 19.9083075,36.1877858 C18.7297166,37.5605295 18,39.6552347 18,41.6592058 C18,44.9968111 20.1883609,47 23.8172219,47 C26.3227138,47 28.2318102,46.1098676 29.4466897,44.3483755 C30.4020268,42.9936221 31,41.1015042 31,39.451083 C31,35.9648616 28.8865829,34 25.1078342,34" id="Fill-17" fill="#FFFFFF"></path>
                    <path d="M45.9838009,34 L43.0616357,40.9590895 C42.9114974,41.2903573 42.780324,41.620803 42.6491505,41.9520708 C42.4998024,42.3219728 42.4618728,42.4584255 42.3496642,42.7896933 C42.3868036,41.9331647 42.4057685,41.2106228 42.3868036,40.7239962 L42.368629,34 L39.5586725,34 L37.1604109,39.8271894 C36.8229949,40.686184 36.3544054,41.992349 36.2421968,42.4197913 C36.2603714,42.2438824 36.2603714,42.0885236 36.2603714,42.0301612 C36.2603714,41.5049004 36.2232319,40.3935504 36.1671276,39.5945621 L35.7736073,34 L33,34 L34.0683524,47 L36.7668906,47 L39.1651521,41.2106228 C39.3326748,40.8407208 39.651126,40.0039203 39.7080205,39.8271894 L39.839194,39.3981031 C39.8573686,39.3602909 39.8960885,39.2435662 39.9521928,39.0684793 L39.9521928,39.8855517 L39.9703674,41.2106228 L40.1015409,47 L42.9114974,47 L49,34 L45.9838009,34 Z" id="Fill-19" fill="#FFFFFF"></path>
                    <polygon id="Fill-21" fill="#FFFFFF" points="48 47 50.479883 47 51 44 48.5193855 44"></polygon>
                    <polygon id="Fill-23" fill="#FFFFFF" points="49.8215361 38.1062505 49 44 50.5715361 44 52.3930723 37.9752783 53 35 50.4465361 35"></polygon>
                    <path d="M69.2038959,42.8082431 C68.4931124,44.0886883 67.3137326,44.7746691 65.8361551,44.7746691 C64.0406578,44.7746691 62.9370107,43.5873045 62.9370107,41.6771961 C62.9370107,40.3787605 63.3298744,38.9872443 63.9846471,37.9312876 C64.6772862,36.818231 65.7430669,36.2245487 67.1259785,36.2245487 C69.0729413,36.2245487 70.064567,37.3188327 70.064567,39.451083 C70.064567,40.5461492 69.7277141,41.845367 69.2038959,42.8082431 M67.1086231,34 C64.9573396,34 63.1058317,34.777497 61.9083075,36.1877858 C60.7297166,37.5605295 60,39.6552347 60,41.6592058 C60,44.9968111 62.1883609,47 65.8180108,47 C68.3235026,47 70.2318102,46.1098676 71.4474786,44.3483755 C72.4020268,42.9936221 73,41.1015042 73,39.451083 C73,35.9648616 70.8865829,34 67.1086231,34" id="Fill-25" fill="#FFFFFF"></path>
                    <path d="M87.9844421,34 L85.0613424,40.9590895 C84.911987,41.2903573 84.7800168,41.620803 84.6488369,41.9520708 C84.5002716,42.3219728 84.4615499,42.4584255 84.3501259,42.7896933 C84.386477,41.9331647 84.4054428,41.2106228 84.386477,40.7239962 L84.3690917,34 L81.5582062,34 L79.1606164,39.8271894 C78.8231837,40.686184 78.354571,41.992349 78.2415667,42.4197913 C78.2597422,42.2438824 78.2597422,42.0885236 78.2597422,42.0301612 C78.2597422,41.5049004 78.2233911,40.3935504 78.167284,39.5945621 L77.7737443,34 L75,34 L76.067615,47 L78.7670766,47 L81.1646664,41.2106228 C81.3329876,40.8407208 81.6514545,40.0039203 81.7083519,39.8271894 L81.8395318,39.3981031 C81.8577073,39.3602909 81.8956389,39.2435662 81.9517459,39.0684793 L81.9517459,39.8855517 L81.9707117,41.2106228 L82.1018916,47 L84.911987,47 L91,34 L87.9844421,34 Z" id="Fill-27" fill="#FFFFFF"></path>
                    <polygon id="Fill-29" fill="#FFFFFF" points="94.3937112 37.9752783 95 35 92.4468085 35 91.8216908 38.1062505 91 44 92.571832 44"></polygon>
                    <polygon id="Fill-31" fill="#FFFFFF" points="90 47 92.479883 47 93 44 90.5193855 44"></polygon>
                </g>
                <g id="Grab-a-drink" transform="translate(33.040000, 215.280000)" fill="#FFFFFF" fill-rule="nonzero">
                    <path d="M6.5,6.26 L6.5,8.72 L9.76,8.72 C9.46,10.4 8.18,11.46 6.48,11.46 C4.3,11.46 3,9.74 3,6.86 C3,4.18 4.34,2.54 6.5,2.54 C7.96,2.54 9,3.28 9.32,4.52 L12.22,4.34 C11.6,1.66 9.4,0 6.48,0 C2.56,0 7.10542736e-15,2.78 7.10542736e-15,7.06 C7.10542736e-15,11.32 2.32,13.94 6.1,13.94 C8.04,13.94 9.18,13.38 10.1,11.94 L10.52,13.64 L12.32,13.64 L12.32,6.26 L6.5,6.26 Z" id="Path"></path>
                    <path d="M14.72,3.98 L14.72,13.64 L17.56,13.64 L17.56,10.92 C17.56,9.06 17.66,8.16 17.94,7.52 C18.26,6.8 19.06,6.36 20.04,6.36 C20.28,6.36 20.42,6.36 20.76,6.4 L20.76,3.72 C18.7,3.7 17.98,4.14 17.42,5.7 L17.5,3.98 L14.72,3.98 Z" id="Path"></path>
                    <path d="M24.88,7.02 C25,6.24 25.56,5.88 26.6,5.88 C27.52,5.88 28.08,6.22 28.08,6.76 C28.08,7.16 27.86,7.32 27.22,7.42 L25.68,7.68 C22.98,8.12 21.84,9.06 21.84,10.88 C21.84,12.7 23.26,13.9 25.4,13.9 C26.54,13.9 27.22,13.66 28.16,12.88 C28.26,13.24 28.26,13.3 28.38,13.64 L31.28,13.64 C30.96,13.16 30.92,13.02 30.92,11.98 L30.92,7.54 C30.92,6.12 30.66,5.34 29.96,4.72 C29.2,4.06 28.08,3.72 26.62,3.72 C23.9,3.72 22.52,4.8 22.34,7.02 L24.88,7.02 Z M28.16,10.52 C27.7,11.34 27.02,11.74 26.08,11.74 C25.18,11.74 24.64,11.36 24.64,10.72 C24.64,10.14 25.08,9.8 26.1,9.56 L27.12,9.34 C27.6,9.24 27.86,9.16 28.16,9.04 L28.16,10.52 Z" id="Shape"></path>
                    <path d="M33.44,13.64 L36.16,13.64 L36.16,12.54 C36.92,13.54 37.6,13.9 38.8,13.9 C41.28,13.9 43.06,11.72 43.06,8.68 C43.06,5.72 41.4,3.72 38.94,3.72 C37.96,3.72 37.2,3.98 36.28,4.66 L36.28,0.3 L33.44,0.3 L33.44,13.64 Z M38.22,6.02 C39.48,6.02 40.26,7.1 40.26,8.84 C40.26,10.52 39.46,11.6 38.22,11.6 C36.98,11.6 36.16,10.48 36.16,8.8 C36.16,7.14 36.98,6.02 38.22,6.02 Z" id="Shape"></path>
                    <path d="M53.64,7.02 C53.76,6.24 54.32,5.88 55.36,5.88 C56.28,5.88 56.84,6.22 56.84,6.76 C56.84,7.16 56.62,7.32 55.98,7.42 L54.44,7.68 C51.74,8.12 50.6,9.06 50.6,10.88 C50.6,12.7 52.02,13.9 54.16,13.9 C55.3,13.9 55.98,13.66 56.92,12.88 C57.02,13.24 57.02,13.3 57.14,13.64 L60.04,13.64 C59.72,13.16 59.68,13.02 59.68,11.98 L59.68,7.54 C59.68,6.12 59.42,5.34 58.72,4.72 C57.96,4.06 56.84,3.72 55.38,3.72 C52.66,3.72 51.28,4.8 51.1,7.02 L53.64,7.02 Z M56.92,10.52 C56.46,11.34 55.78,11.74 54.84,11.74 C53.94,11.74 53.4,11.36 53.4,10.72 C53.4,10.14 53.84,9.8 54.86,9.56 L55.88,9.34 C56.36,9.24 56.62,9.16 56.92,9.04 L56.92,10.52 Z" id="Shape"></path>
                    <path d="M77.34,0.3 L74.5,0.3 L74.5,4.7 C73.82,4 73.08,3.7 72.04,3.7 C69.44,3.7 67.72,5.74 67.72,8.82 C67.72,11.88 69.42,13.9 71.96,13.9 C73.14,13.9 73.9,13.54 74.62,12.6 L74.62,13.64 L77.34,13.64 L77.34,0.3 Z M72.56,6 C73.8,6 74.6,7.12 74.6,8.84 C74.6,10.48 73.78,11.6 72.56,11.6 C71.32,11.6 70.52,10.5 70.52,8.8 C70.52,7.1 71.32,6 72.56,6 Z" id="Shape"></path>
                    <path d="M79.84,3.98 L79.84,13.64 L82.68,13.64 L82.68,10.92 C82.68,9.06 82.78,8.16 83.06,7.52 C83.38,6.8 84.18,6.36 85.16,6.36 C85.4,6.36 85.54,6.36 85.88,6.4 L85.88,3.72 C83.82,3.7 83.1,4.14 82.54,5.7 L82.62,3.98 L79.84,3.98 Z" id="Path"></path>
                    <path d="M90.28,3.98 L87.44,3.98 L87.44,13.64 L90.28,13.64 L90.28,3.98 Z M90.28,0.3 L87.44,0.3 L87.44,2.64 L90.28,2.64 L90.28,0.3 Z" id="Shape"></path>
                    <path d="M92.78,3.98 L92.78,13.64 L95.62,13.64 L95.62,8.22 C95.62,7.38 95.72,6.98 96.04,6.62 C96.34,6.28 96.78,6.1 97.26,6.1 C97.76,6.1 98.18,6.3 98.42,6.66 C98.66,7.02 98.72,7.4 98.72,8.38 L98.72,13.64 L101.56,13.64 L101.56,7.38 C101.56,5.1 100.28,3.7 98.18,3.7 C97.18,3.7 96.58,3.96 95.54,4.92 L95.54,3.98 L92.78,3.98 Z" id="Path"></path>
                    <polygon id="Path" points="109.7 7.66 113.38 3.98 109.86 3.98 106.9 7.3 106.9 0.3 104.06 0.3 104.06 13.64 106.9 13.64 106.9 10.42 107.82 9.52 110.22 13.64 113.7 13.64"></polygon>
                </g>
                <g id="Grab-a-Seat" transform="translate(276.610000, 215.280000)" fill="#FFFFFF" fill-rule="nonzero">
                    <path d="M6.5,6.26 L6.5,8.72 L9.76,8.72 C9.46,10.4 8.18,11.46 6.48,11.46 C4.3,11.46 3,9.74 3,6.86 C3,4.18 4.34,2.54 6.5,2.54 C7.96,2.54 9,3.28 9.32,4.52 L12.22,4.34 C11.6,1.66 9.4,0 6.48,0 C2.56,0 0,2.78 0,7.06 C0,11.32 2.32,13.94 6.1,13.94 C8.04,13.94 9.18,13.38 10.1,11.94 L10.52,13.64 L12.32,13.64 L12.32,6.26 L6.5,6.26 Z" id="Path"></path>
                    <path d="M14.72,3.98 L14.72,13.64 L17.56,13.64 L17.56,10.92 C17.56,9.06 17.66,8.16 17.94,7.52 C18.26,6.8 19.06,6.36 20.04,6.36 C20.28,6.36 20.42,6.36 20.76,6.4 L20.76,3.72 C18.7,3.7 17.98,4.14 17.42,5.7 L17.5,3.98 L14.72,3.98 Z" id="Path"></path>
                    <path d="M24.88,7.02 C25,6.24 25.56,5.88 26.6,5.88 C27.52,5.88 28.08,6.22 28.08,6.76 C28.08,7.16 27.86,7.32 27.22,7.42 L25.68,7.68 C22.98,8.12 21.84,9.06 21.84,10.88 C21.84,12.7 23.26,13.9 25.4,13.9 C26.54,13.9 27.22,13.66 28.16,12.88 C28.26,13.24 28.26,13.3 28.38,13.64 L31.28,13.64 C30.96,13.16 30.92,13.02 30.92,11.98 L30.92,7.54 C30.92,6.12 30.66,5.34 29.96,4.72 C29.2,4.06 28.08,3.72 26.62,3.72 C23.9,3.72 22.52,4.8 22.34,7.02 L24.88,7.02 Z M28.16,10.52 C27.7,11.34 27.02,11.74 26.08,11.74 C25.18,11.74 24.64,11.36 24.64,10.72 C24.64,10.14 25.08,9.8 26.1,9.56 L27.12,9.34 C27.6,9.24 27.86,9.16 28.16,9.04 L28.16,10.52 Z" id="Shape"></path>
                    <path d="M33.44,13.64 L36.16,13.64 L36.16,12.54 C36.92,13.54 37.6,13.9 38.8,13.9 C41.28,13.9 43.06,11.72 43.06,8.68 C43.06,5.72 41.4,3.72 38.94,3.72 C37.96,3.72 37.2,3.98 36.28,4.66 L36.28,0.3 L33.44,0.3 L33.44,13.64 Z M38.22,6.02 C39.48,6.02 40.26,7.1 40.26,8.84 C40.26,10.52 39.46,11.6 38.22,11.6 C36.98,11.6 36.16,10.48 36.16,8.8 C36.16,7.14 36.98,6.02 38.22,6.02 Z" id="Shape"></path>
                    <path d="M53.64,7.02 C53.76,6.24 54.32,5.88 55.36,5.88 C56.28,5.88 56.84,6.22 56.84,6.76 C56.84,7.16 56.62,7.32 55.98,7.42 L54.44,7.68 C51.74,8.12 50.6,9.06 50.6,10.88 C50.6,12.7 52.02,13.9 54.16,13.9 C55.3,13.9 55.98,13.66 56.92,12.88 C57.02,13.24 57.02,13.3 57.14,13.64 L60.04,13.64 C59.72,13.16 59.68,13.02 59.68,11.98 L59.68,7.54 C59.68,6.12 59.42,5.34 58.72,4.72 C57.96,4.06 56.84,3.72 55.38,3.72 C52.66,3.72 51.28,4.8 51.1,7.02 L53.64,7.02 Z M56.92,10.52 C56.46,11.34 55.78,11.74 54.84,11.74 C53.94,11.74 53.4,11.36 53.4,10.72 C53.4,10.14 53.84,9.8 54.86,9.56 L55.88,9.34 C56.36,9.24 56.62,9.16 56.92,9.04 L56.92,10.52 Z" id="Shape"></path>
                    <path d="M78.68,4.48 C78.56,3.28 78.34,2.56 77.9,1.9 C77.04,0.64 75.52,0 73.36,0 C69.98,0 68,1.54 68,4.12 C68,5.2 68.38,6.18 69.06,6.74 C69.66,7.26 70.54,7.64 71.96,7.98 L74.38,8.58 C75.34,8.82 75.82,9.28 75.82,9.94 C75.82,10.88 74.88,11.44 73.34,11.44 C71.52,11.44 70.66,10.76 70.6,9.24 L67.6,9.24 C67.62,12.22 69.7,13.94 73.3,13.94 C76.76,13.94 78.88,12.24 78.88,9.48 C78.88,8.42 78.54,7.56 77.86,6.94 C77.22,6.34 76.4,5.98 74.92,5.62 L72.22,5 C71.4,4.8 71,4.42 71,3.86 C71,3.02 71.86,2.5 73.28,2.5 C74.8,2.5 75.68,3.14 75.68,4.26 L75.68,4.48 L78.68,4.48 Z" id="Path"></path>
                    <path d="M90.12,9.64 C90.12,8.3 89.98,7.4 89.64,6.56 C88.92,4.74 87.38,3.72 85.34,3.72 C82.42,3.72 80.4,5.8 80.4,8.82 C80.4,11.86 82.38,13.9 85.36,13.9 C87.66,13.9 89.46,12.7 90,10.82 L87.12,10.82 C86.74,11.42 86.2,11.68 85.44,11.68 C84.22,11.68 83.44,10.96 83.26,9.64 L90.12,9.64 Z M83.28,7.64 C83.5,6.5 84.22,5.88 85.32,5.88 C86.42,5.88 87.08,6.5 87.2,7.64 L83.28,7.64 Z" id="Shape"></path>
                    <path d="M94.72,7.02 C94.84,6.24 95.4,5.88 96.44,5.88 C97.36,5.88 97.92,6.22 97.92,6.76 C97.92,7.16 97.7,7.32 97.06,7.42 L95.52,7.68 C92.82,8.12 91.68,9.06 91.68,10.88 C91.68,12.7 93.1,13.9 95.24,13.9 C96.38,13.9 97.06,13.66 98,12.88 C98.1,13.24 98.1,13.3 98.22,13.64 L101.12,13.64 C100.8,13.16 100.76,13.02 100.76,11.98 L100.76,7.54 C100.76,6.12 100.5,5.34 99.8,4.72 C99.04,4.06 97.92,3.72 96.46,3.72 C93.74,3.72 92.36,4.8 92.18,7.02 L94.72,7.02 Z M98,10.52 C97.54,11.34 96.86,11.74 95.92,11.74 C95.02,11.74 94.48,11.36 94.48,10.72 C94.48,10.14 94.92,9.8 95.94,9.56 L96.96,9.34 C97.44,9.24 97.7,9.16 98,9.04 L98,10.52 Z" id="Shape"></path>
                    <path d="M108.18,4.1 L106.44,4.1 L106.44,1.04 L103.6,1.04 L103.6,4.1 L102.24,4.1 L102.24,6.1 L103.6,6.1 L103.6,10.5 C103.6,12 103.72,12.52 104.16,13 C104.58,13.46 105.2,13.64 106.44,13.64 L108.18,13.64 L108.18,11.5 L107.16,11.5 C106.5,11.5 106.44,11.38 106.44,9.86 L106.44,6.1 L108.18,6.1 L108.18,4.1 Z" id="Path"></path>
                </g>
                <g id="Grab-a-Cut" transform="translate(522.630000, 215.280000)" fill="#FFFFFF" fill-rule="nonzero">
                    <path d="M6.5,6.26 L6.5,8.72 L9.76,8.72 C9.46,10.4 8.18,11.46 6.48,11.46 C4.3,11.46 3,9.74 3,6.86 C3,4.18 4.34,2.54 6.5,2.54 C7.96,2.54 9,3.28 9.32,4.52 L12.22,4.34 C11.6,1.66 9.4,0 6.48,0 C2.56,0 -1.13686838e-13,2.78 -1.13686838e-13,7.06 C-1.13686838e-13,11.32 2.32,13.94 6.1,13.94 C8.04,13.94 9.18,13.38 10.1,11.94 L10.52,13.64 L12.32,13.64 L12.32,6.26 L6.5,6.26 Z" id="Path"></path>
                    <path d="M14.72,3.98 L14.72,13.64 L17.56,13.64 L17.56,10.92 C17.56,9.06 17.66,8.16 17.94,7.52 C18.26,6.8 19.06,6.36 20.04,6.36 C20.28,6.36 20.42,6.36 20.76,6.4 L20.76,3.72 C18.7,3.7 17.98,4.14 17.42,5.7 L17.5,3.98 L14.72,3.98 Z" id="Path"></path>
                    <path d="M24.88,7.02 C25,6.24 25.56,5.88 26.6,5.88 C27.52,5.88 28.08,6.22 28.08,6.76 C28.08,7.16 27.86,7.32 27.22,7.42 L25.68,7.68 C22.98,8.12 21.84,9.06 21.84,10.88 C21.84,12.7 23.26,13.9 25.4,13.9 C26.54,13.9 27.22,13.66 28.16,12.88 C28.26,13.24 28.26,13.3 28.38,13.64 L31.28,13.64 C30.96,13.16 30.92,13.02 30.92,11.98 L30.92,7.54 C30.92,6.12 30.66,5.34 29.96,4.72 C29.2,4.06 28.08,3.72 26.62,3.72 C23.9,3.72 22.52,4.8 22.34,7.02 L24.88,7.02 Z M28.16,10.52 C27.7,11.34 27.02,11.74 26.08,11.74 C25.18,11.74 24.64,11.36 24.64,10.72 C24.64,10.14 25.08,9.8 26.1,9.56 L27.12,9.34 C27.6,9.24 27.86,9.16 28.16,9.04 L28.16,10.52 Z" id="Shape"></path>
                    <path d="M33.44,13.64 L36.16,13.64 L36.16,12.54 C36.92,13.54 37.6,13.9 38.8,13.9 C41.28,13.9 43.06,11.72 43.06,8.68 C43.06,5.72 41.4,3.72 38.94,3.72 C37.96,3.72 37.2,3.98 36.28,4.66 L36.28,0.3 L33.44,0.3 L33.44,13.64 Z M38.22,6.02 C39.48,6.02 40.26,7.1 40.26,8.84 C40.26,10.52 39.46,11.6 38.22,11.6 C36.98,11.6 36.16,10.48 36.16,8.8 C36.16,7.14 36.98,6.02 38.22,6.02 Z" id="Shape"></path>
                    <path d="M53.64,7.02 C53.76,6.24 54.32,5.88 55.36,5.88 C56.28,5.88 56.84,6.22 56.84,6.76 C56.84,7.16 56.62,7.32 55.98,7.42 L54.44,7.68 C51.74,8.12 50.6,9.06 50.6,10.88 C50.6,12.7 52.02,13.9 54.16,13.9 C55.3,13.9 55.98,13.66 56.92,12.88 C57.02,13.24 57.02,13.3 57.14,13.64 L60.04,13.64 C59.72,13.16 59.68,13.02 59.68,11.98 L59.68,7.54 C59.68,6.12 59.42,5.34 58.72,4.72 C57.96,4.06 56.84,3.72 55.38,3.72 C52.66,3.72 51.28,4.8 51.1,7.02 L53.64,7.02 Z M56.92,10.52 C56.46,11.34 55.78,11.74 54.84,11.74 C53.94,11.74 53.4,11.36 53.4,10.72 C53.4,10.14 53.84,9.8 54.86,9.56 L55.88,9.34 C56.36,9.24 56.62,9.16 56.92,9.04 L56.92,10.52 Z" id="Shape"></path>
                    <path d="M80.02,4.56 C79.66,1.72 77.46,0 74.24,0 C70.28,0 67.8,2.68 67.8,6.96 C67.8,11.22 70.32,13.94 74.26,13.94 C77.56,13.94 79.82,12.06 80.18,9.04 L77,9.04 C76.64,10.64 75.72,11.4 74.18,11.4 C72.06,11.4 70.8,9.74 70.8,6.96 C70.8,4.16 72.06,2.54 74.26,2.54 C75.68,2.54 76.66,3.28 76.96,4.56 L80.02,4.56 Z" id="Path"></path>
                    <path d="M90.72,3.98 L87.88,3.98 L87.88,9.42 C87.88,10.38 87.84,10.6 87.58,10.94 C87.32,11.3 86.88,11.5 86.36,11.5 C85.84,11.5 85.38,11.3 85.12,10.94 C84.86,10.6 84.82,10.36 84.82,9.42 L84.82,3.98 L81.98,3.98 L81.98,10.04 C81.98,11.42 82.24,12.24 82.9,12.9 C83.54,13.54 84.46,13.9 85.46,13.9 C86.64,13.9 87.34,13.54 88.02,12.58 L88.02,13.64 L90.72,13.64 L90.72,3.98 Z" id="Path"></path>
                    <path d="M98.14,4.1 L96.4,4.1 L96.4,1.04 L93.56,1.04 L93.56,4.1 L92.2,4.1 L92.2,6.1 L93.56,6.1 L93.56,10.5 C93.56,12 93.68,12.52 94.12,13 C94.54,13.46 95.16,13.64 96.4,13.64 L98.14,13.64 L98.14,11.5 L97.12,11.5 C96.46,11.5 96.4,11.38 96.4,9.86 L96.4,6.1 L98.14,6.1 L98.14,4.1 Z" id="Path"></path>
                </g>
                <g id="Grab-a-Compliment" transform="translate(724.110000, 215.280000)" fill="#FFFFFF" fill-rule="nonzero">
                    <path d="M6.5,6.26 L6.5,8.72 L9.76,8.72 C9.46,10.4 8.18,11.46 6.48,11.46 C4.3,11.46 3,9.74 3,6.86 C3,4.18 4.34,2.54 6.5,2.54 C7.96,2.54 9,3.28 9.32,4.52 L12.22,4.34 C11.6,1.66 9.4,0 6.48,0 C2.56,0 0,2.78 0,7.06 C0,11.32 2.32,13.94 6.1,13.94 C8.04,13.94 9.18,13.38 10.1,11.94 L10.52,13.64 L12.32,13.64 L12.32,6.26 L6.5,6.26 Z" id="Path"></path>
                    <path d="M14.72,3.98 L14.72,13.64 L17.56,13.64 L17.56,10.92 C17.56,9.06 17.66,8.16 17.94,7.52 C18.26,6.8 19.06,6.36 20.04,6.36 C20.28,6.36 20.42,6.36 20.76,6.4 L20.76,3.72 C18.7,3.7 17.98,4.14 17.42,5.7 L17.5,3.98 L14.72,3.98 Z" id="Path"></path>
                    <path d="M24.88,7.02 C25,6.24 25.56,5.88 26.6,5.88 C27.52,5.88 28.08,6.22 28.08,6.76 C28.08,7.16 27.86,7.32 27.22,7.42 L25.68,7.68 C22.98,8.12 21.84,9.06 21.84,10.88 C21.84,12.7 23.26,13.9 25.4,13.9 C26.54,13.9 27.22,13.66 28.16,12.88 C28.26,13.24 28.26,13.3 28.38,13.64 L31.28,13.64 C30.96,13.16 30.92,13.02 30.92,11.98 L30.92,7.54 C30.92,6.12 30.66,5.34 29.96,4.72 C29.2,4.06 28.08,3.72 26.62,3.72 C23.9,3.72 22.52,4.8 22.34,7.02 L24.88,7.02 Z M28.16,10.52 C27.7,11.34 27.02,11.74 26.08,11.74 C25.18,11.74 24.64,11.36 24.64,10.72 C24.64,10.14 25.08,9.8 26.1,9.56 L27.12,9.34 C27.6,9.24 27.86,9.16 28.16,9.04 L28.16,10.52 Z" id="Shape"></path>
                    <path d="M33.44,13.64 L36.16,13.64 L36.16,12.54 C36.92,13.54 37.6,13.9 38.8,13.9 C41.28,13.9 43.06,11.72 43.06,8.68 C43.06,5.72 41.4,3.72 38.94,3.72 C37.96,3.72 37.2,3.98 36.28,4.66 L36.28,0.3 L33.44,0.3 L33.44,13.64 Z M38.22,6.02 C39.48,6.02 40.26,7.1 40.26,8.84 C40.26,10.52 39.46,11.6 38.22,11.6 C36.98,11.6 36.16,10.48 36.16,8.8 C36.16,7.14 36.98,6.02 38.22,6.02 Z" id="Shape"></path>
                    <path d="M53.64,7.02 C53.76,6.24 54.32,5.88 55.36,5.88 C56.28,5.88 56.84,6.22 56.84,6.76 C56.84,7.16 56.62,7.32 55.98,7.42 L54.44,7.68 C51.74,8.12 50.6,9.06 50.6,10.88 C50.6,12.7 52.02,13.9 54.16,13.9 C55.3,13.9 55.98,13.66 56.92,12.88 C57.02,13.24 57.02,13.3 57.14,13.64 L60.04,13.64 C59.72,13.16 59.68,13.02 59.68,11.98 L59.68,7.54 C59.68,6.12 59.42,5.34 58.72,4.72 C57.96,4.06 56.84,3.72 55.38,3.72 C52.66,3.72 51.28,4.8 51.1,7.02 L53.64,7.02 Z M56.92,10.52 C56.46,11.34 55.78,11.74 54.84,11.74 C53.94,11.74 53.4,11.36 53.4,10.72 C53.4,10.14 53.84,9.8 54.86,9.56 L55.88,9.34 C56.36,9.24 56.62,9.16 56.92,9.04 L56.92,10.52 Z" id="Shape"></path>
                    <path d="M80.02,4.56 C79.66,1.72 77.46,0 74.24,0 C70.28,0 67.8,2.68 67.8,6.96 C67.8,11.22 70.32,13.94 74.26,13.94 C77.56,13.94 79.82,12.06 80.18,9.04 L77,9.04 C76.64,10.64 75.72,11.4 74.18,11.4 C72.06,11.4 70.8,9.74 70.8,6.96 C70.8,4.16 72.06,2.54 74.26,2.54 C75.68,2.54 76.66,3.28 76.96,4.56 L80.02,4.56 Z" id="Path"></path>
                    <path d="M86.62,3.72 C83.62,3.72 81.5,5.82 81.5,8.8 C81.5,11.8 83.62,13.9 86.62,13.9 C89.6,13.9 91.76,11.8 91.76,8.88 C91.76,5.8 89.68,3.72 86.62,3.72 Z M86.62,5.98 C88.1,5.98 88.9,7 88.9,8.86 C88.9,10.62 88.06,11.64 86.64,11.64 C85.18,11.64 84.36,10.62 84.36,8.8 C84.36,7 85.18,5.98 86.62,5.98 Z" id="Shape"></path>
                    <path d="M93.78,3.98 L93.78,13.64 L96.62,13.64 L96.62,8.32 C96.62,6.84 97.08,6.18 98.06,6.18 C99.06,6.18 99.5,6.84 99.5,8.32 L99.5,13.64 L102.34,13.64 L102.34,8.32 C102.34,6.84 102.78,6.18 103.78,6.18 C104.76,6.18 105.2,6.84 105.2,8.32 L105.2,13.64 L108.04,13.64 L108.04,7.22 C108.04,5.98 107.82,5.2 107.28,4.62 C106.72,4.04 105.88,3.72 104.88,3.72 C103.64,3.72 102.92,4.1 101.88,5.28 C101.32,4.22 100.44,3.72 99.2,3.72 C98.04,3.72 97.44,4.04 96.54,5.14 L96.54,3.98 L93.78,3.98 Z" id="Path"></path>
                    <path d="M110.56,3.98 L110.56,16.7 L113.4,16.7 L113.4,12.86 C114.2,13.6 114.94,13.9 116,13.9 C118.54,13.9 120.24,11.86 120.24,8.78 C120.24,5.76 118.52,3.72 115.98,3.72 C114.78,3.72 114.08,4.1 113.26,5.12 L113.34,3.98 L110.56,3.98 Z M115.36,6.02 C116.66,6.02 117.44,7.1 117.44,8.84 C117.44,10.52 116.62,11.6 115.38,11.6 C114.1,11.6 113.3,10.52 113.3,8.8 C113.3,7.1 114.1,6.02 115.36,6.02 Z" id="Shape"></path>
                    <polygon id="Path" points="125.1 0.3 122.26 0.3 122.26 13.64 125.1 13.64"></polygon>
                    <path d="M130.44,3.98 L127.6,3.98 L127.6,13.64 L130.44,13.64 L130.44,3.98 Z M130.44,0.3 L127.6,0.3 L127.6,2.64 L130.44,2.64 L130.44,0.3 Z" id="Shape"></path>
                    <path d="M132.94,3.98 L132.94,13.64 L135.78,13.64 L135.78,8.32 C135.78,6.84 136.24,6.18 137.22,6.18 C138.22,6.18 138.66,6.84 138.66,8.32 L138.66,13.64 L141.5,13.64 L141.5,8.32 C141.5,6.84 141.94,6.18 142.94,6.18 C143.92,6.18 144.36,6.84 144.36,8.32 L144.36,13.64 L147.2,13.64 L147.2,7.22 C147.2,5.98 146.98,5.2 146.44,4.62 C145.88,4.04 145.04,3.72 144.04,3.72 C142.8,3.72 142.08,4.1 141.04,5.28 C140.48,4.22 139.6,3.72 138.36,3.72 C137.2,3.72 136.6,4.04 135.7,5.14 L135.7,3.98 L132.94,3.98 Z" id="Path"></path>
                    <path d="M158.96,9.64 C158.96,8.3 158.82,7.4 158.48,6.56 C157.76,4.74 156.22,3.72 154.18,3.72 C151.26,3.72 149.24,5.8 149.24,8.82 C149.24,11.86 151.22,13.9 154.2,13.9 C156.5,13.9 158.3,12.7 158.84,10.82 L155.96,10.82 C155.58,11.42 155.04,11.68 154.28,11.68 C153.06,11.68 152.28,10.96 152.1,9.64 L158.96,9.64 Z M152.12,7.64 C152.34,6.5 153.06,5.88 154.16,5.88 C155.26,5.88 155.92,6.5 156.04,7.64 L152.12,7.64 Z" id="Shape"></path>
                    <path d="M161,3.98 L161,13.64 L163.84,13.64 L163.84,8.22 C163.84,7.38 163.94,6.98 164.26,6.62 C164.56,6.28 165,6.1 165.48,6.1 C165.98,6.1 166.4,6.3 166.64,6.66 C166.88,7.02 166.94,7.4 166.94,8.38 L166.94,13.64 L169.78,13.64 L169.78,7.38 C169.78,5.1 168.5,3.7 166.4,3.7 C165.4,3.7 164.8,3.96 163.76,4.92 L163.76,3.98 L161,3.98 Z" id="Path"></path>
                    <path d="M177.18,4.1 L175.44,4.1 L175.44,1.04 L172.6,1.04 L172.6,4.1 L171.24,4.1 L171.24,6.1 L172.6,6.1 L172.6,10.5 C172.6,12 172.72,12.52 173.16,13 C173.58,13.46 174.2,13.64 175.44,13.64 L177.18,13.64 L177.18,11.5 L176.16,11.5 C175.5,11.5 175.44,11.38 175.44,9.86 L175.44,6.1 L177.18,6.1 L177.18,4.1 Z" id="Path"></path>
                </g>
                <g id="It’s-simple,-really." transform="translate(164.680000, 0.000000)" fill="#FFFFFF" fill-rule="nonzero">
                    <polygon id="Path" points="9 0.9 0 0.9 0 40.92 9 40.92"></polygon>
                    <polygon id="Path" points="34.74 8.58 46.86 8.58 46.86 0.9 13.62 0.9 13.62 8.58 25.74 8.58 25.74 40.92 34.74 40.92"></polygon>
                    <path d="M51.12,0.9 L51.12,9.3 L55.26,9.3 C55.14,12.18 53.52,14.52 50.82,15.54 L50.82,18.9 C56.52,17.64 59.52,13.92 59.52,8.1 L59.52,0.9 L51.12,0.9 Z" id="Path"></path>
                    <path d="M98.34,13.44 C97.98,9.84 97.32,7.68 96,5.7 C93.42,1.92 88.86,0 82.38,0 C72.24,0 66.3,4.62 66.3,12.36 C66.3,15.6 67.44,18.54 69.48,20.22 C71.28,21.78 73.92,22.92 78.18,23.94 L85.44,25.74 C88.32,26.46 89.76,27.84 89.76,29.82 C89.76,32.64 86.94,34.32 82.32,34.32 C76.86,34.32 74.28,32.28 74.1,27.72 L65.1,27.72 C65.16,36.66 71.4,41.82 82.2,41.82 C92.58,41.82 98.94,36.72 98.94,28.44 C98.94,25.26 97.92,22.68 95.88,20.82 C93.96,19.02 91.5,17.94 87.06,16.86 L78.96,15 C76.5,14.4 75.3,13.26 75.3,11.58 C75.3,9.06 77.88,7.5 82.14,7.5 C86.7,7.5 89.34,9.42 89.34,12.78 L89.34,13.44 L98.34,13.44 Z" id="Path"></path>
                    <path d="M154.38,13.44 C154.02,9.84 153.36,7.68 152.04,5.7 C149.46,1.92 144.9,0 138.42,0 C128.28,0 122.34,4.62 122.34,12.36 C122.34,15.6 123.48,18.54 125.52,20.22 C127.32,21.78 129.96,22.92 134.22,23.94 L141.48,25.74 C144.36,26.46 145.8,27.84 145.8,29.82 C145.8,32.64 142.98,34.32 138.36,34.32 C132.9,34.32 130.32,32.28 130.14,27.72 L121.14,27.72 C121.2,36.66 127.44,41.82 138.24,41.82 C148.62,41.82 154.98,36.72 154.98,28.44 C154.98,25.26 153.96,22.68 151.92,20.82 C150,19.02 147.54,17.94 143.1,16.86 L135,15 C132.54,14.4 131.34,13.26 131.34,11.58 C131.34,9.06 133.92,7.5 138.18,7.5 C142.74,7.5 145.38,9.42 145.38,12.78 L145.38,13.44 L154.38,13.44 Z" id="Path"></path>
                    <polygon id="Path" points="170.46 0.9 161.46 0.9 161.46 40.92 170.46 40.92"></polygon>
                    <path d="M203.1,40.92 L208.56,19.56 C208.62,19.5 208.8,18.72 209.16,17.64 C209.34,17.1 209.76,15.48 210.42,13.08 C210.3,14.52 210.3,15.42 210.3,16.2 L210.24,20.04 L210.24,40.92 L218.46,40.92 L218.46,0.9 L205.92,0.9 L200.7,21.72 C200.7,21.84 200.4,23.1 200.1,24.36 C199.86,25.44 199.62,26.34 199.5,27.06 L198.84,29.64 C198.84,29.7 198.78,30.12 198.6,30.9 C198.12,28.26 197.46,24.96 196.68,21.84 L191.58,0.9 L178.92,0.9 L178.92,40.92 L187.14,40.92 L187.14,20.04 L187.08,16.2 C187.08,15.54 187.08,14.52 186.96,13.08 C187.32,14.22 187.38,14.46 187.68,15.72 C187.92,16.56 188.28,17.82 188.7,19.62 L194.22,40.92 L203.1,40.92 Z" id="Path"></path>
                    <path d="M235.98,27.3 L244.44,27.3 C249.06,27.3 252.12,26.16 254.52,23.64 C256.8,21.24 257.94,18.06 257.94,14.4 C257.94,10.08 256.38,6.42 253.62,3.96 C251.04,1.68 248.16,0.9 242.7,0.9 L226.98,0.9 L226.98,40.92 L235.98,40.92 L235.98,27.3 Z M235.98,19.62 L235.98,8.58 L243.06,8.58 C246.6,8.58 248.76,10.62 248.76,14.1 C248.76,17.52 246.6,19.62 243.06,19.62 L235.98,19.62 Z" id="Shape"></path>
                    <polygon id="Path" points="272.58 0.9 263.58 0.9 263.58 40.92 292.14 40.92 292.14 33.24 272.58 33.24"></polygon>
                    <polygon id="Path" points="327 0.9 297.18 0.9 297.18 40.92 327.36 40.92 327.36 33.24 306.18 33.24 306.18 23.46 324.36 23.46 324.36 16.38 306.18 16.38 306.18 8.58 327 8.58"></polygon>
                    <path d="M333.3,32.52 L333.3,40.92 L337.44,40.92 C337.32,43.8 335.7,46.14 333,47.16 L333,50.52 C338.7,49.26 341.7,45.54 341.7,39.72 L341.7,32.52 L333.3,32.52 Z" id="Path"></path>
                    <path d="M376.38,24.9 L382.38,24.9 C387,24.9 389.16,27.06 389.52,31.98 L389.88,37.44 C390,39.48 390.3,40.08 391.38,40.92 L400.2,40.92 C399.06,39.24 398.76,38.34 398.58,35.7 L398.28,30 C397.98,24.72 396.6,22.62 392.64,21.36 C397.14,19.68 399.3,16.56 399.3,11.7 C399.3,8.1 397.92,5.1 395.46,3.3 C393.06,1.56 390.18,0.9 385.02,0.9 L367.56,0.9 L367.56,40.92 L376.38,40.92 L376.38,24.9 Z M376.38,17.82 L376.38,8.58 L385.2,8.58 C388.5,8.58 390.3,10.26 390.3,13.2 C390.3,16.14 388.5,17.82 385.2,17.82 L376.38,17.82 Z" id="Shape"></path>
                    <polygon id="Path" points="436.44 0.9 406.62 0.9 406.62 40.92 436.8 40.92 436.8 33.24 415.62 33.24 415.62 23.46 433.8 23.46 433.8 16.38 415.62 16.38 415.62 8.58 436.44 8.58"></polygon>
                    <path d="M464.7,32.88 L466.86,40.92 L477.06,40.92 L464.34,0.9 L453.12,0.9 L439.14,40.92 L448.92,40.92 L451.44,32.88 L464.7,32.88 Z M462.72,25.5 L453.66,25.5 L458.52,9.84 L462.72,25.5 Z" id="Shape"></path>
                    <polygon id="Path" points="490.32 0.9 481.32 0.9 481.32 40.92 509.88 40.92 509.88 33.24 490.32 33.24"></polygon>
                    <polygon id="Path" points="523.92 0.9 514.92 0.9 514.92 40.92 543.48 40.92 543.48 33.24 523.92 33.24"></polygon>
                    <polygon id="Path" points="565.74 25.86 579.06 0.9 569.22 0.9 561.12 17.52 553.5 0.9 543.48 0.9 556.74 25.86 556.74 40.92 565.74 40.92"></polygon>
                    <polygon id="Path" points="590.22 32.52 581.82 32.52 581.82 40.92 590.22 40.92"></polygon>
                </g>
                <g id="1-copy" transform="translate(-0.000000, 80.680000)" fill="#FFFFFF" fill-rule="nonzero">
                    <path d="M3.346,0 L2.394,0 C2.17,1.05 1.204,1.736 0,1.694 L0,2.604 L2.114,2.604 L2.114,9.24 L3.346,9.24 L3.346,0 Z" id="Path"></path>
                </g>
                <g id="2" transform="translate(260.256553, 80.484000)" fill="#FFFFFF" fill-rule="nonzero">
                    <path d="M6.11944687,8.274 L1.55544687,8.274 C1.72344687,7.742 2.50744687,6.944 3.47344687,6.3 C4.84544687,5.418 5.02744687,5.278 5.40544687,4.886 C5.95144687,4.312 6.23144687,3.626 6.23144687,2.814 C6.23144687,1.134 5.04144687,0 3.27744687,0 C2.28344687,0 1.47144687,0.322 0.939446868,0.952 C0.477446868,1.47 0.281446868,2.114 0.281446868,3.066 L0.281446868,3.416 L1.52744687,3.416 C1.52744687,2.73 1.55544687,2.478 1.63944687,2.212 C1.87744687,1.554 2.46544687,1.162 3.23544687,1.162 C4.22944687,1.162 4.92944687,1.848 4.92944687,2.828 C4.92944687,3.71 4.56544687,4.172 3.17944687,5.082 C0.827446868,6.566 -0.0405531321,7.756 0.0014468679,9.436 L6.11944687,9.436 L6.11944687,8.274 Z" id="Path"></path>
                </g>
                <g id="3" transform="translate(502.202000, 80.484000)" fill="#FFFFFF" fill-rule="nonzero">
                    <path d="M2.674,5.124 L2.968,5.124 C4.214,5.124 5.068,5.824 5.068,6.846 C5.068,7.77 4.312,8.456 3.262,8.456 C2.1,8.456 1.288,7.63 1.232,6.37 L0,6.37 C0.014,8.288 1.358,9.618 3.29,9.618 C5.068,9.618 6.37,8.456 6.37,6.846 C6.37,5.81 5.852,5.068 4.76,4.536 C5.684,4.046 6.104,3.43 6.104,2.52 C6.104,1.064 4.928,0 3.318,0 C1.512,0 0.378,1.176 0.378,3.038 L1.596,3.038 C1.582,1.862 2.212,1.162 3.262,1.162 C4.158,1.162 4.802,1.75 4.802,2.576 C4.802,3.472 4.046,4.074 2.926,4.074 C2.87,4.074 2.786,4.074 2.674,4.06 L2.674,5.124 Z" id="Path"></path>
                </g>
                <g id="4" transform="translate(744.146000, 80.680000)" fill="#FFFFFF" fill-rule="nonzero">
                    <path d="M4.004,7.112 L4.004,9.24 L5.236,9.24 L5.236,7.112 L6.384,7.112 L6.384,6.062 L5.236,6.062 L5.236,0 L4.158,0 L0,5.852 L0,7.112 L4.004,7.112 Z M4.004,6.062 L1.176,6.062 L3.304,3.024 C3.514,2.73 3.668,2.492 4.046,1.904 C4.018,2.324 4.018,2.352 4.018,2.492 L4.004,2.828 L4.004,3.22 L4.004,6.062 Z" id="Shape"></path>
                </g>
                <g id="Group-3" transform="translate(25.460000, 80.920000)">
                    <mask id="mask-6" fill="white">
                        <use xlink:href="#path-5"></use>
                    </mask>
                    <g id="Clip-2"></g>
                    <path d="M94.6016575,39.0264117 L71.3233195,39.0264117 L69.9834994,19.7924764 L129.006027,19.7924764 L127.666898,39.0264117 L94.6016575,39.0264117 Z M127.832649,76.2967147 L100.256527,76.2967147 L101.163323,60.0865336 C101.197854,59.9498472 101.221336,59.8089977 101.221336,59.6619036 C101.221336,59.5869689 101.208904,59.5148096 101.199926,59.4419564 L101.907821,46.79048 C101.994149,45.2515431 101.61085,43.7688073 100.818008,42.4956111 L130.186312,42.4956111 L127.832649,76.2967147 Z M123.244801,102.530801 L97.8103195,102.530801 C98.4885171,101.471307 98.916707,100.232109 98.9919855,98.8902227 L100.06246,79.7659141 L124.830485,79.7659141 L123.244801,102.530801 Z M75.7454164,102.530801 L50.911782,102.530801 L46.5684168,102.530801 C44.4247047,102.530801 42.650479,100.846851 42.5310002,98.6952537 L40.443229,61.3965033 L48.7521854,61.3965033 L44.357023,70.8112166 C43.9523145,71.6785165 44.3238729,72.7109502 45.187159,73.1182342 L67.9882725,83.8623448 C68.2258488,83.974053 68.4744752,84.0267848 68.7203391,84.0267848 C69.3695303,84.0267848 69.9910963,83.657662 70.2846136,83.0283493 L71.8475068,79.6805718 C72.0167109,79.8387673 72.215612,79.9643523 72.4373039,80.0448378 C72.6272269,80.1135279 72.8254374,80.1482199 73.0236479,80.1482199 C73.2750368,80.1482199 73.5250445,80.0934066 73.7570958,79.9837799 L92.1837657,71.3010676 C93.0470519,70.8937836 93.4186102,69.860656 93.0132111,68.9933562 L89.4668316,61.3965033 L97.6314466,61.3965033 L95.544366,98.6952537 C95.4235059,100.846157 93.6499709,102.530801 91.5062588,102.530801 L75.7454164,102.530801 Z M7.9429231,102.530801 C7.41390136,102.530801 6.98363954,102.098538 6.98363954,101.567057 C6.98363954,100.753183 6.76125703,99.955267 6.33928277,99.2600394 L3.59265159,94.7320403 C3.50148858,94.5814771 3.45314455,94.4080171 3.45314455,94.231088 L3.45314455,18.8439973 C3.45314455,17.593004 3.81572473,16.3801719 4.50220987,15.3373305 L9.71576751,7.41367912 L49.1389376,7.41367912 L54.3524953,15.3373305 C55.0389804,16.3808657 55.4015606,17.593004 55.4015606,18.8439973 L55.4015606,39.0264117 L50.7025215,39.0264117 C49.2218131,28.560531 40.2470904,20.4849286 29.4270073,20.4849286 C17.5758151,20.4849286 7.93394493,30.1716272 7.93394493,42.0779195 C7.93394493,53.9855995 17.5758151,63.6722981 29.4270073,63.6722981 C32.1045755,63.6722981 34.6674994,63.1734272 37.0335941,62.2707416 L39.0826901,98.8902227 C39.1579686,100.232109 39.5861585,101.471307 40.2643561,102.530801 L7.9429231,102.530801 Z M36.1551141,42.0779195 C36.1551141,45.8059212 33.1370658,48.8380015 29.4270073,48.8380015 C25.7176394,48.8380015 22.699591,45.8059212 22.699591,42.0779195 C22.699591,38.3513055 25.7176394,35.3192253 29.4270073,35.3192253 C33.1370658,35.3192253 36.1551141,38.3513055 36.1551141,42.0779195 L36.1551141,42.0779195 Z M29.4270073,31.8500259 C23.8135755,31.8500259 19.2464465,36.4390828 19.2464465,42.0779195 C19.2464465,47.7181439 23.8135755,52.3072009 29.4270073,52.3072009 C32.0886911,52.3072009 34.5072735,51.2678287 36.3229369,49.5817978 L36.8277867,58.6010224 C34.5680489,59.6265178 32.0638284,60.2030987 29.4270073,60.2030987 C19.4798791,60.2030987 11.3870895,52.0719892 11.3870895,42.0779195 C11.3870895,32.0845437 19.4798791,23.954128 29.4270073,23.954128 C38.3395733,23.954128 45.7576185,30.4817736 47.2072486,39.0264117 L43.473018,39.0264117 C42.0081941,39.0264117 40.6214113,39.4565925 39.4362921,40.2496514 C38.5743872,35.4808899 34.418873,31.8500259 29.4270073,31.8500259 L29.4270073,31.8500259 Z M80.3836802,61.3965033 L85.6524881,61.3965033 L89.1539767,68.8962186 L73.8537838,76.1059088 L73.6852704,75.745112 L80.3836802,61.3965033 Z M66.9868606,61.3965033 L76.5700273,61.3965033 L71.7784439,71.6597828 L66.9868606,61.3965033 Z M63.1725171,61.3965033 L69.8709269,75.745112 L67.8915844,79.9844737 L48.2162574,70.7133852 L52.5658383,61.3965033 L63.1725171,61.3965033 Z M64.503359,57.9273039 L54.1853631,57.9273039 L57.4444409,50.9472747 L68.3812403,56.1004235 L64.503359,57.9273039 Z M80.3387893,57.9273039 C80.2766327,57.8884489 80.2172386,57.8454308 80.149557,57.8135142 L76.5133957,56.1004235 L81.9783423,53.5248899 L84.0329633,57.9273039 L80.3387893,57.9273039 Z M70.7646007,42.4956111 L94.6016575,42.4956111 C95.6755855,42.4956111 96.6728536,42.9271795 97.4097547,43.7112186 C98.1473464,44.4945638 98.520286,45.5186715 98.4595106,46.595511 L97.8255133,57.9273039 L87.8473068,57.9273039 L84.3713715,50.4817082 C84.1766141,50.0647104 83.825084,49.7427687 83.3948222,49.5866547 C82.9638698,49.4312346 82.4894077,49.4513559 82.0750304,49.6477126 L72.4469727,54.1847316 L57.3477528,47.0694036 C56.485848,46.6628135 55.4568109,47.0360993 55.0514117,47.9033992 L50.3717102,57.9273039 L40.2491623,57.9273039 L39.6144743,46.595511 C39.5543896,45.5186715 39.9273292,44.4945638 40.6649209,43.7105248 C41.4025126,42.9271795 42.3997807,42.4956111 43.473018,42.4956111 L70.7646007,42.4956111 Z M66.4543857,15.4115714 L66.868763,12.913054 C66.9316102,12.5335236 67.2548246,12.258763 67.637433,12.258763 C67.6816332,12.258763 67.7223803,12.2476616 67.76589,12.2462739 C67.8059464,12.2490492 67.843931,12.258763 67.8846781,12.258763 L85.2926705,12.258763 C86.246429,12.258763 87.0192427,11.4823562 87.0192427,10.5241633 C87.0192427,9.56597043 86.246429,8.7895636 85.2926705,8.7895636 L71.7798252,8.7895636 C71.7998534,8.67924306 71.8336942,8.57308556 71.8461256,8.45929582 L72.3033219,4.16789616 C72.3461409,3.76963207 72.679024,3.4691994 73.0782075,3.4691994 L125.91201,3.4691994 C126.311193,3.4691994 126.644076,3.76963207 126.686895,4.16859 L127.144092,8.45929582 C127.156523,8.57308556 127.190364,8.67924306 127.210392,8.7895636 L113.697547,8.7895636 C112.743788,8.7895636 111.970975,9.56597043 111.970975,10.5241633 C111.970975,11.4823562 112.743788,12.258763 113.697547,12.258763 L131.104849,12.258763 C131.146286,12.258763 131.184271,12.2490492 131.224327,12.2462739 C131.267837,12.2476616 131.308584,12.258763 131.352784,12.258763 C131.735393,12.258763 132.058607,12.5335236 132.121454,12.9123602 L132.535832,15.4115714 C132.587629,15.7231055 132.448812,15.9430528 132.361793,16.0464349 C132.274774,16.149817 132.081398,16.323277 131.767162,16.323277 L130.858294,16.323277 L68.1319233,16.323277 L67.2230556,16.323277 C66.9088195,16.323277 66.7154434,16.149817 66.6284242,16.0464349 C66.5414049,15.9430528 66.4025885,15.7231055 66.4543857,15.4115714 L66.4543857,15.4115714 Z M134.996543,18.2889254 C135.802506,17.332814 136.14713,16.0769639 135.942014,14.841235 L135.527636,12.3420238 C135.186465,10.2834009 133.430196,8.7895636 131.352784,8.7895636 C130.953601,8.7895636 130.620027,8.48843709 130.577899,8.08947916 L130.120012,3.79946718 C129.889342,1.63260524 128.080585,0 125.91201,0 L73.0782075,0 C70.9096328,0 69.1008757,1.63260524 68.8702056,3.79877334 L68.4123186,8.08947916 C68.3701903,8.48843709 68.0366165,8.7895636 67.637433,8.7895636 C65.5607119,8.7895636 63.8044425,10.2834009 63.4625812,12.3420238 L63.0482039,14.841235 C62.8430871,16.0769639 63.1877109,17.332814 63.9936749,18.2889254 C64.6449379,19.061863 65.539993,19.5614277 66.5172329,19.7272555 L67.8611968,39.0264117 L58.8547051,39.0264117 L58.8547051,18.8439973 C58.8547051,16.9116532 58.2939145,15.0375917 57.2331085,13.424414 L53.1639229,7.24021915 C53.7461231,6.96198936 54.1508316,6.37083778 54.1508316,5.67907942 C54.1508316,4.72158038 53.3780179,3.94447972 52.4242593,3.94447972 L50.0671429,3.94447972 L8.78756226,3.94447972 L6.43044579,3.94447972 C5.47668726,3.94447972 4.70387351,4.72158038 4.70387351,5.67907942 C4.70387351,6.37083778 5.10858205,6.96129552 5.69009159,7.24021915 L1.62159668,13.424414 C0.560790675,15.0368979 0,16.9109594 0,18.8439973 L0,94.231088 C0,95.045656 0.223073138,95.8435718 0.644356774,96.5381056 L3.39029732,101.064023 C3.48215097,101.215974 3.53049499,101.389434 3.53049499,101.567057 C3.53049499,104.011455 5.50983745,106 7.9429231,106 L46.5684168,106 L50.911782,106 L74.1355604,106 L91.5062588,106 L124.854657,106 C125.761453,106 126.514238,105.295753 126.577085,104.386822 L128.291917,79.7659141 L129.442505,79.7659141 C130.349301,79.7659141 131.102086,79.0609728 131.164933,78.1527364 L133.760317,40.8824334 C133.794158,40.4016024 133.627025,39.9297913 133.301049,39.5780144 C132.974381,39.2262376 132.516494,39.0264117 132.037888,39.0264117 L131.129021,39.0264117 L132.472294,19.7272555 C133.449534,19.5614277 134.345279,19.061863 134.996543,18.2889254 L134.996543,18.2889254 Z" id="Fill-1" fill="#FFFFFE" mask="url(#mask-6)"></path>
                </g>
            </g>
        </g>
    </g>
</svg>