<?xml version="1.0" encoding="UTF-8"?>
<svg width="876px" height="126px" viewBox="0 0 876 126" version="1.1" xmlns="http://www.w3.org/2000/svg" xmlns:xlink="http://www.w3.org/1999/xlink">
    <title>wordmarks</title>
    <g id="Page-1" stroke="none" stroke-width="1" fill="none" fill-rule="evenodd">
        <g id="Picked-Option" transform="translate(-269.000000, -2902.000000)" fill="#A12B2A" fill-rule="nonzero">
            <g id="wordmarks" transform="translate(269.000000, 2902.000000)">
                <g id="red_hbco" transform="translate(584.000000, 31.000000)">
                    <polygon id="Path" points="63.2236224 61 63.2236224 38.0694327 15.7088851 38.0694327 15.7088851 61 0 61 0 2 15.7088851 2 15.7088851 24.5975162 63.2236224 24.5975162 63.2236224 2 79 2 79 61"></polygon>
                    <path d="M110.307062,62 L92,62 L92,1 L111.472364,1 C116.657114,1 120.136131,2.36529428 121.97697,5.5846919 C123.450168,8.70242732 124.117856,12.1386588 123.91914,15.5799945 C124.15756,19.3219728 123.581414,23.0711107 122.230297,26.5697707 C121.240452,28.7260112 119.188224,30.2045723 116.825998,30.4633877 C119.540473,30.651581 121.948188,32.2707259 123.142272,34.7109699 C124.527124,37.1550152 125,41.5880077 125,45.3973473 C125,50.0494612 124.375128,54.9375518 122.297851,57.7692733 C119.663255,61.2246477 116.032242,62 110.307062,62 Z M111.320368,12.3605968 C110.894111,11.0224715 109.636362,10.1238724 108.229785,10.1525283 L103.028147,10.1525283 L103.028147,27.1765681 L108.972876,27.1765681 C109.834186,27.1765681 110.66172,26.5697707 111.371034,25.1201989 C112.032718,22.9364367 112.323837,20.6576099 112.232344,18.378005 C112.255832,16.336218 111.947853,14.3041095 111.320368,12.3605968 Z M113.009212,44.133186 C113.06474,42.0115272 112.77966,39.8946729 112.16479,37.8629456 C111.516315,36.5861794 110.220698,35.7650677 108.787103,35.722299 L103.028147,35.722299 L103.028147,52.9148936 L108.516888,52.9148936 C110.0493,52.9986348 111.481747,52.1541426 112.147902,50.774247 C112.723484,48.6087145 112.990692,46.3730831 112.941658,44.133186 L113.009212,44.133186 Z" id="Shape"></path>
                    <path d="M176.936555,4.73145246 C192.030142,4.73145246 201.740349,8.07523511 208.44861,15.7324974 C210.538538,18.0129006 211.969987,20.8149692 212.590961,23.8411703 L212.792209,24.8275862 L218.091735,24.8275862 L217.840176,23.3730408 C216.960754,19.3807649 215.079656,15.6761952 212.372943,12.6060606 C207.459142,6.85475444 197.312897,0 176.936555,0 C156.291882,0 142.10391,7.17241379 136.97209,20.1964472 C135.61847,23.9947316 134.954046,28.0029464 135.009924,32.0334378 C134.889571,36.7556995 135.865283,41.4418306 137.860935,45.7262278 C143.546186,57.6802508 157.667075,64 178.61362,64 C195.384272,64 207.123729,59.5026123 213.647513,50.6248694 L213.647513,50.6248694 C215.750674,47.8382636 217.164207,44.5960223 217.773093,41.1619645 L217.9408,39.7742947 L212.607732,39.7742947 L212.507108,40.8777429 C212.020933,43.3832314 210.977983,45.7483391 209.45485,47.799373 C203.685745,55.6071055 193.405335,59.4022989 178.009877,59.4022989 C159.729866,59.4022989 147.722078,54.1024033 142.305158,43.6363636 C140.567776,40.0143737 139.728072,36.0294838 139.856643,32.0167189 C139.837565,28.504377 140.46864,25.0186648 141.718185,21.7345873 C147.151876,7.67398119 163.888987,4.73145246 176.936555,4.73145246 Z M257.737557,46.5287356 C282.725829,46.5287356 291.631112,34.4576803 291.631112,23.1222571 C291.664587,8.67711599 279.002744,0 257.771099,0 C236.539453,0 223.894381,8.67711599 223.894381,23.2058516 C223.894381,38.0689655 236.287893,46.5788924 257.771099,46.5788924 L257.737557,46.5287356 Z M228.523081,23.1222571 C228.523081,11.5026123 239.440776,4.56426332 257.737557,4.56426332 C276.034339,4.56426332 287.035887,11.5026123 287.035887,23.1222571 C287.035887,34.7419018 276.084651,42.0648695 257.737557,42.0648695 C246.870175,42.0815047 228.556622,39.6071055 228.556622,23.138976 L228.523081,23.1222571 Z M223.894381,58.984326 L223.894381,63.3981191 L292,63.3981191 L292,58.984326 L223.894381,58.984326 Z" id="Shape"></path>
                </g>
                <g id="red_wordmark">
                    <path d="M56.0208029,54.5848375 L56.0208029,33.8459687 L13.9130061,33.8459687 L13.9130061,54.5848375 L0,54.5848375 L0,1.29723225 L13.9130061,1.29723225 L13.9130061,21.6991576 L56.0208029,21.6991576 L56.0208029,1.29723225 L70.0008596,1.29723225 L70.0008596,54.5848375 L56.0208029,54.5848375 Z M147.880168,9.88929001 C153.512422,14.9434416 155.406602,20.4693141 155.406602,27.6967509 C155.627123,34.4239639 152.929649,40.9157875 148.01427,45.4873646 C141.309207,52.2262335 129.575346,55.3766546 114.740394,55.3766546 C100.425084,55.3766546 89.6969827,51.8219013 82.4219892,45.6895307 C77.0183924,41.2465528 73.9617039,34.5426591 74.1412361,27.5282792 C73.9702821,21.016996 76.7141627,14.7719471 81.6173816,10.5126354 C89.8981346,2.79663057 99.9389667,0 114.807444,0 C129.675922,0 140.202871,3.06618532 147.880168,9.88929001 Z M137.453795,37.2490975 C139.976191,34.7595575 141.333953,31.3143812 141.191868,27.7641396 C141.397263,24.0310798 139.927086,20.4020195 137.185593,17.8748496 C132.156795,13.6462094 125.921087,11.3886883 114.706868,11.3886883 C104.112869,11.3886883 96.3852832,14.1179302 92.4460586,18.1275572 C89.845947,20.6403645 88.3958805,24.1222162 88.4397834,27.7472924 C88.1662318,31.8600219 90.0069993,35.8271358 93.3177168,38.2599278 C98.5476661,42.3537906 104.867188,44.2070856 114.773919,44.2070856 C125.602596,44.2238267 132.424998,42.2358604 137.453795,37.2490975 Z M211.561506,54.5848375 L159.597266,54.5848375 L159.597266,1.29723225 L209.767902,1.29723225 C217.160234,1.29723225 222.05493,3.13357401 224.854294,5.86281588 C227.123903,8.21533047 228.335497,11.3996238 228.206825,14.6738869 C228.29459,17.4046346 227.481276,20.0878873 225.893579,22.3056558 C224.316408,24.3494114 221.993874,25.6772025 219.439955,25.9951865 C223.183185,26.3127757 226.742609,27.7636957 229.648414,30.156438 C231.946719,32.6272039 233.15553,35.9256734 233.000946,39.3044525 C233.173386,42.8275686 232.118245,46.3008743 230.017192,49.1263538 C227.050202,52.7484958 220.529528,54.5848375 211.561506,54.5848375 Z M211.980573,13.7135981 C210.404883,12.3489771 207.974297,12.0288809 205.040832,12.0288809 L173.191782,12.0288809 L173.191782,22.1371841 L205.577237,22.1371841 C208.426889,22.1371841 211.14244,21.8676294 212.433164,20.6377858 C213.293301,19.6424166 213.732414,18.3486611 213.656838,17.032491 C213.607671,15.7331111 212.995186,14.5204328 211.980573,13.7135981 Z M218.685636,38.1419976 C218.759349,36.9390532 218.254358,35.7735962 217.32786,35.0084236 C215.752171,33.6438026 213.254535,33.0204573 208.49394,33.0204573 L173.208545,33.0204573 L173.208545,43.8026474 L208.175449,43.8026474 C213.405398,43.8026474 216.25505,42.9939832 217.813977,41.2081829 C218.480514,40.3333894 218.797414,39.2396801 218.702398,38.1419976 L218.685636,38.1419976 Z M289.625204,54.5848375 L237.660964,54.5848375 L237.660964,1.29723225 L287.814837,1.29723225 C295.223932,1.29723225 300.101865,3.13357401 302.901229,5.86281588 C305.170838,8.21533047 306.382433,11.3996238 306.253761,14.6738869 C306.341526,17.4046346 305.528212,20.0878873 303.940514,22.3056558 C302.363344,24.3494114 300.040809,25.6772025 297.486891,25.9951865 C301.247654,26.3027593 304.82601,27.7542465 307.745637,30.156438 C310.043942,32.6272039 311.252753,35.9256734 311.098169,39.3044525 C311.270609,42.8275686 310.215469,46.3008743 308.114416,49.1263538 C305.080375,52.7484958 298.609989,54.5848375 289.641967,54.5848375 L289.625204,54.5848375 Z M289.993983,13.7135981 C288.435055,12.3489771 285.987707,12.0288809 283.071005,12.0288809 L251.221955,12.0288809 L251.221955,22.1371841 L283.60741,22.1371841 C286.457062,22.1371841 289.172612,21.8676294 290.463337,20.6377858 C291.323473,19.6424166 291.762587,18.3486611 291.687011,17.032491 C291.640574,15.7285281 291.020327,14.5126392 289.993983,13.7135981 L289.993983,13.7135981 Z M296.699046,38.1419976 C296.772759,36.9390532 296.267768,35.7735962 295.341271,35.0084236 C293.782343,33.6438026 291.267945,33.0204573 286.50735,33.0204573 L251.289005,33.0204573 L251.289005,43.8026474 L286.25591,43.8026474 C291.485859,43.8026474 294.335511,42.9939832 295.894438,41.2081829 C296.56697,40.3364495 296.884567,39.2403331 296.782859,38.1419976 L296.699046,38.1419976 Z M352.300782,55.410349 C326.36895,55.410349 316.177254,49.6149218 314.081922,36.6425993 L329.486805,36.6425993 C330.241124,42.3706378 337.985472,44.2912154 353.524456,44.2912154 C370.085962,44.2912154 373.756984,42.101083 373.756984,38.5463297 C373.756984,33.576414 362.62658,33.2226233 350.071349,32.6161252 C333.761283,31.723225 315.037394,30.2238267 315.037394,17.2009627 C315.037394,5.7954272 326.100748,0.353790614 350.071349,0.353790614 C376.405484,0.353790614 385.373506,8.96269555 386.664231,18.3802647 L371.108484,18.3802647 C370.505029,14.5559567 363.984355,11.4223827 349.518181,11.4223827 C332.202355,11.4223827 329.402991,12.8543923 329.402991,16.4765343 C329.402991,20.9073406 341.891172,20.9073406 355.334823,21.8002407 C376.25462,23.1648616 388.475265,25.1696751 388.475265,37.9735259 C388.575174,49.4632972 377.310668,55.410349 352.384596,55.410349 L352.300782,55.410349 Z M16.2094902,124.365824 L0,124.365824 L0,70.0505415 L17.248775,70.0505415 C21.8249807,70.0505415 24.9093097,71.2803851 26.5520502,74.1275572 C27.8366727,76.9128709 28.4126789,79.9753064 28.228316,83.0397112 C28.4402166,86.3794064 27.9253915,89.7253943 26.7196768,92.8447653 C25.8489807,94.7757772 24.0237612,96.097074 21.9255566,96.3152828 C24.315418,96.4445193 26.4555441,97.84422 27.541047,99.9879663 C28.7931088,103.003194 29.3655571,106.259587 29.2173128,109.523466 C29.2173128,113.66787 28.6641451,117.947052 26.8202527,120.541516 C24.4902433,123.67509 21.2718129,124.365824 16.2094902,124.365824 Z M17.0979111,80.1251504 C16.7299744,78.9266602 15.6131143,78.1209458 14.3655979,78.1540313 L9.78939225,78.1540313 L9.78939225,93.3164862 L15.0863922,93.3164862 C15.8407118,93.3164862 16.5950314,92.7773767 17.1984871,91.4801444 C17.7787707,89.5425231 18.0337026,87.5212536 17.9528067,85.4993983 C17.9681116,83.6725967 17.6791565,81.8560979 17.0979111,80.1251504 L17.0979111,80.1251504 Z M18.5394997,108.4284 C18.5913401,106.540742 18.3365568,104.657221 17.7851801,102.851986 C17.2393073,101.715301 16.1071291,100.980552 14.8517149,100.948255 L9.82291756,100.948255 L9.82291756,116.245487 L14.6338004,116.245487 C15.9915123,116.325777 17.2629528,115.573708 17.8522307,114.341757 C18.3585692,112.413252 18.589967,110.422273 18.5394997,108.4284 L18.5394997,108.4284 Z M63.0275939,94.9506619 C62.3820198,96.7551777 61.0493745,98.2278723 59.3230465,99.0445247 L66.0281097,124.315283 L55.6352618,124.315283 L50.1538726,101.756919 L46.6001891,101.756919 L46.6001891,124.365824 L36.6766956,124.365824 L36.6766956,70.0505415 L53.1041004,70.0505415 C57.2780022,70.0505415 60.8316857,71.7352587 62.4073756,74.9530686 C63.8397423,78.3697826 64.4926974,82.0654906 64.3183186,85.7689531 C64.430102,88.88207 63.9931296,91.9905207 63.0275939,94.9506619 L63.0275939,94.9506619 Z M53.9925213,81.6919374 C53.7913142,80.2482724 52.5597796,79.1760408 51.1093441,79.1816864 L46.6001891,79.1816864 L46.6001891,93.4681107 C46.6001891,93.4681107 51.0422935,93.4681107 51.3943093,93.4681107 C52.4522532,93.4856901 53.3947449,92.7992817 53.7075561,91.7833935 C54.1386333,90.1926886 54.325178,88.5450908 54.2607238,86.8977136 C54.279527,85.1585295 54.1899508,83.4198686 53.9925213,81.6919374 L53.9925213,81.6919374 Z M72.5990716,124.365824 L72.5990716,70.0505415 L96.6870111,70.0505415 L96.6870111,79.3670277 L82.5896157,79.3670277 L82.5896157,92.6594465 L95.7315396,92.6594465 L95.7315396,101.419976 L82.5896157,101.419976 L82.5896157,115.167268 L96.8211124,115.167268 L96.8211124,124.365824 L72.5990716,124.365824 Z M141.325969,124.365824 L129.458007,124.365824 C129.458007,124.365824 125.485257,96.1805054 125.217055,90.5367028 C125.217055,96.1805054 120.976102,124.365824 120.976102,124.365824 L109.409868,124.365824 L101.749334,70.0505415 L111.94103,70.0505415 C111.94103,70.0505415 115.91378,104.283995 115.91378,109.658243 C115.91378,104.283995 120.355884,70.0505415 120.355884,70.0505415 L130.279378,70.0505415 C130.279378,70.0505415 135.006447,104.283995 135.006447,109.658243 C135.006447,104.283995 138.828333,70.0505415 138.828333,70.0505415 L148.751827,70.0505415 L141.325969,124.365824 Z M155.088111,124.365824 L155.088111,70.0505415 L165.480959,70.0505415 L165.480959,124.365824 L155.088111,124.365824 Z M191.697756,124.365824 L183.048225,97.2755716 L183.048225,124.365824 L173.728187,124.365824 L173.728187,70.0505415 L183.249377,70.0505415 L191.798332,96.5848375 L191.798332,70.0505415 L201.151895,70.0505415 L201.151895,124.365824 L191.697756,124.365824 Z M230.25187,124.365824 L229.765753,121.906137 C228.407977,123.590854 225.608613,124.837545 221.384424,124.837545 C215.814712,125.124768 210.895744,121.218759 209.88524,115.706378 C208.808395,109.647956 208.347843,103.495115 208.510702,97.3429603 C208.510702,91.6823105 208.510702,83.4608905 209.88524,78.811071 C210.974813,74.4476534 214.662598,69.6293622 223.295367,69.6293622 C231.928135,69.6293622 235.750021,73.7737665 236.571392,78.6762936 C237.053241,81.9889339 237.255114,85.3366342 237.174847,88.6835138 L227.402218,88.6835138 C227.402218,88.2623345 227.402218,84.5222623 227.117253,81.7424789 C227.120258,80.8001239 226.730473,79.8995665 226.042475,79.2593196 C225.354477,78.6190727 224.431145,78.2976509 223.496519,78.3730445 C222.552533,78.3132788 221.624058,78.6360095 220.918508,79.2691412 C220.212957,79.9022729 219.789122,80.7930496 219.741683,81.7424789 C219.153712,86.9375996 218.901743,92.1655884 218.987364,97.3935018 C218.855195,102.579238 219.129835,107.767379 219.808734,112.909747 C220.278088,115.352587 221.485,116.515042 223.69767,116.515042 C224.845922,116.598357 225.974672,116.183277 226.798278,115.374843 C227.621885,114.566409 228.061427,113.442088 228.005674,112.286402 L228.005674,102.245487 L222.473996,102.245487 L222.473996,93.6702768 L237.459813,93.6702768 L237.459813,111.696751 C237.459813,117.963899 237.593914,124.298436 237.593914,124.365824 L230.25187,124.365824 Z M287.412533,72.746089 C300.82266,72.746089 309.505716,75.7954272 315.506748,82.6353791 C317.358613,84.6882528 318.631694,87.200725 319.194533,89.9133574 L319.362159,90.7894103 L324.089229,90.7894103 L323.854552,89.4921781 C323.077856,85.9010304 321.405015,82.5674672 318.993381,79.8050542 C314.584802,74.6498195 305.583255,68.4837545 287.412533,68.4837545 C268.97361,68.4837545 256.317803,74.9362214 251.75836,86.645006 C250.544729,90.0549061 249.943112,93.6542849 249.981518,97.2755716 C249.872868,101.525169 250.750981,105.741752 252.546205,109.590854 C257.575002,120.322503 270.197284,126 288.90441,126 C303.839938,126 314.350125,121.973526 320.133242,114.004813 L320.133242,114.004813 C321.997885,111.525512 323.255492,108.639787 323.804264,105.581227 L323.97189,104.334537 L319.211295,104.334537 L319.11072,105.311673 C318.687131,107.569434 317.758566,109.700924 316.395169,111.545126 C311.265796,118.570397 302.096622,121.973526 288.368005,121.973526 C272.074701,121.973526 261.363363,117.205776 256.518955,107.788207 C254.97376,104.537064 254.226501,100.961019 254.339809,97.3598075 C254.279392,94.1894577 254.808081,91.0356097 255.898736,88.0601685 C260.826958,75.3910951 275.745723,72.746089 287.412533,72.746089 Z M359.491963,110.348977 C381.769535,110.348977 389.664747,99.4993983 389.664747,89.3574007 C389.664747,76.2839952 378.366715,68.4837545 359.491963,68.4837545 C340.61721,68.4837545 329.319102,76.2839952 329.319102,89.3574007 C329.285653,102.76775 340.281957,110.348977 359.441675,110.348977 L359.491963,110.348977 Z M333.392504,89.290012 C333.392504,78.8616125 343.131608,72.6281588 359.441675,72.6281588 C375.751741,72.6281588 385.541133,78.8447653 385.541133,89.290012 C385.541133,99.7352587 375.785266,106.305656 359.441675,106.305656 C349.719333,106.305656 333.392504,104.081829 333.392504,89.290012 Z M329.285653,121.518652 L329.285653,125.477738 L390,125.477738 L390,121.501805 L329.285653,121.518652 Z" id="Shape"></path>
                </g>
            </g>
        </g>
    </g>
</svg>