<?xml version="1.0" encoding="UTF-8"?>
<svg width="717px" height="347px" viewBox="0 0 717 347" version="1.1" xmlns="http://www.w3.org/2000/svg" xmlns:xlink="http://www.w3.org/1999/xlink">
    <!-- Generator: Sketch 52.2 (67145) - http://www.bohemiancoding.com/sketch -->
    <title>2-TheBeerDrinkersBeer</title>
    <desc>Created with Sketch.</desc>
    <g id="Page-1" stroke="none" stroke-width="1" fill="none" fill-rule="evenodd">
        <g id="9-billboard" transform="translate(-362.000000, -2458.000000)" fill="#EB0029">
            <path d="M660.001238,2594 C655.082091,2594 651,2596.92026 651,2600.49959 C651,2604.07974 655.082091,2607 660.001238,2607 C665.022747,2607 669,2604.07974 669,2600.49959 C669,2596.92026 665.022747,2594 660.001238,2594 Z M813.340673,2665.38164 C808.884831,2665.38164 807.568587,2668.41097 805.645092,2671.4411 C803.722399,2674.47042 801.190852,2677.50055 794.304405,2677.50055 C786.811508,2677.50055 779.622237,2674.56271 773.649069,2670.61375 C761.497646,2662.53528 754.409317,2648.39415 750.561526,2635.53938 L763.117516,2625.44029 C768.585976,2621.03233 770.712956,2620.6664 775.26974,2620.29807 L776.482639,2616.53448 L747.625413,2616.53448 L746.715338,2620.39115 C748.639634,2620.6664 752.992932,2621.67671 752.992932,2624.15474 C752.992932,2625.34801 751.880173,2627.0011 748.841517,2629.02092 L735.780019,2637.74457 L749.044201,2590 L744.588358,2590 C742.159356,2591.5608 739.220839,2593.02933 736.083644,2594.2226 C733.348613,2595.32439 730.4125,2596.15174 727.780012,2596.70063 L726.767393,2600.46662 C726.776206,2600.47785 726.777808,2600.48026 726.78662,2600.49069 C729.427119,2600.40643 732.235854,2600.37594 732.235854,2603.40366 C732.235854,2604.13792 732.134913,2604.96446 731.931427,2605.51576 L719.174356,2652.34311 C718.344394,2655.41657 716.9929,2656.75669 714.438121,2657.39386 C712.996902,2657.75336 711.473168,2657.73731 710.027142,2657.39707 C708.696478,2657.0841 707.52764,2656.51194 707.52764,2655.28095 C707.52764,2654.27064 707.831266,2653.26113 708.135692,2652.34311 L714.515029,2629.75598 C714.818654,2628.37734 715.022139,2627.09178 715.022139,2625.99159 C715.022139,2619.10559 709.14751,2615.70794 702.061583,2615.70794 C694.973253,2615.70794 689.101027,2618.5543 686.164113,2620.39115 L687.581298,2615.61485 L683.125456,2615.61485 C680.696453,2617.17646 677.76034,2618.64658 674.620742,2619.83985 C671.88571,2620.84936 668.948796,2621.76659 666.317109,2622.31788 L665.304491,2626.08227 C667.836037,2625.99159 670.77215,2625.99159 670.77215,2629.02092 C670.77215,2629.75598 670.67201,2630.39956 670.468525,2631.13382 L664.392813,2652.98508 C663.376189,2656.83132 662.18492,2657.20447 658.851451,2657.60089 C657.896513,2657.71404 656.917541,2657.72046 655.96741,2657.57441 C654.245799,2657.30879 652.444075,2656.7904 652.444075,2655.28095 C652.444075,2654.27064 652.748501,2653.26113 653.052126,2652.34311 L663.076569,2616.53448 L658.620727,2616.53448 C656.191725,2618.09528 653.255611,2619.56381 650.116013,2620.75708 C648.629931,2621.30597 647.086169,2621.82115 645.561633,2622.27214 C645.65937,2621.82276 645.714647,2621.36455 645.714647,2620.90634 C645.714647,2617.7751 643.379376,2614.64306 638.606289,2614.64306 C632.613094,2614.64306 627.127809,2618.05195 623.572429,2620.81405 L624.892678,2616.39405 L620.221334,2616.39405 C617.885261,2617.95886 614.839395,2619.433 611.689382,2620.63029 C608.946339,2621.64381 606.103957,2622.56424 603.360113,2623.11714 L602.345091,2626.89357 L603.5644,2626.89357 C605.79873,2626.89357 607.930516,2627.2619 607.930516,2629.84024 C607.930516,2630.57691 607.729434,2631.22209 607.62609,2631.95876 L601.735437,2652.9578 C600.516129,2657.56318 599.094938,2657.19484 594.015022,2657.83923 L593,2661.70794 L618.696798,2661.70794 L619.815165,2657.74775 C615.54999,2657.10336 614.126396,2656.73503 614.126396,2655.07712 C614.126396,2654.34046 614.431623,2653.41922 614.73605,2652.12965 L619.409797,2635.36685 C621.440642,2627.99857 623.776715,2625.0511 628.550602,2625.0511 C633.322888,2625.0511 634.442056,2627.35338 638.707231,2627.35338 C639.619709,2627.35338 640.443263,2627.22017 641.1835,2626.98906 C643.618911,2626.91684 646.268223,2627.06048 646.268223,2629.93894 C646.268223,2630.6732 646.167281,2631.31678 645.964598,2632.05104 L640.09157,2652.98508 C638.875466,2657.57602 637.459082,2657.20929 632.395989,2657.85126 L631.383371,2661.70794 L681.20116,2661.70794 L682.417264,2657.85126 C680.593909,2657.57602 676.745318,2657.48534 676.745318,2655.28095 C676.745318,2654.27064 677.152288,2653.35342 677.35337,2652.34311 L684.037133,2627.27715 C687.377813,2625.16505 692.947215,2623.23751 695.174335,2623.23751 C699.124669,2623.23751 702.061583,2624.79671 702.061583,2628.37734 C702.061583,2629.114 701.858098,2630.03123 701.654613,2630.94845 L692.846274,2661.70794 L735.679078,2661.70794 L736.691696,2657.94355 C733.348613,2657.48534 731.323376,2656.74947 731.323376,2654.54669 C731.323376,2654.08768 731.424317,2653.71934 731.526861,2653.16805 L733.348613,2646.46742 L739.931435,2642.3347 L744.488218,2651.14823 C755.828104,2672.90962 777.698742,2682 794.406949,2682 C810.403759,2682 818,2675.93894 818,2669.51196 C818,2667.12541 816.075704,2665.38164 813.340673,2665.38164 Z M865,2711.72727 C865,2711.12987 864.305263,2711 863.389474,2711 L862.60081,2711 L862,2713 L862.978947,2713 C864.210526,2713 865,2712.53247 865,2711.72727 Z M864.416776,2714.14737 L865.456041,2716.95499 C865.676491,2717.51015 866.148885,2717.51015 866.369335,2717.51015 L866.274856,2718 L864.35379,2718 L862.93661,2714.18003 L862.27526,2714.18003 L861.64621,2716.79171 C861.614717,2716.88968 861.614717,2716.98765 861.614717,2717.05296 C861.614717,2717.54281 862.08711,2717.51015 862.338246,2717.54281 L862.243767,2718 L859,2718 L859.126779,2717.54281 C859.347229,2717.51015 860.007772,2717.44484 860.22903,2716.59577 L861.487938,2711.37073 C861.519431,2711.24095 861.519431,2711.14214 861.519431,2711.07766 C861.519431,2710.5225 861.015545,2710.48985 860.795902,2710.48985 L860.921066,2710 L864.16564,2710 C865.865449,2710 867,2710.48985 867,2711.66464 C867,2713.23215 865.865449,2714.08206 864.416776,2714.14737 Z M869,2713.98481 C869,2710.6807 866.319481,2708 862.985215,2708 C859.680519,2708 857,2710.6807 857,2713.98481 C857,2717.3193 859.680519,2720 862.985215,2720 C866.319481,2720 869,2717.3193 869,2713.98481 Z M870,2714.00039 C870,2717.84909 866.84831,2721 863.000389,2721 C859.120608,2721 856,2717.84909 856,2714.00039 C856,2710.12139 859.120608,2707 863.000389,2707 C866.84831,2707 870,2710.12139 870,2714.00039 Z M841.85356,2708 C835.827767,2708 830.311798,2711.40118 826.738174,2714.16248 L828.065658,2709.74681 L823.368965,2709.74681 C821.020214,2711.31115 817.957224,2712.78224 814.791622,2713.97759 C812.032425,2714.98887 809.174657,2715.9101 806.416269,2716.46156 L805.395811,2720.23252 L806.621492,2720.23252 C808.867631,2720.23252 811.011967,2720.59909 811.011967,2723.1747 C811.011967,2723.91024 810.809168,2724.55495 810.704941,2725.29049 L804.782566,2746.26191 C803.556077,2750.86006 802.127597,2750.49349 797.020458,2751.13659 L796,2755 L821.836258,2755 L822.960943,2751.04334 C818.671464,2750.40105 817.241368,2750.03207 817.241368,2748.3777 C817.241368,2747.64216 817.547586,2746.72092 817.854612,2745.43312 L822.552922,2728.69489 C824.594646,2721.33704 826.943397,2718.39246 831.74351,2718.39246 C836.541199,2718.39246 837.665884,2720.69234 841.955364,2720.69234 C846.550254,2720.69234 849,2717.47363 849,2714.25332 C849,2711.12546 846.651249,2708 841.85356,2708 Z M766,2724 L784.860735,2724 C785.874011,2724 786.888089,2722.89042 786.990781,2721.59388 C787.192955,2716.49919 784.050435,2714 779.487082,2714 C774.111825,2714 769.245211,2718.53788 766,2724 Z M789.241736,2739.78457 L795.72288,2742.16512 C792.280799,2748.12089 782.558683,2756 769.192577,2756 C755.722312,2756 746.608329,2748.30346 747.01295,2737.40242 C747.722038,2721.82677 762.507922,2709 779.519621,2709 C795.420816,2709 800.382028,2718.5286 799.977407,2727.23245 C799.87485,2729.24787 799.370075,2730.71399 798.357321,2730.71399 L762.811588,2730.71399 C762.103301,2732.91357 761.69868,2735.01867 761.595322,2736.94441 C761.190701,2745.73874 766.45638,2749.86166 772.633857,2749.86166 C778.913892,2749.86166 786.103322,2744.45599 789.241736,2739.78457 Z M731.99085,2721.59388 C732.192222,2716.49919 729.050494,2714 724.487126,2714 C719.111851,2714 714.24442,2718.53788 711,2724 L729.860797,2724 C730.874076,2724 731.888158,2722.89042 731.99085,2721.59388 Z M744.977493,2727.23245 C744.874937,2729.24787 744.369368,2730.71399 743.356628,2730.71399 L707.811374,2730.71399 C707.103097,2732.91357 706.698482,2735.01867 706.595125,2736.94441 C706.190509,2745.73874 711.456117,2749.86166 717.633511,2749.86166 C723.913461,2749.86166 731.102794,2744.45599 734.240365,2739.78457 L740.722222,2742.16512 C737.280188,2748.12089 727.558203,2756 714.191477,2756 C700.722194,2756 691.608334,2748.30346 692.01295,2737.40242 C692.721227,2721.82677 707.506911,2709 724.519182,2709 C740.420162,2709 745.381307,2718.5286 744.977493,2727.23245 Z M679,2697.81678 C679,2693.21929 674.89253,2690 666.983172,2690 L651.676467,2690 L645,2714 L659.585825,2714 C672.528338,2714 679,2706 679,2697.81678 Z M672,2728.74848 C672,2720.31585 664.023196,2718 653.38584,2718 L644.080378,2718 L636,2747 L651.85327,2747 C663.818476,2747 672,2738.56738 672,2728.74848 Z M675.71828,2716.43911 L675.71828,2716.80654 C684.047217,2720.46883 687.805122,2725.78255 687.805122,2732.46752 C687.805122,2743.91628 678.66386,2755 654.189673,2755 L609.201682,2755 L610.418964,2750.60285 C614.482193,2750.32748 619.762704,2750.05291 621.591438,2743.45839 L634.995997,2696.10641 C635.200083,2695.55647 635.300518,2695.09858 635.300518,2694.54864 C635.300518,2688.86909 625.246497,2688.32155 618.442576,2688.32155 L614.381757,2688.32155 C601.382155,2688.41201 591.328134,2694.54864 591.328134,2707.00522 C591.328134,2712.13402 594.983995,2718.8214 601.686677,2718.8214 C607.068427,2718.8214 606.866752,2714.69963 607.372948,2711.12699 C607.982794,2706.91476 611.131656,2702.24304 616.817124,2702.24304 C620.77831,2702.24304 623.114848,2705.5403 623.114848,2708.83756 C623.114848,2717.539 613.872347,2724.95803 603.312129,2724.95803 C591.429373,2724.95803 583,2717.72151 583,2707.28059 C583,2691.89418 595.898363,2682 613.466587,2682 C626.466188,2682 670.337334,2683.55777 670.337334,2683.55777 C685.671866,2683.55777 694,2690.61178 694,2700.13613 C694,2710.57705 683.741893,2715.98123 675.71828,2716.43911 Z M885.732957,2608 C882.598469,2608 877.784365,2609.83015 877.784365,2614.8645 C877.784365,2619.19357 881.179333,2621.66164 883.981074,2622.70454 C884.646567,2622.95208 884.896723,2623.54211 884.37894,2624.35533 C881.91074,2628.22828 877.659685,2629.50086 875.272486,2630.31003 C874.109065,2630.70447 873.632578,2632.11827 874.313954,2633.15874 C874.713409,2633.76906 875.421786,2634.08883 876.131751,2633.97845 C882.624675,2632.96964 894,2625.00299 894,2617.50706 C894,2609.48685 888.867445,2608 885.732957,2608 Z M918.741172,2620.91103 C928.060393,2620.91103 932.618629,2625.82288 934.947433,2630.08601 L939,2629.62115 L937.075091,2616.92811 L933.630769,2616.92811 L931.90941,2618.31703 C929.985302,2617.76065 926.337431,2616 919.44959,2616 C907.296697,2616 897.977476,2622.48703 897.977476,2631.19715 C897.977476,2638.4244 903.952548,2641.29781 910.233747,2643.2423 C917.42531,2645.55852 925.123344,2646.76522 925.123344,2652.04556 C925.123344,2655.65999 921.678221,2658.25399 915.095705,2658.25399 C903.042985,2658.25399 898.181026,2649.82247 896.660813,2647.04301 L892,2647.87555 L893.420041,2662.14621 L897.470204,2662.14621 L899.193968,2660.29243 C900.710975,2661.03346 907.904943,2664 916.107845,2664 C929.882726,2664 937.985456,2657.97621 937.985456,2648.24728 C937.985456,2639.62868 931.402138,2636.47991 924.615271,2634.34753 C917.628058,2632.21596 910.434892,2631.19715 910.434892,2626.74855 C910.434892,2623.3212 913.880015,2620.91103 918.741172,2620.91103 Z M870,2621.25263 C870,2618.12551 867.648933,2615 862.851463,2615 C856.825137,2615 851.311037,2618.40124 847.736768,2621.16259 L849.064192,2616.74684 L844.367713,2616.74684 C842.01907,2618.3104 838.954604,2619.78151 835.790762,2620.97689 C833.0325,2621.98818 830.174863,2622.90943 827.416601,2623.4617 L826.395381,2627.23193 L827.621814,2627.23193 C829.867851,2627.23193 832.01128,2627.59931 832.01128,2630.17496 C832.01128,2630.91051 831.808491,2631.55523 831.704268,2632.29078 L825.782165,2653.26176 C824.55654,2657.86079 823.127317,2657.49341 818.02122,2658.13652 L817,2662 L842.835884,2662 L843.95971,2658.04408 C839.671235,2657.40097 838.240396,2657.03279 838.240396,2655.37759 C838.240396,2654.64203 838.546601,2653.72158 838.852805,2652.43376 L843.551707,2635.69444 C845.593338,2628.33647 847.941982,2625.39264 852.741875,2625.39264 C857.540152,2625.39264 858.663979,2627.69175 862.953262,2627.69175 C867.547942,2627.69175 870,2624.4738 870,2621.25263 Z M787,2632 L805.860797,2632 C806.874878,2632 807.888158,2630.89051 807.99085,2629.59327 C808.192222,2624.4998 805.050494,2622 800.487929,2622 C795.111851,2622 790.245222,2626.53832 787,2632 Z M782.595102,2643.94393 C782.191289,2652.73812 787.456888,2656.86097 793.633471,2656.86097 C799.914212,2656.86097 807.102733,2651.45538 810.242703,2646.78485 L816.72455,2649.16535 C813.280117,2655.12103 803.558949,2663 790.192243,2663 C776.72218,2663 767.608335,2655.30359 768.01295,2644.40194 C768.721226,2628.82655 783.507688,2616 800.521535,2616 C816.420087,2616 821.382025,2625.52923 820.97741,2634.23294 C820.874855,2636.24832 820.369287,2637.71362 819.356548,2637.71362 L783.81135,2637.71362 C783.103074,2639.91317 782.696055,2642.01903 782.595102,2643.94393 Z M582,2612.25354 C582,2598.82726 573.125059,2597 560.518048,2597 C549.120747,2597 549.020204,2598.46085 546.398098,2607.96119 L536.512937,2643.58284 C535.908081,2645.77412 535,2648.33181 535,2650.7075 C535,2655.09245 541.757148,2654.99985 545.186791,2654.99985 C555.375178,2654.99985 563.84635,2653.08078 570.501358,2645.50031 C577.258506,2637.82724 582,2622.02768 582,2612.25354 Z M546.616635,2662 L506.604393,2662 L507.823215,2657.87818 C513.612019,2657.60281 517.572187,2655.58872 519.095514,2650.18369 L532.298486,2603.28828 C532.398916,2602.83119 532.50015,2602.3733 532.50015,2601.91621 C532.50015,2595.41208 520.111066,2595.32162 515.440654,2595.32162 L511.377645,2595.32162 C498.379552,2595.41208 488.326075,2601.54878 488.326075,2614.00469 C488.326075,2619.13435 491.983346,2625.821 498.684056,2625.821 C504.067121,2625.821 503.863047,2621.69918 504.371626,2618.12731 C504.981439,2613.91504 508.128524,2609.24247 513.816093,2609.24247 C517.675028,2609.24247 520.111066,2612.53976 520.111066,2615.83706 C520.111066,2624.53859 510.871476,2631.9577 500.309421,2631.9577 C488.428916,2631.9577 480,2624.72191 480,2614.28007 C480,2598.89349 492.896056,2589 510.463328,2589 C523.461421,2589 564.488411,2590.55699 564.488411,2590.55699 C583.072037,2590.55699 598,2597.61107 598,2616.01957 C598,2621.97376 596.577103,2627.83588 594.241496,2633.33058 C586.117888,2651.9256 568.651047,2662 546.616635,2662 Z M953.852752,2523 C947.826959,2523 942.312606,2526.40205 938.738174,2529.16259 L940.064851,2524.74765 L935.368157,2524.74765 C933.020214,2526.31121 929.957224,2527.78232 926.790814,2528.97689 C924.032425,2529.98899 921.174657,2530.91024 918.416269,2531.46251 L917.395003,2535.23273 L918.620684,2535.23273 C920.868439,2535.23273 923.011159,2535.59931 923.011159,2538.17496 C923.011159,2538.91051 922.80836,2539.55523 922.704941,2540.29078 L916.781758,2561.26176 C915.556885,2565.86079 914.127597,2565.49422 909.020458,2566.13733 L908,2570 L933.836258,2570 L934.960135,2566.04488 C930.672272,2565.40177 929.24056,2565.03279 929.24056,2563.37839 C929.24056,2562.64284 929.547586,2561.72158 929.853804,2560.43376 L934.552114,2543.69444 C936.594646,2536.33727 938.942589,2533.39264 943.742702,2533.39264 C948.541199,2533.39264 949.665884,2535.69256 953.954556,2535.69256 C958.549446,2535.69256 961,2532.4738 961,2529.25343 C961,2526.12551 958.651249,2523 953.852752,2523 Z M878,2539 L896.860797,2539 C897.874076,2539 898.887355,2537.89051 898.99085,2536.59408 C899.192222,2531.4998 896.050494,2529 891.487929,2529 C886.111851,2529 881.24442,2533.53832 878,2539 Z M859.012949,2551.40162 C859.722016,2535.82677 874.507454,2523 891.519441,2523 C907.420156,2523 912.382019,2532.5286 911.977411,2541.23245 C911.874055,2543.24787 911.369296,2544.71319 910.356573,2544.71319 L874.811912,2544.71319 C874.102845,2546.91357 873.698237,2549.01947 873.595683,2550.94441 C873.191875,2559.73794 878.456594,2563.86166 884.633885,2563.86166 C890.91373,2563.86166 898.102943,2558.45599 901.240462,2553.78457 L907.72141,2556.16512 C904.280234,2562.12089 894.558412,2570 881.191908,2570 C867.722048,2570 858.608341,2562.30346 859.012949,2551.40162 Z M823,2539 L841.860797,2539 C842.874878,2539 843.888158,2537.89051 843.99085,2536.59408 C844.192222,2531.4998 841.050494,2529 836.487929,2529 C831.111851,2529 826.245222,2533.53832 823,2539 Z M804.01295,2551.40162 C804.721226,2535.82677 819.506887,2523 836.521535,2523 C852.420087,2523 857.382025,2532.5286 856.97741,2541.23245 C856.874855,2543.24787 856.369287,2544.71319 855.356548,2544.71319 L819.81135,2544.71319 C819.102273,2546.91357 818.696055,2549.01947 818.595102,2550.94441 C818.191289,2559.73794 823.456087,2563.86166 829.633471,2563.86166 C835.913411,2563.86166 843.102733,2558.45599 846.242703,2553.78457 L852.723748,2556.16512 C849.280117,2562.12089 839.558949,2570 826.191442,2570 C812.72218,2570 803.608335,2562.30346 804.01295,2551.40162 Z M748,2562 L763.85327,2562 C775.818476,2562 784,2553.56738 784,2543.74848 C784,2535.31585 776.024005,2533 765.38584,2533 L756.079568,2533 L748,2562 Z M757,2529 L771.585361,2529 C784.528183,2529 791,2520.99973 791,2512.81623 C791,2508.21939 786.892432,2505 778.982885,2505 L763.675814,2505 L757,2529 Z M695,2521.27955 C695,2505.8928 707.897559,2496 725.466587,2496 C738.465385,2496 782.337334,2497.55701 782.337334,2497.55701 C797.671063,2497.55701 806,2504.61037 806,2514.13493 C806,2524.57688 795.741893,2529.98117 787.71828,2530.43907 L787.71828,2530.80651 C796.046414,2534.46887 799.805122,2539.78271 799.805122,2546.46783 C799.805122,2557.91683 790.663057,2569 766.189673,2569 L721.201682,2569 L722.41816,2564.60356 C726.482193,2564.32898 731.7619,2564.0536 733.591438,2557.45894 L746.995194,2510.10592 C747.199279,2509.55596 747.300518,2509.09807 747.300518,2508.54811 C747.300518,2502.86924 737.246497,2502.32089 730.442576,2502.32089 L726.380954,2502.32089 C713.382155,2502.41135 703.328134,2508.54811 703.328134,2521.00497 C703.328134,2526.13468 706.983192,2532.82141 713.686677,2532.82141 C719.067623,2532.82141 718.865948,2528.69874 719.372948,2525.12683 C719.982794,2520.91451 723.130852,2516.24269 728.817124,2516.24269 C732.777507,2516.24269 735.114848,2519.54002 735.114848,2522.83655 C735.114848,2531.53898 725.872347,2538.95818 715.312129,2538.95818 C703.428569,2538.95818 695,2531.7215 695,2521.27955 Z M642,2539 L660.860735,2539 C661.874813,2539 662.888891,2537.89051 662.990781,2536.59408 C663.192955,2531.4998 660.050435,2529 655.487884,2529 C650.112627,2529 645.245211,2533.53832 642,2539 Z M623.01295,2551.40162 C623.721236,2535.82677 638.507121,2523 655.521223,2523 C671.420816,2523 676.382028,2532.5286 675.977407,2541.23245 C675.874849,2543.24787 675.369274,2544.71319 674.357321,2544.71319 L638.810787,2544.71319 C638.1025,2546.91357 637.695475,2549.01947 637.595322,2550.94441 C637.190701,2559.73794 642.45638,2563.86166 648.633857,2563.86166 C654.913892,2563.86166 662.103321,2558.45599 665.243339,2553.78457 L671.724482,2556.16512 C668.280799,2562.12089 658.558683,2570 645.191776,2570 C631.722312,2570 622.608329,2562.30346 623.01295,2551.40162 Z M496,2511.13712 C496,2497.10525 511.207515,2491 526.617958,2491 C538.985293,2491 576.800352,2501.47752 586.024319,2501.47752 C592.91743,2501.47752 597.378622,2497.83396 597.378622,2497.83396 L601.839814,2497.83396 L593.322483,2527.99545 C595.756808,2525.80772 602.041137,2523.34762 608.023883,2523.34762 C615.120723,2523.34762 621,2526.7196 621,2533.55436 C621,2534.64623 620.899739,2535.92207 620.492281,2537.2895 L614.106889,2559.70674 C613.802899,2560.61703 613.498909,2561.61891 613.498909,2562.62158 C613.498909,2564.80931 617.24785,2564.89931 618.973133,2565.17327 L617.957695,2569 L598.797509,2569 L607.61883,2538.47296 C607.92282,2537.56267 608.023883,2536.65238 608.023883,2535.92207 C608.023883,2532.36771 605.184505,2530.82109 601.231834,2530.82109 C598.900176,2530.82109 594.539244,2532.64168 591.295616,2534.82941 L584.606234,2559.70674 C584.301442,2560.70862 583.997453,2561.61891 583.997453,2562.62158 C583.997453,2564.80931 587.850665,2564.89931 589.572739,2565.17327 L588.458645,2569 L562.910661,2569 L563.924495,2565.17327 C568.994469,2564.53614 570.412554,2564.89931 571.629315,2560.34307 L584.706495,2513.23327 C584.910224,2512.59455 585.011287,2511.86584 585.011287,2511.13712 C585.011287,2509.22416 583.894786,2508.31148 582.375638,2508.31148 C580.145042,2508.31148 577.813384,2508.58544 575.177735,2508.58544 C570.208824,2508.58544 565.647372,2508.31148 561.49017,2507.85673 L548.00874,2555.1505 C547.500218,2557.15505 546.791176,2559.43278 546.791176,2561.52732 C546.791176,2564.26298 551.149701,2564.62614 554.597861,2564.62614 L553.380297,2569 L519.825909,2569 L520.940004,2564.62614 C525.096404,2564.62614 530.671691,2562.98713 532.902287,2555.24049 L547.095968,2505.48662 C535.132883,2502.66337 527.123271,2499.01742 519.116065,2499.01742 C511.00539,2499.01742 503.200309,2503.93921 503.200309,2511.68426 C503.200309,2515.78495 506.545,2520.70435 511.511505,2520.70435 C514.046091,2520.70435 516.07376,2519.61168 517.594511,2517.97108 C519.116065,2516.2397 521.447723,2514.87227 524.691352,2514.87227 C528.036042,2514.87227 531.280473,2517.06079 531.280473,2520.24881 C531.280473,2524.62346 526.921948,2529.27129 517.695574,2529.27129 C506.037281,2529.27129 496,2522.25336 496,2511.13712 Z" id="1a-bdb"></path>
        </g>
    </g>
</svg>